<?xml version="1.0" standalone="no"?>
<!DOCTYPE svg PUBLIC "-//W3C//DTD SVG 20010904//EN"
 "http://www.w3.org/TR/2001/REC-SVG-20010904/DTD/svg10.dtd">
<svg version="1.0" xmlns="http://www.w3.org/2000/svg"
 width="170.000000pt" height="170.000000pt" viewBox="0 0 170.000000 170.000000"
 preserveAspectRatio="xMidYMid meet">
<metadata>
Created by potrace 1.11, written by Peter Selinger 2001-2013
</metadata>
<g transform="translate(0.000000,170.000000) scale(0.100000,-0.100000)"
fill="#000000" stroke="none">
<path d="M718 1334 c-79 -17 -279 -71 -312 -83 -39 -16 -243 -129 -286 -160
-58 -41 -90 -74 -90 -91 0 -9 19 -33 42 -53 l41 -36 28 24 c16 13 80 55 143
95 96 60 134 77 247 111 74 22 140 46 148 52 10 8 72 12 205 12 154 -1 200 -4
236 -18 25 -9 53 -17 62 -17 18 0 166 -58 229 -91 19 -9 69 -45 110 -78 41
-34 81 -61 91 -61 9 0 28 14 42 31 26 30 26 31 9 60 -36 60 -270 218 -356 239
-18 5 -63 18 -102 30 -38 12 -81 22 -95 22 -14 -1 -43 4 -65 11 -53 15 -260
16 -327 1z"/>
<path d="M965 1104 c-5 -1 -22 -5 -37 -8 -15 -4 -44 -20 -63 -38 l-36 -31 -27
32 c-16 19 -39 34 -58 37 -67 10 -173 -65 -189 -134 -8 -36 29 -120 77 -176
84 -99 171 -185 198 -196 40 -17 60 -3 204 139 130 127 132 132 104 239 -10
41 -92 141 -104 129 -3 -3 -18 -2 -32 2 -15 5 -31 7 -37 5z m53 -126 c5 -7 12
-28 15 -46 5 -28 0 -40 -31 -75 -20 -22 -63 -60 -95 -84 -69 -50 -67 -51 -162
40 -59 57 -65 66 -65 104 0 54 17 67 75 59 24 -4 47 -12 51 -17 12 -20 48 -27
59 -12 13 17 81 42 116 43 15 0 31 -6 37 -12z"/>
<path d="M34 738 c-18 -20 -29 -41 -26 -51 7 -30 170 -144 288 -202 196 -94
310 -123 499 -123 66 -1 147 3 181 9 33 5 85 12 115 15 158 17 378 97 479 173
19 14 52 38 73 51 21 14 40 35 43 46 6 22 -17 77 -37 89 -15 10 -64 -12 -130
-56 -100 -66 -259 -137 -351 -154 -9 -2 -52 -14 -95 -26 -65 -19 -98 -22 -203
-20 -69 1 -145 4 -170 8 -25 3 -56 6 -70 8 -19 1 -121 22 -150 30 -3 1 -18 5
-35 10 -67 18 -255 128 -328 192 -20 18 -41 33 -45 33 -4 0 -22 -15 -38 -32z"/>
</g>
</svg>
