<svg xmlns="http://www.w3.org/2000/svg" viewBox="0 0 63.13 63.78"><defs><style>.cls-1{fill:#ee694e;}.cls-2{fill:#e8ae01;}</style></defs><title>boat-icon</title><g id="Layer_2" data-name="Layer 2"><g id="Layer_1-2" data-name="Layer 1"><path class="cls-1" d="M60.22,43.24a14.78,14.78,0,0,1-2.73,6.11l-5.06-4.72a23.33,23.33,0,0,0,3.92,0A24.48,24.48,0,0,0,60.22,43.24Z" transform="translate(-0.25 -0.25)"/><path class="cls-1" d="M19.15,22.38c-.55,1.14-.7,1.18-1.63.5l-1.78-1.3.09-.15Z" transform="translate(-0.25 -0.25)"/><path class="cls-1" d="M21.65,53.07c-.59,1.14-1.11,2.32-1.76,3.49a24.5,24.5,0,0,1-1.38-7.1c-.06-2.52,1.08-4.69,1.6-7.06.83.76,1.64,1.54,2.49,2.27a15.81,15.81,0,0,0,1.84,1.42c.51.31.48.61.31,1.11C24,49.33,22.67,51.11,21.65,53.07Z" transform="translate(-0.25 -0.25)"/><path class="cls-1" d="M52.07,55.26c0,.05.06.12.17.31l-.49.34c-1.38,1-2.79,1.94-4.13,3a9.2,9.2,0,0,1-4.15,2c-1.67.28-3.31.77-5,1-2.24.34-4.5.63-6.76.8A31.62,31.62,0,0,1,28,62.6l1.19-4.48c.05-.18.08-.37.12-.56.52-2.66,1.06-5.32,1.55-8,.1-.58.34-.72.91-.64a8.91,8.91,0,0,0,4.74-.48c.82-.33,1.55-.88,2.35-1.29s1.69-.83,2.55-1.21a.65.65,0,0,1,.56.06c1.94,1.69,3.89,3.37,5.79,5.1C49.19,52.46,50.62,53.87,52.07,55.26Z" transform="translate(-0.25 -0.25)"/><path class="cls-1" d="M14,56.38a4.55,4.55,0,0,1,0,.47,3.68,3.68,0,0,1-.6-.35,45.42,45.42,0,0,1-3.82-3.64A44.3,44.3,0,0,1,5.31,47a24.38,24.38,0,0,1-1.83-4.81,32.83,32.83,0,0,1-1.12-7.11c-.21-1.9-.47-3.8-.54-5.71a28,28,0,0,1,.3-3.85c0-.39.16-.78.24-1.18L15.48,29.1c-1,1.88-.42,4-.27,6.1a23,23,0,0,1-.63,7.31c-.28,1.12-.81,2.17-1.2,3.26a10.78,10.78,0,0,0-.3,5.32C13.35,52.86,13.71,54.62,14,56.38Z" transform="translate(-0.25 -0.25)"/><path class="cls-1" d="M36.26,2.27c-.16.77-.35,1.43-.44,2.1-.26,2.09-.49,4.18-.74,6.27-.17,1.48-.36,3-.5,4.44,0,.54-.4.45-.7.47-1,.08-2.09,0-3.1.2-1.26.21-2.47.63-3.72.89a8.69,8.69,0,0,0-3.42,1.44,2.35,2.35,0,0,1-1.36.27,14.44,14.44,0,0,1-6.23-1.63,45.66,45.66,0,0,0-5.93-2.07c-1.16-.39-2.3-.82-3.59-1.28a16.82,16.82,0,0,1,4-3.51c1.21-.7,2.43-1.37,3.63-2.07,1.4-.83,2.77-1.72,4.2-2.5a40.06,40.06,0,0,1,4.82-2.4,16.55,16.55,0,0,1,8-1c.71.08,1.46-.1,2.18,0C34.35,1.92,35.27,2.12,36.26,2.27Z" transform="translate(-0.25 -0.25)"/><path class="cls-1" d="M41.2,18.21c-.19,0-.49,0-.55-.13-.33-.61-1.59-.15-1.45-1.23.24-1.85.57-3.69.77-5.55.26-2.27.43-4.55.64-6.82,0-.25,0-.51,0-.8a5.35,5.35,0,0,1,3.73.67c1.36.85,2.81,1.56,4.17,2.41.87.55,1.66,1.25,2.55,1.94-.79.71-1.57,1.36-2.28,2.07-1.93,1.94-3.84,3.91-5.77,5.85-.53.53-1.13,1-1.7,1.51C41.28,18.16,41.24,18.22,41.2,18.21Z" transform="translate(-0.25 -0.25)"/><path class="cls-1" d="M48.54,40.25a37.44,37.44,0,0,0-4.29.76l-.44,0a15.1,15.1,0,0,0,1.48-2.36A18.25,18.25,0,0,0,47,31.88a12.26,12.26,0,0,0-.26-3.1c-.58-2.16-1.34-4.26-2-6.45,1.37-.68,2.81-1.32,4.18-2.09,2.6-1.44,5.41-2.53,7.63-4.59.34-.31.65-.29.86.13a42.62,42.62,0,0,1,2.25,4.48A44,44,0,0,1,62,29.88a21.3,21.3,0,0,1-.31,6.37c-.62-.52-.9,0-1.21.38-.59.67-1.1,1.41-1.73,2a5.43,5.43,0,0,1-4.3,1.61A57.68,57.68,0,0,0,48.54,40.25Z" transform="translate(-0.25 -0.25)"/><path class="cls-2" d="M42.56,42.85a24.36,24.36,0,0,1,10.71-1.19A7.52,7.52,0,0,0,60,39.14c.31-.32.67-.58,1.2-1a28.91,28.91,0,0,1,0,3.11,1.56,1.56,0,0,1-.81,1,20.55,20.55,0,0,1-3.26,1.35,5.28,5.28,0,0,1-1.89-.07c-2-.21-4-.54-6-.62a11.91,11.91,0,0,0-3.9.49c-2.07.65-4.06,1.54-6.06,2.38-.92.38-1.8.89-2.71,1.31a3.42,3.42,0,0,1-.81.17c0-1.72.23-2.05,1.76-2.55C39.14,44.09,40.83,43.41,42.56,42.85Z" transform="translate(-0.25 -0.25)"/><path class="cls-2" d="M18.75,35.84a20.1,20.1,0,0,1,.13,5.64,51.4,51.4,0,0,1-1.3,5.66A11.8,11.8,0,0,0,17.33,49a20.09,20.09,0,0,0,.89,6.72c.41,1.43,1,2.8,1.51,4.2.16.44.27.89.44,1.48a4.78,4.78,0,0,1-3.33-2.28,17.81,17.81,0,0,1-2-7.32,26.34,26.34,0,0,1-.25-4.43,11.87,11.87,0,0,1,.8-3.11,21.17,21.17,0,0,0,1.28-8.41c-.1-1.52-.3-3-.43-4.56a3.24,3.24,0,0,1,.11-.75h.26a2.21,2.21,0,0,1,.3.45A26.73,26.73,0,0,1,18.75,35.84Z" transform="translate(-0.25 -0.25)"/><path class="cls-2" d="M16.18,18.15a15.26,15.26,0,0,0,4.45,1.13,11,11,0,0,0,5-1,28.12,28.12,0,0,1,3-.7,4.94,4.94,0,0,1-.6,1,19.86,19.86,0,0,1-2.49,2.11,5.29,5.29,0,0,1-2.1.75,12.71,12.71,0,0,1-8-1.34c-1.25-.65-2.62-1.07-3.91-1.66s-2.64-1.27-3.93-2c-.63-.33-1.19-.79-1.8-1.15a6.18,6.18,0,0,0-1-.41l-.14-.17a3.16,3.16,0,0,1,1-.25,10.2,10.2,0,0,1,1.79.45c1.26.38,2.54.74,3.78,1.19C12.88,16.76,14.56,17.41,16.18,18.15Z" transform="translate(-0.25 -0.25)"/><path class="cls-2" d="M40.61,24.36c1.39,1.42,2.71,2.91,4,4.38a7.16,7.16,0,0,1,.68,1.13,3.66,3.66,0,0,1-.63-.15c-2.63-1.19-5.08-2.69-6.45-5.31a37.91,37.91,0,0,1-2-5.5,6.39,6.39,0,0,1-.19-1.25c0-.14,0-.36,0-.4.87-.57.07-1-.1-1.46a3.9,3.9,0,0,1-.18-1.51c.35-3.21.75-6.42,1.14-9.63a12.66,12.66,0,0,0,.22-2.17,6.58,6.58,0,0,1,.73-.42,1,1,0,0,1,1.45.78,47.73,47.73,0,0,1-.05,5.86c-.25,2.63-.87,5.22-1.1,7.85C38,19.43,38.45,22.16,40.61,24.36Z" transform="translate(-0.25 -0.25)"/><path d="M57.49,49.35a14.78,14.78,0,0,0,2.73-6.11,24.48,24.48,0,0,1-3.87,1.35,23.33,23.33,0,0,1-3.92,0ZM48.5,44a17.12,17.12,0,0,0-4.9.93,4,4,0,0,0,.27.42c.74.68,1.51,1.34,2.24,2,1.61,1.55,3.19,3.14,4.81,4.69.74.71,1.53,1.38,2.32,2a.55.55,0,0,0,.54,0c.92-1,1.81-2,2.68-3.1a.65.65,0,0,0-.08-.64c-2-1.8-3.94-3.61-6-5.34A3.26,3.26,0,0,0,48.5,44ZM47,31.88a18.25,18.25,0,0,1-1.72,6.81,15.1,15.1,0,0,1-1.48,2.36l.44,0a37.44,37.44,0,0,1,4.29-.76,57.68,57.68,0,0,1,5.88,0,5.43,5.43,0,0,0,4.3-1.61c.63-.63,1.14-1.37,1.73-2,.31-.35.59-.9,1.21-.38A21.3,21.3,0,0,0,62,29.88a44,44,0,0,0-2.34-9.62,42.62,42.62,0,0,0-2.25-4.48c-.21-.42-.52-.44-.86-.13-2.22,2.06-5,3.15-7.63,4.59-1.37.77-2.81,1.41-4.18,2.09.7,2.19,1.46,4.29,2,6.45A12.26,12.26,0,0,1,47,31.88ZM15.21,35.2c-.15-2.09-.77-4.22.27-6.1L2.36,24.37c-.08.4-.2.79-.24,1.18a28,28,0,0,0-.3,3.85c.07,1.91.33,3.81.54,5.71a32.83,32.83,0,0,0,1.12,7.11A24.38,24.38,0,0,0,5.31,47a44.3,44.3,0,0,0,4.31,5.83,45.42,45.42,0,0,0,3.82,3.64,3.68,3.68,0,0,0,.6.35,4.55,4.55,0,0,0,0-.47c-.31-1.76-.67-3.52-.94-5.29a10.78,10.78,0,0,1,.3-5.32c.39-1.09.92-2.14,1.2-3.26A23,23,0,0,0,15.21,35.2Zm2.45-10.48L4.77,16.66c-.15.1-.21.12-.23.16a18.41,18.41,0,0,0-1.77,5.8c0,.16.23.47.41.54,1.47.58,2.94,1.12,4.42,1.65,1.22.44,2.44.87,3.68,1.27,1.54.5,3.1,1,4.66,1.41a.51.51,0,0,0,.46-.19C16.82,26.49,17.21,25.65,17.66,24.72Zm-1.61-8a14.44,14.44,0,0,0,6.23,1.63,2.35,2.35,0,0,0,1.36-.27,8.69,8.69,0,0,1,3.42-1.44c1.25-.26,2.46-.68,3.72-.89,1-.17,2.07-.12,3.1-.2.3,0,.66.07.7-.47.14-1.48.33-3,.5-4.44.25-2.09.48-4.18.74-6.27.09-.67.28-1.33.44-2.1-1-.15-1.91-.35-2.85-.43-.72-.06-1.47.12-2.18,0a16.55,16.55,0,0,0-8,1,40.06,40.06,0,0,0-4.82,2.4c-1.43.78-2.8,1.67-4.2,2.5-1.2.7-2.42,1.37-3.63,2.07a16.82,16.82,0,0,0-4,3.51c1.29.46,2.43.89,3.59,1.28A45.66,45.66,0,0,1,16.05,16.72Zm25.26,1.41c.57-.5,1.17-1,1.7-1.51,1.93-1.94,3.84-3.91,5.77-5.85.71-.71,1.49-1.36,2.28-2.07-.89-.69-1.68-1.39-2.55-1.94-1.36-.85-2.81-1.56-4.17-2.41a5.35,5.35,0,0,0-3.73-.67c0,.29,0,.55,0,.8C40.4,6.75,40.23,9,40,11.3c-.2,1.86-.53,3.7-.77,5.55-.14,1.08,1.12.62,1.45,1.23.06.11.36.1.55.13C41.24,18.22,41.28,18.16,41.31,18.13Zm3.12,8.62c-.51-3.31-2.36-5.74-5-7.81C39.67,22.6,42.33,24.49,44.43,26.75ZM30.81,49.57c-.49,2.67-1,5.33-1.55,8,0,.19-.07.38-.12.56L28,62.6a31.62,31.62,0,0,0,3.78.13c2.26-.17,4.52-.46,6.76-.8,1.67-.26,3.31-.75,5-1a9.2,9.2,0,0,0,4.15-2c1.34-1,2.75-2,4.13-3l.49-.34c-.11-.19-.13-.26-.17-.31-1.45-1.39-2.88-2.8-4.36-4.15-1.9-1.73-3.85-3.41-5.79-5.1a.65.65,0,0,0-.56-.06c-.86.38-1.72.78-2.55,1.21s-1.53,1-2.35,1.29a8.91,8.91,0,0,1-4.74.48C31.15,48.85,30.91,49,30.81,49.57ZM20.63,57.93a1,1,0,0,0,0,.67c.22.84.44,1.68.7,2.51.09.26.28.66.47.69,1.46.25,2.94.44,4.41.59a.72.72,0,0,0,.56-.43c.37-1.27.72-2.54,1-3.83.45-2.1.84-4.21,1.26-6.32.19-1,.39-2,.58-3a18.67,18.67,0,0,1-1.86-.59c-.55-.24-1.07-.58-1.54-.84-.94,1.66-1.87,3.21-2.72,4.81C22.52,54.06,21.57,56,20.63,57.93Zm42.75-26.5c-.34,2.25-.69,4.5-1,6.76a4.21,4.21,0,0,0,0,1.12,4,4,0,0,1-.57,2.84,4.81,4.81,0,0,0-.57,1.66,22.34,22.34,0,0,1-4.48,8.76A24.82,24.82,0,0,1,53.37,56c-1.21,1-2.61,1.87-3.92,2.8-1,.71-2,1.43-3,2.16a6.63,6.63,0,0,1-2.71,1.16c-1.92.37-3.83.9-5.77,1.15-4.15.55-8.31,1.18-12.5.28-1.31-.29-2.62-.58-3.95-.8-.8-.13-1.63-.07-2.42-.21a5.85,5.85,0,0,1-3.43-2.09A29.2,29.2,0,0,0,13.06,58a63.48,63.48,0,0,1-6.62-6.8,21.93,21.93,0,0,1-4-7.52A63,63,0,0,1,1.1,37.11c-.24-1.39-.38-2.8-.62-4.2a17.05,17.05,0,0,1,.23-6.75c.46-2,.74-4,1.23-5.95.31-1.23.87-2.39,1.29-3.58.06-.2,0-.46,0-.68s0-.78.2-1c.74-.84,1.61-1.56,2.35-2.4A18.41,18.41,0,0,1,11.64,8c1.33-.64,2.49-1.64,3.77-2.4C17.24,4.47,19.09,3.41,21,2.43A18,18,0,0,1,27,.56,15,15,0,0,1,31.87.4a19.54,19.54,0,0,0,2.76,0,11.64,11.64,0,0,1,2,.21,28.15,28.15,0,0,1,2.74.69c.53.16,1,.47,1.56.6a8.55,8.55,0,0,0,1.68.18A6,6,0,0,1,45.43,3.2c.84.52,1.77.89,2.58,1.44,1.56,1.05,3.13,2.12,4.59,3.3a25.68,25.68,0,0,1,5.07,5.59,37.8,37.8,0,0,1,2.61,4.76,30.66,30.66,0,0,1,1.89,6,31.62,31.62,0,0,1,1,5.77c0,.45,0,.9,0,1.35ZM42,19.07l.65.74c.22.25.46.48.66.74.65.85.66.85,1.61.35,2.48-1.31,5-2.56,7.44-3.93,1.35-.75,2.59-1.7,3.93-2.6a8.93,8.93,0,0,0-.7-1c-1.07-1.17-2.16-2.31-3.24-3.48-.32-.35-.56-.18-.82.07-1.52,1.42-3.08,2.81-4.56,4.26-1.3,1.27-2.53,2.63-3.8,3.93A15,15,0,0,1,42,19.07ZM17.52,22.88c.93.68,1.08.64,1.63-.5l-3.32-.95-.09.15ZM20.11,42.4c-.52,2.37-1.66,4.54-1.6,7.06a24.5,24.5,0,0,0,1.38,7.1c.65-1.17,1.17-2.35,1.76-3.49,1-2,2.39-3.74,3.1-5.87.17-.5.2-.8-.31-1.11a15.81,15.81,0,0,1-1.84-1.42C21.75,43.94,20.94,43.16,20.11,42.4ZM15.39,20.08a12.71,12.71,0,0,0,8,1.34,5.29,5.29,0,0,0,2.1-.75A19.86,19.86,0,0,0,28,18.56a4.94,4.94,0,0,0,.6-1,28.12,28.12,0,0,0-3,.7,11,11,0,0,1-5,1,15.26,15.26,0,0,1-4.45-1.13c-1.62-.74-3.3-1.39-5-2-1.24-.45-2.52-.81-3.78-1.19a10.2,10.2,0,0,0-1.79-.45,3.16,3.16,0,0,0-1,.25l.14.17a6.18,6.18,0,0,1,1,.41c.61.36,1.17.82,1.8,1.15,1.29.68,2.6,1.34,3.93,2S14.14,19.43,15.39,20.08ZM53.27,41.66a24.36,24.36,0,0,0-10.71,1.19c-1.73.56-3.42,1.24-5.15,1.81-1.53.5-1.81.83-1.76,2.55a3.42,3.42,0,0,0,.81-.17c.91-.42,1.79-.93,2.71-1.31,2-.84,4-1.73,6.06-2.38a11.91,11.91,0,0,1,3.9-.49c2,.08,4,.41,6,.62a5.28,5.28,0,0,0,1.89.07,20.55,20.55,0,0,0,3.26-1.35,1.56,1.56,0,0,0,.81-1,28.91,28.91,0,0,0,0-3.11c-.53.45-.89.71-1.2,1A7.52,7.52,0,0,1,53.27,41.66Zm-34.39-.18a20.1,20.1,0,0,0-.13-5.64A26.73,26.73,0,0,0,16.92,31a2.21,2.21,0,0,0-.3-.45h-.26a3.24,3.24,0,0,0-.11.75c.13,1.52.33,3,.43,4.56a21.17,21.17,0,0,1-1.28,8.41,11.87,11.87,0,0,0-.8,3.11,26.34,26.34,0,0,0,.25,4.43,17.81,17.81,0,0,0,2,7.32,4.78,4.78,0,0,0,3.33,2.28c-.17-.59-.28-1-.44-1.48-.5-1.4-1.1-2.77-1.51-4.2A20.09,20.09,0,0,1,17.33,49a11.8,11.8,0,0,1,.25-1.88A51.4,51.4,0,0,0,18.88,41.48ZM19.36,33a9.28,9.28,0,0,1,.78,2.55c.15,1.28.11,2.59.16,3.88a1.55,1.55,0,0,0,.15.76A12.94,12.94,0,0,0,22,42.08c.76.7,1.65,1.25,2.44,1.93a11.64,11.64,0,0,0,7,3.26c1,.06,1.91.16,2.9.25A3.64,3.64,0,0,1,36.21,44c.8-.39,1.66-.68,2.5-1a7.5,7.5,0,0,0,3.65-2.14,14.07,14.07,0,0,0,3.17-9.18A.64.64,0,0,0,45,31a12.06,12.06,0,0,1-4.06-1.93,11.47,11.47,0,0,1-4-4.17,19.51,19.51,0,0,1-2.2-7.07c0-.5-.21-.75-.74-.84a10.91,10.91,0,0,0-4.37.32c-.16.46-.18.86-.39,1.06A33.31,33.31,0,0,1,26,21.31a6.87,6.87,0,0,1-2.42,1,18,18,0,0,1-2.33.21,1.42,1.42,0,0,0-.94.45q-1.51,2.52-2.9,5.12c-.16.3-.22.93,0,1.1C18.48,30.27,18.8,31.71,19.36,33Zm25.28-4.28c-1.32-1.47-2.64-3-4-4.38-2.16-2.2-2.65-4.93-2.41-7.8.23-2.63.85-5.22,1.1-7.85a47.73,47.73,0,0,0,.05-5.86,1,1,0,0,0-1.45-.78,6.58,6.58,0,0,0-.73.42A12.66,12.66,0,0,1,37,4.66c-.39,3.21-.79,6.42-1.14,9.63A3.9,3.9,0,0,0,36,15.8c.17.49,1,.89.1,1.46-.07,0-.06.26,0,.4a6.39,6.39,0,0,0,.19,1.25,37.91,37.91,0,0,0,2,5.5c1.37,2.62,3.82,4.12,6.45,5.31a3.66,3.66,0,0,0,.63.15A7.16,7.16,0,0,0,44.64,28.74Z" transform="translate(-0.25 -0.25)"/></g></g></svg>