<svg xmlns="http://www.w3.org/2000/svg" viewBox="0 0 63.13 63.77"><title>boat-icon</title><g id="Layer_2" data-name="Layer 2"><g id="Layer_1-2" data-name="Layer 1"><path d="M63.13,31.17c-.34,2.26-.68,4.51-1,6.77a5.14,5.14,0,0,0,0,1.11,4,4,0,0,1-.56,2.84,5,5,0,0,0-.58,1.67,22.32,22.32,0,0,1-4.47,8.76,25.33,25.33,0,0,1-3.34,3.45c-1.22,1-2.61,1.87-3.92,2.8-1,.72-2,1.43-3,2.16a6.7,6.7,0,0,1-2.71,1.17c-1.93.36-3.83.9-5.77,1.15-4.15.54-8.32,1.17-12.5.27-1.32-.28-2.63-.57-3.95-.79-.8-.13-1.63-.07-2.43-.21a5.82,5.82,0,0,1-3.43-2.1,29.19,29.19,0,0,0-2.63-2.45A61.65,61.65,0,0,1,6.2,51a21.55,21.55,0,0,1-4-7.51A58.62,58.62,0,0,1,.86,36.86c-.25-1.39-.39-2.81-.62-4.2A16.92,16.92,0,0,1,.46,25.9c.46-2,.75-4,1.24-5.95C2,18.73,2.56,17.57,3,16.37c.07-.2,0-.45,0-.68s0-.77.2-1c.74-.84,1.61-1.56,2.35-2.41A18.45,18.45,0,0,1,11.4,7.71c1.33-.65,2.48-1.65,3.76-2.41C17,4.22,18.84,3.16,20.73,2.17a18.13,18.13,0,0,1,6-1.87A15.54,15.54,0,0,1,31.62.14a18.14,18.14,0,0,0,2.76,0,11.85,11.85,0,0,1,2,.2c.92.19,1.83.43,2.73.7.54.15,1,.46,1.56.59a7.94,7.94,0,0,0,1.68.19A5.93,5.93,0,0,1,45.18,3c.84.51,1.77.89,2.59,1.44,1.56,1.05,3.12,2.11,4.58,3.29a26.19,26.19,0,0,1,5.08,5.59A39.24,39.24,0,0,1,60,18a30.88,30.88,0,0,1,1.88,6,30.81,30.81,0,0,1,1,5.77c0,.45,0,.9,0,1.35ZM29.38,17.05c-.16.46-.19.85-.4,1.06a34.53,34.53,0,0,1-3.22,2.95,7.11,7.11,0,0,1-2.43,1A22.16,22.16,0,0,1,21,22.3a1.45,1.45,0,0,0-.94.45c-1,1.68-2,3.38-2.9,5.11-.16.31-.21.93,0,1.11,1.11,1.05,1.42,2.49,2,3.79a9.69,9.69,0,0,1,.77,2.56c.16,1.28.11,2.58.17,3.88a1.41,1.41,0,0,0,.15.75,11.82,11.82,0,0,0,1.5,1.87c.75.71,1.64,1.26,2.43,1.93a11.76,11.76,0,0,0,7,3.27c1,.06,1.92.16,2.9.24A3.62,3.62,0,0,1,36,43.78c.8-.4,1.65-.68,2.49-1a7.44,7.44,0,0,0,3.66-2.13,14.07,14.07,0,0,0,3.16-9.19c0-.44-.15-.63-.57-.72a12.1,12.1,0,0,1-4.07-1.93,11.63,11.63,0,0,1-4-4.17,19.7,19.7,0,0,1-2.2-7.07c0-.5-.21-.76-.74-.84A10.68,10.68,0,0,0,29.38,17.05ZM61.41,36a21.25,21.25,0,0,0,.32-6.36A44.11,44.11,0,0,0,59.39,20a49.34,49.34,0,0,0-2.25-4.48c-.22-.42-.53-.43-.86-.13-2.23,2.06-5,3.15-7.64,4.6-1.37.76-2.81,1.41-4.18,2.09.71,2.18,1.47,4.29,2,6.44a12.34,12.34,0,0,1,.25,3.1A18.16,18.16,0,0,1,45,38.44a15,15,0,0,1-1.48,2.35c.17,0,.31,0,.44,0A35.54,35.54,0,0,1,48.3,40a57.48,57.48,0,0,1,5.87,0,5.44,5.44,0,0,0,4.31-1.6c.62-.63,1.14-1.37,1.72-2C60.51,36,60.79,35.48,61.41,36ZM6.29,13.12c1.28.46,2.43.88,3.58,1.28a45.15,45.15,0,0,1,5.93,2.07A14.46,14.46,0,0,0,22,18.09a2.32,2.32,0,0,0,1.37-.26,8.79,8.79,0,0,1,3.42-1.45c1.24-.26,2.46-.67,3.71-.88,1-.17,2.07-.13,3.11-.2.3,0,.65.07.7-.47.13-1.48.33-3,.5-4.44.24-2.09.47-4.19.74-6.28.08-.67.27-1.32.43-2.09-1-.16-1.91-.35-2.84-.43-.73-.06-1.47.12-2.19,0a16.7,16.7,0,0,0-8,1A40.81,40.81,0,0,0,18.14,5c-1.43.78-2.79,1.68-4.2,2.5-1.2.71-2.42,1.38-3.62,2.08A16.24,16.24,0,0,0,6.29,13.12Zm-4.17,11a11,11,0,0,0-.25,1.19,31.19,31.19,0,0,0-.3,3.85c.08,1.91.33,3.8.54,5.7A32.92,32.92,0,0,0,3.23,42a24.05,24.05,0,0,0,1.83,4.8A44.54,44.54,0,0,0,9.37,52.6a44,44,0,0,0,3.83,3.64,3.68,3.68,0,0,0,.6.35c0-.23,0-.35,0-.46-.31-1.77-.66-3.52-.93-5.3a10.67,10.67,0,0,1,.29-5.32c.39-1.09.93-2.14,1.21-3.25A23.06,23.06,0,0,0,15,35c-.14-2.1-.76-4.23.28-6.1ZM52,55.31c-.1-.18-.12-.26-.17-.3-1.45-1.39-2.87-2.81-4.36-4.16-1.9-1.73-3.85-3.41-5.79-5.09a.65.65,0,0,0-.56-.07c-.86.38-1.72.78-2.55,1.22s-1.53,1-2.35,1.29a9,9,0,0,1-4.74.47c-.56-.08-.8.06-.91.65-.49,2.66-1,5.33-1.55,8,0,.19-.07.37-.11.55-.39,1.47-.79,2.94-1.2,4.48a29.72,29.72,0,0,0,3.78.14c2.26-.18,4.52-.46,6.76-.81,1.67-.26,3.31-.74,5-1a9.09,9.09,0,0,0,4.15-2c1.34-1,2.75-2,4.13-3ZM40.36,3.43c0,.29,0,.54,0,.79-.2,2.28-.38,4.56-.63,6.83-.21,1.85-.53,3.69-.77,5.54-.15,1.09,1.11.63,1.44,1.24.06.11.36.09.56.13,0,0,.07-.06.11-.09.57-.5,1.16-1,1.69-1.5,1.94-1.94,3.84-3.91,5.78-5.85.71-.71,1.48-1.36,2.27-2.08-.89-.68-1.67-1.38-2.55-1.93C46.9,5.66,45.45,5,44.09,4.1A5.29,5.29,0,0,0,40.36,3.43ZM26,47.11c-1,1.65-1.88,3.21-2.73,4.8-1,1.9-2,3.83-2.9,5.76a1.16,1.16,0,0,0,.05.68c.21.84.43,1.68.7,2.5.08.27.27.66.46.7,1.47.24,2.94.43,4.42.59a.75.75,0,0,0,.56-.43c.36-1.27.71-2.55,1-3.84.45-2.1.84-4.21,1.26-6.32.2-1,.39-2,.58-3-.69-.22-1.29-.35-1.85-.59A16.91,16.91,0,0,1,26,47.11Zm-8.6-22.64L4.52,16.4a2.55,2.55,0,0,0-.23.16,18.53,18.53,0,0,0-1.76,5.81c0,.15.22.46.41.54,1.46.57,2.94,1.12,4.42,1.65,1.21.44,2.44.87,3.67,1.27q2.33.74,4.67,1.41a.53.53,0,0,0,.46-.19C16.58,26.23,17,25.4,17.41,24.47Zm-1,5.83h-.25a2.79,2.79,0,0,0-.12.74c.13,1.53.33,3,.43,4.57A21,21,0,0,1,15.15,44a11.63,11.63,0,0,0-.79,3.12,27.42,27.42,0,0,0,.24,4.43,18.12,18.12,0,0,0,2,7.31,4.78,4.78,0,0,0,3.34,2.28c-.18-.59-.29-1-.44-1.47-.51-1.4-1.11-2.77-1.52-4.2a20.12,20.12,0,0,1-.88-6.72,10.87,10.87,0,0,1,.25-1.89,51.18,51.18,0,0,0,1.29-5.65,19.45,19.45,0,0,0-.13-5.65,28.06,28.06,0,0,0-1.82-4.83A3.28,3.28,0,0,0,16.37,30.3ZM56.08,14.11a9.21,9.21,0,0,0-.69-1c-1.07-1.17-2.17-2.32-3.24-3.48-.33-.35-.56-.19-.83.07-1.52,1.42-3.07,2.8-4.56,4.26-1.3,1.27-2.52,2.62-3.8,3.92a14.39,14.39,0,0,1-1.16.95l.64.75c.22.25.46.48.66.74.65.85.66.84,1.61.34,2.48-1.3,5-2.55,7.45-3.92C53.5,16,54.74,15,56.08,14.11Zm-11,15.5a7.33,7.33,0,0,0-.68-1.12c-1.33-1.48-2.65-3-4-4.38-2.15-2.2-2.65-4.93-2.4-7.8.22-2.63.85-5.22,1.1-7.85a47.73,47.73,0,0,0,0-5.86,1,1,0,0,0-1.45-.78,5.88,5.88,0,0,0-.73.41,13.89,13.89,0,0,1-.21,2.18c-.4,3.2-.79,6.41-1.15,9.62a3.68,3.68,0,0,0,.19,1.51c.16.5,1,.89.1,1.46-.08.05-.06.27-.05.41a5.82,5.82,0,0,0,.2,1.25,39.09,39.09,0,0,0,2,5.5c1.37,2.62,3.82,4.12,6.45,5.31A3.07,3.07,0,0,0,45.08,29.61Zm-1.72,15.1a2.28,2.28,0,0,0,.26.41c.75.69,1.52,1.34,2.24,2,1.62,1.56,3.2,3.14,4.81,4.69.75.72,1.54,1.39,2.33,2a.59.59,0,0,0,.53,0c.92-1,1.82-2,2.68-3.1a.67.67,0,0,0-.08-.65c-2-1.8-3.93-3.6-6-5.33a3.23,3.23,0,0,0-1.92-1.07A17.11,17.11,0,0,0,43.36,44.71Zm-23.5-2.57c-.52,2.37-1.66,4.55-1.6,7.06a25.18,25.18,0,0,0,1.38,7.1c.66-1.16,1.18-2.34,1.77-3.48,1-2,2.39-3.74,3.09-5.88.17-.5.2-.79-.3-1.11a15.67,15.67,0,0,1-1.85-1.42C21.5,43.68,20.69,42.91,19.86,42.14ZM4.37,14.49l.13.16a7.47,7.47,0,0,1,1,.41c.62.36,1.17.82,1.8,1.15,1.29.69,2.6,1.35,3.93,1.95s2.66,1,3.91,1.67a12.87,12.87,0,0,0,8,1.34,5.39,5.39,0,0,0,2.11-.75,21.61,21.61,0,0,0,2.48-2.11,4.77,4.77,0,0,0,.6-1c-1.13.26-2.07.4-3,.7a10.92,10.92,0,0,1-5,1,14.87,14.87,0,0,1-4.44-1.12c-1.63-.74-3.3-1.4-5-2-1.24-.46-2.52-.81-3.78-1.19a11.36,11.36,0,0,0-1.78-.46A3.06,3.06,0,0,0,4.37,14.49ZM60.93,37.86c-.52.45-.89.71-1.19,1A7.53,7.53,0,0,1,53,41.4a24.62,24.62,0,0,0-10.71,1.19c-1.74.57-3.43,1.25-5.16,1.81-1.53.5-1.8.83-1.76,2.56a4,4,0,0,0,.81-.17c.92-.42,1.79-.93,2.72-1.32,2-.83,4-1.73,6-2.38a11.73,11.73,0,0,1,3.91-.48c2,.07,4,.41,6,.61a5,5,0,0,0,1.88.08,20.7,20.7,0,0,0,3.27-1.36,1.55,1.55,0,0,0,.81-1A29.06,29.06,0,0,0,60.93,37.86ZM57.25,49.09A14.77,14.77,0,0,0,60,43a24.73,24.73,0,0,1-3.86,1.35,22.44,22.44,0,0,1-3.93.05ZM39.13,18.68c.29,3.67,3,5.55,5.06,7.82C43.68,23.18,41.82,20.75,39.13,18.68ZM18.9,22.13l-3.32-1-.09.16,1.79,1.3C18.21,23.3,18.36,23.26,18.9,22.13Z"/></g></g></svg>