<svg xmlns="http://www.w3.org/2000/svg" viewBox="0 0 60.46 67.42"><defs><style>.cls-1{fill:#e8ae01;}.cls-2{fill:#ee694e;}</style></defs><title>body-recovery-icon</title><g id="Layer_2" data-name="Layer 2"><g id="Layer_1-2" data-name="Layer 1"><path class="cls-1" d="M3.83,46.73c1.21,0,1.29.1,1.13,1.19a14.75,14.75,0,0,0-.07,5.3,7.7,7.7,0,0,1,0,1.45,2.92,2.92,0,0,1-1-2.31c0-1.76-.08-3.52-.11-5.28A1.39,1.39,0,0,1,3.83,46.73Z" transform="translate(-0.25 -0.25)"/><path class="cls-1" d="M4.54,29.63c.15,2.95.31,5.91.46,9-.52-.14-.94-.23-1.33-.38a.51.51,0,0,1-.23-.43c0-.48.14-1,.19-1.44.11-.9.19-1.8.3-2.7s.21-1.64.32-2.45c.06-.51.14-1,.21-1.51Z" transform="translate(-0.25 -0.25)"/><path d="M60,32.25a7.7,7.7,0,0,1,.63,4.49,6,6,0,0,1-.34,2.52C59.4,41,60,42.84,60.1,44.63a15.28,15.28,0,0,1-.59,5.28,6.35,6.35,0,0,1-3.36,3.93,1.17,1.17,0,0,1-.54.21c-1,0-.86.63-.7,1.23A15.57,15.57,0,0,1,55.19,61a1.35,1.35,0,0,1-.41.73,11.32,11.32,0,0,1-5,2.75,43.32,43.32,0,0,1-5.35,1.64,23.1,23.1,0,0,1-4.48,0c-1.36,0-2.71-.1-4.06-.07s-2.42.15-3.63.26a3.72,3.72,0,0,1-3.14-1.24c-.51-.54-.8-.57-1.5-.06a11.38,11.38,0,0,1-3.47,1.58c-1.36.41-2.82.49-4.2.87a6.58,6.58,0,0,1-5-.78c-1.74-.92-3.52-1.76-5.2-2.78a31.13,31.13,0,0,1-3.5-2.57c-.94-.76-.8-1.91-.89-3a13.66,13.66,0,0,0-.27-1.66.37.37,0,0,0-.26-.21A2.61,2.61,0,0,1,3,54.79a7.19,7.19,0,0,1-.45-2.32c-.09-1.1-.09-2.2-.13-3.3,0-.72-.05-1.45-.1-2.17a1.34,1.34,0,0,0-1-1.43C.2,45.22.11,44.84.39,43.69a2,2,0,0,0,0-.35c0-1-.07-1.94-.07-2.91S.34,38.79.4,38c0-.18.2-.35.41-.68l.27.67,1-.43a12.12,12.12,0,0,0,.61-3.65c.1-1.61.38-3.21.56-4.82.13-1.15.22-2.31.3-3.47.1-1.5.11-3,.3-4.49a16.06,16.06,0,0,1,.76-2.35c.17-.55.28-1.12.42-1.68,0-.12,0-.26,0-.36.83-1.56.73-3.47,1.91-4.89S9.15,9,10.33,7.71a3.78,3.78,0,0,0,1.22-3.4,2.13,2.13,0,0,1,2.16-2.59c2.86-.26,5.72-.44,8.58-.62s6-.33,9-.46C33.5.54,35.77.5,38,.42c1.53,0,3.06-.23,4.58-.15,1.91.1,3.81.43,5.72.61a6,6,0,0,1,3,.86c.08.05.21.08.24.15.52,1,1.64,1.07,2.48,1.56a3.16,3.16,0,0,1,1.53,2.1c.35,1.36.87,2.67,1.13,4s.35,2.88.49,4.33c.1,1.08.09,2.19.27,3.26.48,2.72,1.09,5.41,1.55,8.13.32,1.85.45,3.73.69,5.6A3.78,3.78,0,0,0,60,32.25ZM58.2,48.79A12.14,12.14,0,0,0,58.28,44c-.07-.8-.12-1.61-.19-2.61L56.21,43l.88.35c0,.07,0,.13,0,.19l-1.65.1c0,.06,0,.13,0,.19l.35.32c-1.1.52-1.28.79-1.36,2a1.54,1.54,0,0,1-.06.43c-.73,2.09-.06,4.11.34,6.14,0,.14.38.36.5.31a3.42,3.42,0,0,0,2.36-2.08C57.76,50.22,58,49.5,58.2,48.79Zm-.28-16.57c0-1.67-.12-3.34-.22-5a17.18,17.18,0,0,0-.28-2.38c-.48-2.47-1-4.93-1.48-7.4-.21-1.13-.18-2.31-.28-3.46a18.41,18.41,0,0,0-.46-4,31.14,31.14,0,0,1-1.13-4.13,5.74,5.74,0,0,0-.7-1.46l-.29.06c.4,1.19-.6,1.7-1.14,2.45a5.38,5.38,0,0,1,1.55,3c.42,2,.74,4.06,1,6.1.16,1,.27,2,.33,3.07.15,2.28.26,4.56.37,6.84.09,1.61.18,3.22.23,4.83,0,1,0,2.07,0,3.19a4.94,4.94,0,0,0,.52-.19A11,11,0,0,0,57.48,33,1.12,1.12,0,0,0,57.92,32.22Zm-3.77,2.66c.07-2.19.19-4.37.16-6.55,0-1.48-.24-2.95-.34-4.43-.08-1.23,0-2.48-.17-3.7-.48-3.34-1-6.67-1.62-10a6,6,0,0,0-1.08-2.5c-.65-.86-.76-1,0-1.7a1.55,1.55,0,0,0,.64-1.64,3.19,3.19,0,0,0-3.2-2.73c-1,0-2-.17-3-.24-1.38-.11-2.76-.28-4.14-.29s-2.51.17-3.77.24L24.87,2c-2.55.12-5.09.25-7.64.4-1.07.07-2.13.15-3.19.3a1.21,1.21,0,0,0-1.18,1.52c.38,2-.56,3.36-1.92,4.66-2.44,2.31-4.17,5-4.3,8.52-.08,2.35-.41,4.69-.56,7C6,25.9,6,27.37,6,28.85s.12,3,.21,4.56c.12,1.89.27,3.78.4,5.57a7.23,7.23,0,0,1,1.14.35c.43.22.81.52,1.22.76.91.54,1.25.36,1.33-.67,0-.34,0-.68,0-1,0-.73.06-1.45.13-2.17a.85.85,0,0,1,.88-.8l4.5-.47a1.63,1.63,0,0,1,1.68.62c.33.49.72,1,1.19,1.57.22-.59.43-1,.55-1.51a.93.93,0,0,1,1-.81c1.15,0,2.3,0,3.45.11a2.1,2.1,0,0,1,1.32.42,3.6,3.6,0,0,1,.87,2.42.62.62,0,0,0,.37.47,6.36,6.36,0,0,0,1.24.11c.49,0,.73-.2.72-.75,0-.92,0-1.85,0-2.77a2.25,2.25,0,0,0-.19-.68,4.62,4.62,0,0,1-.32-.85c-.12-.83-.19-1.67-.27-2.5a4.38,4.38,0,0,0-2-3c-1.27-.93-2.83-1.48-4.1-2.41C19.26,23.82,17.63,22,17.9,19a12.47,12.47,0,0,1,1.43-4.68,6.54,6.54,0,0,1,3.92-3.18c1.07-.32,2.13-.66,3.18-1,3.31-1.16,6.45-.33,9.5.91a53,53,0,0,1,5.39,2.68,4,4,0,0,1,1.82,1.64,5.88,5.88,0,0,1-.39,4.25,14,14,0,0,1-1.46,2.65A6.74,6.74,0,0,1,38,25.16a24.93,24.93,0,0,0-7.13,3.74,2.26,2.26,0,0,0-.56.55,7.82,7.82,0,0,0-1,4.26c0,1.28,0,2.57,0,3.86,0,.89.33,1.16,1.19,1,.49-.13,1.13-.39,1.5-.2a2,2,0,0,0,1.74,0,21.14,21.14,0,0,0,5.59-3.22,34.37,34.37,0,0,0,4.81-4.22c1.59-1.65,3-3.48,4.47-5.24a1.27,1.27,0,0,1,2-.07c.82.92,1.65,1.82,2.42,2.77a4.37,4.37,0,0,1,.69,1.34c.1.31.08.68-.47.66a1,1,0,0,0-.71.29c-.71.92-1.36,1.87-2,2.81l.17.14.71-.61.21.21-3.47,4c0,.06,0,.12.07.19a27.48,27.48,0,0,0,3.27-.68,14.64,14.64,0,0,0,2.55-1.31A.61.61,0,0,0,54.15,34.88Zm-.47,26.23A8.69,8.69,0,0,0,54,59c-.05-1.39-.23-2.78-.37-4.18a24.71,24.71,0,0,0-.35-3.1,11.29,11.29,0,0,1-.24-5.1c0-.24.08-.49.14-.93-.84.41-1.52.71-2.16,1.07-.83.46-1.77.49-2-.14a16,16,0,0,1-2,.91c-.81.25-1.68.32-2.49.57s-1.61-.42-2.34.17-1.54-.26-2.31.35c-.33.27-1-.19-1.65.19a1.75,1.75,0,0,1-1.37,0c-.29-.14-.79.29-1.19.28-1.76-.05-3.52-.16-5.27-.26-.53,0-1.48.37-1.49.71-.05,1.25-.09,2.52-.07,3.78,0,1.62.14,3.23.15,4.85,0,1.45-.1,2.89-.1,4.33a2.34,2.34,0,0,0,1,2.17,2.88,2.88,0,0,0,1.85.63c.79-.07,1.6,0,2.39-.09,1.17-.07,2.33-.23,3.49-.23,1.85,0,3.71.13,5.56.17A5.42,5.42,0,0,0,44.92,65c1.92-.59,3.85-1.19,5.74-1.9a19.27,19.27,0,0,0,2.67-1.46A.9.9,0,0,0,53.68,61.11ZM41.93,17.52a2.62,2.62,0,0,0-1.56-3.28c-.66-.31-1.34-.56-2-.85-1-.43-2-.92-3.07-1.31a40.06,40.06,0,0,0-4.14-1.36C29,10.17,27,10.9,25,11.6a10.12,10.12,0,0,0-2.72,1.64c-.67.53-1.09,1.37-1.76,1.89a2.75,2.75,0,0,0-1.05,1.67c-.19.85-.29,1.72-.43,2.58-.34,2.06.79,3.6,2.18,4.74a25.37,25.37,0,0,0,5,2.94,6.8,6.8,0,0,1,2.7,2A26.9,26.9,0,0,1,37,24.33a3.6,3.6,0,0,0,1.34-.85A11.68,11.68,0,0,0,41.93,17.52Zm-14,42.24c0-1.75,0-3.5,0-5.26,0-1.4,0-2.81-.06-4.22a4.7,4.7,0,0,0-.16-.82l-2.49.23A10.32,10.32,0,0,1,25,51a4.93,4.93,0,0,1-.52,1c-.08.14-.27.25-.28.38,0,.65-.44.88-1,.9-.85,0-1.69,0-2.54-.05-1.27-.07-1.65-.43-1.86-1.66a4.55,4.55,0,0,0-.21-1,6.15,6.15,0,0,0-.77-1.43c-.38-.47-.8-.33-1,.22s-.38,1.38-.57,2.08c-.36,1.34-.51,1.45-1.87,1.41a13.55,13.55,0,0,1-3.54-.7c-.9-.27-.84-.67-.89-1.3-.07-1-.21-1.94-.32-2.92-1.22.58-2.12-.38-3.19-.3a5,5,0,0,0-.18.51,21.19,21.19,0,0,0,.12,7.15,11.26,11.26,0,0,1,.35,3A2.83,2.83,0,0,0,7.85,61.1c1.51,1,3,2,4.56,3,1,.61,2.05,1.11,3.06,1.7,1.34.78,2.7,1.31,4.25.58a4.66,4.66,0,0,1,.93-.21c1.76-.4,3.63-.39,5.21-1.45a4,4,0,0,0,2.05-3.47C27.91,60.73,27.92,60.24,27.92,59.76ZM5,47.92c.16-1.09.08-1.2-1.13-1.19a1.39,1.39,0,0,0,0,.35c0,1.76.06,3.52.11,5.28a2.92,2.92,0,0,0,1,2.31,7.7,7.7,0,0,0,0-1.45A14.75,14.75,0,0,1,5,47.92Zm0-9.34c-.15-3-.31-6-.46-8.95l-.08,0c-.07.5-.15,1-.21,1.51-.11.81-.22,1.63-.32,2.45s-.19,1.8-.3,2.7c0,.48-.16,1-.19,1.44a.51.51,0,0,0,.23.43C4.06,38.35,4.48,38.44,5,38.58Z" transform="translate(-0.25 -0.25)"/><path class="cls-1" d="M58.28,44a12.14,12.14,0,0,1-.08,4.84c-.23.71-.44,1.43-.69,2.14A3.42,3.42,0,0,1,55.15,53c-.12.05-.47-.17-.5-.31-.4-2-1.07-4.05-.34-6.14a1.54,1.54,0,0,0,.06-.43c.08-1.19.26-1.46,1.36-2l-.35-.32c0-.06,0-.13,0-.19l1.65-.1c0-.06,0-.12,0-.19L56.21,43l1.88-1.66C58.16,42.34,58.21,43.15,58.28,44Z" transform="translate(-0.25 -0.25)"/><path class="cls-1" d="M57.7,27.21c.1,1.67.18,3.34.22,5a1.12,1.12,0,0,1-.44.78,11,11,0,0,1-1.48.79,4.94,4.94,0,0,1-.52.19c0-1.12,0-2.16,0-3.19,0-1.61-.14-3.22-.23-4.83-.11-2.28-.22-4.56-.37-6.84-.06-1-.17-2.06-.33-3.07-.31-2-.63-4.08-1-6.1a5.38,5.38,0,0,0-1.55-3c.54-.75,1.54-1.26,1.14-2.45l.29-.06a5.74,5.74,0,0,1,.7,1.46A31.14,31.14,0,0,0,55.2,10a18.41,18.41,0,0,1,.46,4c.1,1.15.07,2.33.28,3.46.44,2.47,1,4.93,1.48,7.4A17.18,17.18,0,0,1,57.7,27.21Z" transform="translate(-0.25 -0.25)"/><path class="cls-2" d="M54.31,28.33c0,2.18-.09,4.36-.16,6.55a.61.61,0,0,1-.24.45,14.64,14.64,0,0,1-2.55,1.31,27.48,27.48,0,0,1-3.27.68c0-.07-.05-.13-.07-.19l3.47-4-.21-.21-.71.61-.17-.14c.67-.94,1.32-1.89,2-2.81a1,1,0,0,1,.71-.29c.55,0,.57-.35.47-.66a4.37,4.37,0,0,0-.69-1.34c-.77-.95-1.6-1.85-2.42-2.77a1.27,1.27,0,0,0-2,.07c-1.47,1.76-2.88,3.59-4.47,5.24a34.37,34.37,0,0,1-4.81,4.22,21.14,21.14,0,0,1-5.59,3.22,2,2,0,0,1-1.74,0c-.37-.19-1,.07-1.5.2-.86.21-1.21-.06-1.19-1,0-1.29.05-2.58,0-3.86a7.82,7.82,0,0,1,1-4.26,2.26,2.26,0,0,1,.56-.55A24.93,24.93,0,0,1,38,25.16a6.74,6.74,0,0,0,3.33-2.92,14,14,0,0,0,1.46-2.65,5.88,5.88,0,0,0,.39-4.25,4,4,0,0,0-1.82-1.64A53,53,0,0,0,35.93,11c-3-1.24-6.19-2.07-9.5-.91-1.05.37-2.11.71-3.18,1a6.54,6.54,0,0,0-3.92,3.18A12.47,12.47,0,0,0,17.9,19c-.27,3,1.36,4.82,3.48,6.37,1.27.93,2.83,1.48,4.1,2.41a4.38,4.38,0,0,1,2,3c.08.83.15,1.67.27,2.5a4.62,4.62,0,0,0,.32.85,2.25,2.25,0,0,1,.19.68c0,.92-.07,1.85,0,2.77,0,.55-.23.76-.72.75a6.36,6.36,0,0,1-1.24-.11.62.62,0,0,1-.37-.47,3.6,3.6,0,0,0-.87-2.42,2.1,2.1,0,0,0-1.32-.42c-1.15-.08-2.3-.07-3.45-.11a.93.93,0,0,0-1,.81c-.12.47-.33.92-.55,1.51-.47-.62-.86-1.08-1.19-1.57A1.63,1.63,0,0,0,15.82,35l-4.5.47a.85.85,0,0,0-.88.8c-.07.72-.09,1.44-.13,2.17,0,.34,0,.68,0,1-.08,1-.42,1.21-1.33.67-.41-.24-.79-.54-1.22-.76A7.23,7.23,0,0,0,6.58,39c-.13-1.79-.28-3.68-.4-5.57-.09-1.52-.19-3-.21-4.56s0-3,.11-4.42c.15-2.35.48-4.69.56-7,.13-3.53,1.86-6.21,4.3-8.52,1.36-1.3,2.3-2.66,1.92-4.66A1.21,1.21,0,0,1,14,2.69c1.06-.15,2.12-.23,3.19-.3,2.55-.15,5.09-.28,7.64-.4l12.74-.63c1.26-.07,2.52-.25,3.77-.24s2.76.18,4.14.29c1,.07,2,.19,3,.24a3.19,3.19,0,0,1,3.2,2.73A1.55,1.55,0,0,1,51.13,6c-.79.75-.68.84,0,1.7a6,6,0,0,1,1.08,2.5c.61,3.31,1.14,6.64,1.62,10,.17,1.22.09,2.47.17,3.7C54.07,25.38,54.3,26.85,54.31,28.33Z" transform="translate(-0.25 -0.25)"/><path class="cls-2" d="M54,59a8.69,8.69,0,0,1-.34,2.07.9.9,0,0,1-.35.52,19.27,19.27,0,0,1-2.67,1.46c-1.89.71-3.82,1.31-5.74,1.9a5.42,5.42,0,0,1-1.66.17c-1.85,0-3.71-.16-5.56-.17-1.16,0-2.32.16-3.49.23-.79,0-1.6,0-2.39.09A2.88,2.88,0,0,1,30,64.68a2.34,2.34,0,0,1-1-2.17c0-1.44.11-2.88.1-4.33,0-1.62-.13-3.23-.15-4.85,0-1.26,0-2.53.07-3.78,0-.34,1-.74,1.49-.71,1.75.1,3.51.21,5.27.26.4,0,.9-.42,1.19-.28a1.75,1.75,0,0,0,1.37,0c.6-.38,1.32.08,1.65-.19.77-.61,1.62.22,2.31-.35s1.56,0,2.34-.17,1.68-.32,2.49-.57a16,16,0,0,0,2-.91c.22.63,1.16.6,2,.14.64-.36,1.32-.66,2.16-1.07-.06.44-.09.69-.14.93a11.29,11.29,0,0,0,.24,5.1,24.71,24.71,0,0,1,.35,3.1C53.79,56.26,54,57.65,54,59Z" transform="translate(-0.25 -0.25)"/><path class="cls-2" d="M27.92,54.5c0,1.76,0,3.51,0,5.26,0,.48,0,1,0,1.45a4,4,0,0,1-2.05,3.47c-1.58,1.06-3.45,1-5.21,1.45a4.66,4.66,0,0,0-.93.21c-1.55.73-2.91.2-4.25-.58-1-.59-2.07-1.09-3.06-1.7-1.54-1-3.05-2-4.56-3a2.83,2.83,0,0,1-1.13-2.84,11.26,11.26,0,0,0-.35-3,21.19,21.19,0,0,1-.12-7.15,5,5,0,0,1,.18-.51c1.07-.08,2,.88,3.19.3.11,1,.25,1.95.32,2.92.05.63,0,1,.89,1.3a13.55,13.55,0,0,0,3.54.7c1.36,0,1.51-.07,1.87-1.41.19-.7.34-1.4.57-2.08s.6-.69,1-.22a6.15,6.15,0,0,1,.77,1.43,4.55,4.55,0,0,1,.21,1c.21,1.23.59,1.59,1.86,1.66.85.05,1.69.07,2.54.05.54,0,1-.25,1-.9,0-.13.2-.24.28-.38A4.93,4.93,0,0,0,25,51a10.32,10.32,0,0,0,.26-1.31l2.49-.23a4.7,4.7,0,0,1,.16.82C27.9,51.69,27.91,53.1,27.92,54.5Z" transform="translate(-0.25 -0.25)"/></g></g></svg>