<svg xmlns="http://www.w3.org/2000/svg" viewBox="0 0 60.46 67.43"><title>body-recovery-icon</title><g id="Layer_2" data-name="Layer 2"><g id="Layer_1-2" data-name="Layer 1"><path d="M.56,37.05l.26.67,1-.44a11.77,11.77,0,0,0,.6-3.65c.11-1.61.39-3.2.57-4.81.12-1.16.21-2.32.3-3.48.1-1.5.11-3,.3-4.49a14.89,14.89,0,0,1,.75-2.35c.17-.55.29-1.12.42-1.68,0-.12,0-.26,0-.36.83-1.55.73-3.47,1.91-4.89S8.9,8.78,10.07,7.46A3.74,3.74,0,0,0,11.3,4.07a2.13,2.13,0,0,1,2.16-2.6C16.31,1.22,19.18,1,22,.86s6-.33,9-.46C33.25.3,35.51.25,37.77.17,39.3.12,40.84-.06,42.36,0c1.91.1,3.81.43,5.72.61a6,6,0,0,1,3,.86c.08.06.21.08.25.15.51,1,1.63,1.08,2.48,1.56a3.19,3.19,0,0,1,1.52,2.11c.36,1.35.87,2.67,1.14,4s.35,2.89.49,4.33c.1,1.09.08,2.19.27,3.26.48,2.72,1.09,5.41,1.55,8.14.31,1.85.45,3.73.69,5.59A3.73,3.73,0,0,0,59.77,32a7.78,7.78,0,0,1,.63,4.49A6.11,6.11,0,0,1,60.06,39c-.92,1.75-.32,3.58-.21,5.37a15.49,15.49,0,0,1-.59,5.28,6.36,6.36,0,0,1-3.37,3.93,1.19,1.19,0,0,1-.54.22c-1,0-.85.63-.7,1.23a15.31,15.31,0,0,1,.29,5.68,1.44,1.44,0,0,1-.41.74,11.37,11.37,0,0,1-5,2.75,45.1,45.1,0,0,1-5.35,1.64,24,24,0,0,1-4.49,0c-1.35,0-2.7-.1-4.06-.07s-2.42.16-3.63.26a3.69,3.69,0,0,1-3.13-1.23c-.51-.55-.8-.57-1.5-.06a11.82,11.82,0,0,1-3.48,1.58c-1.36.41-2.82.48-4.19.86a6.58,6.58,0,0,1-5-.78c-1.74-.92-3.52-1.76-5.21-2.77A33.32,33.32,0,0,1,6,61.09c-.95-.77-.8-1.91-.89-3a15.54,15.54,0,0,0-.28-1.66.37.37,0,0,0-.25-.22,2.61,2.61,0,0,1-1.85-1.7,7.46,7.46,0,0,1-.44-2.32c-.1-1.09-.1-2.19-.14-3.29,0-.73,0-1.45-.09-2.18a1.36,1.36,0,0,0-1-1.43C0,45-.15,44.59.13,43.44a1,1,0,0,0,0-.35c0-1-.06-1.94-.07-2.91s0-1.64.08-2.46C.15,37.55.35,37.38.56,37.05Zm47.21-.17.07.19a25.63,25.63,0,0,0,3.27-.68,15.22,15.22,0,0,0,2.54-1.3.6.6,0,0,0,.24-.46c.08-2.18.19-4.37.17-6.55,0-1.48-.25-2.95-.34-4.43-.08-1.23,0-2.48-.18-3.7-.47-3.33-1-6.66-1.61-10a6.11,6.11,0,0,0-1.08-2.49c-.65-.87-.76-1,0-1.7a1.56,1.56,0,0,0,.65-1.65,3.18,3.18,0,0,0-3.2-2.72c-1-.06-2-.17-3-.25-1.38-.11-2.76-.27-4.14-.28s-2.52.17-3.78.23c-4.24.22-8.49.42-12.73.63-2.55.13-5.1.25-7.64.41-1.07.06-2.14.14-3.2.29A1.21,1.21,0,0,0,12.61,4c.37,2-.56,3.36-1.92,4.65-2.44,2.31-4.17,5-4.3,8.53-.09,2.35-.41,4.69-.57,7-.09,1.47-.12,2.95-.11,4.42s.12,3,.22,4.56c.12,1.9.27,3.79.4,5.57a7.23,7.23,0,0,1,1.14.35c.43.22.81.52,1.22.77.9.53,1.25.35,1.33-.68,0-.34,0-.68,0-1,0-.72,0-1.45.12-2.17a.86.86,0,0,1,.89-.79c1.5-.15,3-.33,4.5-.47a1.63,1.63,0,0,1,1.68.61c.33.49.71,1,1.19,1.57A14.37,14.37,0,0,0,19,35.39a.91.91,0,0,1,1-.8c1.15,0,2.31,0,3.46.11a2.06,2.06,0,0,1,1.32.41,3.67,3.67,0,0,1,.87,2.43A.61.61,0,0,0,26,38a6.32,6.32,0,0,0,1.23.1c.49,0,.74-.19.72-.75,0-.92.05-1.84,0-2.76a2.1,2.1,0,0,0-.19-.68,4.71,4.71,0,0,1-.32-.86c-.12-.83-.18-1.67-.27-2.5a4.34,4.34,0,0,0-2-3c-1.27-.93-2.83-1.48-4.11-2.41-2.11-1.54-3.74-3.4-3.48-6.36a12.37,12.37,0,0,1,1.44-4.68A6.49,6.49,0,0,1,23,10.89c1.07-.31,2.13-.66,3.18-1,3.3-1.15,6.44-.33,9.49.91a51,51,0,0,1,5.39,2.68,4.06,4.06,0,0,1,1.83,1.65,5.89,5.89,0,0,1-.4,4.25A13.58,13.58,0,0,1,41,22a6.68,6.68,0,0,1-3.33,2.92,25.21,25.21,0,0,0-7.13,3.75,2,2,0,0,0-.56.55A7.69,7.69,0,0,0,29,33.46c.05,1.28,0,2.57,0,3.86,0,.89.33,1.17,1.18,1,.5-.12,1.14-.39,1.5-.2a2.05,2.05,0,0,0,1.75,0A21.22,21.22,0,0,0,39,34.81a33.13,33.13,0,0,0,4.8-4.22c1.6-1.65,3-3.47,4.48-5.23a1.27,1.27,0,0,1,2-.07c.81.91,1.65,1.81,2.41,2.76a4.21,4.21,0,0,1,.69,1.35c.11.3.09.68-.46.66a1,1,0,0,0-.72.29c-.7.91-1.35,1.86-2,2.8l.17.14.7-.61.22.21Zm1,9.54a18.22,18.22,0,0,1-2,.9c-.81.26-1.68.33-2.5.57s-1.61-.42-2.33.18-1.54-.27-2.31.35c-.33.26-1-.19-1.66.18a1.69,1.69,0,0,1-1.36,0c-.3-.13-.8.29-1.2.28-1.75-.05-3.51-.16-5.27-.26-.52,0-1.47.37-1.48.71-.05,1.26-.09,2.52-.08,3.78,0,1.62.15,3.24.16,4.86,0,1.44-.1,2.88-.11,4.32a2.35,2.35,0,0,0,1.06,2.17,2.8,2.8,0,0,0,1.84.63c.8-.06,1.6,0,2.4-.09,1.16-.06,2.32-.23,3.48-.23,1.86,0,3.71.13,5.57.17a5.35,5.35,0,0,0,1.65-.16c1.93-.59,3.86-1.2,5.74-1.91a16.93,16.93,0,0,0,2.67-1.46.82.82,0,0,0,.36-.51,8.86,8.86,0,0,0,.34-2.07c-.05-1.4-.23-2.79-.37-4.18a24.66,24.66,0,0,0-.35-3.11,11.42,11.42,0,0,1-.25-5.1c.06-.24.08-.49.15-.93-.84.41-1.52.71-2.17,1.07C50,47,49,47,48.8,46.42ZM28.62,28.77a26.62,26.62,0,0,1,8.14-4.68,3.91,3.91,0,0,0,1.35-.85,11.79,11.79,0,0,0,3.57-6A2.65,2.65,0,0,0,40.12,14c-.66-.31-1.35-.56-2-.84-1-.44-2-.93-3.08-1.32a43.35,43.35,0,0,0-4.13-1.36c-2.16-.55-4.2.19-6.19.89A9.63,9.63,0,0,0,22,13c-.67.52-1.09,1.37-1.77,1.89a2.78,2.78,0,0,0-1,1.67c-.19.85-.29,1.71-.43,2.57a5,5,0,0,0,2.18,4.74,24.89,24.89,0,0,0,5,2.94A6.8,6.8,0,0,1,28.62,28.77ZM27.44,49.21,25,49.45a12.34,12.34,0,0,1-.26,1.3,6,6,0,0,1-.52,1c-.08.13-.28.24-.28.37,0,.66-.44.88-1,.9-.85,0-1.7,0-2.54,0-1.27-.08-1.65-.44-1.87-1.67a4.13,4.13,0,0,0-.2-1,5.89,5.89,0,0,0-.77-1.42c-.38-.47-.8-.34-1,.21s-.37,1.39-.56,2.08c-.36,1.34-.51,1.45-1.88,1.42a13.83,13.83,0,0,1-3.53-.71c-.9-.26-.85-.67-.89-1.3-.08-1-.21-1.94-.33-2.91-1.21.58-2.12-.38-3.19-.31a5.3,5.3,0,0,0-.17.52A21.2,21.2,0,0,0,6.12,55a10.79,10.79,0,0,1,.34,3A2.85,2.85,0,0,0,7.6,60.86q2.25,1.52,4.56,3c1,.61,2.05,1.1,3.05,1.69,1.35.79,2.71,1.31,4.26.58a4.57,4.57,0,0,1,.92-.21c1.76-.4,3.64-.39,5.22-1.45A4,4,0,0,0,27.66,61c0-.49,0-1,0-1.46,0-1.75,0-3.5,0-5.25,0-1.41,0-2.82-.06-4.22A3.89,3.89,0,0,0,27.44,49.21ZM55.23,33.74a4.54,4.54,0,0,0,.51-.2,11.08,11.08,0,0,0,1.49-.78,1.18,1.18,0,0,0,.44-.79c0-1.67-.12-3.34-.23-5a17.31,17.31,0,0,0-.27-2.39c-.48-2.47-1.05-4.92-1.49-7.4-.2-1.13-.17-2.3-.28-3.46a18.49,18.49,0,0,0-.46-4,29.28,29.28,0,0,1-1.12-4.13,5.86,5.86,0,0,0-.7-1.45l-.3.05c.41,1.2-.6,1.71-1.13,2.46a5.32,5.32,0,0,1,1.55,3c.42,2,.73,4,1,6.09.16,1,.27,2.05.33,3.07.15,2.28.25,4.56.37,6.84.08,1.61.18,3.22.23,4.83C55.25,31.58,55.23,32.61,55.23,33.74Zm.24,10.17c-1.09.52-1.27.78-1.36,2a2,2,0,0,1,0,.43c-.73,2.1-.07,4.11.34,6.14a.61.61,0,0,0,.5.32,3.4,3.4,0,0,0,2.35-2.09c.25-.71.47-1.42.7-2.14A12.09,12.09,0,0,0,58,43.71c-.07-.81-.11-1.61-.19-2.62L56,42.76l.88.35-.05.18-1.65.1v.2ZM4.29,29.38l-.08,0c-.07.5-.15,1-.22,1.51-.11.82-.22,1.63-.31,2.45s-.2,1.8-.3,2.71c-.06.48-.16.95-.2,1.43a.52.52,0,0,0,.23.43,12.41,12.41,0,0,0,1.34.38ZM3.58,46.49a2,2,0,0,0-.05.34c0,1.76.07,3.52.12,5.28a3,3,0,0,0,1,2.32,7,7,0,0,0,0-1.46,14.47,14.47,0,0,1,.08-5.29C4.87,46.59,4.79,46.47,3.58,46.49Z"/></g></g></svg>