<svg xmlns="http://www.w3.org/2000/svg" viewBox="0 0 60.59 49.4"><defs><style>.cls-1{fill:#97533e;}.cls-2{fill:#a5d5e1;}.cls-3{fill:#38ac88;}.cls-4{fill:#e8ae01;}</style></defs><title>dealing-media-icon</title><g id="Layer_2" data-name="Layer 2"><g id="Layer_1-2" data-name="Layer 1"><path d="M60.75,14.89a53,53,0,0,1,0,6.79c-.08,1.37,0,2.74-.08,4.09-.17,1.71.19,3.46-.39,5.15a7,7,0,0,0-.1,1.79c-.13,1.74-.27,3.49-.41,5.23s-.24,3.25-.39,4.87a.56.56,0,0,1-.24.36c-.73.45-1.48.86-2.19,1.33a7.47,7.47,0,0,1-4,1c-1.37,0-2.74.11-4.11.13a14.22,14.22,0,0,0-1.83-.1,4.94,4.94,0,0,0-2.23.61,20,20,0,0,1-9.08,3.42,17,17,0,0,1-4-.12,21,21,0,0,1-6.23-1.22c-1.36-.57-2.64-1.34-4-2a1.9,1.9,0,0,0-.88-.17c-1.39.06-2.77.18-4.15.23-2.06.08-4.12.2-6.17.12a35,35,0,0,1-5.29-.68,6.53,6.53,0,0,1-2.29-1.16,1.75,1.75,0,0,1-.51-1.13q-.42-3.29-.72-6.6c-.28-3.14-.57-6.28-.76-9.42C.46,24.06.28,20.69.25,17.31a36,36,0,0,1,.5-5.17,2.06,2.06,0,0,1,1.72-1.82c1-.22,2.07-.52,3.09-.84a.94.94,0,0,0,.5-.6C6.5,6.77,7.15,4.75,8.89,3.31a18.11,18.11,0,0,1,2.69-2,5.44,5.44,0,0,1,5.07-.18,6.14,6.14,0,0,1,2.56,2.51,38,38,0,0,1,1.67,3.43,1.14,1.14,0,0,0,1.38-.72,36.37,36.37,0,0,0,1.62-3.54C24.5,1,25.92.56,27.57.49c2.25-.1,4.51-.08,6.76-.13,1.23,0,2.46-.1,3.7-.11A10.38,10.38,0,0,1,39.87.4a6.79,6.79,0,0,1,3.56,2.38c.93,1,1.75,2.1,2.71,3.06a5.09,5.09,0,0,0,3.39,1.08c1.78.15,3.58.11,5.34.35A34.93,34.93,0,0,1,59.1,8.34c1.07.29,1.1,1.28,1.23,2.08C60.55,11.9,60.63,13.4,60.75,14.89Zm-1.83,2.34c0-1.05-.07-2.11-.11-3.16h-.18c0,.7,0,1.41,0,2.11a.93.93,0,0,1-1,1c-1,0-2.11,0-3.15-.15a34.92,34.92,0,0,1-3.81-.68A1.37,1.37,0,0,1,49.55,15c-.06-1.3-.16-2.59-.21-3.89s-.15-1.36,1.25-1.31c2.6.1,5.18.38,7.86.59,0-.48,0-1-.68-1.18-1.34-.23-2.69-.49-4.05-.63-1.61-.16-3.23-.15-4.84-.31a7.74,7.74,0,0,1-5.54-2.49c-.66-.79-1.28-1.61-2-2.39-.93-1.08-1.93-1.94-3.55-1.76a32.85,32.85,0,0,1-4,0c-2,0-4.1-.08-6.15-.07A1.85,1.85,0,0,0,26,2.41c-.48.9-.85,1.85-1.29,2.77a25,25,0,0,1-1.17,2.31,1.44,1.44,0,0,1-.83.52,18.09,18.09,0,0,1-1.89.35c.06.88.12,1.72.19,2.56a2.7,2.7,0,0,1-.53,1.84,5.6,5.6,0,0,1-1.71,1.52c-.39.24-.79.46-1.19.7a6.78,6.78,0,0,1-5.74.42,18.48,18.48,0,0,1-3.5-1.55C7.22,13.23,6,12.6,6.05,11c0-.1-.28-.3-.4-.28-.55.12-1.1.29-1.64.45A1.28,1.28,0,0,0,3,12.27,47.61,47.61,0,0,0,2.41,17c0,2.55.12,5.1.21,7.66A.58.58,0,0,0,3,25c.95.08,1.91.14,2.87.17,1.28,0,2.55,0,3.83,0,1.83,0,3.66,0,5.48-.06.43,0,.61-.19.77-.59.66-1.6,1.34-3.18,2.08-4.75.3-.63.78-1.17,1.13-1.79a10,10,0,0,1,2.35-2.81,11.86,11.86,0,0,1,1-.73c1.16-.79,2.44-1.39,3.68-2.07a15.19,15.19,0,0,1,7.07-1.87,29.74,29.74,0,0,1,8.46,1.5c1.47.39,2.54,1.48,3.79,2.26a6.48,6.48,0,0,1,2.08,1.92c.3.42.75.73,1.09,1.12a6.56,6.56,0,0,1,1,1.3c.57,1.16,1,2.37,1.6,3.54.63,1.39.64,1.36,2.14,1.15.74-.1,1.5-.07,2.24-.11.89-.06,1.77-.11,2.65-.22a.65.65,0,0,0,.39-.47C58.75,20.77,58.87,19,58.92,17.23Zm-.53,11.7h-1l-.07.16a4.42,4.42,0,0,0,.86.31A2.33,2.33,0,0,0,58.39,28.93ZM58,31.3c0-.42.21-.81.09-1.08s-.52-.41-.79-.61l-.08.12.55.66C57.47,30.79,57.19,31.17,58,31.3ZM56.61,32l.82-.39-.33-.55-.59.7A2.44,2.44,0,0,0,56.61,32Zm.25-19.75c0-1-.16-1.14-1.16-1.19-.75,0-1.5-.17-2.25-.21s-1.56,0-2.4,0c.07,1.39.18,2.65.2,3.92,0,.56.15.8.75.83,1.51.07,3,.19,4.61.3C56.7,14.63,56.84,13.45,56.86,12.27ZM54.19,44.13c1.2-.24,1.31-.37,1-1.32C54.62,42.88,54.26,43.36,54.19,44.13Zm.63-13c0-.53-.06-1-.08-1.4l-.25,0L54,31.44c0,.18.06.57.1.88ZM51.49,42.7c1-.81,1.8-2.56,1.46-3.47A7,7,0,0,0,51.49,42.7Zm-2.05-14A14.9,14.9,0,0,0,49.51,26a10.12,10.12,0,0,0-5.07-8.18c-1.64-1-3.37-1.93-5.1-2.78a6.47,6.47,0,0,0-2.11-.45c-.7-.07-1.41,0-2.12,0a7.67,7.67,0,0,0-1.91,0c-2.58.64-5.19,1.2-7.42,2.85a12.55,12.55,0,0,0-5.17,7.85,46.69,46.69,0,0,0-.73,5,26.32,26.32,0,0,0,0,5.1,6.37,6.37,0,0,0,1,3.77,16.24,16.24,0,0,0,4.05,4.53,11.4,11.4,0,0,0,3.71,2.28,18,18,0,0,0,5.81,1,8.59,8.59,0,0,0,3-.33,23.34,23.34,0,0,0,4.83-2.83,21.09,21.09,0,0,0,3.18-3.54,9.17,9.17,0,0,0,1.56-2.56,65.41,65.41,0,0,0,2-7A15.4,15.4,0,0,0,49.44,28.71ZM18.58,13c.68-.51,1.38-1.16,1-2.27C17.43,13.83,14.48,14.6,11,14c.26.13.51.28.77.38C14.3,15.36,16.53,14.53,18.58,13Zm.53-5.85c.19-1.66-.8-3-2-4.32a3.69,3.69,0,0,0-5.06-.63A21.05,21.05,0,0,0,9.52,4.27,4.86,4.86,0,0,0,8.09,8.78a5.54,5.54,0,0,0,7.24,4.1A5.82,5.82,0,0,0,19.11,7.15ZM16.33,39.58c-.46-2-.91-4-1.37-6l-.17,0a16.25,16.25,0,0,0,1.36,6ZM15.27,27.12a3.3,3.3,0,0,0,0-.63,1.94,1.94,0,0,0-.7.13.57.57,0,0,0-.18.52,7.69,7.69,0,0,0,.6,1C15.12,27.71,15.22,27.42,15.27,27.12Zm-3.57,17L9.54,40.44l-.2.12a11.64,11.64,0,0,0,2.08,3.68Zm-.27-13.56a2.81,2.81,0,0,0-.2-3.12l-.21,0C11.16,28.45,11.29,29.48,11.43,30.51Zm-.58,8.67.21-.13c-.23-.83-.45-1.66-.7-2.55l-.91.43ZM7.59,11.32c-.12.83,1.69,2.27,2.62,2.1ZM8.88,29.55l-.09-1.28H8.52C8.17,28.73,8.38,29.15,8.88,29.55Zm-.4,7.36c-.13-.77-.24-1.55-.38-2.32a6.69,6.69,0,0,0-.34-1.26C7.42,32.5,7,31.7,6.67,30.88c-.15-.35-1-1-1.09-.79a2.1,2.1,0,0,0-.41,1.34,1.36,1.36,0,0,1-.08,1.34h0c-.46,0-.54.24-.53.65,0,1.1.56,2.07.66,3.15a22.63,22.63,0,0,0,.46,2.29,5.51,5.51,0,0,0,.2.53c.24-.43.42-.73.61-1.08l1.28,1.13a4.13,4.13,0,0,0-.21-.7c-.12-.51-.73-1.06,0-1.53A3.82,3.82,0,0,1,8.48,36.91ZM7.25,43.29l.07-.11c-.09-.37-.17-.73-.25-1l-.83-.35L6.06,42ZM4.64,26.61a.76.76,0,0,0,0-.15l-2-.19c.12,1,.24,1.94.37,3,.35-.62.53-1.07.18-1.59s-.16-1,.58-1ZM4,30.53c.5.06.79-.12.59-.77,0-.17,0-.36,0-.53-.12-.39-.28-.78-.42-1.17L4,28.13ZM4.08,39l.2-.12c-.22-1.49-.45-3-.69-4.6-.1.18-.16.24-.16.29.09,1.33.16,2.67.28,4C3.72,38.74,4,38.88,4.08,39Z" transform="translate(-0.25 -0.25)"/><path class="cls-1" d="M58.81,14.07c0,1,.14,2.11.11,3.16-.05,1.77-.17,3.54-.3,5.31a.65.65,0,0,1-.39.47c-.88.11-1.76.16-2.65.22-.74,0-1.5,0-2.24.11-1.5.21-1.51.24-2.14-1.15-.55-1.17-1-2.38-1.6-3.54a6.56,6.56,0,0,0-1-1.3c-.34-.39-.79-.7-1.09-1.12a6.48,6.48,0,0,0-2.08-1.92c-1.25-.78-2.32-1.87-3.79-2.26a29.74,29.74,0,0,0-8.46-1.5,15.19,15.19,0,0,0-7.07,1.87c-1.24.68-2.52,1.28-3.68,2.07a11.86,11.86,0,0,0-1,.73l-2.73-.94a5.6,5.6,0,0,0,1.71-1.52A2.7,2.7,0,0,0,21,10.92c-.07-.84-.13-1.68-.19-2.56A18.09,18.09,0,0,0,22.71,8a1.44,1.44,0,0,0,.83-.52,25,25,0,0,0,1.17-2.31c.44-.92.81-1.87,1.29-2.77a1.85,1.85,0,0,1,1.72-.84c2.05,0,4.1.05,6.15.07a32.85,32.85,0,0,0,4,0c1.62-.18,2.62.68,3.55,1.76.67.78,1.29,1.6,2,2.39a7.74,7.74,0,0,0,5.54,2.49c1.61.16,3.23.15,4.84.31,1.36.14,2.71.4,4.05.63.72.13.66.7.68,1.18-2.68-.21-5.26-.49-7.86-.59-1.4,0-1.29.05-1.25,1.31s.15,2.59.21,3.89a1.37,1.37,0,0,0,1.13,1.36,34.92,34.92,0,0,0,3.81.68c1,.13,2.1.11,3.15.15a.93.93,0,0,0,1-1c0-.7,0-1.41,0-2.11Z" transform="translate(-0.25 -0.25)"/><path class="cls-2" d="M55.7,11.08c1,.05,1.18.14,1.16,1.19s-.16,2.36-.25,3.64c-1.59-.11-3.1-.23-4.61-.3-.6,0-.74-.27-.75-.83,0-1.27-.13-2.53-.2-3.92.84,0,1.62,0,2.4,0S55,11.05,55.7,11.08Z" transform="translate(-0.25 -0.25)"/><path class="cls-3" d="M49.51,26a14.9,14.9,0,0,1-.07,2.75l-2-.17c0-.27-.19-.45-.62-.71a25.43,25.43,0,0,0-9.54-4,15.2,15.2,0,0,0-9,1.08,11,11,0,0,0-5.13,4.28,1.35,1.35,0,0,1-.3.37c-.39.33-.58.52-.58.76l-2.31-.19a46.69,46.69,0,0,1,.73-5,12.55,12.55,0,0,1,5.17-7.85c2.23-1.65,4.84-2.21,7.42-2.85a7.67,7.67,0,0,1,1.91,0c.71,0,1.42,0,2.12,0a6.47,6.47,0,0,1,2.11.45c1.73.85,3.46,1.76,5.1,2.78A10.12,10.12,0,0,1,49.51,26Z" transform="translate(-0.25 -0.25)"/><path class="cls-3" d="M47.41,28.54l2,.17a15.4,15.4,0,0,1-.33,1.94,65.41,65.41,0,0,1-2,7,9.17,9.17,0,0,1-1.56,2.56,21.09,21.09,0,0,1-3.18,3.54,23.34,23.34,0,0,1-4.83,2.83,8.59,8.59,0,0,1-3,.33,18,18,0,0,1-5.81-1,11.4,11.4,0,0,1-3.71-2.28A16.24,16.24,0,0,1,20.89,39a6.37,6.37,0,0,1-1-3.77,26.32,26.32,0,0,1,0-5.1l2.31.19a1.65,1.65,0,0,0,.37.79,17.26,17.26,0,0,0,4,4A11.26,11.26,0,0,0,33.85,38l.61-.06c.22,0,.45-.07.68-.09A13,13,0,0,0,43,34.27a18.4,18.4,0,0,0,3.88-4.58A3.09,3.09,0,0,0,47.41,28.54Z" transform="translate(-0.25 -0.25)"/><path d="M47.41,28.54a3.09,3.09,0,0,1-.49,1.15A18.4,18.4,0,0,1,43,34.27a13,13,0,0,1-7.9,3.53c-.23,0-.46.06-.68.09l-.61.06a11.26,11.26,0,0,1-7.33-2.85,17.26,17.26,0,0,1-4-4,1.65,1.65,0,0,1-.37-.79c0-.24.19-.43.58-.76a1.35,1.35,0,0,0,.3-.37A11,11,0,0,1,28.2,25a15.2,15.2,0,0,1,9.05-1.08,25.43,25.43,0,0,1,9.54,4C47.22,28.09,47.41,28.27,47.41,28.54Zm-5.26,4.11a14.25,14.25,0,0,0,3.16-4.33c-2.84-1.56-5.67-3.07-9-3.33.27.2.61.3.85.52a6.09,6.09,0,0,1,1.93,5.17,4.33,4.33,0,0,1-.32,1A21.24,21.24,0,0,1,38,34a3.09,3.09,0,0,1-2.32,1.4,2.78,2.78,0,0,1-3.06-.76,8.71,8.71,0,0,1-1.49-2.33,6.15,6.15,0,0,1,.33-5.61A2.85,2.85,0,0,1,34,25.1a2.34,2.34,0,0,0,.58-.14c-4.49,0-8.17,1.7-10.69,5.56a6.17,6.17,0,0,0,.86,1,59.27,59.27,0,0,0,4.79,3.74,7.77,7.77,0,0,0,5.58,1.18A12.43,12.43,0,0,0,42.15,32.65Z" transform="translate(-0.25 -0.25)"/><path class="cls-1" d="M18.77,14.28l2.73.94A10,10,0,0,0,19.15,18c-.35.62-.83,1.16-1.13,1.79-.74,1.57-1.42,3.15-2.08,4.75-.16.4-.34.59-.77.59-1.82,0-3.65.05-5.48.06-1.28,0-2.55,0-3.83,0-1,0-1.92-.09-2.87-.17a.58.58,0,0,1-.37-.36c-.09-2.56-.25-5.11-.21-7.66A47.61,47.61,0,0,1,3,12.27,1.28,1.28,0,0,1,4,11.16c.54-.16,1.09-.33,1.64-.45.12,0,.4.18.4.28,0,1.61,1.17,2.24,2.29,2.86a18.48,18.48,0,0,0,3.5,1.55A6.78,6.78,0,0,0,17.58,15C18,14.74,18.38,14.52,18.77,14.28Z" transform="translate(-0.25 -0.25)"/><path class="cls-4" d="M19.58,10.73c.38,1.11-.32,1.76-1,2.27-2,1.53-4.28,2.36-6.85,1.33-.26-.1-.51-.25-.77-.38C14.48,14.6,17.43,13.83,19.58,10.73Z" transform="translate(-0.25 -0.25)"/><path class="cls-4" d="M17.12,2.83c1.19,1.3,2.18,2.66,2,4.32a5.82,5.82,0,0,1-3.78,5.73,5.54,5.54,0,0,1-7.24-4.1A4.86,4.86,0,0,1,9.52,4.27,21.05,21.05,0,0,1,12.06,2.2,3.69,3.69,0,0,1,17.12,2.83Z" transform="translate(-0.25 -0.25)"/><path class="cls-4" d="M10.21,13.42c-.93.17-2.74-1.27-2.62-2.1Z" transform="translate(-0.25 -0.25)"/><path d="M6.06,34l.43.48-1,.6-.36-1Z" transform="translate(-0.25 -0.25)"/><path d="M6.15,32.5c-.45.61-.3,1.37-1,1.56,0-.43,0-.85,0-1.28Z" transform="translate(-0.25 -0.25)"/><path d="M5.09,32.77h0v0Z" transform="translate(-0.25 -0.25)"/></g></g></svg>