<?xml version="1.0" encoding="UTF-8"?>
<svg width="61px" height="50px" viewBox="0 0 61 50" version="1.1" xmlns="http://www.w3.org/2000/svg" xmlns:xlink="http://www.w3.org/1999/xlink">
    <!-- Generator: Sketch 54.1 (76490) - https://sketchapp.com -->
    <title>dealing-media-icon</title>
    <desc>Created with Sketch.</desc>
    <g id="Page-1" stroke="none" stroke-width="1" fill="none" fill-rule="evenodd">
        <g id="Artboard" transform="translate(-284.000000, -331.000000)">
            <g id="dealing-media-icon" transform="translate(280.000000, 321.000000)">
                <rect id="Rectangle-Copy-2" stroke="#979797" fill="#D8D8D8" opacity="0" x="0.5" y="0.5" width="67" height="68"></rect>
                <g transform="translate(4.000000, 10.000000)" fill="#000000" fill-rule="nonzero">
                    <path d="M20.63,6.86 C21.2045796,7.01424069 21.8011605,6.70070914 22,6.14 C22.6010902,4.9889243 23.1418226,3.80732393 23.62,2.6 C24.24,0.76 25.62,0.3 27.31,0.23 C29.57,0.14 31.83,0.16 34.08,0.11 C35.31,0.11 36.54,0.01 37.77,1.16768574e-15 C38.3866006,-0.00555629694 39.0024408,0.0446480718 39.61,0.15 C41.0280984,0.531915657 42.28204,1.36787672 43.18,2.53 C44.11,3.53 44.92,4.63 45.89,5.59 C46.8532944,6.34606881 48.0568751,6.72951045 49.28,6.67 C51.06,6.81 52.85,6.78 54.62,7.02 C56.0504708,7.28594465 57.4631581,7.63995139 58.85,8.08 C59.92,8.37 59.95,9.37 60.08,10.17 C60.3,11.64 60.38,13.17 60.49,14.64 C60.6283334,16.9018215 60.6116276,19.170461 60.44,21.43 C60.37,22.79 60.5,24.17 60.36,25.52 C60.19,27.23 60.56,28.98 59.97,30.67 C59.8689763,31.2576049 59.8387607,31.855202 59.88,32.45 C59.75,34.2 59.61,35.94 59.47,37.69 C59.33,39.44 59.22,40.93 59.08,42.56 C59.0487302,42.7062528 58.9582057,42.8329872 58.83,42.91 C58.11,43.37 57.36,43.78 56.65,44.24 C55.4383306,44.9455541 54.0511455,45.2923503 52.65,45.24 C51.28,45.24 49.91,45.36 48.54,45.37 C47.93,45.37 47.3,45.2 46.71,45.27 C45.9249983,45.2978466 45.1576003,45.5102514 44.47,45.89 C41.7745866,47.7580982 38.6585079,48.9296339 35.4,49.3 C34.0669856,49.4209304 32.7243536,49.384008 31.4,49.19 C29.2686675,49.1099835 27.1616121,48.7088001 25.15,48 C23.78,47.43 22.5,46.66 21.15,46 C20.8725066,45.8809182 20.5716506,45.8262171 20.27,45.84 C18.89,45.9 17.51,46.02 16.12,46.07 C14.07,46.14 12.01,46.27 9.96,46.19 C8.18193774,46.0982129 6.41347106,45.8708864 4.67,45.51 C3.84539836,45.2640586 3.07506019,44.8636185 2.4,44.33 C2.09095574,44.031969 1.9053299,43.6285898 1.88,43.2 C1.61333333,41 1.37666667,38.8 1.17,36.6 C0.89,33.46 0.6,30.32 0.41,27.18 C0.2,23.81 0,20.43 0,17.06 C0.0376314288,15.3233026 0.204761816,13.5918318 0.5,11.88 C0.580054501,10.948921 1.29421016,10.1973968 2.22,10.07 C3.22,9.84 4.29,9.55 5.31,9.22 C5.55403878,9.10740602 5.73412845,8.89056337 5.8,8.63 C6.25,6.51 6.89,4.5 8.64,3.06 C9.4685906,2.30634381 10.3696363,1.63642136 11.33,1.06 C12.8920743,0.174951358 14.7914649,0.122502703 16.4,0.92 C17.4988401,1.4768957 18.404755,2.35145201 19,3.43 C19.6020677,4.54448557 20.1461268,5.68934623 20.63,6.86 Z M4.84,32.51 C4.37,32.51 4.29,32.76 4.3,33.17 C4.3,34.27 4.86,35.24 4.96,36.31 C5.07380507,37.0840451 5.22734116,37.8517256 5.42,38.61 C5.42,38.73 5.51,38.85 5.62,39.14 L6.23,38.05 L7.51,39.18 C7.45800404,38.9416397 7.38779804,38.7076197 7.3,38.48 C7.18,37.97 6.57,37.48 7.3,36.96 C7.58800085,36.8183997 7.89425316,36.7174374 8.21,36.66 C8.09,35.89 7.98,35.11 7.84,34.33 C7.76670329,33.903463 7.65285349,33.4848976 7.5,33.08 C7.16,32.25 6.76,31.45 6.41,30.63 C6.26,30.27 5.41,29.63 5.32,29.84 C5.02620412,30.2226048 4.88059295,30.6985047 4.91,31.18 C5.11684523,31.6161892 5.07885569,32.1290479 4.81,32.53 L4.84,32.51 Z M19.62,35 C19.5397677,36.3345938 19.8903168,37.6596695 20.62,38.78 C21.6756519,40.5293793 23.0492831,42.0658113 24.67,43.31 C25.7471587,44.2958673 27.0030973,45.0664026 28.37,45.58 C30.2364728,46.2383737 32.2008173,46.5764708 34.18,46.58 C35.1911173,46.6552637 36.207508,46.5468487 37.18,46.26 C38.8999974,45.514249 40.5220939,44.5604697 42.01,43.42 C43.1991562,42.3694121 44.2628829,41.1848837 45.18,39.89 C45.8400144,39.1284166 46.3704124,38.2635639 46.75,37.33 C47.5461,35.0356046 48.2138006,32.6986527 48.75,30.33 C49.1142529,28.7916433 49.2457152,27.207354 49.14,25.63 C48.9417993,22.2267407 47.0385318,19.1536784 44.08,17.46 C42.43,16.46 40.71,15.53 38.97,14.68 C38.337574,14.4499033 37.6726357,14.3216411 37,14.3 C36.31,14.23 35.59,14.3 34.89,14.3 C34.2558007,14.2207308 33.6141993,14.2207308 32.98,14.3 C30.39,14.95 27.79,15.5 25.56,17.16 C22.881779,19.0051488 21.0274105,21.820776 20.39,25.01 C19.6488515,28.2848309 19.389453,31.6502736 19.62,35 L19.62,35 Z M58.19,10.12 C58.19,9.63 58.19,9.06 57.52,8.94 C56.17,8.71 54.83,8.45 53.47,8.31 C51.86,8.15 50.23,8.16 48.63,8 C46.5212012,7.95950804 44.5202617,7.0601688 43.09,5.51 C42.42,4.72 41.81,3.89 41.09,3.11 C40.3093056,1.92331953 38.9464482,1.25337558 37.53,1.36 C36.1979182,1.44170094 34.8620818,1.44170094 33.53,1.36 C31.53,1.36 29.43,1.27 27.38,1.29 C26.6963154,1.22184229 26.0320611,1.54238361 25.66,2.12 C25.18,3.02 24.81,3.98 24.37,4.9 C23.93,5.82 23.64,6.47 23.2,7.21 C22.9925903,7.47498874 22.6989265,7.65897088 22.37,7.73 C21.76,7.89 21.13,7.97 20.48,8.08 C20.54,8.96 20.6,9.8 20.67,10.64 C20.720266,11.298648 20.5282346,11.9529771 20.13,12.48 C19.3445403,13.4240218 18.3568402,14.1793219 17.24,14.69 C15.4871585,15.6842193 13.381406,15.8419673 11.5,15.12 C10.2817962,14.7243308 9.10865746,14.2014461 8,13.56 C7,13 5.75,12.35 5.8,10.73 C5.8,10.64 5.51,10.44 5.4,10.46 C4.84,10.58 4.3,10.75 3.76,10.91 C3.20418326,10.998333 2.77279044,11.441935 2.7,12 C2.51,13.58 2.19,15.16 2.16,16.74 C2.16,19.3 2.28,21.85 2.37,24.4 C2.42427248,24.5749997 2.56357937,24.7105415 2.74,24.76 C3.69,24.85 4.65,24.91 5.61,24.93 C6.88,24.93 8.16,24.93 9.44,24.93 C11.27,24.93 13.09,24.93 14.92,24.87 C15.35,24.87 15.53,24.67 15.69,24.28 C16.35,22.68 17.03,21.09 17.77,19.53 C18.07,18.9 18.55,18.35 18.9,17.74 C19.7094914,16.3101324 20.8474751,15.0933124 22.22,14.19 C23.39,13.41 24.67,12.8 25.9,12.13 C28.0808317,10.9471058 30.5190894,10.3186534 33,10.3 C35.8801264,10.3884154 38.7326066,10.8902095 41.47,11.79 C42.93,12.19 44.01,13.28 45.26,14.05 C46.0721307,14.5495532 46.7704897,15.2138459 47.31,16 C47.6534385,16.3858597 48.0172927,16.7530521 48.4,17.1 C48.7887293,17.4877553 49.1249292,17.9248151 49.4,18.4 C49.97,19.56 50.4,20.77 50.99,21.94 C51.63,23.33 51.64,23.29 53.14,23.09 C53.88,22.99 54.63,23.02 55.38,22.97 C56.13,22.92 57.15,22.87 58.03,22.76 C58.2300902,22.6779641 58.3762784,22.5017885 58.42,22.29 C58.54,20.52 58.66,18.75 58.71,16.98 C58.71,15.93 58.65,14.87 58.61,13.82 L58.43,13.82 C58.43,14.53 58.43,15.23 58.43,15.93 C58.4513112,16.2011904 58.3528194,16.4681159 58.1604676,16.6604676 C57.9681159,16.8528194 57.7011904,16.9513112 57.43,16.93 C56.43,16.88 55.32,16.93 54.28,16.78 C52.9950564,16.6197038 51.7198246,16.3893609 50.46,16.09 C49.810044,15.9662837 49.3373699,15.4015846 49.33,14.74 C49.33,13.44 49.17,12.14 49.13,10.84 C49.09,9.54 48.98,9.49 50.38,9.54 C52.93,9.63 55.52,9.91 58.19,10.12 Z M18.85,6.9 C19.04,5.24 18.05,3.9 16.85,2.57 C15.5942161,1.0492022 13.3697961,0.772794972 11.78,1.94 C10.8933759,2.56343264 10.0543911,3.25200191 9.27,4 C8.03393404,5.15623379 7.4884394,6.87226902 7.83,8.53 C8.16133679,10.0879868 9.14495689,11.4290507 10.5314373,12.2131293 C11.9179176,12.9972078 13.5740944,13.1489946 15.08,12.63 C17.4503038,11.7446784 18.9751003,9.42714947 18.85,6.9 L18.85,6.9 Z M56.36,15.65 C56.45,14.37 56.59,13.2 56.61,12.02 C56.63,10.84 56.45,10.87 55.44,10.83 C54.69,10.83 53.95,10.66 53.2,10.62 C52.45,10.58 51.64,10.62 50.79,10.62 C50.87,12.01 50.97,13.27 51,14.53 C51,15.09 51.15,15.34 51.75,15.37 C53.26,15.42 54.77,15.55 56.36,15.65 Z M10.71,13.65 C10.96,13.78 11.21,13.93 11.48,14.04 C14.05,15.04 16.28,14.23 18.32,12.71 C19.01,12.2 19.71,11.55 19.32,10.44 C17.18,13.58 14.23,14.34 10.71,13.69 L10.71,13.65 Z M15.9,39.37 L16.08,39.37 L14.71,33.37 L14.54,33.37 C14.6071468,35.4383528 15.0687514,37.4748436 15.9,39.37 L15.9,39.37 Z M52.7,39 C51.9068045,40.0033897 51.3989651,41.2021669 51.23,42.47 C52.27,41.63 53,39.89 52.7,39 Z M3.83,38.77 L4.03,38.65 L3.34,34.05 C3.24,34.23 3.18,34.28 3.18,34.34 C3.26,35.67 3.34,37.01 3.46,38.34 C3.47,38.49 3.7,38.62 3.83,38.77 Z M9.29,40.18 L9.08,40.31 C9.54991489,41.655305 10.2578393,42.9051811 11.17,44 L11.45,43.83 L9.29,40.18 Z M9.2,36.68 L10.6,38.93 L10.81,38.8 L10.11,36.24 L9.2,36.68 Z M2.77,29 C3.13,28.39 3.31,27.94 2.96,27.42 C2.61,26.9 2.79,26.42 3.53,26.42 L4.39,26.37 L4.39,26.22 L2.4,26 L2.77,29 Z M11,27.14 L10.8,27.14 L11.21,30.21 C11.7643839,29.2376973 11.6816192,28.0277552 11,27.14 L11,27.14 Z M7.34,11.07 C7.22,11.9 9,13.34 10,13.17 L7.34,11.07 Z M3.72,30.28 C4.22,30.34 4.51,30.16 4.31,29.5 C4.31,29.34 4.31,29.14 4.31,28.98 C4.19,28.58 4.04,28.2 3.9,27.81 L3.77,27.88 L3.72,30.28 Z M54.48,29.47 L54.24,29.47 L53.78,31.21 L53.88,32.09 L54.56,30.88 L54.48,29.47 Z M14.75,27.89 C14.87,27.46 14.97,27.17 15.02,26.89 C15.0400638,26.6771384 15.0400638,26.4628616 15.02,26.25 C14.7800155,26.2529654 14.5426647,26.3004356 14.32,26.39 C14.1731037,26.519869 14.1048288,26.7171076 14.14,26.91 C14.3206754,27.2502364 14.5244875,27.5776724 14.75,27.89 L14.75,27.89 Z M55,42.55 C54.42,42.63 54.06,43.11 54,43.87 C55.14,43.64 55.24,43.51 55,42.55 Z M6,41.55 L5.83,41.74 L7,43 L7.07,42.89 L6.82,41.89 L6,41.55 Z M57.7,31.05 C57.7,30.63 57.91,30.23 57.79,29.96 C57.67,29.69 57.27,29.56 57,29.36 L56.92,29.47 L57.47,30.14 C57.21,30.54 56.93,30.92 57.7,31.05 Z M8.54,28 L8.27,28 C7.92,28.47 8.12,28.89 8.63,29.29 L8.54,28 Z M56.25,31.51 L56.36,31.75 L57.18,31.36 L56.85,30.81 L56.25,31.51 Z M57.1,28.66 L57.03,28.82 C57.3100133,28.9409346 57.5972264,29.0444649 57.89,29.13 C57.89,29.13 58.05,28.84 58.14,28.66 L57.1,28.66 Z" id="Shape"></path>
                    <path d="M33.59,37.7 C30.8831174,37.6546794 28.2822876,36.6398945 26.26,34.84 C24.7200972,33.7543415 23.3688063,32.4233199 22.26,30.9 C21.74,30.1 21.76,29.95 22.47,29.35 C22.5888238,29.2431996 22.6900668,29.1183333 22.77,28.98 C24.0245919,27.0430626 25.85316,25.5466436 28,24.7 C30.8206561,23.4345767 33.9588112,23.0545112 37,23.61 C40.4165687,24.2782938 43.6599486,25.6396285 46.53,27.61 C47.38,28.13 47.29,28.33 46.67,29.48 C45.6281813,31.1855373 44.3180132,32.7118155 42.79,34 C40.6298795,36.0395472 37.8406591,37.2842941 34.88,37.53 L34.2,37.61 L33.59,37.7 Z M34.3,24.7 C29.81,24.7 26.13,26.41 23.61,30.26 C23.8630797,30.6208068 24.1511418,30.9557627 24.47,31.26 C26.04,32.54 27.57,33.88 29.26,35 C30.902782,36.0873803 32.8976473,36.5092336 34.84,36.18 C37.5458955,35.733349 40.0281103,34.4043444 41.9,32.4 C43.2202606,31.1679092 44.2928402,29.6948093 45.06,28.06 C42.22,26.51 39.39,25 36.06,24.73 C36.34,24.93 36.68,25.04 36.92,25.25 C38.3509098,26.5712105 39.0675391,28.494599 38.85,30.43 C38.779308,30.7737933 38.6720306,31.1090351 38.53,31.43 C38.3115549,32.2321975 38.0443924,33.020327 37.73,33.79 C37.2277779,34.6003425 36.370298,35.1237393 35.42,35.2 C34.3409059,35.602545 33.1253607,35.3006449 32.36,34.44 C31.7357616,33.7527095 31.2320182,32.9649764 30.87,32.11 C30.0641796,30.2970534 30.1871847,28.2059681 31.2,26.5 C31.6623288,25.5327896 32.628308,24.906835 33.7,24.88 C33.9082131,24.8518878 34.1106961,24.7911429 34.3,24.7 L34.3,24.7 Z" id="Shape"></path>
                    <path d="M4.85,33.81 L5.85,33.72 L6.28,34.2 L5.28,34.8 C5.11,34.36 5.01,34.09 4.92,33.8 L4.85,33.81 Z" id="Path"></path>
                    <path d="M4.82,32.53 L5.89,32.25 C5.44,32.86 5.6,33.63 4.89,33.81 L4.89,33.81 C4.89,33.38 4.89,32.94 4.89,32.51 L4.82,32.53 Z" id="Path"></path>
                </g>
            </g>
        </g>
    </g>
</svg>