<svg xmlns="http://www.w3.org/2000/svg" viewBox="0 0 63.12 65.69"><defs><style>.cls-1{fill:#3d7bc9;}.cls-2{fill:#38ac88;}</style></defs><title>diver-icon</title><g id="Layer_2" data-name="Layer 2"><g id="Layer_1-2" data-name="Layer 1"><path d="M63.21,30.57a32.65,32.65,0,0,1,0,6.63,50.62,50.62,0,0,1-1.51,6.36,17.94,17.94,0,0,1-.83,2.82,42.4,42.4,0,0,1-6,10.4,22.82,22.82,0,0,1-5.12,4.3,27.53,27.53,0,0,1-9.22,3.7A51.87,51.87,0,0,1,34,65.86a13.39,13.39,0,0,1-8.91-2.23,4.51,4.51,0,0,1-1.65-1.87,20.07,20.07,0,0,1-1-3.78,2.49,2.49,0,0,1,.3-1.24c.61-1.51,1.25-3,3-3.57a8.06,8.06,0,0,0,1-.46l-1-1.91-2,1.09a11.26,11.26,0,0,1-6.84,1A11.29,11.29,0,0,1,10.62,50a10.66,10.66,0,0,1-3.4-5.45A19.51,19.51,0,0,1,6.62,40c0-1.35-.15-2.7-.2-4.06a16.43,16.43,0,0,1,1.36-6.7,10.72,10.72,0,0,1,6.32-6c3.11-1.31,6.42-1.53,9.67-2.06.67-.11,1.35-.22,2-.31a20.56,20.56,0,0,1,4.83-.25c1.53.13,3,.5,4.57.64s3.11.13,4.66.17l6.19.17c.52,0,1,.06,1.68.1A16.61,16.61,0,0,0,45,17.12a13.35,13.35,0,0,0-7.32-3.54c-3.17-.66-6.33-1.33-9.5-1.94-1.21-.23-2.46-.32-3.69-.44h-.05a25.32,25.32,0,0,1-6.11-1.12.92.92,0,0,1-.63-.95c-.1-1.53-.28-3.07-.34-4.6A2,2,0,0,1,19,2.31c2.41-.37,4.81-.89,7.21-1.41a26.54,26.54,0,0,1,11.63,0c1.46.32,2.93.59,4.35,1a10.93,10.93,0,0,1,2.51,1.26c1.57,1,3.15,1.91,4.61,3s2.85,2.38,4.26,3.59a16,16,0,0,1,2.19,2,26.41,26.41,0,0,1,2.58,3.88c1,1.82,1.75,3.73,2.54,5.63.49,1.19.72,2.49,1.28,3.64A15.37,15.37,0,0,1,63.21,30.57ZM60.49,41.65A26.5,26.5,0,0,0,61.4,32a20.35,20.35,0,0,0-.52-4.44,65.4,65.4,0,0,0-3.63-9.82A19.28,19.28,0,0,0,52,11c-.93-.74-1.88-1.47-2.82-2.2-1.38-1.07-2.74-2.16-4.14-3.18a20.76,20.76,0,0,0-9.32-3.52,18.37,18.37,0,0,0-6.36-.26c-2.83.53-5.65,1.08-8.47,1.62l-1.3.26c.09,1.62.2,3.15.23,4.68a.82.82,0,0,0,.83.94c1.39.17,2.78.33,4.17.47a37.71,37.71,0,0,1,3.85.34C32.89,11,37.06,12,41.2,13A10.83,10.83,0,0,1,47,16.56,14.63,14.63,0,0,1,48.57,19c.57,1,1,2.06,1.6,3.06a2.9,2.9,0,0,0,.9,1.13,9,9,0,0,1,4.13,6A39.27,39.27,0,0,1,56,36.47a31.35,31.35,0,0,1-.75,8.74c-.6,2.44-1.33,4.67-3.84,6a12.64,12.64,0,0,1-8.33,1.66,1.42,1.42,0,0,0-.66.19,8.68,8.68,0,0,1-1.39.64c-1,.2-1.95.29-2.93.41a2.36,2.36,0,0,1-2.23-.76,2.43,2.43,0,0,0-2.65-.86c-2.2.57-4.41,1.09-6.65,1.51s-2.49,2.23-2.32,3.81a25.36,25.36,0,0,0,.65,2.81,2.93,2.93,0,0,0,1.32,1.84A13.1,13.1,0,0,0,36,64.4c1.52-.27,3-.61,4.51-1a27.67,27.67,0,0,0,9.76-4.18,9.13,9.13,0,0,0,2.61-2.42,9.29,9.29,0,0,1,.67-.88,31.16,31.16,0,0,0,4.27-6.87A55.41,55.41,0,0,0,60.49,41.65ZM51,38.09a9.56,9.56,0,0,0-.54-5.92,21.46,21.46,0,0,0-3-4.21,4.22,4.22,0,0,0-3-1.46c-2-.18-3.95-.05-5.93-.1-2.41-.08-4.82-.17-7.22-.34-1.9-.14-3.79-.41-4.89-.54A40,40,0,0,0,15.5,27.17a3.11,3.11,0,0,0-2.05,1.53,10.8,10.8,0,0,0-1.14,2.92,31.42,31.42,0,0,0-.26,5.4,44.42,44.42,0,0,0,.65,4.42,5.78,5.78,0,0,0,2.57,4c1.4,1,4,1.9,5.81.34.66-.57,1.34-1.11,2-1.7,1.72-1.58,3.39-3.23,5.16-4.76a14.73,14.73,0,0,1,3.23-2.22,5.25,5.25,0,0,1,5.74.93,15.1,15.1,0,0,1,2.43,3c.54.76.92,1.63,1.45,2.4.73,1.06,1.5,2.1,2.33,3.08A3.8,3.8,0,0,0,45,47.9,3,3,0,0,0,48.22,47a8.1,8.1,0,0,0,1.84-3.8C50.36,41.48,50.68,39.79,51,38.09ZM40.27,52.31l-1.66-1.24c-.21.38-.42.72-.6,1.08a.72.72,0,0,0-.06.43c0,.06.24.1.36.08C39,52.56,39.58,52.44,40.27,52.31Zm-3.6-1c.14-1.33.9-2.47.27-3.76-.08-.17-.1-.36-.18-.53a35.94,35.94,0,0,0-2-4.19c-1.27-2-2.51-2-3.75-.11-1.4,2.17-2.61,4.47-3.89,6.67.18.41.37.79.5,1.19a1.53,1.53,0,0,0,1.8,1.23c.88-.12,1.75-.35,2.63-.51C33.53,51.07,35,50.46,36.67,51.35Z" transform="translate(-0.25 -0.25)"/><path class="cls-1" d="M61.4,32a26.5,26.5,0,0,1-.91,9.63,55.41,55.41,0,0,1-2.71,7.43A31.16,31.16,0,0,1,53.51,56a9.29,9.29,0,0,0-.67.88,9.13,9.13,0,0,1-2.61,2.42,27.67,27.67,0,0,1-9.76,4.18c-1.49.36-3,.7-4.51,1a13.1,13.1,0,0,1-9.76-1.92,2.93,2.93,0,0,1-1.32-1.84,25.36,25.36,0,0,1-.65-2.81c-.17-1.58.23-3.41,2.32-3.81s4.45-.94,6.65-1.51a2.43,2.43,0,0,1,2.65.86,2.36,2.36,0,0,0,2.23.76c1-.12,2-.21,2.93-.41a8.68,8.68,0,0,0,1.39-.64,1.42,1.42,0,0,1,.66-.19,12.64,12.64,0,0,0,8.33-1.66c2.51-1.35,3.24-3.58,3.84-6A31.35,31.35,0,0,0,56,36.47a39.27,39.27,0,0,0-.78-7.28,9,9,0,0,0-4.13-6,2.9,2.9,0,0,1-.9-1.13c-.56-1-1-2.06-1.6-3.06A14.63,14.63,0,0,0,47,16.56,10.83,10.83,0,0,0,41.2,13c-4.14-1-8.31-1.93-12.49-2.8a37.71,37.71,0,0,0-3.85-.34c-1.39-.14-2.78-.3-4.17-.47a.82.82,0,0,1-.83-.94c0-1.53-.14-3.06-.23-4.68l1.3-.26c2.82-.54,5.64-1.09,8.47-1.62a18.37,18.37,0,0,1,6.36.26,20.76,20.76,0,0,1,9.32,3.52c1.4,1,2.76,2.11,4.14,3.18.94.73,1.89,1.46,2.82,2.2a19.28,19.28,0,0,1,5.21,6.75,65.4,65.4,0,0,1,3.63,9.82A20.35,20.35,0,0,1,61.4,32Z" transform="translate(-0.25 -0.25)"/><path class="cls-2" d="M50.42,32.17A9.56,9.56,0,0,1,51,38.09c-.28,1.7-.6,3.39-.9,5.09A8.1,8.1,0,0,1,48.22,47,3,3,0,0,1,45,47.9a3.8,3.8,0,0,1-1.6-1.33c-.83-1-1.6-2-2.33-3.08-.53-.77-.91-1.64-1.45-2.4a15.1,15.1,0,0,0-2.43-3,5.25,5.25,0,0,0-5.74-.93,14.73,14.73,0,0,0-3.23,2.22c-1.77,1.53-3.44,3.18-5.16,4.76-.65.59-1.33,1.13-2,1.7-1.83,1.56-4.41.67-5.81-.34a5.78,5.78,0,0,1-2.57-4A44.42,44.42,0,0,1,12.05,37a31.42,31.42,0,0,1,.26-5.4,10.8,10.8,0,0,1,1.14-2.92,3.11,3.11,0,0,1,2.05-1.53,40,40,0,0,1,10.93-1.65c1.1.13,3,.4,4.89.54,2.4.17,4.81.26,7.22.34,2,.05,4-.08,5.93.1a4.22,4.22,0,0,1,3,1.46A21.46,21.46,0,0,1,50.42,32.17Z" transform="translate(-0.25 -0.25)"/><path class="cls-1" d="M26.48,14.2a2.55,2.55,0,0,1,.82,3.07,2.31,2.31,0,0,1-1.78,1.58,4,4,0,0,1-.86.1,4.8,4.8,0,0,1-3.76-1.72,2.67,2.67,0,0,1,.85-3.61,5.33,5.33,0,0,1,2.49-.51A3.84,3.84,0,0,1,26.48,14.2Zm-1.91,3.69c1.05.05,1.73-.78,1.39-1.46a5,5,0,0,0-1.24-1.6,2.14,2.14,0,0,0-2.89.1.64.64,0,0,0-.13.52c.16.47.26,1.1.61,1.34A15.34,15.34,0,0,0,24.57,17.89Z" transform="translate(-0.25 -0.25)"/><path class="cls-1" d="M14.91,8.24a4.53,4.53,0,0,1-.14,3.52,3,3,0,0,1-5.68-1.35c0-2.31,1-3.61,3.1-4A3,3,0,0,1,14.91,8.24Zm-2,4.06a2.54,2.54,0,0,0,.58-3.14,4.07,4.07,0,0,0-1-1.44c-.24-.21-.75-.13-1.14-.17a.7.7,0,0,0-.85.55,3.84,3.84,0,0,0,1,4.15C12,12.74,12.39,12.79,12.93,12.3Z" transform="translate(-0.25 -0.25)"/><path class="cls-1" d="M8.08,20.43A3,3,0,0,1,7.3,24a4.69,4.69,0,0,1-3.24,1.16A3.56,3.56,0,0,1,.34,22.36a1.57,1.57,0,0,1-.08-.68c.44-2.18,1-3.23,3.1-3.85.54-.15,1.18-.57,1.63.24,0,.1.35.06.53.08A2.76,2.76,0,0,1,8.08,20.43ZM5.18,24c.89-.12,1.82-1.08,1.71-1.8a7,7,0,0,0-.67-1.92,1.46,1.46,0,0,0-.82-.66,20,20,0,0,0-2.08-.35c0-.08,0-.28-.07-.52a1.56,1.56,0,0,0-1.49,1A3.16,3.16,0,0,0,2.25,23,3.1,3.1,0,0,0,5.18,24Z" transform="translate(-0.25 -0.25)"/></g></g></svg>