<svg xmlns="http://www.w3.org/2000/svg" viewBox="0 0 63.12 65.69"><title>diver-icon</title><g id="Layer_2" data-name="Layer 2"><g id="Layer_1-2" data-name="Layer 1"><path d="M26.38,52.46l-1-1.91-2,1.09a11.26,11.26,0,0,1-6.84,1,11.23,11.23,0,0,1-6.12-2.86A10.6,10.6,0,0,1,7,44.29a18.5,18.5,0,0,1-.6-4.54c0-1.35-.15-2.7-.21-4.06A16.59,16.59,0,0,1,7.53,29a10.72,10.72,0,0,1,6.32-6c3.11-1.31,6.42-1.53,9.68-2.06a27.74,27.74,0,0,1,6.86-.56c1.52.13,3,.5,4.56.64s3.11.13,4.66.17l6.19.17c.52,0,1,.06,1.69.1a17.1,17.1,0,0,0-2.77-4.56,13.4,13.4,0,0,0-7.32-3.53c-3.16-.66-6.32-1.33-9.5-1.94-1.21-.23-2.46-.32-3.69-.44a24.79,24.79,0,0,1-6.16-1.13.9.9,0,0,1-.63-.94c-.1-1.53-.27-3.07-.34-4.6a2,2,0,0,1,1.68-2.22c2.42-.37,4.81-.89,7.21-1.41A26.54,26.54,0,0,1,37.6.64c1.46.32,2.93.59,4.36,1a11.35,11.35,0,0,1,2.51,1.26c1.56,1,3.14,1.91,4.61,3s2.84,2.39,4.25,3.6a16,16,0,0,1,2.19,2,25.63,25.63,0,0,1,2.58,3.88c1,1.82,1.76,3.73,2.54,5.63.49,1.18.72,2.49,1.28,3.64.88,1.81.88,3.76,1,5.65a33.48,33.48,0,0,1,0,6.64,52.38,52.38,0,0,1-1.5,6.36,19.07,19.07,0,0,1-.83,2.82,42.76,42.76,0,0,1-6,10.4,22.6,22.6,0,0,1-5.12,4.3,27.53,27.53,0,0,1-9.22,3.7,50.12,50.12,0,0,1-6.58,1.07,13.34,13.34,0,0,1-8.91-2.22,4.51,4.51,0,0,1-1.65-1.87,20.05,20.05,0,0,1-1-3.78,2.43,2.43,0,0,1,.29-1.25c.61-1.5,1.26-3,3-3.56A7.39,7.39,0,0,0,26.38,52.46Zm-7-49c.08,1.62.2,3.15.22,4.68a.83.83,0,0,0,.83.94c1.39.17,2.78.33,4.17.47a34.85,34.85,0,0,1,3.85.34c4.18.87,8.35,1.79,12.5,2.8a10.84,10.84,0,0,1,5.78,3.6,14.24,14.24,0,0,1,1.58,2.45c.57,1,1,2,1.6,3.06a2.9,2.9,0,0,0,.9,1.13,8.94,8.94,0,0,1,4.13,6,39.27,39.27,0,0,1,.78,7.28A31,31,0,0,1,55,45c-.6,2.44-1.33,4.67-3.84,6a12.59,12.59,0,0,1-8.33,1.67,1.35,1.35,0,0,0-.65.19,8.78,8.78,0,0,1-1.4.64c-1,.2-1.95.29-2.92.4a2.34,2.34,0,0,1-2.24-.75A2.41,2.41,0,0,0,33,52.26c-2.21.57-4.42,1.09-6.65,1.51S23.81,56,24,57.58a23.34,23.34,0,0,0,.66,2.81A2.92,2.92,0,0,0,26,62.23a13.06,13.06,0,0,0,9.75,1.92c1.52-.27,3-.61,4.52-1A27.54,27.54,0,0,0,50,59a9.4,9.4,0,0,0,2.61-2.42,8.08,8.08,0,0,1,.66-.88,31,31,0,0,0,4.27-6.88,54.78,54.78,0,0,0,2.71-7.42,26.5,26.5,0,0,0,.91-9.63,21,21,0,0,0-.51-4.44A65.45,65.45,0,0,0,57,17.51a19.28,19.28,0,0,0-5.21-6.75C50.86,10,49.92,9.29,49,8.56c-1.38-1.07-2.73-2.16-4.14-3.18a20.76,20.76,0,0,0-9.31-3.52,18.69,18.69,0,0,0-6.37-.27L20.68,3.22Zm6.79,21.79a40,40,0,0,0-10.93,1.65,3.07,3.07,0,0,0-2,1.53,10.57,10.57,0,0,0-1.15,2.91,32.64,32.64,0,0,0-.26,5.41c.06,1.48.45,2.95.65,4.42a5.8,5.8,0,0,0,2.58,4c1.39,1,4,1.9,5.8.34.66-.57,1.35-1.11,2-1.7,1.72-1.58,3.39-3.23,5.16-4.76a14.73,14.73,0,0,1,3.23-2.22,5.25,5.25,0,0,1,5.74.93,14.76,14.76,0,0,1,2.43,3c.54.76.92,1.63,1.45,2.4.73,1.06,1.5,2.09,2.33,3.08a3.8,3.8,0,0,0,1.6,1.33A3,3,0,0,0,48,46.73a8.16,8.16,0,0,0,1.83-3.81c.3-1.69.62-3.38.91-5.08a9.57,9.57,0,0,0-.55-5.92,21.46,21.46,0,0,0-3-4.21,4.19,4.19,0,0,0-3-1.46c-2-.18-3.95-.05-5.92-.11-2.42-.07-4.83-.16-7.23-.33C29.17,25.67,27.28,25.4,26.18,25.27Zm.68,23.91c.17.41.37.79.5,1.19a1.52,1.52,0,0,0,1.79,1.23c.88-.12,1.75-.35,2.63-.51,1.5-.27,3-.88,4.64,0,.14-1.33.9-2.47.27-3.77-.08-.16-.1-.35-.17-.52a35.23,35.23,0,0,0-2-4.19c-1.27-2-2.51-2-3.74-.11C29.34,44.68,28.13,47,26.86,49.18Zm11.5,1.64c-.21.38-.42.72-.59,1.08a.6.6,0,0,0-.06.43c0,.06.24.1.35.08.64-.1,1.27-.22,2-.35Z"/><path d="M3.81,24.89A3.54,3.54,0,0,1,.1,22.11,1.44,1.44,0,0,1,0,21.43c.44-2.18,1-3.23,3.1-3.85.54-.16,1.19-.57,1.64.24,0,.1.34.06.52.08,1.49.18,2.08.86,2.56,2.28a3,3,0,0,1-.78,3.55A4.69,4.69,0,0,1,3.81,24.89ZM3,18.5a1.59,1.59,0,0,0-1.49,1.05A3.18,3.18,0,0,0,2,22.79a3.12,3.12,0,0,0,2.94,1c.88-.12,1.82-1.08,1.7-1.8A7,7,0,0,0,6,20a1.42,1.42,0,0,0-.82-.66A20,20,0,0,0,3.07,19Z"/><path d="M24.41,18.7A4.78,4.78,0,0,1,20.66,17a2.65,2.65,0,0,1,.85-3.61c1.58-.66,3.09-.91,4.72.58A2.55,2.55,0,0,1,27.05,17,2.53,2.53,0,0,1,24.41,18.7Zm-.09-1.06c1.06.05,1.73-.78,1.39-1.46a4.64,4.64,0,0,0-1.24-1.6,2.13,2.13,0,0,0-2.88.1.57.57,0,0,0-.13.52c.15.47.25,1.1.6,1.33A14.53,14.53,0,0,0,24.32,17.64Z"/><path d="M8.84,10.16c0-2.31,1-3.61,3.1-4A3,3,0,0,1,14.66,8a4.49,4.49,0,0,1-.14,3.52,3,3,0,0,1-5.68-1.35ZM11.1,7.29a.7.7,0,0,0-.84.56,3.84,3.84,0,0,0,1,4.15c.53.49.89.54,1.43.05a2.54,2.54,0,0,0,.58-3.14,4.17,4.17,0,0,0-1-1.44C12,7.26,11.49,7.34,11.1,7.29Z"/></g></g></svg>