<?xml version="1.0" encoding="UTF-8"?>
<svg width="67px" height="65px" viewBox="0 0 67 65" version="1.1" xmlns="http://www.w3.org/2000/svg" xmlns:xlink="http://www.w3.org/1999/xlink">
    <!-- Generator: Sketch 54.1 (76490) - https://sketchapp.com -->
    <title>elected-icon</title>
    <desc>Created with Sketch.</desc>
    <g id="Page-1" stroke="none" stroke-width="1" fill="none" fill-rule="evenodd">
        <g id="Artboard" transform="translate(-21.000000, -128.000000)">
            <g id="elected-icon" transform="translate(20.000000, 125.000000)">
                <rect id="Rectangle" stroke="#979797" fill="#D8D8D8" opacity="0" x="0.5" y="0.5" width="67" height="68"></rect>
                <g transform="translate(1.000000, 2.000000)" fill="#000000" fill-rule="nonzero">
                    <path d="M43.82,42.93 C44.64,42.46 45.5,42.04 46.28,41.51 C47.91,40.39 49.47,39.19 51.09,38.07 C53.16,36.65 55.26,35.29 57.33,33.88 C58.5,33.09 59.66,32.3 60.79,31.45 C61.64,30.81 61.97,30.87 62.79,31.53 C64.4853402,33.0813021 65.6912736,35.0935079 66.26,37.32 C66.6510763,38.7517822 66.7731416,40.2436909 66.62,41.72 C66.54,42.88 65.46,43.52 64.62,44.22 C62.78,45.7 60.98,47.22 59.17,48.73 C57.77,49.91 56.34,51.06 54.99,52.3 C52.44,54.64 49.44,56.3 46.65,58.3 C45.16,59.36 43.65,60.41 42.25,61.56 C40.909123,62.6322409 39.3206104,63.3508538 37.63,63.65 C34.52,64.23 31.38,64.73 28.23,65.03 C26.6422253,65.0582625 25.0552938,64.9377361 23.49,64.67 C23.2241706,64.6051278 22.9684663,64.5041919 22.73,64.37 L26.27,59.86 C25.99,59.67 25.8,59.42 25.61,59.42 C24.789135,59.3393769 24.018543,58.9875084 23.42,58.42 C20.97,56.79 18.48,55.21 16.03,53.55 C15.29,53.05 14.68,52.36 13.97,51.8 C12.12,50.33 10.22,48.92 8.38,47.43 C6.86,46.26 5.45,45 4,43.73 C2.89,42.83 1.75,42 0.64,41.11 C0.27,40.82 -0.46,40.69 0.41,40 C0.81,39.69 0.78,38.87 1.04,38.33 C2.48534154,35.2410317 4.24460048,32.3089335 6.29,29.58 C8.39,26.87 10.51,24.17 12.43,21.34 C14.52,18.26 16.73,15.28 19.03,12.34 C21.33,9.4 23.47,6 25.73,2.92 C26.2461393,2.24866625 26.8635117,1.66165639 27.56,1.18 C28.16,0.73 28.72,1.18 29.19,1.57 C30.19,2.35 31.19,3.3 32.29,3.99 C33.585963,4.7499355 34.9211558,5.44089776 36.29,6.06 C39.46,7.6 42.66,9.06 45.82,10.67 C48.98,12.28 52.36,14.01 55.58,15.77 C56.74,16.4 57.76,17.3 58.86,18.05 C59.8,18.69 60.8,19.25 61.7,19.94 C62.6,20.63 62.5,20.8 61.83,21.61 C61.32,22.25 60.83,22.88 60.25,23.51 C60.18,23.59 60.06,23.68 60.06,23.77 C60.06,25.11 58.9,25.64 58.23,26.51 C57.4926502,27.4522052 56.7083238,28.3566837 55.88,29.22 C54.98,30.16 53.88,30.98 53.08,31.95 C51.08,34.26 49.14,36.64 47.15,38.95 C46.26,39.95 45.28,40.95 44.35,41.95 C44.11,42.2 43.89,42.46 43.66,42.72 L43.82,42.93 Z M40.52,57.74 C40.7162557,57.8622154 40.9004211,58.0028508 41.07,58.16 C41.58,58.75 42.01,58.62 42.59,58.16 C44.16,56.97 45.75,55.79 47.41,54.72 C52.7464217,51.2944329 57.7963011,47.4418097 62.51,43.2 C62.6412122,43.0736008 62.7616313,42.9364569 62.87,42.79 C62.05,41.28 61.29,39.92 60.57,38.53 C59.8547002,37.1328193 59.5397574,35.565027 59.66,34 C59.5357609,34.0259353 59.4149524,34.0662048 59.3,34.12 C56.81,35.76 54.3,37.38 51.83,39.05 C50.04,40.25 48.31,41.54 46.5,42.72 C45.01,43.72 43.42,44.53 41.95,45.54 C40.48,46.55 38.95,47.84 37.41,49 C36.92,49.38 36.41,49.78 35.84,50.27 C36.3255416,50.4003315 36.7237771,50.7474198 36.9192142,51.2106058 C37.1146514,51.6737918 37.0854209,52.2012455 36.84,52.64 C37.35,52.64 37.75,52.71 38.13,52.77 C39.27,52.95 39.68,53.77 39.13,54.71 C39,54.95 38.88,55.2 38.75,55.45 C40.87,56.3 40.88,56.32 40.52,57.74 Z M8,29.52 C5.59664135,32.3075 3.57859792,35.4051966 2,38.73 C2.89,39.57 3.81,40.5 4.79,41.34 C6.4,42.68 8,44 9.57,45.26 C9.9,45.53 10.21,45.82 10.57,46.09 C11.84,47.09 13.06,48.26 14.38,49.22 C15.7,50.18 17.21,51 18.64,52 C20.27,53.07 20.28,53.09 21.46,51.53 C23.1340886,49.0950251 25.0359865,46.8248019 27.14,44.75 C27.51,44.42 27.82,44.03 28.23,43.59 C27.4,43.14 26.64,42.81 25.96,42.35 C24.08,41.1 22.23,39.82 20.39,38.51 C19.14,37.61 17.94,36.64 16.69,35.74 C15.15,34.62 13.56,33.6 12,32.5 C10.69,31.55 9.39,30.54 8,29.52 Z M51.92,15.37 C51.7660766,15.2514127 51.6058418,15.1412513 51.44,15.04 C48.52,13.55 45.62,12.04 42.68,10.59 C40.82,9.67 38.85,9 37,8 C34,6.28 30.66,5 28.11,2.53 L21.45,11.74 C21.8845784,11.8160441 22.3101608,11.9366817 22.72,12.1 C24.32,12.93 25.89,13.81 27.48,14.66 C28.56,15.23 29.67,15.75 30.74,16.34 C31.57,16.79 32.32,17.34 33.16,17.79 C35.16,18.79 37.23,19.69 39.28,20.63 L39.42,20.71 L44.31,23.82 L51.92,15.37 Z M26.71,21.64 L28.42,18.84 C27.9737017,18.8588009 27.5292749,18.9089242 27.09,18.99 C25.67,19.42 24.27,19.91 22.84,20.32 C22.4686943,20.3750267 22.0913057,20.3750267 21.72,20.32 C21.8154793,19.9770122 21.9392367,19.6425327 22.09,19.32 C22.41,18.74 22.79,18.19 23.24,17.48 C21.3213543,17.1982448 19.3738935,17.7515421 17.89,19 C17.8847864,18.7594969 17.9664443,18.5251744 18.12,18.34 C19.36186,17.1742451 21.0613259,16.6273327 22.75,16.85 C23.38,16.85 23.62,17.23 23.36,17.85 C23.1,18.47 22.8,19.06 22.47,19.78 L23.7,19.44 C25.08,19.07 26.45,18.63 27.86,18.37 C28.73,18.2 28.92,18.51 28.61,19.37 C28.4,19.92 28.09,20.44 27.76,21.11 L28.85,21 C30.14,20.83 31.43,20.62 32.73,20.51 C33.84,20.42 34.05,20.77 33.56,21.74 C33.36,22.14 33.1,22.51 32.86,22.9 L32,24.28 L32.16,24.54 L38.64,22.93 L38.86,23.27 L36.26,26.37 C36.4734584,26.4236002 36.6907912,26.4603796 36.91,26.48 C38.45,26.37 39.99,26.19 41.53,26.16 C42.34,26.16 42.69,25.72 43.16,24.98 C41.74,23.98 40.42,22.98 38.97,22.17 C37.19,21.17 35.3,20.36 33.48,19.42 C31.19,18.24 28.9,17.05 26.63,15.81 C25.1,14.97 23.63,14.04 22.1,13.15 C20.93,12.46 20.73,12.5 19.93,13.63 C19.8,13.82 19.63,13.99 19.48,14.18 L14.82,20.12 L18.73,22.42 C20.05,23.2 21.37,23.96 22.73,24.75 C23.18,25.02 23.59,25.34 24.04,25.62 C25.21,26.35 26.39,27.07 27.55,27.81 C28.86,28.66 30.14,29.57 31.47,30.38 C32.8,31.19 34.35,31.99 35.76,32.84 C36.2,33.11 36.48,33.13 36.83,32.71 C38.01,31.27 39.22,29.85 40.43,28.43 C40.93,27.85 41.43,27.3 42.07,26.65 C41.83563,26.5842436 41.5934191,26.5506032 41.35,26.55 C39.9,26.74 38.47,26.98 37.02,27.14 C36.6557389,27.1699004 36.29492,27.0508301 36.02,26.81 C35.88,26.66 36.02,26.11 36.23,25.81 C36.64,25.16 37.13,24.56 37.59,23.94 C37.0857183,23.8806568 36.5745901,23.9283621 36.09,24.08 C34.96,24.39 33.84,24.73 32.71,25.01 C32.4,25.09 31.83,25.07 31.77,24.93 C31.6550806,24.5689233 31.6550806,24.1810767 31.77,23.82 C31.8827945,23.5224866 32.0488378,23.2480069 32.26,23.01 L33.4,21.1 L33.21,20.79 C31.57,21.08 29.94,21.37 28.3,21.63 C27.7708387,21.6693538 27.2396144,21.6726949 26.71,21.64 L26.71,21.64 Z M35.35,34.31 C34.24,33.68 33.17,33.15 32.18,32.51 C29.4,30.73 26.63,28.94 23.9,27.09 C20.97,25.09 17.9,23.42 14.8,21.63 C14.39,21.39 14.14,21.37 13.8,21.81 C13.19,22.68 12.49,23.49 11.8,24.33 L8.6,28.56 C8.72381741,28.6042929 8.84415237,28.6577751 8.96,28.72 C10.23,29.64 11.5,30.57 12.77,31.48 L16.23,33.89 C17.56,34.81 18.94,35.68 20.23,36.66 C21.52,37.64 22.9,38.93 24.32,40 C25.46,40.82 26.73,41.44 27.95,42.16 C28.89,42.71 29.08,42.65 29.69,41.77 C30.69,40.29 31.78,38.77 32.87,37.36 C33.62,36.32 34.45,35.39 35.35,34.31 Z M60.43,20.74 C60.1670814,20.4908363 59.8899505,20.2571115 59.6,20.04 C57.77,18.86 55.91,17.73 54.1,16.52 C53.52,16.14 53.26,16.31 52.86,16.76 C51.4,18.42 49.86,20.02 48.4,21.66 C47.49,22.66 46.62,23.74 45.64,24.88 C46.79,25.56 47.77,26.14 48.76,26.7 C49.9703519,27.2992986 51.1455883,27.9670466 52.28,28.7 C53.28,29.44 53.28,29.58 54.05,28.62 C56.18,26 58.27,23.42 60.43,20.74 Z M27.43,58.05 C28.61,56.33 29.79,54.47 31.12,52.73 C31.8899427,51.8369226 32.7438613,51.0198397 33.67,50.29 C34.52,49.55 35.43,48.88 36.4,48.1 C35.04,47.25 33.82,46.45 32.57,45.72 C31.7620948,45.2602216 30.9272525,44.8494792 30.07,44.49 C29.8257618,44.3619677 29.5342382,44.3619677 29.29,44.49 C27.59,46.37 25.88,48.26 24.29,50.21 C23.29,51.34 22.53,52.59 21.59,53.87 L27.43,58.05 Z M45.3,38.24 C45.42,38.11 45.6,37.93 45.77,37.73 C47.37,35.88 48.94,34 50.57,32.17 C52.2,30.34 52.43,30.64 50.21,29.17 C48.55,28.08 46.74,27.17 44.98,26.29 C44.7094816,26.2125107 44.4181653,26.2722679 44.2,26.45 C43.7115123,26.9405816 43.2507954,27.4580536 42.82,28 C41.45,29.61 40.05,31.2 38.71,32.85 C37.92,33.85 38.03,34.26 39.15,34.85 C41.16,36 43.2,37.1 45.3,38.24 Z M37.46,54 L37.31,53.79 C36.9114636,53.911864 36.496744,53.9725547 36.08,53.97 C35.6280823,53.8941106 35.2039722,53.7010198 34.85,53.41 C34.71,53.29 34.85,52.81 34.92,52.5 C34.99,52.19 35.07,52.1 35.09,51.89 C35.11,51.68 35.09,51.41 35.01,51.33 C34.8331058,51.230198 34.6168942,51.230198 34.44,51.33 C33.6542517,51.9366293 32.9185482,52.6054506 32.24,53.33 C31.54,54.16 31.02,55.13 30.4,56.03 C29.28,57.73 28.14,59.38 27,61 C27.29,61.34 27.57,61.53 27.66,61.79 C27.93,62.56 28.49,62.55 29.13,62.46 C30.87,62.21 32.62,62.03 34.36,61.74 C35.95,61.46 37.54,61.13 39.1,60.74 C39.5368253,60.6107166 39.8588911,60.2396378 39.9254187,59.7889666 C39.9919464,59.3382953 39.7908379,58.8899861 39.41,58.64 C39.0559556,58.4887565 38.7811871,58.1964912 38.6520598,57.8337955 C38.5229325,57.4710998 38.5511874,57.0709517 38.73,56.73 C38.3669454,56.7253595 38.0052183,56.6851676 37.65,56.61 C37.2024555,56.48078 36.7868897,56.259372 36.43,55.96 C36.34,55.87 36.68,55.31 36.85,54.96 C37.02,54.61 37.26,54.28 37.46,54 Z M61.83,37.17 L61.72,37.17 C61.8250539,37.7941319 61.9891233,38.4068808 62.21,39 C62.73,40.09 63.34,41.14 63.96,42.18 C64.152228,42.3558058 64.4112003,42.4396983 64.67,42.41 C64.9907949,42.097189 65.2132364,41.6974893 65.31,41.26 C65.4552461,40.2002198 65.4078176,39.1229158 65.17,38.08 C64.5607195,36.4017392 63.8356425,34.7678098 63,33.19 C62.83,32.83 62.39,32.61 62,32.27 C61.3,35.27 61.3,35.27 61.7,36.27 C61.7740458,35.9218692 61.8951587,35.5854444 62.06,35.27 C62.2538163,34.9867546 62.5525147,34.7924207 62.89,34.73 C63.1990332,34.8028332 63.4551168,35.0180919 63.58,35.31 C63.8450717,36.1885397 64.0324585,37.0886659 64.14,38 C64.2185179,38.3893831 64.0135522,38.7805376 63.6486992,38.9375935 C63.2838462,39.0946494 62.8588553,38.9746684 62.63,38.65 C62.3080128,38.1886368 62.0396167,37.692104 61.83,37.17 Z M44.34,39.39 C43.96,39.5 43.76,39.55 43.57,39.62 C42.19,40.16 40.83,40.77 39.42,41.23 C38.55,41.52 38.04,41.86 38.21,42.9 C38.2501364,43.6161047 38.2501364,44.3338953 38.21,45.05 C38.2618811,45.4576524 38.3386917,45.8617429 38.44,46.26 L44.34,39.39 Z M38.11,35.83 L38.11,40.14 L42.39,38.48 L42.39,38.2 L38.11,35.83 Z M35.93,46.29 C35.93,45.12 35.93,44.09 35.93,43.06 C35.93,42.51 35.71,42.39 35.18,42.5 C33.78,42.79 32.37,43.02 30.96,43.29 C30.88,43.29 30.81,43.38 30.74,43.42 L35.93,46.29 Z M31.72,41.49 L31.93,41.77 C33.15,41.42 34.37,41.1 35.57,40.7 C35.72,40.65 35.82,40.21 35.81,39.96 C35.81,39.24 35.71,38.53 35.67,37.81 C35.67,37.42 35.67,37.03 35.67,36.65 L35.44,36.59 L31.72,41.49 Z" id="Shape"></path>
                    <path d="M12.93,35.78 L11.68,38 C11.44,38.41 11.17,38.81 10.96,39.23 C10.8611321,39.4683448 10.7873996,39.7163538 10.74,39.97 C11.06,40.03 11.4,40.21 11.68,40.14 C12.68,39.87 13.68,39.52 14.73,39.2 C15.29,39.02 15.85,38.84 16.42,38.7 C16.6390094,38.6704749 16.8609906,38.6704749 17.08,38.7 C17.1011423,38.9528112 17.0739929,39.2073365 17,39.45 C16.73,39.97 16.36,40.45 16.07,40.94 C15.8835274,41.3178255 15.7166397,41.7050051 15.57,42.1 C16.48,42.61 17.26,42.21 18.05,42.1 C18.84,41.99 19.63,41.71 20.43,41.56 C20.628955,41.523463 20.8327582,41.5913974 20.97,41.74 C21.0175223,41.9383813 20.9734726,42.1476176 20.85,42.31 C20.57,42.69 20.22,43.03 19.91,43.39 C19.4244901,43.8301252 19.185391,44.4801759 19.27,45.13 C20.77,44.66 22.27,44.22 23.69,43.72 C24.41,43.48 24.89,43.46 24.95,44.41 C24.95,44.64 25.2,44.86 25.38,45.18 C25.19,45.26 24.96,45.46 24.81,45.41 C24.6342231,45.2811099 24.5186483,45.0860774 24.49,44.87 C24.41,44.17 24.1,44.01 23.49,44.27 C22.37,44.72 21.24,45.18 20.1,45.57 C19.73,45.7 19.03,45.77 18.94,45.57 C18.7225508,45.1775292 18.6896099,44.7090376 18.85,44.29 C19.3476418,43.4927214 19.8954107,42.7278489 20.49,42 C20.1,42.06 19.86,42.08 19.64,42.14 C18.7,42.42 17.78,42.73 16.84,42.98 C16.4743137,43.0599016 16.0956863,43.0599016 15.73,42.98 C15.4053348,42.9615407 15.1196551,42.7594636 14.9941291,42.4594779 C14.8686032,42.1594921 14.9252332,41.8141791 15.14,41.57 C15.5962126,40.8606591 15.971869,40.102638 16.26,39.31 L13.34,40.21 C12.6652041,40.4489048 11.9732062,40.6361119 11.27,40.77 C10.8936375,40.8062496 10.522446,40.6614849 10.27,40.38 C10.1619544,40.0142188 10.2089582,39.6201103 10.4,39.29 C10.91,38.29 11.5,37.38 12.05,36.43 L11.92,36.24 C11.07,36.56 10.22,36.87 9.37,37.24 C8.86,37.45 8.37,37.73 7.83,37.9 C6.76,38.24 6.35,38 6.17,36.9 C6.07603971,35.9080727 6.24144447,34.9087523 6.65,34 L6.86,34 C6.86,34.71 6.74,35.42 6.74,36.13 C6.74,37.34 7.13,37.59 8.26,37.13 C9.39,36.67 10.72,36.13 11.95,35.64 C12.192394,35.5708462 12.4398102,35.5206943 12.69,35.49 L12.93,35.78 Z" id="Path"></path>
                    <path d="M43.06,16.14 C42.06,16.37 41.12,16.59 40.15,16.83 C39.92,16.88 39.71,17.06 39.48,17.06 C39.09,17.06 38.48,17.11 38.34,16.9 C38.066527,16.4203702 38.1760631,15.8137086 38.6,15.46 C39.1427441,14.8502687 39.6534329,14.2127422 40.13,13.55 C39.0356791,13.485257 37.9403686,13.6592783 36.92,14.06 C36.13,14.28 35.35,14.58 34.56,14.78 C34.29,14.85 33.79,14.78 33.73,14.65 C33.6188935,14.3224369 33.6367731,13.9648465 33.78,13.65 C34.03,13.13 34.42,12.65 34.71,12.18 C34.7901891,11.9708403 34.8439385,11.7524834 34.87,11.53 C34.64,11.53 34.39,11.36 34.2,11.42 C33.09,11.77 31.99,12.17 30.89,12.55 C30.69,12.62 30.51,12.77 30.31,12.82 C30.0938051,12.8402206 29.8761949,12.8402206 29.66,12.82 C29.74,12.61 29.81,12.4 29.9,12.21 C30.32,11.3 30.77,10.39 31.18,9.47 C31.2215906,9.22508649 31.2215906,8.97491351 31.18,8.73 C29,9.11 27.87,10.71 26.42,12 C25.88,11.6 26.23,11.2 26.52,11 C27.45,10.26 28.43,9.59 29.4,8.89 C29.5880431,8.71494206 29.8089846,8.57897805 30.05,8.49 C30.4602738,8.34287089 30.9031747,8.31172942 31.33,8.4 C31.53,8.48 31.64,9.1 31.6,9.4 C31.501073,9.89696103 31.3432946,10.3803673 31.13,10.84 C31.01,11.16 30.85,11.46 30.64,11.9 C31.56,11.61 32.36,11.33 33.18,11.1 C33.6107121,10.9676949 34.059471,10.9035865 34.51,10.91 C35.51,10.91 35.74,11.41 35.31,12.29 C35.12,12.67 34.85,13.01 34.63,13.37 C34.4655477,13.6186691 34.3817431,13.9119854 34.39,14.21 L36.39,13.69 C37.39,13.44 38.39,13.14 39.39,12.96 C39.7965336,12.9714553 40.1984771,13.0491418 40.58,13.19 C40.5105842,13.5946808 40.3965556,13.9904273 40.24,14.37 C39.9673916,14.7655565 39.673631,15.1461101 39.36,15.51 C39.1583439,15.8329228 38.9747293,16.1667675 38.81,16.51 C40.08,16.25 41.16,16.02 42.25,15.81 C42.5349019,15.7416797 42.8270271,15.7081021 43.12,15.71 C43.35,15.71 43.77,15.82 43.78,15.92 C43.8159058,16.1991663 43.7444167,16.4815483 43.58,16.71 C43.14,17.27 42.58,17.76 42.14,18.3 C42.0124763,18.4793003 41.9019956,18.6701308 41.81,18.87 C42.0339251,18.9794587 42.2734161,19.0536672 42.52,19.09 C43.37,19.09 44.22,19.02 45.07,19 C45.29318,19.0058206 45.50511,19.0992135 45.66,19.26 C45.49,19.36 45.34,19.53 45.17,19.54 C44.11,19.62 43.05,19.68 42,19.71 C41.19,19.71 40.94,19.32 41.41,18.62 C41.7650008,18.1558357 42.1455907,17.7118141 42.55,17.29 C42.79,17 42.99,16.68 43.22,16.38 L43.06,16.14 Z" id="Path"></path>
                    <path d="M32,35.45 C31.16,36.21 30.23,36.38 29.68,35.92 C29.13,35.46 29.11,34.43 29.82,33.12 C28.72,32.93 27.88,33.62 26.93,33.86 C26.27,34.02 25.63,34.3 24.93,34.46 C24.23,34.62 23.74,34.24 23.99,33.46 C24.3008637,32.735361 24.6686824,32.0365053 25.09,31.37 C25.27,31.03 25.41,30.66 25.57,30.3 L25.46,30.06 C24.46,30.28 23.46,30.49 22.46,30.72 C21.8225222,30.9045867 21.1747362,31.0515072 20.52,31.16 C20.2,31.16 19.86,30.96 19.52,30.85 C19.5830837,30.541151 19.69445,30.2441742 19.85,29.97 C20.39,29.33 20.99,28.73 21.57,28.11 L21.5,27.86 C20.9859413,27.8621937 20.4733907,27.9157937 19.97,28.02 C18.64,28.44 17.33,28.94 15.97,29.38 C15.7011834,29.4434293 15.4261819,29.4769661 15.15,29.48 C15.1543812,29.1812197 15.2154634,28.8859895 15.33,28.61 C15.88,27.76 16.5,26.96 17.06,26.12 C17.1850939,25.9311985 17.2181715,25.6959795 17.15,25.48 C17.07,25.35 16.73,25.31 16.52,25.34 C14.7947779,25.4963497 13.143562,26.1146921 11.74,27.13 C11.68,27.18 11.56,27.18 11.35,27.05 C11.57,26.83 11.75,26.53 12.02,26.42 C13.36,25.86 14.73,25.36 16.1,24.84 C16.200278,24.8080355 16.3047574,24.791184 16.41,24.79 C17.56,24.7 17.94,25.17 17.41,26.2 C16.8998788,27.115051 16.3424576,28.0029196 15.74,28.86 C16.24,28.67 16.59,28.51 16.95,28.41 C18.31,28.04 19.67,27.67 21.04,27.35 C21.3778271,27.3298858 21.7165231,27.3705293 22.04,27.47 C22.0228872,27.8153584 21.9414948,28.1544933 21.8,28.47 C21.3844494,29.022634 20.9405199,29.5533466 20.47,30.06 C20.3635209,30.224267 20.2731038,30.3984036 20.2,30.58 C21.15,30.37 21.93,30.2 22.72,30.05 C23.51,29.9 24.44,29.7 25.31,29.59 C25.91,29.52 26.16,29.87 25.94,30.45 C25.78164,30.8400444 25.5944558,31.2177553 25.38,31.58 L24.29,33.58 L24.52,33.9 C25.44,33.66 26.37,33.44 27.29,33.17 C28.21,32.9 28.91,32.67 29.72,32.41 C30.3,32.22 30.4,32.48 30.27,32.96 C30.1692179,33.1764286 30.0856265,33.4004537 30.02,33.63 C29.8829484,34.1265471 29.8760606,34.6500188 30,35.15 C30.26,35.75 30.93,35.64 31.5,35.52 C31.63,35.49 31.78,35.48 32,35.45 Z" id="Path"></path>
                </g>
            </g>
        </g>
    </g>
</svg>