<svg xmlns="http://www.w3.org/2000/svg" viewBox="0 0 66.67 64.1"><defs><style>.cls-1{fill:#f89fbc;}.cls-2{fill:#e8ae01;}.cls-3{fill:#97908a;}</style></defs><title>elected-icon</title><g id="Layer_2" data-name="Layer 2"><g id="Layer_1-2" data-name="Layer 1"><path d="M66.51,36.57a11.78,11.78,0,0,1,.36,4.4c-.07,1.16-1.15,1.8-2,2.5C63,45,61.2,46.47,59.4,48c-1.41,1.18-2.84,2.33-4.19,3.57-2.55,2.35-5.55,4-8.34,6-1.49,1.06-3,2.11-4.4,3.26a10.26,10.26,0,0,1-4.62,2.09c-3.11.58-6.25,1.08-9.4,1.38A24.6,24.6,0,0,1,23.71,64a2.79,2.79,0,0,1-.75-.3l3.53-4.51c-.28-.19-.47-.44-.65-.43a3.73,3.73,0,0,1-2.19-1c-2.46-1.63-4.95-3.21-7.4-4.86-.74-.51-1.35-1.2-2.05-1.76-1.86-1.47-3.76-2.88-5.6-4.37-1.49-1.2-2.9-2.5-4.38-3.73C3.14,42.08,2,41.24.89,40.36c-.36-.29-1.1-.42-.23-1.11.4-.32.37-1.14.64-1.68a49.09,49.09,0,0,1,5.24-8.75c2.1-2.71,4.22-5.41,6.14-8.24,2.09-3.08,4.3-6.06,6.6-9S23.73,5.3,26,2.17A8.17,8.17,0,0,1,27.81.43c.6-.44,1.16,0,1.63.39,1,.78,2,1.73,3.11,2.42a41.33,41.33,0,0,0,4,2.07c3.17,1.54,6.38,3,9.53,4.61s6.54,3.34,9.76,5.1c1.16.63,2.18,1.53,3.28,2.28.94.65,1.94,1.21,2.84,1.89s.8.86.14,1.67c-.52.64-1.06,1.27-1.59,1.9-.07.08-.19.17-.18.26,0,1.34-1.17,1.87-1.84,2.74a31.91,31.91,0,0,1-2.35,2.71c-.9.94-1.94,1.76-2.8,2.73-2,2.31-3.93,4.69-5.93,7-.89,1-1.87,2-2.8,3L44,42l.12.17c.82-.47,1.68-.89,2.46-1.42,1.63-1.12,3.19-2.32,4.82-3.44,2.06-1.42,4.16-2.78,6.23-4.19,1.17-.79,2.34-1.58,3.46-2.43.85-.63,1.18-.58,2,.08A11.81,11.81,0,0,1,66.51,36.57Zm-1,4a9.12,9.12,0,0,0-.13-3.18,41.58,41.58,0,0,0-2.19-4.93c-.18-.35-.62-.58-1-.92-.7,3-.7,3-.3,4a3.59,3.59,0,0,1,.37-1,1.26,1.26,0,0,1,.83-.54.94.94,0,0,1,.68.58,15.79,15.79,0,0,1,.56,2.63.84.84,0,0,1-1.51.64,6.89,6.89,0,0,1-.79-1.44l-.12,0a10,10,0,0,0,.49,1.82c.52,1.09,1.13,2.14,1.76,3.18a.87.87,0,0,0,.7.23A2.3,2.3,0,0,0,65.56,40.55Zm-2.8,1.9a2.56,2.56,0,0,0,.36-.41c-.82-1.51-1.57-2.87-2.29-4.26a8.33,8.33,0,0,1-.91-4.58,1.59,1.59,0,0,0-.37.12c-2.49,1.64-5,3.26-7.47,4.93-1.79,1.2-3.52,2.49-5.32,3.67-1.49,1-3.09,1.81-4.56,2.82s-3,2.3-4.54,3.46c-.49.38-1,.79-1.57,1.27a1.64,1.64,0,0,1,1,2.37c.5,0,.9.07,1.28.13,1.14.18,1.55,1,1,1.94-.13.24-.25.49-.37.75,2.09.89,2.1.91,1.74,2.33a3.2,3.2,0,0,1,.55.42c.51.59.94.47,1.52,0C44.41,56.24,46,55.06,47.66,54A117.31,117.31,0,0,0,62.76,42.45ZM60.68,20a9.35,9.35,0,0,0-.82-.7C58,18.12,56.16,17,54.35,15.77c-.58-.38-.84-.21-1.24.24-1.46,1.66-3,3.26-4.46,4.9-.91,1-1.78,2.08-2.76,3.23C47.05,24.81,48,25.39,49,26a35.57,35.57,0,0,1,3.52,2c1,.74,1,.88,1.77-.08C56.43,25.28,58.52,22.67,60.68,20Zm-8.51-5.37a5.38,5.38,0,0,0-.48-.33c-2.91-1.49-5.82-3-8.75-4.45-1.87-.92-3.83-1.64-5.65-2.63-3.07-1.68-6.38-3-8.93-5.43C26.13,4.86,23.92,7.93,21.7,11a6.42,6.42,0,0,1,1.27.36c1.6.83,3.17,1.71,4.76,2.56,1.08.57,2.2,1.09,3.27,1.68.82.45,1.57,1,2.41,1.45,2,1,4.08,1.9,6.12,2.84l.14.08,4.9,3.11ZM50.82,31.43c1.59-1.79,1.86-1.54-.36-3-1.66-1.09-3.47-2-5.23-2.88a.86.86,0,0,0-.78.16,20.35,20.35,0,0,0-1.38,1.55c-1.37,1.61-2.77,3.21-4.1,4.85-.8,1-.69,1.41.44,2,2,1.12,4,2.2,6.14,3.34L46,37C47.62,35.13,49.19,33.25,50.82,31.43Zm-6.23,7.21c-.38.11-.58.16-.77.23-1.38.54-2.74,1.15-4.15,1.61-.87.29-1.38.63-1.21,1.67a19.21,19.21,0,0,1,0,2.15,10.06,10.06,0,0,0,.23,1.21Zm-1.9-13.56a3.42,3.42,0,0,0,.68-.85c-1.41-1-2.74-2-4.18-2.81-1.62-.92-3.34-1.67-5-2.51-.17-.07-.33-.16-.49-.24-1.4-.72-2.79-1.44-4.18-2.18h0c-.89-.46-1.78-.94-2.66-1.42-1.54-.84-3-1.77-4.54-2.66-1.17-.69-1.37-.65-2.17.48-.13.19-.3.37-.45.55l-2.52,3.22L15,19.37l3.9,2.3c1.32.78,2.64,1.54,4,2.33.45.27.87.59,1.31.87,1.17.73,2.35,1.45,3.51,2.19,1.32.85,2.59,1.76,3.93,2.57s2.87,1.61,4.28,2.46c.45.27.72.29,1.07-.13,1.19-1.44,2.39-2.86,3.6-4.28.51-.58,1-1.13,1.65-1.78l-.28,0c.21-.2.41-.38.61-.59A.44.44,0,0,0,42.69,25.08Zm0,12.65a2.64,2.64,0,0,0,0-.28l-4.3-2.37V39.4ZM39.37,60a1.17,1.17,0,0,0,.31-2.1A1.38,1.38,0,0,1,39,56a4.88,4.88,0,0,1-1.08-.12,3.29,3.29,0,0,1-1.21-.65c-.1-.09.24-.65.41-1s.39-.67.59-1L37.56,53a4.12,4.12,0,0,1-1.23.18,2.62,2.62,0,0,1-1.23-.56c-.14-.12,0-.6.07-.91s.15-.4.17-.61,0-.48-.08-.56a.61.61,0,0,0-.57,0,19.4,19.4,0,0,0-2.2,2c-.69.83-1.22,1.8-1.83,2.7-1.13,1.66-2.27,3.31-3.39,4.94.3.34.57.53.66.79.27.77.83.76,1.47.67,1.74-.25,3.5-.43,5.23-.72S37.81,60.39,39.37,60ZM36.18,45.55c0-1.18,0-2.21,0-3.24,0-.55-.22-.67-.75-.56-1.4.29-2.81.52-4.22.79-.08,0-.15.09-.22.13Zm-.11-6.34c0-.72-.11-1.43-.15-2.15,0-.39,0-.78,0-1.16l-.23-.06L32,40.74l.22.28c1.21-.35,2.43-.67,3.63-1.07C36,39.9,36.07,39.46,36.07,39.21ZM33.94,49.54c.85-.74,1.76-1.41,2.73-2.19-1.36-.85-2.58-1.65-3.83-2.38a23.17,23.17,0,0,0-2.5-1.23.84.84,0,0,0-.78,0c-1.7,1.88-3.4,3.77-5,5.72-1,1.13-1.76,2.38-2.7,3.66l5.88,4.13c1.17-1.72,2.35-3.58,3.69-5.32A18.37,18.37,0,0,1,33.94,49.54Zm-.82-13c.75-1,1.59-1.93,2.49-3-1.12-.63-2.19-1.16-3.18-1.8L31,30.86q-2.12-1.35-4.22-2.73l-2.66-1.79c-2.94-2-6.06-3.67-9.1-5.46-.42-.24-.67-.26-1,.18-.62.87-1.32,1.68-2,2.52L8.85,27.81a2.64,2.64,0,0,1,.36.16c1.27.92,2.54,1.85,3.81,2.76l3.46,2.41c1.34.92,2.71,1.79,4,2.77s2.67,2.27,4.09,3.29c1.14.82,2.41,1.44,3.63,2.16.95.55,1.13.49,1.74-.39C31,39.49,32,38,33.12,36.57ZM27.4,44c.36-.33.67-.72,1.08-1.16-.83-.45-1.59-.78-2.27-1.23Q24.34,40.32,22.48,39c-.62-.42-1.23-.85-1.84-1.29s-1.24-.91-1.85-1.38-1.22-.94-1.85-1.39-1.55-1.07-2.33-1.6-1.56-1.06-2.33-1.61c-1.34-.95-2.64-2-4-3A29.11,29.11,0,0,0,5,33.2C4,34.75,3.16,36.37,2.32,38c.9.85,1.81,1.77,2.79,2.61,1.55,1.34,3.14,2.62,4.71,3.93.33.26.64.55,1,.82,1.26,1,2.48,2.17,3.81,3.13s2.86,1.82,4.29,2.75c1.64,1.07,1.64,1.09,2.82-.47A46,46,0,0,1,27.4,44Z" transform="translate(-0.25 -0.25)"/><path class="cls-1" d="M65.43,37.37a9.12,9.12,0,0,1,.13,3.18,2.3,2.3,0,0,1-.64,1.15.87.87,0,0,1-.7-.23c-.63-1-1.24-2.09-1.76-3.18A10,10,0,0,1,62,36.47l.12,0a6.89,6.89,0,0,0,.79,1.44.84.84,0,0,0,1.51-.64,15.79,15.79,0,0,0-.56-2.63.94.94,0,0,0-.68-.58,1.26,1.26,0,0,0-.83.54,3.59,3.59,0,0,0-.37,1c-.4-1.06-.4-1.06.3-4,.37.34.81.57,1,.92A41.58,41.58,0,0,1,65.43,37.37Z" transform="translate(-0.25 -0.25)"/><path class="cls-2" d="M63.12,42a2.56,2.56,0,0,1-.36.41A117.31,117.31,0,0,1,47.66,54c-1.66,1.07-3.25,2.25-4.82,3.44-.58.45-1,.57-1.52,0a3.2,3.2,0,0,0-.55-.42c.36-1.42.35-1.44-1.74-2.33.12-.26.24-.51.37-.75.51-1,.1-1.76-1-1.94-.38-.06-.78-.08-1.28-.13a1.64,1.64,0,0,0-1-2.37c.6-.48,1.08-.89,1.57-1.27,1.51-1.16,3-2.38,4.54-3.46s3.07-1.84,4.56-2.82c1.8-1.18,3.53-2.47,5.32-3.67,2.48-1.67,5-3.29,7.47-4.93a1.59,1.59,0,0,1,.37-.12,8.33,8.33,0,0,0,.91,4.58C61.55,39.17,62.3,40.53,63.12,42Z" transform="translate(-0.25 -0.25)"/><path class="cls-3" d="M45.88,18.48c-.17.1-.32.27-.49.28-1.06.08-2.11.14-3.17.18-.81,0-1.06-.4-.59-1.1.32-.48.77-.88,1.14-1.33.24-.29.45-.61.67-.91l-.12-.21c-1,.23-2,.45-2.91.69a3,3,0,0,1-.68.23c-.39,0-1,.05-1.14-.16a1.14,1.14,0,0,1,.26-1.44,21.58,21.58,0,0,0,1.53-1.91,7.59,7.59,0,0,0-3.21.51c-.79.22-1.56.52-2.36.72-.26.07-.77,0-.83-.13a1.36,1.36,0,0,1,.05-1c.25-.52.64-1,.93-1.47a2.29,2.29,0,0,0,.16-.65c-.23,0-.48-.17-.67-.11-1.11.35-2.21.75-3.31,1.13-.2.07-.38.22-.58.27a3.49,3.49,0,0,1-.65,0c.08-.21.15-.42.24-.61.43-.91.87-1.82,1.28-2.74a2.21,2.21,0,0,0,0-.74c-2.14.31-3.32,1.91-4.77,3.15-.54-.4-.18-.8.1-1,.93-.74,1.91-1.41,2.88-2.1a1.82,1.82,0,0,1,.65-.41,2.37,2.37,0,0,1,1.28-.09c.2.08.31.7.27,1a6.19,6.19,0,0,1-.46,1.44c-.13.32-.29.63-.5,1.07.92-.3,1.72-.58,2.54-.81a4.32,4.32,0,0,1,1.33-.19c1,0,1.23.5.8,1.38-.19.38-.46.72-.68,1.08a1.47,1.47,0,0,0-.24.84l2-.52c1-.25,2-.55,3-.73a3.64,3.64,0,0,1,1.19.23,5,5,0,0,1-.34,1.18,13.35,13.35,0,0,1-.88,1.14c-.18.26-.31.57-.55,1l3.44-.7a3.63,3.63,0,0,1,.87-.1c.24,0,.65.11.67.21a1.16,1.16,0,0,1-.2.79c-.45.56-1,1.05-1.44,1.59a3,3,0,0,0-.34.57,2.21,2.21,0,0,0,.72.22c.84,0,1.69-.06,2.54-.09A.85.85,0,0,1,45.88,18.48Z" transform="translate(-0.25 -0.25)"/><path class="cls-3" d="M40.81,25.45l0,0a1.19,1.19,0,0,0-.09.15.47.47,0,0,0,0,.28c-1.17.17-2.35.35-3.52.48a1.36,1.36,0,0,1-1.05-.33c-.14-.15,0-.7.21-1,.41-.65.91-1.25,1.37-1.87a3.84,3.84,0,0,0-1.51.14c-1.13.31-2.24.65-3.38.93-.3.08-.88.06-.94-.08a1.91,1.91,0,0,1,0-1.11,3,3,0,0,1,.49-.81l1.25-1.93c-.06-.1-.13-.2-.19-.31-1.63.29-3.26.58-4.9.84a11.76,11.76,0,0,1-1.59,0l1.7-2.8a9.17,9.17,0,0,0-1.32.15c-1.43.43-2.83.92-4.26,1.34a4.58,4.58,0,0,1-1.11,0,5.42,5.42,0,0,1,.36-1c.32-.58.7-1.13,1.15-1.84a6.78,6.78,0,0,0-5.35,1.55,1.08,1.08,0,0,1,.23-.66A5.64,5.64,0,0,1,23,16.1c.63,0,.87.37.61,1s-.55,1.21-.89,1.93L24,18.66c1.39-.37,2.76-.81,4.16-1.07a1,1,0,0,1,.77.06c.18.15.16.46,0,.94s-.51,1.07-.84,1.74l1.08-.13c1.29-.17,2.58-.38,3.88-.49a2,2,0,0,1,.78.05c.39.14.39.51.05,1.18-.2.4-.46.78-.7,1.16s-.6,1-.89,1.43l.15.26,6.49-1.61.21.35-2.6,3.09a4.21,4.21,0,0,0,.65.11C38.35,25.64,39.58,25.52,40.81,25.45Z" transform="translate(-0.25 -0.25)"/><path class="cls-1" d="M39.68,57.86a1.17,1.17,0,0,1-.31,2.1c-1.56.43-3.15.76-4.74,1s-3.49.47-5.23.72c-.64.09-1.2.1-1.47-.67-.09-.26-.36-.45-.66-.79,1.12-1.63,2.26-3.28,3.39-4.94.61-.9,1.14-1.87,1.83-2.7a19.4,19.4,0,0,1,2.2-2,.61.61,0,0,1,.57,0c.11.08.1.37.08.56s-.14.4-.17.61-.21.79-.07.91a2.62,2.62,0,0,0,1.23.56A4.12,4.12,0,0,0,37.56,53l.15.21c-.2.33-.41.66-.59,1s-.51.89-.41,1a3.29,3.29,0,0,0,1.21.65A4.88,4.88,0,0,0,39,56,1.38,1.38,0,0,0,39.68,57.86Z" transform="translate(-0.25 -0.25)"/><path class="cls-3" d="M31.75,34.77c.14,0,.28,0,.5-.07-.84.76-1.77.93-2.32.47s-.57-1.49.15-2.8c-1.11-.19-1.95.5-2.9.74-.66.16-1.3.44-2,.6s-1.19-.22-.94-1a14.92,14.92,0,0,1,1.1-2.09c.18-.34.32-.71.48-1.07a2.56,2.56,0,0,0-.11-.24c-1,.22-2,.43-3,.66a16.46,16.46,0,0,1-1.94.44c-.32,0-.66-.2-1-.31a2.71,2.71,0,0,1,.32-.88c.54-.64,1.15-1.24,1.72-1.85l-.06-.26a7.73,7.73,0,0,0-1.54.16c-1.33.42-2.64.92-4,1.36a3.75,3.75,0,0,1-.82.1,2.36,2.36,0,0,1,.18-.87c.55-.85,1.17-1.65,1.73-2.49a.75.75,0,0,0,.09-.64c-.08-.13-.41-.16-.62-.13a9.56,9.56,0,0,0-4.79,1.78c-.06.05-.17.05-.39-.08.22-.21.4-.52.67-.63,1.35-.56,2.71-1.06,4.08-1.58a1.06,1.06,0,0,1,.31-.05c1.15-.08,1.53.38,1,1.41a30.18,30.18,0,0,1-1.67,2.66c.51-.19.85-.35,1.21-.45,1.36-.37,2.72-.74,4.1-1.06a2.75,2.75,0,0,1,1,.12,2.78,2.78,0,0,1-.24,1,18.06,18.06,0,0,1-1.33,1.59,3.32,3.32,0,0,0-.26.52c.94-.2,1.73-.38,2.51-.53s1.72-.35,2.59-.46a.73.73,0,0,1,.56.12c.17.15.2.4.07.74a8.48,8.48,0,0,1-.56,1.13c-.35.66-.72,1.32-1.09,2,.08.11.15.22.23.32.92-.24,1.85-.46,2.77-.73s1.62-.5,2.43-.76a.67.67,0,0,1,.45,0c.17.07.18.29.1.6a5.26,5.26,0,0,0-.25.66,3,3,0,0,0-.12,1.47C30.51,35,31.18,34.89,31.75,34.77Z" transform="translate(-0.25 -0.25)"/><path class="cls-3" d="M25.63,44.44c-.18.08-.42.28-.57.23a.74.74,0,0,1-.31-.54c-.09-.69-.4-.86-1-.6-1.12.46-2.25.91-3.39,1.3-.37.13-1.06.2-1.16,0a1.55,1.55,0,0,1-.09-1.29,21,21,0,0,1,1.68-2.32c-.39.06-.64.08-.86.14-.94.28-1.86.59-2.8.84a2.6,2.6,0,0,1-1.11,0,.85.85,0,0,1-.59-1.41,11.34,11.34,0,0,0,1.12-2.26c-1,.3-1.94.61-2.92.9a13.47,13.47,0,0,1-2.07.56,1.16,1.16,0,0,1-1-.39,1.43,1.43,0,0,1,.13-1.09c.51-1,1.1-1.91,1.65-2.86a1.27,1.27,0,0,0-.13-.19l-2.54,1c-.52.21-1,.49-1.54.66-1.08.34-1.49.1-1.67-1a4.87,4.87,0,0,1,.28-2.31c.06-.19.12-.38.19-.56l.21,0C7.07,34,7,34.71,7,35.42c0,1.21.39,1.46,1.52,1l3.7-1.49a4.41,4.41,0,0,1,.74-.15l.23.24c-.41.75-.83,1.5-1.25,2.25-.23.41-.5.81-.72,1.24a4.13,4.13,0,0,0-.22.73c.32.06.67.24.95.17,1-.27,2-.62,3.05-.94.55-.17,1.11-.36,1.68-.5l.17,0c.16,0,.33,0,.49,0a2,2,0,0,1-.07.75c-.28.52-.65,1-.93,1.49a11,11,0,0,0-.51,1.16c.91.51,1.69.12,2.48,0s1.58-.39,2.38-.54a.71.71,0,0,1,.47.1s.06,0,.07.08a.68.68,0,0,1-.12.57c-.28.38-.62.72-.93,1.08a2,2,0,0,0-.65,1.74c1.5-.47,3-.91,4.43-1.41.71-.24,1.19-.26,1.25.69C25.21,43.9,25.45,44.12,25.63,44.44Z" transform="translate(-0.25 -0.25)"/></g></g></svg>