<svg xmlns="http://www.w3.org/2000/svg" viewBox="0 0 47.65 71.9"><title>emergancy-icon</title><g id="Layer_2" data-name="Layer 2"><g id="Layer_1-2" data-name="Layer 1"><path d="M29.48,71.9c-1.48-.13-2.91-.32-4.35-.38-1.9-.08-3.81-.12-5.72-.07A46.65,46.65,0,0,1,7.5,70.39C5.1,69.84,2.84,69,1.28,66.86A3.29,3.29,0,0,1,.42,64.6c.11-2.29,0-4.59,0-6.89C.29,54.34.07,51,0,47.61c0-1.46.23-2.92.33-4.39.12-1.87.23-3.75.31-5.62.09-2.34.07-4.69.24-7,.25-3.61.62-7.21.94-10.82s.54-7.2,1-10.78A54,54,0,0,1,3.88,3.09,1.67,1.67,0,0,1,5.5,1.62a2.75,2.75,0,0,0,.82-.31,13.79,13.79,0,0,1,7-.64A16.33,16.33,0,0,0,17.93.54,45.89,45.89,0,0,1,27.51.06c1.57.07,3.16-.06,4.73.06,1.84.14,3.66.45,5.49.68L42,1.35A4.28,4.28,0,0,1,44.8,2.77,8.67,8.67,0,0,1,47,5.87a7.84,7.84,0,0,1,.25,2c.17,3.29.42,6.57.45,9.86,0,1.82-.41,3.64-.49,5.47-.06,1.16.24,2.33.25,3.5,0,3.3.05,6.61,0,9.91,0,1.24-.36,2.47-.44,3.71s0,2.51-.06,3.75c-.28,3.69-.64,7.37-.94,11-.08,1,0,1.94,0,2.91a26.53,26.53,0,0,1-.44,4.37,8.62,8.62,0,0,1-3.78,5.8,21.19,21.19,0,0,1-6.82,3.16C33.1,71.66,31.26,71.71,29.48,71.9Zm-27.11-10H2.32c0,.52-.06,1-.06,1.58,0,.22,0,.53.13.64a15.81,15.81,0,0,0,2.54,2.11c2.36,1.36,5.06,1.08,7.64,1.4s4.95-.39,7.5.11a25.57,25.57,0,0,0,6.54,0,45.08,45.08,0,0,0,5.11-.87c2.25-.44,4.51-.91,6.76-1.37A1.77,1.77,0,0,0,40,64c.16-1.36.11-2.73.26-4.09.26-2.39.63-4.76.9-7.15.24-2.19.41-4.39.61-6.58.17-1.84.36-3.68.49-5.52.21-3,.36-6,.55-8.94.1-1.52.33-3,.35-4.56,0-2.39-.24-4.79-.09-7.17.21-3.25.83-6.48.5-9.75-.2-2.07-.49-4.13-.82-6.19a1.46,1.46,0,0,0-1.44-1.29c-2.07-.25-4.13-.61-6.2-.91a25.64,25.64,0,0,0-2.62-.31c-1.84-.06-3.69,0-5.54-.06A52.62,52.62,0,0,0,18.19,2a27.71,27.71,0,0,1-6,0,11.08,11.08,0,0,0-5.51.52,1.17,1.17,0,0,0-.85,1.07C5.47,7,5,10.33,4.66,13.71c-.49,4.53-.92,9.07-1.35,13.61q-.39,4-.67,8.09c-.13,1.83-.08,3.68-.29,5.51a51.87,51.87,0,0,0-.49,9.24C2.09,54.06,2.2,58,2.37,61.87Z"/><path d="M40,6.3,39,6.5l1.26.4c-.14,3.07.45,6.13,0,9.25A38.88,38.88,0,0,0,40.07,26,26.15,26.15,0,0,1,39.9,30c-.08,1.93-.17,3.86-.19,5.79,0,1.75.21,3.53,0,5.27-.22,2.44-.72,4.85-1.06,7.28-.1.71,0,1.44-.08,2.15a1.28,1.28,0,0,1-.4.89,8.11,8.11,0,0,1-2.31,1c-2.33.43-4.69.77-7,1-2,.22-3.93.27-5.89.44-2.43.2-4.84.55-7.27.64s-5,0-7.49-.07H6.54C4,54.38,3.59,54,3.7,51.55c.12-2.66.43-5.33.42-8,0-4.22.82-8.36,1-12.55.09-1.73.26-3.46.38-5.18.24-3.46.49-6.92.69-10.38.11-1.94.14-3.88.2-5.82,0-1.72.71-3,1.86-3.28a32.59,32.59,0,0,1,3.82-.58c1.1-.11,2.21,0,3.32-.15,1.75-.16,3.48-.49,5.23-.55A36.7,36.7,0,0,1,27,5.22a45.08,45.08,0,0,0,5.93,0c1.43,0,2.86.08,4.3.14A11.17,11.17,0,0,1,39,5.59a6,6,0,0,1,1.11.47Zm-2,21c0-1.11,0-2.13,0-3.15.08-2.69.2-5.37.28-8.06,0-1.36,0-2.73.06-4.09,0-1.6,0-3.21,0-4.85-.75-.09-1.27-.2-1.8-.21-3.4-.06-6.81-.07-10.22-.14-1,0-1.93-.3-2.89-.25-3,.18-6,.46-9.06.68-.85.07-1.7,0-2.55.06s-1.64,0-2.46.06a.76.76,0,0,0-.57.3A9.4,9.4,0,0,0,8.09,10c-.29,2.86-.48,5.73-.7,8.6-.07.91-.11,1.83-.15,2.55A18.67,18.67,0,0,1,9.4,21c.54,0,1,.5.81,1-.11.27-.87.39-1.32.35a8.37,8.37,0,0,1-1.77-.57l-.39,6.36c.68-.08,1.52-.13,1.57.68.06,1-1,.33-1.45.71a4.38,4.38,0,0,0-.21.72c-.34,2.31-.58,4.63-1,6.92-.53,2.72-.25,5.44-.33,8.16,0,1.84-.06,3.67-.08,5.51,0,.51,0,1,0,1.55,0,.71.49.91,1.06.9,1.63,0,3.26-.16,4.89-.21,2.15-.07,4.31,0,6.46-.17,3.06-.21,6.12-.54,9.17-.87s5.94-.71,8.91-1.1a.94.94,0,0,0,.64-.57,60.6,60.6,0,0,0,1.21-6.23,61.55,61.55,0,0,0,.2-6.23c0-3.07,0-6.13,0-9.23-1,0-2.23.36-3.32-.64C35.51,27.05,36.79,27.29,38,27.29Z"/><path d="M20.31,64.92a4.14,4.14,0,0,1-4.44-3.69c-.06-1.55.77-2.64,1.58-3.8,2.12-3,5.63-2.71,8.18-1.75,1.49.57,1.86,2,1.86,3.52a5.29,5.29,0,0,1-3.88,5c-1.05.38-2.15.64-3.23,1Zm.18-1.32.09.22c.88-.33,1.79-.62,2.66-1a3.84,3.84,0,0,0,2.09-3.94,3.27,3.27,0,0,0-1-1.78,4.06,4.06,0,0,0-5,.4,5.64,5.64,0,0,0-1.25,2C17.45,61.39,17.89,63.63,20.49,63.6Z"/><path d="M19.42,15.31c.21-1.08.46-2.14.6-3.21.11-.89.67-1.23,1.4-1.49,1.6-.57,3.25.1,3.51,1.54.13.67-.26,1.51,0,2.06s1.26.67,1.62,1.19c.8,1.2,1.37,2.55,2.11,3.79,1.07,1.77.81,3.79,1.18,5.69a4.75,4.75,0,0,0,1.61,2.42A10.09,10.09,0,0,1,34,32.65c.36,1.77.37,3.6.75,5.36.22,1-.25,1.43-.94,1.83-2.24,1.29-4.44,2.63-6.72,3.83-2,1-4.2,1.07-6.37,1.18-.47,0-1,0-1.41,0a12.62,12.62,0,0,1-8.72-2.73c-2.28-1.64-2.84-4.17-2.25-7A13.48,13.48,0,0,1,11.16,30c1.39-1.88,3.06-3.61,3.8-5.88a35.27,35.27,0,0,0,.95-4.19C16.28,18.05,17.25,16,19.42,15.31ZM9.89,36.83l2-1c2.13-1,4.17-2.31,6.65-2.4.28,0,.56-.21.84-.24,1.7-.14,3.3-.92,5.1-.51a20.32,20.32,0,0,1,7.93,3.69,4.13,4.13,0,0,0,.81.42l.25-.14c-.48-2-.83-4-1.49-5.94a8.15,8.15,0,0,0-2-3.08A4.87,4.87,0,0,1,28.56,24a12.73,12.73,0,0,0-3.19-8,1.32,1.32,0,0,0-1-.39c-1.28.11-2.55.29-3.82.49a4.08,4.08,0,0,0-3.14,3.79,13.57,13.57,0,0,1-2.36,7c-1.14,1.78-2.49,3.42-3.69,5.15A8.18,8.18,0,0,0,9.89,36.83Zm23,2.5c-.15-.17-.21-.26-.29-.34-2.25-2.3-5.1-3.54-8-4.65-.53-.2-.69.09-.73.54-.12,1.37-.26,2.74-.35,4.11a3.55,3.55,0,0,1-1.73,2.72,4.44,4.44,0,0,1-3.57-.16,1.17,1.17,0,0,1-.4-.74c0-1.2.06-2.4.19-3.58a20.87,20.87,0,0,1,.62-2.49,15.63,15.63,0,0,0-2,.41A38.58,38.58,0,0,0,13,36.64a23.51,23.51,0,0,0-2.75,1.68.75.75,0,0,0-.17.72,12.06,12.06,0,0,0,2,2.2A16.84,16.84,0,0,0,18,43.66a4.14,4.14,0,0,0,1.21.15,25.46,25.46,0,0,0,3.15-.15,19.34,19.34,0,0,0,4.44-.91A47.08,47.08,0,0,0,32,40C32.29,39.81,32.57,39.59,32.94,39.33ZM22.31,34.12a8.57,8.57,0,0,0-2.09.37c-.21.09-.13.8-.2,1.22s-.16.68-.19,1c-.1,1.13-.2,2.26-.25,3.4a.77.77,0,0,0,.37.58,1.1,1.1,0,0,0,1.63-.83C21.87,38.05,22.05,36.19,22.31,34.12Zm-1-19.53.2.32c.53-.23,1.24-.34,1.52-.75a3.8,3.8,0,0,0,.3-1.79c0-.7-.52-.73-1-.81s-.76.2-.81.68C21.46,13,21.4,13.81,21.34,14.59Z"/><path d="M17.06,49.05a15.52,15.52,0,0,1-.62,2c-.11.24-.62.4-.94.39S15,51,15,50.78c-.05-.7,0-1.4,0-2.1s.32-1.39,1.14-1.37S17,48.17,17.06,49.05Z"/><path d="M32,19c.3-.25.55-.61.89-.72,1-.32,2.08-.55,3.13-.77.12,0,.44.22.42.27-.12.39-.2,1-.46,1.09a12.21,12.21,0,0,1-2.61.6,5.08,5.08,0,0,1-1.31-.2Z"/><path d="M27.49,48.49a2.93,2.93,0,0,1-.16,1,1.22,1.22,0,0,1-.79.55.91.91,0,0,1-.7-.46,7.53,7.53,0,0,1-.53-1.49,1.12,1.12,0,0,1,1-1.39c.63-.09,1,.34,1.1,1.07A6.71,6.71,0,0,0,27.49,48.49Z"/><path d="M29.54,10.72c-.15-.09-.62-.21-.73-.48a1.11,1.11,0,0,1,.35-.94A11.38,11.38,0,0,1,31,7.78c.53-.32.82,0,.75.59A2.33,2.33,0,0,1,29.54,10.72Z"/><path d="M35.66,45c-.18.35-.34,1-.56,1a2.92,2.92,0,0,1-1.4-.38,1.49,1.49,0,0,1-.61-.61c-.19-.3-.48-.79-.37-.94a2.09,2.09,0,0,1,1.09-.75C34.48,43.15,35.53,44.2,35.66,45Z"/><path d="M9,12.88c.55-.81,1.08-1.09,1.79-.84.93.33,1.76,1.18,1.62,1.8,0,.2-.68.48-.9.38A27,27,0,0,1,9,12.88Z"/><path d="M8.7,44.67c-.45.68-.85,1.29-1.27,1.89a1.19,1.19,0,0,1-.49.48,3.76,3.76,0,0,1-.9.14c0-.29-.07-.65.07-.86a12.47,12.47,0,0,1,1.41-1.88C7.93,44,8.45,43.92,8.7,44.67Z"/></g></g></svg>