<svg xmlns="http://www.w3.org/2000/svg" viewBox="0 0 68.25 57.04"><defs><style>.cls-1{fill:#38ac88;}.cls-2{fill:#e8ae01;}.cls-3{fill:#d4b088;}.cls-4{fill:#f89fbc;}</style></defs><title>family-support-icon</title><g id="Layer_2" data-name="Layer 2"><g id="Layer_1-2" data-name="Layer 1"><path class="cls-1" d="M40.34,24.09v6.66c-1.27.17-2.55.95-4.11.67-.85-.15-1.25-.4-1.33-1.23-.19-2-1.65-3-3.24-3.78-.51-.26-.89-.46-1-1.12a12.93,12.93,0,0,0-.55-2.37,1,1,0,0,0-.67-.58c-.45-.06-.9.17-.86.72.07.81.22,1.61.34,2.48h-.62l-5.48.17a.89.89,0,0,0-.34.07,2.47,2.47,0,0,1-2.53-.1c-1.4-.59-2-.32-2.51,1.06,0,.06-.08.1-.24.32a29.73,29.73,0,0,1-1.17-3.58c-.44-2.3-.72-4.62-1.06-6.94,0-.29-.08-.58-.12-.87s-.06-.73.47-.88c.27-.08.5-.43.69-.69.93-1.29,2.4-1.84,3.69-2.62,1.48-.89,3-1.69,4.53-2.51a8.37,8.37,0,0,1,4.39-1c1.09,0,2.18,0,3.26.06l.47,0a5.1,5.1,0,0,0,2.68,4.65C34.15,15.65,36.65,22.16,40.34,24.09Z" transform="translate(-0.25 -0.25)"/><path class="cls-2" d="M53.49,6.17c.76.49.76.92.63,1.67a32.12,32.12,0,0,0-.39,4c-.08,2-.08,4.1-.12,6.14,0,.55-.23.73-.82.62a4.4,4.4,0,0,1-3.22-3.05c-.17-.86-.27-1.74-.38-2.47l1.44-.71a1.7,1.7,0,0,1-.23-2.14A4.08,4.08,0,0,0,50.74,6a3.5,3.5,0,0,0-1.16-1.2,2.79,2.79,0,0,1-1.32-2.65c0-.5.19-.64.72-.57a4.82,4.82,0,0,1,3.27,2,1,1,0,0,1,.18,1.19c-.22.45-.36.94-.58,1.39A3.2,3.2,0,0,0,52,9.07a1.26,1.26,0,0,0,.91.64c.5,0,.49-.55.47-1s-.06-1.09-.05-1.63A5.91,5.91,0,0,1,53.49,6.17Z" transform="translate(-0.25 -0.25)"/><path d="M68.43,23.8a27.73,27.73,0,0,1-.17,5.46,35.68,35.68,0,0,1-1.07,5.19A15.9,15.9,0,0,1,66,37c-.38.84-.77,1.68-1.14,2.52a10.25,10.25,0,0,1-2.16,3.26c-1.28,1.27-2.42,2.68-3.67,4a17.48,17.48,0,0,1-2.19,1.93c-1.57,1.18-3.18,2.32-4.8,3.44A22.44,22.44,0,0,1,46.25,55c-1.81.6-3.62,1.19-5.46,1.67a8.55,8.55,0,0,1-5.67-.07,2.78,2.78,0,0,0-1.84.06,13.3,13.3,0,0,1-7.37.18c-.93-.18-1.85-.47-2.76-.72a5,5,0,0,1-.83-.33c-1-.45-2-.88-2.95-1.37a23.93,23.93,0,0,1-6.69-4.82C11.18,48,9.57,46.56,8.09,45c-.91-1-1.64-2.11-2.49-3.15a26,26,0,0,1-3.48-6.53,20.65,20.65,0,0,1-1.85-8,49.07,49.07,0,0,1,.16-6.19,17.58,17.58,0,0,1,1.34-4.32c.19-.47.86-.73,1.29-1.09.19-.16.44-.33.48-.53a8,8,0,0,1,1.34-3.58,9.71,9.71,0,0,1,1.7-1.39s0,0,.06,0c.83.33,1.65-.25,2.47,0a.78.78,0,0,1,.42.38c.3.58.56,1.18.86,1.81.36-.9.71-1.75,1-2.61s1.11-1.14,2-.66a1.87,1.87,0,0,1,1,1.95c0,.78.11,1.57.17,2.28,1.62-1.05,3.17-2.1,4.77-3.08s2.95-1.8,4.5-2.55a12.94,12.94,0,0,1,5.58-1c1,0,2,0,3.07,0a1,1,0,0,0,.61-.31,4.51,4.51,0,0,1,2.17-1.47,1,1,0,0,0,.53-.38C38.05,1.39,41.22.39,44.8.26a17.4,17.4,0,0,1,5.47.62,15.74,15.74,0,0,1,2.2,1c.14.07.29.23.41.21,1-.2,1.25.59,1.35,1.16a6.56,6.56,0,0,0,1.18,2.18,3.44,3.44,0,0,1,.48.82A6.49,6.49,0,0,1,56,7.55l1.33,1.24s.08,0,.1,0c.75-1.07,1.22-1.09,2.2-.21a4.81,4.81,0,0,1,1.63,3.07c.08.73.39,1.25,1.15,1.24,1,0,1.36.77,1.74,1.42A8.44,8.44,0,0,1,64.75,16c0,.19.09.39.13.59,1.5-.37,2.48.84,2.9,1.9C68.47,20.23,68.27,22,68.43,23.8Zm-2.18,5.81a52.09,52.09,0,0,0,.17-9.67,6.15,6.15,0,0,0-.33-1.24l-.34,0V22c0,1.33,0,2.66-.06,4a20.63,20.63,0,0,1-.48,2.68c-.2,1-.42,2-.63,3a.79.79,0,0,1-1,.72c-.55,0-.86-.32-.86-.84a18.71,18.71,0,0,1,.15-2.11c.46-3.49,1.17-7,.63-10.51-.2-1.25-.46-2.48-.7-3.73l-.26,0a4.82,4.82,0,0,0-.45,2.55,27.62,27.62,0,0,1,.21,3.15c0,1-.15,2-.26,3-.25,2.41-.5,4.82-.8,7.22-.08.67-.51.89-1.1.61a1.14,1.14,0,0,1-.55-.69,5.6,5.6,0,0,1,.06-1.35c.14-1.81.36-3.62.44-5.44s-.11-3.68,0-5.51a24.25,24.25,0,0,0-.82-8.09,5.29,5.29,0,0,0-.26-.62c-.79,2.67-.27,5.23-.15,7.78a22.33,22.33,0,0,1-.39,5.71c-.25,1.22-.37,2.47-.55,3.7s-.35,2.5-.56,3.75c-.11.61-.55.91-1,.76s-.7-.53-.58-1.11a33.77,33.77,0,0,0,.7-4.1c.26-3.1.47-6.21.59-9.32a23.72,23.72,0,0,0-1.13-7.79,3.86,3.86,0,0,0-.32-.6,1,1,0,0,0-.23.63c0,1.33,0,2.67,0,4,0,1-.05,2-.13,3a32.63,32.63,0,0,1-.58,5.87,21.45,21.45,0,0,1-2.38,6.3,24,24,0,0,1-4.44,5.28c-1,.88-2,1.86-3,2.78-.55.52-1.11,1-1.7,1.47a1,1,0,0,1-.7.18,1.37,1.37,0,0,1-.7-.46c0-.07.18-.4.33-.58.31-.4.67-.75,1-1.15A22.88,22.88,0,0,0,45.85,31c.37-1,.78-2,1.12-3a3.75,3.75,0,0,0,0-1,5.46,5.46,0,0,0-.79.44c-1.2,1-2.36,2.06-3.58,3-3.14,2.53-4.83,6-6.1,9.67a22.87,22.87,0,0,0-1.06,4.63,44.18,44.18,0,0,0-.23,5.15c0,1.63,0,3.26.11,4.88a1,1,0,0,0,.55.7,14.11,14.11,0,0,0,4.72,0c.79-.07,1.53-.57,2.33-.72a17,17,0,0,0,5.94-2.31c2.18-1.4,4.31-2.87,6.37-4.44A26.9,26.9,0,0,0,63.17,39,29.42,29.42,0,0,0,66.25,29.61ZM54.12,7.84c.13-.75.13-1.18-.63-1.67a5.91,5.91,0,0,0-.19.93c0,.54,0,1.09.05,1.63s0,.95-.47,1A1.26,1.26,0,0,1,52,9.07a3.2,3.2,0,0,1-.12-2.89c.22-.45.36-.94.58-1.39a1,1,0,0,0-.18-1.19A4.82,4.82,0,0,0,49,1.6c-.53-.07-.69.07-.72.57a2.79,2.79,0,0,0,1.32,2.65A3.5,3.5,0,0,1,50.74,6a4.08,4.08,0,0,1-.34,4.25,1.7,1.7,0,0,0,.23,2.14l-1.44.71c.11.73.21,1.61.38,2.47a4.4,4.4,0,0,0,3.22,3.05c.59.11.81-.07.82-.62,0-2,0-4.09.12-6.14A32.12,32.12,0,0,1,54.12,7.84Zm-.91,12.77c0-.38.14-.79-.47-.84a6.4,6.4,0,0,1-4.23-2.47c-.92-1-1.17-3.62-.16-4.65a.66.66,0,0,0,.13-.54A2.57,2.57,0,0,1,49,9.74a2.84,2.84,0,0,0,.48-2.26,3.31,3.31,0,0,0-1.74-2.15,2.74,2.74,0,0,1-1-3.56c.21-.39.06-.56-.32-.58s-1,0-1.27,0c-.07.56-.1,1-.18,1.43a2.48,2.48,0,0,0,.79,2.69A6.93,6.93,0,0,1,46.6,6a1.87,1.87,0,0,1,.47,2.17,2.93,2.93,0,0,0-.43,1.94A.86.86,0,0,1,46,11.28a1,1,0,0,1-1.22-.94,7.76,7.76,0,0,1,.48-2,1.54,1.54,0,0,0-.46-1.94,6.53,6.53,0,0,1-1.1-.9,3.26,3.26,0,0,1,.39-4.28c-2.53.35-4.81,1-6.47,3.1a4.11,4.11,0,0,1,2.16,2.28,2.38,2.38,0,0,1-.05.83c-.37-.07-.84,0-1.1-.24A3.09,3.09,0,0,1,38,6.12c-.24-.47-.58-.87-1.15-.81a5.29,5.29,0,0,0-1.52.37c-1,.4-1.21,1.08-.7,1.85-.17.1-.39.17-.49.33s-.41.59-.36.83A5.44,5.44,0,0,0,36,12.11a1.08,1.08,0,0,1,.48.88,42.11,42.11,0,0,0,.94,5.48,9.55,9.55,0,0,0,3.27,4.59,1.4,1.4,0,0,0,1.72.17A16.53,16.53,0,0,0,44,21.87c-.88-.46-1.77-.85-2.58-1.37a2.59,2.59,0,0,1-1.13-2.35c0-.24.35-.56.62-.67s.51.15.67.34a3.31,3.31,0,0,1,.45.83,2.74,2.74,0,0,0,1.36,1.55c.63.26,1.28.49,1.91.74.9-.54,1.81-1.11,2.73-1.64,1.3-.74,1.55-.64,2.05.63.47,0,1-.09,1.32.13s.36.75.51,1.12a6.26,6.26,0,0,1,.75,0C53.06,21.24,53.22,21.05,53.21,20.61ZM52,22.45l-.24-.15c-.44.5-.89,1-1.31,1.5s-1.05,1.32-1.57,2a.74.74,0,0,1-1.09.07c-.14-.11,0-.6,0-.92,0-.12.15-.22.23-.34.63-.9,1.28-1.81,1.91-2.72a2.78,2.78,0,0,0,.21-.57.85.85,0,0,0-.62.25c-.84.92-1.69,1.82-2.49,2.76a1.47,1.47,0,0,1-1.79.53,3.34,3.34,0,0,1,.4-1c.54-.66,1.19-1.24,1.75-1.9s.91-1.22,1.37-1.83l-.26-.24c-1.22.88-2.47,1.73-3.68,2.64-.94.71-1.66,1.76-2.85,1.86v4.86c.44-.38.75-.67,1.08-.94,1.26-1,2.38-2.2,4.21-2.06.79.05,1.43.56,1.25,1.35a24.29,24.29,0,0,1-.93,3.12c-.27.75-.66,1.45-1,2.18l.19.11a15.24,15.24,0,0,0,3.89-4.87l-.21,0c-.32-.12-.75-.16-.93-.39s.1-.6.25-.88c.6-1.12,1.24-2.21,1.85-3.33A8,8,0,0,0,52,22.45Zm-11.66,8.3V24.09c-3.69-1.93-6.19-8.44-5.27-11.33a5.1,5.1,0,0,1-2.68-4.65l-.47,0C30.84,8,29.75,8,28.66,8a8.37,8.37,0,0,0-4.39,1c-1.52.82-3.05,1.62-4.53,2.51-1.29.78-2.76,1.33-3.69,2.62-.19.26-.42.61-.69.69-.53.15-.53.47-.47.88s.07.58.12.87c.34,2.32.62,4.64,1.06,6.94a29.73,29.73,0,0,0,1.17,3.58c.16-.22.21-.26.24-.32.54-1.38,1.11-1.65,2.51-1.06a2.47,2.47,0,0,0,2.53.1.89.89,0,0,1,.34-.07l5.48-.17H29c-.12-.87-.27-1.67-.34-2.48,0-.55.41-.78.86-.72a1,1,0,0,1,.67.58,12.93,12.93,0,0,1,.55,2.37c.07.66.45.86,1,1.12,1.59.8,3.05,1.76,3.24,3.78.08.83.48,1.08,1.33,1.23C37.79,31.7,39.07,30.92,40.34,30.75Zm-1.46,1.77H35.45a.48.48,0,0,0,0,.2A9.45,9.45,0,0,1,34.31,38a2.63,2.63,0,0,0,.3,3C36,38.14,36.63,34.94,38.88,32.52Zm-5.37,2.72c.52-2-.26-3.9-.74-5.81a1,1,0,0,0-.22-.34,6.39,6.39,0,0,0-3.67-2.2,15.22,15.22,0,0,0-4.62-.11l-1.8.14c.5.36.84.58,1.15.84.64.52,1.26,1.08,1.92,1.59,1.33,1,2.79,1.95,4,3.11a50.78,50.78,0,0,1,3.52,4.12C33.21,36.16,33.39,35.71,33.51,35.24ZM31.9,55.57a1.23,1.23,0,0,0,1.48-1.26c0-1.15-.15-2.31-.17-3.46,0-1.61,0-3.22,0-4.82a14.76,14.76,0,0,0,.08-3.31c-.48-2.19-1-4.44-2.46-6.23a40.58,40.58,0,0,0-3.85-4,37.64,37.64,0,0,0-3.41-2.58c-1.16-.84-2.32-1.68-3.51-2.47a10.4,10.4,0,0,0-1.54-.74l-.15.17a5.6,5.6,0,0,0,.4.9c.26.42.59.79.88,1.2A27.79,27.79,0,0,0,24.42,34c.89.77,1.76,1.57,2.64,2.35a.7.7,0,0,1,0,1.09c-.27.27-.63.52-1.08.16s-1.06-.7-1.55-1.09c-1.22-1-2.43-2-3.61-3-1.6-1.38-3.38-2.58-4.37-4.53A20.1,20.1,0,0,1,14.4,22.8c-.54-3.68-.9-7.38-1.3-11.08a1.34,1.34,0,0,0-.93-1.33A9.21,9.21,0,0,0,11.75,12c-.06,1.29-.05,2.58,0,3.87A24.58,24.58,0,0,0,12,18.6c.17,1.23.39,2.46.6,3.69.39,2.24.76,4.48,1.2,6.71.21,1.11.58,2.19.8,3.31a1.4,1.4,0,0,1-.26,1.09c-.73.66-1.27.33-1.57-.92-.62-2.57-1.09-5.18-1.6-7.78a44,44,0,0,1-.93-5.16,33.77,33.77,0,0,0-1.53-6.83,3.53,3.53,0,0,0-.4-.74,2.2,2.2,0,0,0-.06.91c.57,4.64,1.17,9.29,1.71,13.94.21,1.82.28,3.65.42,5.48a1.08,1.08,0,0,1-.93,1c-.63.1-.7-.35-.78-.78s-.1-.72-.16-1.08c-.37-2.05-.77-4.09-1.08-6.14-.34-2.23-.68-4.46-.85-6.7a36.54,36.54,0,0,1,0-5.23,1.6,1.6,0,0,0-.46-1.5,1.91,1.91,0,0,0-.89,1.59c0,.48-.06,1-.06,1.46A35.15,35.15,0,0,0,5.28,19c.27,2.08.85,4.13,1.07,6.22.28,2.66.33,5.34.48,8a1.29,1.29,0,0,1-1,1.38c-.33.07-.7.08-.82-.38-.3-1.18-.66-2.35-.89-3.55a60,60,0,0,1-.78-11.67,1.88,1.88,0,0,0-.71-1.62,3.44,3.44,0,0,0-.26.73c-.12,1.19-.26,2.39-.31,3.59s0,2.46,0,3.68a28.82,28.82,0,0,0,.41,4.75,32.56,32.56,0,0,0,3,7.76,22.32,22.32,0,0,0,3.69,5.2C11,45.08,12.91,47,14.84,48.79A17.58,17.58,0,0,0,18,51.31a37.58,37.58,0,0,0,5.37,2.63,27.78,27.78,0,0,0,4.85,1.31A33.93,33.93,0,0,0,31.9,55.57Z" transform="translate(-0.25 -0.25)"/><path class="cls-3" d="M66.42,19.94a52.09,52.09,0,0,1-.17,9.67A29.42,29.42,0,0,1,63.17,39a26.9,26.9,0,0,1-7.93,9.13c-2.06,1.57-4.19,3-6.37,4.44a17,17,0,0,1-5.94,2.31c-.8.15-1.54.65-2.33.72a14.11,14.11,0,0,1-4.72,0,1,1,0,0,1-.55-.7c-.08-1.62-.13-3.25-.11-4.88a44.18,44.18,0,0,1,.23-5.15,22.87,22.87,0,0,1,1.06-4.63c1.27-3.68,3-7.14,6.1-9.67,1.22-1,2.38-2,3.58-3A5.46,5.46,0,0,1,47,27a3.75,3.75,0,0,1,0,1c-.34,1-.75,2-1.12,3a22.88,22.88,0,0,1-2.8,5.14c-.29.4-.65.75-1,1.15-.15.18-.38.51-.33.58a1.37,1.37,0,0,0,.7.46,1,1,0,0,0,.7-.18c.59-.46,1.15-1,1.7-1.47,1-.92,1.94-1.9,3-2.78a24,24,0,0,0,4.44-5.28,21.45,21.45,0,0,0,2.38-6.3,32.63,32.63,0,0,0,.58-5.87c.08-1,.11-2,.13-3,0-1.34,0-2.68,0-4a1,1,0,0,1,.23-.63,3.86,3.86,0,0,1,.32.6,23.72,23.72,0,0,1,1.13,7.79c-.12,3.11-.33,6.22-.59,9.32a33.77,33.77,0,0,1-.7,4.1c-.12.58,0,.94.58,1.11s.94-.15,1-.76c.21-1.25.37-2.5.56-3.75s.3-2.48.55-3.7a22.33,22.33,0,0,0,.39-5.71c-.12-2.55-.64-5.11.15-7.78a5.29,5.29,0,0,1,.26.62,24.25,24.25,0,0,1,.82,8.09c-.12,1.83.06,3.68,0,5.51s-.3,3.63-.44,5.44A5.6,5.6,0,0,0,59.63,31a1.14,1.14,0,0,0,.55.69c.59.28,1,.06,1.1-.61.3-2.4.55-4.81.8-7.22.11-1,.25-2,.26-3a27.62,27.62,0,0,0-.21-3.15,4.82,4.82,0,0,1,.45-2.55l.26,0c.24,1.25.5,2.48.7,3.73.54,3.55-.17,7-.63,10.51a18.71,18.71,0,0,0-.15,2.11c0,.52.31.79.86.84a.79.79,0,0,0,1-.72c.21-1,.43-2,.63-3A20.63,20.63,0,0,0,65.69,26c.09-1.33,0-2.66.06-4V18.74l.34,0A6.15,6.15,0,0,1,66.42,19.94Z" transform="translate(-0.25 -0.25)"/><path class="cls-4" d="M52.74,19.77c.61.05.47.46.47.84s-.15.63-.6.57a6.26,6.26,0,0,0-.75,0c-.15-.37-.21-.92-.51-1.12S50.5,20,50,19.93c-.5-1.27-.75-1.37-2.05-.63-.92.53-1.83,1.1-2.73,1.64-.63-.25-1.28-.48-1.91-.74A2.74,2.74,0,0,1,42,18.65a3.31,3.31,0,0,0-.45-.83c-.16-.19-.52-.41-.67-.34s-.61.43-.62.67a2.59,2.59,0,0,0,1.13,2.35c.81.52,1.7.91,2.58,1.37a16.53,16.53,0,0,1-1.56,1.36,1.4,1.4,0,0,1-1.72-.17,9.55,9.55,0,0,1-3.27-4.59A42.11,42.11,0,0,1,36.46,13a1.08,1.08,0,0,0-.48-.88,5.44,5.44,0,0,1-2.16-3.42c0-.24.19-.58.36-.83s.32-.23.49-.33c-.51-.77-.26-1.45.7-1.85a5.29,5.29,0,0,1,1.52-.37c.57-.06.91.34,1.15.81a3.09,3.09,0,0,0,.58,1.06c.26.21.73.17,1.1.24a2.38,2.38,0,0,0,.05-.83,4.11,4.11,0,0,0-2.16-2.28c1.66-2.09,3.94-2.75,6.47-3.1a3.26,3.26,0,0,0-.39,4.28,6.53,6.53,0,0,0,1.1.9,1.54,1.54,0,0,1,.46,1.94,7.76,7.76,0,0,0-.48,2,1,1,0,0,0,1.22.94.86.86,0,0,0,.65-1.16,2.93,2.93,0,0,1,.43-1.94A1.87,1.87,0,0,0,46.6,6a6.93,6.93,0,0,0-.83-.71A2.48,2.48,0,0,1,45,2.61c.08-.43.11-.87.18-1.43.29,0,.78,0,1.27,0s.53.19.32.58a2.74,2.74,0,0,0,1,3.56,3.31,3.31,0,0,1,1.74,2.15A2.84,2.84,0,0,1,49,9.74a2.57,2.57,0,0,0-.49,2.37.66.66,0,0,1-.13.54c-1,1-.76,3.61.16,4.65A6.4,6.4,0,0,0,52.74,19.77ZM47,16.87l.72-.85-1-.43-2,2c-.55-.38-1-1-1.76-.4a3,3,0,0,0,1.34,1.49,1,1,0,0,0,1.35-.2ZM46,14a2.29,2.29,0,0,0,.33-.55c-.21-.11-.42-.31-.63-.31a3.15,3.15,0,0,0-1,.22,2.09,2.09,0,0,1-2.86-1.77,5.94,5.94,0,0,1,.76-3.63c-.73-.24-1-.18-1.39.29a4,4,0,0,0,.54,5.8A3.42,3.42,0,0,0,46,14Z" transform="translate(-0.25 -0.25)"/><path class="cls-4" d="M51.76,22.3l.24.15a8,8,0,0,1-.36,1c-.61,1.12-1.25,2.21-1.85,3.33-.15.28-.37.74-.25.88s.61.27.93.39l.21,0A15.24,15.24,0,0,1,46.79,33l-.19-.11c.34-.73.73-1.43,1-2.18a24.29,24.29,0,0,0,.93-3.12c.18-.79-.46-1.3-1.25-1.35-1.83-.14-3,1.08-4.21,2.06-.33.27-.64.56-1.08.94V24.35c1.19-.1,1.91-1.15,2.85-1.86,1.21-.91,2.46-1.76,3.68-2.64l.26.24c-.46.61-.88,1.25-1.37,1.83s-1.21,1.24-1.75,1.9a3.34,3.34,0,0,0-.4,1,1.47,1.47,0,0,0,1.79-.53c.8-.94,1.65-1.84,2.49-2.76a.85.85,0,0,1,.62-.25,2.78,2.78,0,0,1-.21.57c-.63.91-1.28,1.82-1.91,2.72-.08.12-.21.22-.23.34,0,.32-.16.81,0,.92a.74.74,0,0,0,1.09-.07c.52-.66,1-1.33,1.57-2S51.32,22.8,51.76,22.3Z" transform="translate(-0.25 -0.25)"/><path d="M47.75,16l-.72.85L45.6,18.49a1,1,0,0,1-1.35.2,3,3,0,0,1-1.34-1.49c.77-.64,1.21,0,1.76.4l2-2Z" transform="translate(-0.25 -0.25)"/><path d="M46.28,13.43A2.29,2.29,0,0,1,46,14a3.42,3.42,0,0,1-4.24,0,4,4,0,0,1-.54-5.8c.41-.47.66-.53,1.39-.29a5.94,5.94,0,0,0-.76,3.63,2.09,2.09,0,0,0,2.86,1.77,3.15,3.15,0,0,1,1-.22C45.86,13.12,46.07,13.32,46.28,13.43Z" transform="translate(-0.25 -0.25)"/><path class="cls-3" d="M33.38,54.31a1.23,1.23,0,0,1-1.48,1.26,33.93,33.93,0,0,1-3.64-.32,27.78,27.78,0,0,1-4.85-1.31A37.58,37.58,0,0,1,18,51.31a17.58,17.58,0,0,1-3.2-2.52C12.91,47,11,45.08,9.17,43.14a22.32,22.32,0,0,1-3.69-5.2,32.56,32.56,0,0,1-3-7.76,28.82,28.82,0,0,1-.41-4.75C2,24.21,2,23,2,21.75s.19-2.4.31-3.59a3.44,3.44,0,0,1,.26-.73,1.88,1.88,0,0,1,.71,1.62A60,60,0,0,0,4.1,30.72c.23,1.2.59,2.37.89,3.55.12.46.49.45.82.38a1.29,1.29,0,0,0,1-1.38c-.15-2.68-.2-5.36-.48-8-.22-2.09-.8-4.14-1.07-6.22a35.15,35.15,0,0,1-.09-4.11c0-.49.09-1,.06-1.46a1.91,1.91,0,0,1,.89-1.59,1.6,1.6,0,0,1,.46,1.5,36.54,36.54,0,0,0,0,5.23c.17,2.24.51,4.47.85,6.7.31,2.05.71,4.09,1.08,6.14.06.36.09.72.16,1.08s.15.88.78.78a1.08,1.08,0,0,0,.93-1c-.14-1.83-.21-3.66-.42-5.48-.54-4.65-1.14-9.3-1.71-13.94A2.2,2.2,0,0,1,8.28,12a3.53,3.53,0,0,1,.4.74,33.77,33.77,0,0,1,1.53,6.83,44,44,0,0,0,.93,5.16c.51,2.6,1,5.21,1.6,7.78.3,1.25.84,1.58,1.57.92a1.4,1.4,0,0,0,.26-1.09c-.22-1.12-.59-2.2-.8-3.31-.44-2.23-.81-4.47-1.2-6.71-.21-1.23-.43-2.46-.6-3.69a24.58,24.58,0,0,1-.23-2.7c0-1.29-.05-2.58,0-3.87a9.21,9.21,0,0,1,.42-1.64,1.34,1.34,0,0,1,.93,1.33c.4,3.7.76,7.4,1.3,11.08A20.1,20.1,0,0,0,16.46,29c1,1.95,2.77,3.15,4.37,4.53,1.18,1,2.39,2,3.61,3,.49.39,1,.7,1.55,1.09s.81.11,1.08-.16a.7.7,0,0,0,0-1.09c-.88-.78-1.75-1.58-2.64-2.35A27.79,27.79,0,0,1,19.67,29c-.29-.41-.62-.78-.88-1.2a5.6,5.6,0,0,1-.4-.9l.15-.17a10.4,10.4,0,0,1,1.54.74c1.19.79,2.35,1.63,3.51,2.47A37.64,37.64,0,0,1,27,32.47a40.58,40.58,0,0,1,3.85,4c1.47,1.79,2,4,2.46,6.23A14.76,14.76,0,0,1,33.23,46c0,1.6,0,3.21,0,4.82C33.23,52,33.37,53.16,33.38,54.31Z" transform="translate(-0.25 -0.25)"/></g></g></svg>