<svg xmlns="http://www.w3.org/2000/svg" viewBox="0 0 68.25 57.05"><title>family-support-icon</title><g id="Layer_2" data-name="Layer 2"><g id="Layer_1-2" data-name="Layer 1"><path d="M10.13,12.11c.37-.9.72-1.75,1.06-2.61s1.11-1.14,2-.66a1.87,1.87,0,0,1,1,1.95c0,.78.11,1.57.17,2.28C16,12,17.56,11,19.15,10s3-1.8,4.51-2.55a12.94,12.94,0,0,1,5.58-1c1,0,2,0,3.06,0a1,1,0,0,0,.62-.31,4.51,4.51,0,0,1,2.17-1.47,1.07,1.07,0,0,0,.53-.38C37.8,1.14,41,.14,44.55,0A17.4,17.4,0,0,1,50,.63a15.74,15.74,0,0,1,2.2,1c.14.07.29.23.41.2,1-.19,1.25.6,1.35,1.17a6.38,6.38,0,0,0,1.18,2.18,3.44,3.44,0,0,1,.48.82,6.49,6.49,0,0,1,.14,1.26l1.33,1.24s.08,0,.1,0c.75-1.07,1.22-1.09,2.2-.21A4.79,4.79,0,0,1,61,11.35c.09.73.4,1.25,1.16,1.24,1,0,1.35.77,1.73,1.42a8.47,8.47,0,0,1,.58,1.74c0,.19.09.39.13.59,1.5-.37,2.48.84,2.9,1.9.69,1.74.49,3.55.65,5.31A27.73,27.73,0,0,1,68,29a35.68,35.68,0,0,1-1.07,5.19,16.82,16.82,0,0,1-1.15,2.57c-.38.84-.77,1.68-1.14,2.52a10.25,10.25,0,0,1-2.16,3.26c-1.29,1.27-2.42,2.68-3.67,4a18.22,18.22,0,0,1-2.19,1.93c-1.57,1.18-3.18,2.32-4.8,3.44A22.44,22.44,0,0,1,46,54.77c-1.81.6-3.62,1.19-5.47,1.67a8.59,8.59,0,0,1-5.66-.07,2.78,2.78,0,0,0-1.84.06,13.3,13.3,0,0,1-7.37.18c-.93-.18-1.85-.47-2.76-.72a5,5,0,0,1-.83-.33c-1-.45-2-.88-2.95-1.37a23.93,23.93,0,0,1-6.69-4.82c-1.51-1.58-3.11-3.06-4.59-4.65-.91-1-1.64-2.11-2.49-3.15A26.32,26.32,0,0,1,1.86,35a20.82,20.82,0,0,1-1.84-8,49.07,49.07,0,0,1,.16-6.19,17.78,17.78,0,0,1,1.34-4.33c.19-.46.86-.72,1.29-1.08.18-.16.44-.33.48-.53a8,8,0,0,1,1.34-3.58A10,10,0,0,1,6.32,10s0,0,.07,0c.82.33,1.65-.25,2.47,0a.82.82,0,0,1,.42.38C9.58,10.88,9.84,11.48,10.13,12.11Zm52.46,2.77-.26,0a4.82,4.82,0,0,0-.45,2.55,25.5,25.5,0,0,1,.2,3.15,28.13,28.13,0,0,1-.25,3c-.25,2.41-.5,4.82-.8,7.22-.08.67-.51.89-1.1.61a1.14,1.14,0,0,1-.55-.69,6.15,6.15,0,0,1,0-1.35c.15-1.81.37-3.62.45-5.44s-.11-3.68,0-5.51a24.25,24.25,0,0,0-.82-8.09,5.29,5.29,0,0,0-.26-.62c-.79,2.67-.28,5.23-.15,7.78a22.79,22.79,0,0,1-.39,5.71c-.25,1.22-.37,2.47-.55,3.7s-.35,2.5-.56,3.75c-.11.61-.55.91-1,.76s-.7-.53-.58-1.11a34.1,34.1,0,0,0,.7-4.1c.26-3.1.47-6.21.59-9.32a23.72,23.72,0,0,0-1.13-7.79,3.86,3.86,0,0,0-.32-.6,1,1,0,0,0-.23.63c0,1.33,0,2.67,0,4,0,1-.05,2-.13,3a32.63,32.63,0,0,1-.58,5.87A21.45,21.45,0,0,1,52,28.36a24.22,24.22,0,0,1-4.44,5.28c-1,.88-2,1.86-3,2.78-.55.52-1.11,1-1.7,1.47a1,1,0,0,1-.7.18,1.37,1.37,0,0,1-.7-.46c0-.07.18-.4.33-.58.3-.4.67-.75,1-1.15a23.28,23.28,0,0,0,2.8-5.14c.37-1,.77-2,1.12-3a3.67,3.67,0,0,0,0-1,5.46,5.46,0,0,0-.79.44c-1.2,1-2.36,2.06-3.58,3-3.14,2.53-4.83,6-6.1,9.67a22.21,22.21,0,0,0-1.06,4.63A44.18,44.18,0,0,0,35,49.67c0,1.63,0,3.26.11,4.88a1,1,0,0,0,.55.7,14.11,14.11,0,0,0,4.72,0c.79-.07,1.53-.57,2.33-.72a17,17,0,0,0,5.94-2.31c2.18-1.4,4.31-2.87,6.37-4.44a27,27,0,0,0,7.93-9.13A29.67,29.67,0,0,0,66,29.36a52.09,52.09,0,0,0,.17-9.67,6.15,6.15,0,0,0-.33-1.24l-.34,0c0,1.08,0,2.15,0,3.23,0,1.33,0,2.66,0,4A20.63,20.63,0,0,1,65,28.39c-.2,1-.42,2-.63,3a.79.79,0,0,1-1,.72c-.55,0-.86-.32-.86-.84a18.71,18.71,0,0,1,.15-2.11c.45-3.49,1.17-7,.62-10.51C63.09,17.36,62.83,16.13,62.59,14.88ZM2.36,17.18a3.44,3.44,0,0,0-.26.73C2,19.1,1.84,20.3,1.79,21.5s0,2.46,0,3.68a30,30,0,0,0,.42,4.75,32.56,32.56,0,0,0,3,7.76,22.32,22.32,0,0,0,3.69,5.2c1.84,1.94,3.74,3.82,5.67,5.65a17.86,17.86,0,0,0,3.19,2.52,37.69,37.69,0,0,0,5.38,2.63A27.78,27.78,0,0,0,28,55a33.93,33.93,0,0,0,3.64.32,1.24,1.24,0,0,0,1.48-1.26c0-1.15-.15-2.31-.17-3.46,0-1.61,0-3.22,0-4.82a15.38,15.38,0,0,0,.08-3.31c-.48-2.19-1-4.44-2.46-6.23a41.76,41.76,0,0,0-3.85-4,39.09,39.09,0,0,0-3.41-2.58C22.18,28.8,21,28,19.83,27.16a12.06,12.06,0,0,0-1.54-.73l-.15.17a6.6,6.6,0,0,0,.39.9c.27.42.6.79.89,1.2a27.45,27.45,0,0,0,4.75,5.06c.89.77,1.76,1.57,2.63,2.35a.7.7,0,0,1,0,1.09c-.27.27-.63.52-1.08.16s-1.06-.7-1.55-1.09c-1.22-1-2.43-2-3.61-3-1.6-1.38-3.39-2.58-4.38-4.53a20.35,20.35,0,0,1-2-6.18c-.54-3.68-.9-7.38-1.3-11.08a1.34,1.34,0,0,0-.93-1.33,9.21,9.21,0,0,0-.42,1.64c-.06,1.29-.05,2.58,0,3.87a22.35,22.35,0,0,0,.23,2.7c.17,1.23.39,2.46.6,3.69.39,2.24.76,4.48,1.19,6.71.22,1.11.59,2.19.8,3.31a1.36,1.36,0,0,1-.25,1.09c-.74.66-1.27.33-1.58-.92-.61-2.57-1.08-5.18-1.59-7.78A42,42,0,0,1,10,19.29a33.77,33.77,0,0,0-1.53-6.83,3.53,3.53,0,0,0-.4-.74,2,2,0,0,0-.06.91c.57,4.64,1.17,9.29,1.71,13.94.21,1.82.28,3.65.41,5.48a1.06,1.06,0,0,1-.92,1c-.64.1-.7-.35-.78-.78s-.1-.72-.17-1.08c-.36-2.05-.76-4.09-1.08-6.14-.33-2.23-.67-4.46-.84-6.7a36.54,36.54,0,0,1,0-5.23,1.6,1.6,0,0,0-.46-1.5A1.91,1.91,0,0,0,5,13.21c0,.48-.06,1-.06,1.46A35.15,35.15,0,0,0,5,18.78c.27,2.08.85,4.13,1.07,6.22.27,2.66.33,5.34.47,8a1.27,1.27,0,0,1-1,1.38c-.33.07-.7.08-.82-.38-.3-1.18-.66-2.35-.89-3.55A60,60,0,0,1,3.07,18.8,1.88,1.88,0,0,0,2.36,17.18ZM32.14,7.86a4,4,0,0,0-.47-.05c-1.09,0-2.17,0-3.26-.06a8.37,8.37,0,0,0-4.39,1c-1.52.82-3.05,1.62-4.53,2.51-1.29.78-2.76,1.32-3.69,2.62-.19.26-.42.61-.69.69-.53.15-.53.47-.47.87s.07.59.11.88c.35,2.32.63,4.64,1.07,6.93A29.86,29.86,0,0,0,17,26.81a2.14,2.14,0,0,0,.23-.32c.55-1.38,1.12-1.65,2.52-1.06a2.47,2.47,0,0,0,2.53.1.89.89,0,0,1,.34-.07l5.48-.17h.62c-.12-.87-.27-1.67-.34-2.48,0-.55.41-.78.86-.72a1,1,0,0,1,.66.58A12.19,12.19,0,0,1,30.45,25c.07.66.45.86,1,1.12,1.59.8,3.05,1.76,3.24,3.78.08.83.48,1.08,1.33,1.23,1.56.28,2.84-.5,4.11-.67V23.84c-3.69-1.93-6.2-8.44-5.27-11.33A5.1,5.1,0,0,1,32.14,7.86Zm5.21-3.8a4,4,0,0,1,2.16,2.28,2.15,2.15,0,0,1,0,.83c-.37-.07-.84,0-1.1-.24a3.18,3.18,0,0,1-.58-1.06c-.25-.47-.58-.87-1.15-.81a5.29,5.29,0,0,0-1.52.37c-1,.4-1.22,1.08-.7,1.85-.17.1-.39.17-.49.32s-.42.6-.36.83a5.43,5.43,0,0,0,2.16,3.43,1.08,1.08,0,0,1,.48.88,42.11,42.11,0,0,0,.94,5.48,9.55,9.55,0,0,0,3.27,4.59,1.39,1.39,0,0,0,1.72.16,15.15,15.15,0,0,0,1.56-1.35c-.88-.46-1.77-.85-2.58-1.37A2.57,2.57,0,0,1,40,17.9c0-.24.35-.56.61-.67s.52.15.68.34a3,3,0,0,1,.44.83A2.79,2.79,0,0,0,43.09,20c.63.26,1.28.49,1.91.74.9-.54,1.8-1.11,2.73-1.64,1.29-.74,1.55-.64,2,.63.48,0,1-.09,1.33.13s.36.75.51,1.12a6.26,6.26,0,0,1,.75,0c.45.06.6-.13.6-.57s.14-.79-.47-.84a6.4,6.4,0,0,1-4.23-2.47c-.92-1-1.17-3.62-.16-4.65a.66.66,0,0,0,.13-.54,2.55,2.55,0,0,1,.49-2.37,2.85,2.85,0,0,0,.48-2.26,3.34,3.34,0,0,0-1.74-2.15,2.74,2.74,0,0,1-1-3.56c.21-.39.06-.56-.32-.58s-1,0-1.27,0c-.07.56-.1,1-.18,1.43a2.48,2.48,0,0,0,.79,2.69,6.14,6.14,0,0,1,.82.71,1.85,1.85,0,0,1,.47,2.17,3,3,0,0,0-.42,1.94A.86.86,0,0,1,45.74,11a1,1,0,0,1-1.22-.94,8.35,8.35,0,0,1,.47-2,1.53,1.53,0,0,0-.45-1.93,6.15,6.15,0,0,1-1.1-.9A3.26,3.26,0,0,1,43.83,1C41.3,1.31,39,2,37.35,4.06Zm11.59,8.81c.11.73.21,1.61.38,2.47a4.42,4.42,0,0,0,3.22,3.05c.59.11.81-.07.82-.62,0-2,0-4.09.12-6.14a32.12,32.12,0,0,1,.39-4c.13-.75.13-1.18-.63-1.67a5.91,5.91,0,0,0-.19.93c0,.54,0,1.09.05,1.63s0,.95-.47,1a1.22,1.22,0,0,1-.91-.63,3.2,3.2,0,0,1-.12-2.89c.22-.45.36-.94.58-1.39A1.05,1.05,0,0,0,52,3.35a4.82,4.82,0,0,0-3.27-2c-.54-.07-.69.07-.73.57a2.8,2.8,0,0,0,1.33,2.65,3.5,3.5,0,0,1,1.16,1.2A4.08,4.08,0,0,1,50.15,10a1.68,1.68,0,0,0,.23,2.14ZM32.81,36.33c.15-.42.33-.88.45-1.34.52-2-.26-3.9-.74-5.81a1,1,0,0,0-.22-.34,6.43,6.43,0,0,0-3.67-2.2A15.24,15.24,0,0,0,24,26.53l-1.8.14c.5.36.83.58,1.15.84.64.52,1.26,1.08,1.91,1.59,1.34,1,2.8,1.95,4,3.11A52.86,52.86,0,0,1,32.81,36.33Zm17.61-8.48-.2,0c-.33-.12-.76-.16-.93-.39s.1-.6.24-.88c.61-1.12,1.25-2.21,1.85-3.33a6.74,6.74,0,0,0,.37-1l-.24-.15c-.44.5-.89,1-1.31,1.5s-1.05,1.32-1.57,2a.74.74,0,0,1-1.09.07c-.14-.11,0-.6,0-.92,0-.12.15-.22.22-.34.64-.9,1.29-1.81,1.92-2.73a2.07,2.07,0,0,0,.2-.56.85.85,0,0,0-.61.25c-.84.92-1.69,1.82-2.49,2.76a1.47,1.47,0,0,1-1.79.53,3.34,3.34,0,0,1,.4-1c.54-.66,1.19-1.24,1.75-1.9s.91-1.22,1.36-1.83l-.25-.24c-1.23.88-2.47,1.73-3.68,2.64-.94.71-1.66,1.76-2.85,1.86V29c.44-.38.75-.67,1.08-.94C44.08,27,45.2,25.82,47,26c.79.05,1.43.56,1.25,1.35a26,26,0,0,1-.93,3.12c-.27.75-.66,1.45-1,2.18l.18.11A15.1,15.1,0,0,0,50.42,27.85ZM35.2,32.27a.45.45,0,0,0,0,.19,9.55,9.55,0,0,1-1.12,5.25,2.63,2.63,0,0,0,.29,3c1.42-2.86,2-6.06,4.28-8.48Z"/><path d="M42.31,7.69a5.94,5.94,0,0,0-.76,3.63,2.09,2.09,0,0,0,2.86,1.77,3.15,3.15,0,0,1,1-.22c.21,0,.42.2.63.31a2.29,2.29,0,0,1-.33.55,3.42,3.42,0,0,1-4.24,0A4,4,0,0,1,40.92,8C41.32,7.51,41.58,7.45,42.31,7.69Z"/><path d="M44.42,17.35l2-2,1,.43-.72.85-1.44,1.62a1,1,0,0,1-1.34.2A3,3,0,0,1,42.66,17C43.43,16.31,43.87,17,44.42,17.35Z"/></g></g></svg>