<svg xmlns="http://www.w3.org/2000/svg" viewBox="0 0 68.25 57.05"><defs><style>.cls-1{fill:#fff;}.cls-2{fill:#d4b088;}</style></defs><title>family-support2-icon</title><g id="Layer_2" data-name="Layer 2"><g id="Layer_1-2" data-name="Layer 1"><path class="cls-1" d="M38.88,32.53C36.64,34.94,36,38.15,34.61,41a2.65,2.65,0,0,1-.3-3,9.35,9.35,0,0,0,1.12-5.24.71.71,0,0,1,0-.19Z" transform="translate(-0.25 -0.25)"/><path class="cls-1" d="M33.06,36.58a52.35,52.35,0,0,0-3.52-4.11,48.73,48.73,0,0,0-4-3.11c-.66-.51-1.27-1.08-1.92-1.6-.31-.25-.65-.48-1.15-.84l1.81-.14a15.49,15.49,0,0,1,4.61.11,6.46,6.46,0,0,1,3.67,2.21.86.86,0,0,1,.23.34c.47,1.9,1.25,3.77.74,5.8C33.4,35.71,33.21,36.16,33.06,36.58Z" transform="translate(-0.25 -0.25)"/><path class="cls-2" d="M51.56,7.4A4.15,4.15,0,0,0,52,9.07a1.23,1.23,0,0,0,.91.64c.5,0,.5-.55.47-1s-.06-1.09,0-1.63a4.08,4.08,0,0,1,.19-.92c.75.49.75.92.62,1.66a32.1,32.1,0,0,0-.39,4.05c-.08,2-.08,4.09-.12,6.13,0,.56-.23.73-.82.62a4.37,4.37,0,0,1-3.21-3.05c-.18-.86-.27-1.73-.38-2.47l1.43-.71a1.69,1.69,0,0,1-.22-2.14,4.07,4.07,0,0,0,.74-2.84Z" transform="translate(-0.25 -0.25)"/><path class="cls-2" d="M48.26,2.17c0-.5.19-.64.72-.57a4.8,4.8,0,0,1,3.27,2,1,1,0,0,1,.18,1.19c-.21.45-.36.94-.58,1.38a2.76,2.76,0,0,0-.29,1.22l-.41,0A4.51,4.51,0,0,0,50.74,6a3.35,3.35,0,0,0-1.15-1.19A2.79,2.79,0,0,1,48.26,2.17Z" transform="translate(-0.25 -0.25)"/><path d="M44.67,17.61l2.06-2,1,.42-.72.85c-.47.55-1,1.09-1.43,1.63a1,1,0,0,1-1.35.19,2.89,2.89,0,0,1-1.34-1.48C43.68,16.56,44.12,17.23,44.67,17.61Z" transform="translate(-0.25 -0.25)"/><path class="cls-2" d="M42.61,30.47c1.22-1,2.38-2,3.58-3A6.16,6.16,0,0,1,47,27a3.69,3.69,0,0,1,0,1c-.34,1-.75,2-1.12,3a22.28,22.28,0,0,1-2.8,5.14c-.28.41-.65.76-1,1.15-.14.18-.38.51-.33.58a1.37,1.37,0,0,0,.7.46.94.94,0,0,0,.7-.17c.59-.46,1.16-1,1.71-1.47,1-.92,1.93-1.9,3-2.79a23.67,23.67,0,0,0,4.44-5.27,21.51,21.51,0,0,0,2.38-6.31,33.37,33.37,0,0,0,.59-5.87c.07-1,.1-2,.12-3,0-1.34,0-2.67,0-4a1,1,0,0,1,.24-.62,3.32,3.32,0,0,1,.31.59,23.48,23.48,0,0,1,1.13,7.8c-.12,3.11-.33,6.21-.59,9.31a33.77,33.77,0,0,1-.7,4.1c-.12.59,0,.94.58,1.11s.94-.14,1-.76c.21-1.24.38-2.5.56-3.75s.3-2.47.56-3.69a22.87,22.87,0,0,0,.38-5.72c-.12-2.55-.64-5.1.16-7.78.1.26.2.44.25.63a24.49,24.49,0,0,1,.83,8.09c-.13,1.82.05,3.67,0,5.5s-.29,3.63-.44,5.44a5.67,5.67,0,0,0,0,1.36,1.08,1.08,0,0,0,.54.68c.59.28,1,.06,1.1-.6.3-2.41.55-4.82.8-7.22.11-1,.25-2,.26-3a23.81,23.81,0,0,0-.21-3.15,4.9,4.9,0,0,1,.45-2.54l.27,0c.23,1.24.5,2.48.69,3.73.54,3.54-.17,7-.63,10.51a18.37,18.37,0,0,0-.15,2.1c0,.53.31.79.86.85a.79.79,0,0,0,1-.73c.22-1,.43-2,.63-3A20.63,20.63,0,0,0,65.69,26c.09-1.33,0-2.66.06-4V18.74l.34,0A5.78,5.78,0,0,1,66.42,20a51.14,51.14,0,0,1-.17,9.66A29.34,29.34,0,0,1,63.17,39a26.81,26.81,0,0,1-7.93,9.13c-2.06,1.57-4.19,3.05-6.37,4.44a16.78,16.78,0,0,1-5.94,2.32c-.79.15-1.54.64-2.33.72a14.38,14.38,0,0,1-4.72-.05,1,1,0,0,1-.55-.7c-.08-1.63-.13-3.26-.11-4.89a44.18,44.18,0,0,1,.23-5.15,23,23,0,0,1,1.06-4.63C37.78,36.46,39.47,33,42.61,30.47Z" transform="translate(-0.25 -0.25)"/><path class="cls-2" d="M47.28,26.21c-1.83-.13-3,1.08-4.2,2.07-.34.26-.65.55-1.09.94V24.36c1.19-.1,1.91-1.15,2.86-1.86,1.2-.91,2.45-1.77,3.68-2.65l.25.24c-.46.62-.88,1.26-1.37,1.84s-1.2,1.23-1.75,1.9a3.39,3.39,0,0,0-.4,1,1.46,1.46,0,0,0,1.79-.53c.8-.94,1.66-1.84,2.5-2.75a.85.85,0,0,1,.61-.26,2.58,2.58,0,0,1-.21.57c-.63.92-1.27,1.82-1.91,2.73-.08.11-.21.22-.22.34,0,.31-.17.8,0,.91a.74.74,0,0,0,1.09-.07c.52-.66,1-1.32,1.57-2s.88-1,1.31-1.5l.24.14a6.71,6.71,0,0,1-.36,1c-.6,1.12-1.25,2.22-1.85,3.33-.15.28-.36.74-.25.89s.61.26.93.38l.21.05A15.2,15.2,0,0,1,46.79,33l-.18-.11c.33-.72.72-1.43,1-2.18a24.29,24.29,0,0,0,.93-3.12C48.71,26.78,48.07,26.27,47.28,26.21Z" transform="translate(-0.25 -0.25)"/><path d="M41.17,8.24c.41-.48.66-.54,1.39-.3a6,6,0,0,0-.76,3.64,2.09,2.09,0,0,0,2.86,1.76,3.82,3.82,0,0,1,1-.22c.21,0,.42.2.64.31A1.89,1.89,0,0,1,46,14a3.42,3.42,0,0,1-4.24,0,4,4,0,0,1-.77-5.49Z" transform="translate(-0.25 -0.25)"/><path class="cls-2" d="M42.56,7.94c-.73-.24-1-.18-1.39.3l-.23.3L39.73,7.42a2.62,2.62,0,0,0,0-.83,4.09,4.09,0,0,0-2.16-2.27c1.66-2.09,3.94-2.76,6.47-3.1A3.26,3.26,0,0,0,43.7,5.5a6.4,6.4,0,0,0,1.09.89,1.54,1.54,0,0,1,.46,1.94,7.44,7.44,0,0,0-.47,2,1,1,0,0,0,1.21.94.86.86,0,0,0,.65-1.16,3,3,0,0,1,.43-1.94A1.87,1.87,0,0,0,46.6,6a8.16,8.16,0,0,0-.83-.71A2.5,2.5,0,0,1,45,2.61c.08-.43.11-.86.18-1.43.29,0,.78,0,1.27,0s.54.2.32.59a2.73,2.73,0,0,0,1,3.55,3.3,3.3,0,0,1,1.74,2.16A2.86,2.86,0,0,1,49,9.75a2.58,2.58,0,0,0-.49,2.36.62.62,0,0,1-.13.54,2,2,0,0,0-.49.89l-1.57-.11c-.22-.11-.43-.31-.64-.31a3.82,3.82,0,0,0-1,.22,2.09,2.09,0,0,1-2.86-1.76A6,6,0,0,1,42.56,7.94Z" transform="translate(-0.25 -0.25)"/><path class="cls-2" d="M44.67,17.61c-.55-.38-1-1.05-1.76-.4a2.89,2.89,0,0,0,1.34,1.48,1,1,0,0,0,1.35-.19c.48-.54,1-1.08,1.43-1.63l.72-.85-1-.42Zm-7.27.86A43.55,43.55,0,0,1,36.46,13a1.07,1.07,0,0,0-.48-.88,5.4,5.4,0,0,1-2.15-3.42c-.06-.24.19-.58.35-.83s.33-.22.49-.33c-.51-.76-.26-1.45.7-1.85a5.71,5.71,0,0,1,1.52-.36c.57-.06.91.33,1.15.8s.29.83.58,1.06.73.17,1.11.24l1.21,1.12A4,4,0,0,0,41.71,14,3.42,3.42,0,0,0,46,14a1.89,1.89,0,0,0,.34-.55l1.57.11a4.48,4.48,0,0,0,.66,3.77,6.35,6.35,0,0,0,4.22,2.46c.61.05.47.46.47.84s-.15.63-.6.58a6.26,6.26,0,0,0-.75,0c-.15-.37-.21-.91-.51-1.12S50.5,20,50,19.93c-.49-1.27-.75-1.36-2.05-.62-.92.53-1.83,1.09-2.73,1.63-.63-.24-1.27-.47-1.9-.74A2.73,2.73,0,0,1,42,18.66a3.08,3.08,0,0,0-.45-.84c-.16-.18-.51-.4-.67-.34s-.61.43-.62.68a2.57,2.57,0,0,0,1.13,2.34c.81.52,1.71.92,2.58,1.38a16.48,16.48,0,0,1-1.56,1.35,1.4,1.4,0,0,1-1.72-.17A9.57,9.57,0,0,1,37.4,18.47Z" transform="translate(-0.25 -0.25)"/><path class="cls-1" d="M20,25.68c-1.4-.59-2-.31-2.51,1.07a3.59,3.59,0,0,1-.24.32,30.45,30.45,0,0,1-1.17-3.59c-.44-2.29-.72-4.62-1.06-6.93,0-.29-.08-.59-.12-.88s-.06-.72.47-.88c.28-.08.5-.42.69-.69.94-1.29,2.41-1.83,3.69-2.61,1.48-.9,3-1.69,4.53-2.51a8.39,8.39,0,0,1,4.4-1c1.08,0,2.17,0,3.25.07.16,0,.31,0,.48,0a5.11,5.11,0,0,0,2.67,4.66c-.92,2.88,1.58,9.4,5.27,11.33v6.66c-1.26.16-2.55.94-4.11.66-.85-.15-1.25-.4-1.33-1.23-.19-2-1.65-3-3.24-3.78-.51-.26-.89-.45-1-1.11a13,13,0,0,0-.55-2.38,1,1,0,0,0-.67-.58c-.45-.05-.9.17-.85.73.06.81.21,1.61.34,2.47h-.63l-5.48.18a.62.62,0,0,0-.33.07A2.51,2.51,0,0,1,20,25.68Z" transform="translate(-0.25 -0.25)"/><path class="cls-2" d="M6.55,18.6c.17,2.25.51,4.48.85,6.7.31,2.06.72,4.1,1.08,6.14.06.36.09.73.16,1.08s.15.88.78.78a1.07,1.07,0,0,0,.93-1c-.14-1.83-.21-3.66-.42-5.48-.54-4.65-1.14-9.29-1.71-13.94A2.21,2.21,0,0,1,8.29,12a4.78,4.78,0,0,1,.39.74,33.71,33.71,0,0,1,1.53,6.84,43.47,43.47,0,0,0,.93,5.15c.51,2.6,1,5.21,1.6,7.78.3,1.25.84,1.58,1.57.92a1.36,1.36,0,0,0,.26-1.09c-.22-1.11-.59-2.2-.8-3.31-.43-2.23-.81-4.47-1.19-6.7-.22-1.23-.44-2.46-.61-3.7a24.2,24.2,0,0,1-.23-2.69c0-1.29-.05-2.58,0-3.87a8.79,8.79,0,0,1,.42-1.64,1.32,1.32,0,0,1,.93,1.32c.41,3.7.76,7.41,1.3,11.09A20,20,0,0,0,16.46,29c1,2,2.77,3.16,4.37,4.53,1.19,1,2.4,2,3.61,3,.5.4,1.06.71,1.55,1.1s.81.11,1.08-.17a.69.69,0,0,0,0-1.08c-.88-.79-1.75-1.58-2.64-2.36a28.06,28.06,0,0,1-4.75-5c-.28-.41-.62-.79-.88-1.21a5.49,5.49,0,0,1-.4-.89l.15-.18a11.5,11.5,0,0,1,1.54.74c1.19.79,2.35,1.63,3.51,2.47A39.68,39.68,0,0,1,27,32.48a38.45,38.45,0,0,1,3.85,4,14,14,0,0,1,2.46,6.22A14.75,14.75,0,0,1,33.23,46c0,1.61,0,3.21,0,4.82,0,1.16.16,2.31.17,3.47a1.21,1.21,0,0,1-1.47,1.25c-1.22-.11-2.46-.08-3.65-.31A29.66,29.66,0,0,1,23.41,54,39.83,39.83,0,0,1,18,51.32a18,18,0,0,1-3.19-2.52C12.91,47,11,45.08,9.17,43.14a22.11,22.11,0,0,1-3.69-5.2,32.4,32.4,0,0,1-3-7.76,28.79,28.79,0,0,1-.41-4.74Q2,23.6,2,21.75c0-1.2.19-2.39.31-3.59a4.12,4.12,0,0,1,.26-.73,1.94,1.94,0,0,1,.72,1.62A60,60,0,0,0,4.1,30.72c.23,1.2.59,2.37.89,3.56.12.46.49.44.82.38a1.29,1.29,0,0,0,1-1.39c-.15-2.67-.2-5.36-.48-8-.22-2.09-.8-4.13-1.07-6.22a32.94,32.94,0,0,1-.08-4.1c0-.49.08-1,0-1.47a1.92,1.92,0,0,1,.89-1.59,1.6,1.6,0,0,1,.46,1.5A36.54,36.54,0,0,0,6.55,18.6Z" transform="translate(-0.25 -0.25)"/><path d="M49,1.6c-.53-.07-.69.07-.72.57a2.79,2.79,0,0,0,1.33,2.66A3.35,3.35,0,0,1,50.74,6a4.51,4.51,0,0,1,.41,1.41,4.07,4.07,0,0,1-.74,2.84,1.69,1.69,0,0,0,.22,2.14l-1.43.71c.11.74.2,1.61.38,2.47a4.37,4.37,0,0,0,3.21,3.05c.59.11.81-.06.82-.62,0-2,0-4.09.12-6.13a32.1,32.1,0,0,1,.39-4.05c.13-.74.13-1.17-.62-1.66a4.08,4.08,0,0,0-.19.92c0,.54,0,1.09,0,1.63s0,.95-.47,1A1.23,1.23,0,0,1,52,9.07a4.15,4.15,0,0,1-.41-1.67,2.76,2.76,0,0,1,.29-1.22c.22-.44.37-.93.58-1.38a1,1,0,0,0-.18-1.19A4.8,4.8,0,0,0,49,1.6ZM44.85,22.5c-1,.71-1.67,1.76-2.86,1.86v4.86c.44-.39.75-.68,1.09-.94,1.25-1,2.37-2.2,4.2-2.07.79.06,1.43.57,1.25,1.35a24.29,24.29,0,0,1-.93,3.12c-.27.75-.66,1.46-1,2.18l.18.11a15.2,15.2,0,0,0,3.89-4.86l-.21-.05c-.32-.12-.75-.15-.93-.38s.1-.61.25-.89c.6-1.11,1.25-2.21,1.85-3.33a6.71,6.71,0,0,0,.36-1l-.24-.14c-.43.5-.88,1-1.31,1.5s-1.05,1.31-1.57,2a.74.74,0,0,1-1.09.07c-.14-.11,0-.6,0-.91,0-.12.14-.23.22-.34.64-.91,1.28-1.81,1.91-2.73a2.58,2.58,0,0,0,.21-.57.85.85,0,0,0-.61.26c-.84.91-1.7,1.81-2.5,2.75a1.46,1.46,0,0,1-1.79.53,3.39,3.39,0,0,1,.4-1c.55-.67,1.2-1.25,1.75-1.9s.91-1.22,1.37-1.84l-.25-.24C47.3,20.73,46.05,21.59,44.85,22.5Zm-2.24,8c-3.14,2.53-4.83,6-6.1,9.67a23,23,0,0,0-1.06,4.63,44.18,44.18,0,0,0-.23,5.15c0,1.63,0,3.26.11,4.89a1,1,0,0,0,.55.7,14.38,14.38,0,0,0,4.72.05c.79-.08,1.54-.57,2.33-.72a16.78,16.78,0,0,0,5.94-2.32c2.18-1.39,4.31-2.87,6.37-4.44A26.81,26.81,0,0,0,63.17,39a29.34,29.34,0,0,0,3.08-9.34A51.14,51.14,0,0,0,66.42,20a5.78,5.78,0,0,0-.33-1.25l-.34,0V22c0,1.33,0,2.66-.06,4a20.63,20.63,0,0,1-.48,2.68c-.2,1-.41,2-.63,3a.79.79,0,0,1-1,.73c-.55-.06-.86-.32-.86-.85a18.37,18.37,0,0,1,.15-2.1c.46-3.49,1.17-7,.63-10.51-.19-1.25-.46-2.49-.69-3.73l-.27,0a4.9,4.9,0,0,0-.45,2.54,23.81,23.81,0,0,1,.21,3.15c0,1-.15,2-.26,3-.25,2.4-.5,4.81-.8,7.22-.08.66-.51.88-1.1.6a1.08,1.08,0,0,1-.54-.68,5.67,5.67,0,0,1,0-1.36c.15-1.81.37-3.62.44-5.44s-.11-3.68,0-5.5a24.49,24.49,0,0,0-.83-8.09c0-.19-.15-.37-.25-.63-.8,2.68-.28,5.23-.16,7.78a22.87,22.87,0,0,1-.38,5.72c-.26,1.22-.38,2.46-.56,3.69s-.35,2.51-.56,3.75c-.11.62-.55.92-1,.76s-.7-.52-.58-1.11a33.77,33.77,0,0,0,.7-4.1c.26-3.1.47-6.2.59-9.31a23.48,23.48,0,0,0-1.13-7.8,3.32,3.32,0,0,0-.31-.59,1,1,0,0,0-.24.62c0,1.34,0,2.67,0,4,0,1-.05,2-.12,3a33.37,33.37,0,0,1-.59,5.87,21.51,21.51,0,0,1-2.38,6.31,23.67,23.67,0,0,1-4.44,5.27c-1,.89-2,1.87-3,2.79-.55.51-1.12,1-1.71,1.47a.94.94,0,0,1-.7.17,1.37,1.37,0,0,1-.7-.46c0-.07.19-.4.33-.58.31-.39.68-.74,1-1.15A22.28,22.28,0,0,0,45.85,31c.37-1,.78-2,1.12-3a3.69,3.69,0,0,0,0-1,6.16,6.16,0,0,0-.8.45C45,28.44,43.83,29.49,42.61,30.47ZM34.31,38a2.65,2.65,0,0,0,.3,3c1.41-2.86,2-6.07,4.27-8.48H35.45a.71.71,0,0,0,0,.19A9.35,9.35,0,0,1,34.31,38ZM35.37,5.68c-1,.4-1.21,1.09-.7,1.85-.16.11-.38.18-.49.33s-.41.59-.35.83A5.4,5.4,0,0,0,36,12.11a1.07,1.07,0,0,1,.48.88,43.55,43.55,0,0,0,.94,5.48,9.57,9.57,0,0,0,3.27,4.59,1.4,1.4,0,0,0,1.72.17A16.48,16.48,0,0,0,44,21.88c-.87-.46-1.77-.86-2.58-1.38a2.57,2.57,0,0,1-1.13-2.34c0-.25.36-.57.62-.68s.51.16.67.34a3.08,3.08,0,0,1,.45.84,2.73,2.73,0,0,0,1.37,1.54c.63.27,1.27.5,1.9.74.9-.54,1.81-1.1,2.73-1.63,1.3-.74,1.56-.65,2.05.62.47,0,1-.08,1.32.13s.36.75.51,1.12a6.26,6.26,0,0,1,.75,0c.45,0,.61-.14.6-.58s.14-.79-.47-.84a6.35,6.35,0,0,1-4.22-2.46,4.48,4.48,0,0,1-.66-3.77,2,2,0,0,1,.49-.89.62.62,0,0,0,.13-.54A2.58,2.58,0,0,1,49,9.75a2.86,2.86,0,0,0,.48-2.26,3.3,3.3,0,0,0-1.74-2.16,2.73,2.73,0,0,1-1-3.55c.22-.39.06-.57-.32-.59s-1,0-1.27,0c-.07.57-.1,1-.18,1.43a2.5,2.5,0,0,0,.79,2.69A8.16,8.16,0,0,1,46.6,6a1.87,1.87,0,0,1,.47,2.17,3,3,0,0,0-.43,1.94A.86.86,0,0,1,46,11.28a1,1,0,0,1-1.21-.94,7.44,7.44,0,0,1,.47-2,1.54,1.54,0,0,0-.46-1.94A6.4,6.4,0,0,1,43.7,5.5a3.26,3.26,0,0,1,.38-4.28c-2.53.34-4.81,1-6.47,3.1a4.09,4.09,0,0,1,2.16,2.27,2.62,2.62,0,0,1,0,.83c-.38-.07-.84,0-1.11-.24s-.39-.69-.58-1.06-.58-.86-1.15-.8A5.71,5.71,0,0,0,35.37,5.68ZM28.88,26.89a15.49,15.49,0,0,0-4.61-.11l-1.81.14c.5.36.84.59,1.15.84.65.52,1.26,1.09,1.92,1.6a48.73,48.73,0,0,1,4,3.11,52.35,52.35,0,0,1,3.52,4.11c.15-.42.34-.87.46-1.34.51-2-.27-3.9-.74-5.8a.86.86,0,0,0-.23-.34A6.46,6.46,0,0,0,28.88,26.89ZM16.05,14.1c-.19.27-.41.61-.69.69-.53.16-.53.47-.47.88s.07.59.12.88c.34,2.31.62,4.64,1.06,6.93a30.45,30.45,0,0,0,1.17,3.59,3.59,3.59,0,0,0,.24-.32c.54-1.38,1.11-1.66,2.51-1.07a2.51,2.51,0,0,0,2.54.11.62.62,0,0,1,.33-.07l5.48-.18H29c-.13-.86-.28-1.66-.34-2.47-.05-.56.4-.78.85-.73a1,1,0,0,1,.67.58,13,13,0,0,1,.55,2.38c.07.66.45.85,1,1.11,1.59.81,3.05,1.77,3.24,3.78.08.83.48,1.08,1.33,1.23,1.56.28,2.85-.5,4.11-.66V24.1c-3.69-1.93-6.19-8.45-5.27-11.33A5.11,5.11,0,0,1,32.4,8.11c-.17,0-.32,0-.48,0C30.84,8,29.75,8,28.67,8a8.39,8.39,0,0,0-4.4,1c-1.52.82-3.05,1.61-4.53,2.51C18.46,12.27,17,12.81,16.05,14.1ZM14.4,22.81c-.54-3.68-.89-7.39-1.3-11.09a1.32,1.32,0,0,0-.93-1.32A8.79,8.79,0,0,0,11.75,12c-.06,1.29-.05,2.58,0,3.87A24.2,24.2,0,0,0,12,18.6c.17,1.24.39,2.47.61,3.7.38,2.23.76,4.47,1.19,6.7.21,1.11.58,2.2.8,3.31a1.36,1.36,0,0,1-.26,1.09c-.73.66-1.27.33-1.57-.92-.62-2.57-1.09-5.18-1.6-7.78a43.47,43.47,0,0,1-.93-5.15,33.71,33.71,0,0,0-1.53-6.84A4.78,4.78,0,0,0,8.29,12a2.21,2.21,0,0,0-.07.91c.57,4.65,1.17,9.29,1.71,13.94.21,1.82.28,3.65.42,5.48a1.07,1.07,0,0,1-.93,1c-.63.1-.7-.35-.78-.78s-.1-.72-.16-1.08c-.36-2-.77-4.08-1.08-6.14-.34-2.22-.68-4.45-.85-6.7a36.54,36.54,0,0,1,0-5.23,1.6,1.6,0,0,0-.46-1.5,1.92,1.92,0,0,0-.89,1.59c0,.49-.06,1,0,1.47A32.94,32.94,0,0,0,5.28,19c.27,2.09.85,4.13,1.07,6.22.28,2.66.33,5.35.48,8a1.29,1.29,0,0,1-1,1.39c-.33.06-.7.08-.82-.38-.3-1.19-.66-2.36-.89-3.56a60,60,0,0,1-.77-11.67,1.94,1.94,0,0,0-.72-1.62,4.12,4.12,0,0,0-.26.73c-.12,1.2-.26,2.39-.31,3.59s0,2.46,0,3.69a28.79,28.79,0,0,0,.41,4.74,32.4,32.4,0,0,0,3,7.76,22.11,22.11,0,0,0,3.69,5.2C11,45.08,12.91,47,14.85,48.8A18,18,0,0,0,18,51.32,39.83,39.83,0,0,0,23.41,54a29.66,29.66,0,0,0,4.85,1.31c1.19.23,2.43.2,3.65.31a1.21,1.21,0,0,0,1.47-1.25c0-1.16-.15-2.31-.17-3.47,0-1.61,0-3.21,0-4.82a14.75,14.75,0,0,0,.08-3.31,14,14,0,0,0-2.46-6.22,38.45,38.45,0,0,0-3.85-4,39.68,39.68,0,0,0-3.41-2.59c-1.16-.84-2.32-1.68-3.51-2.47a11.5,11.5,0,0,0-1.54-.74l-.15.18a5.49,5.49,0,0,0,.4.89c.26.42.6.8.88,1.21a28.06,28.06,0,0,0,4.75,5c.89.78,1.76,1.57,2.64,2.36a.69.69,0,0,1,0,1.08c-.27.28-.63.52-1.08.17s-1-.7-1.55-1.1c-1.21-1-2.42-2-3.61-3-1.6-1.37-3.38-2.57-4.37-4.53A20,20,0,0,1,14.4,22.81ZM.28,27.3a47.31,47.31,0,0,1,.15-6.19,17.71,17.71,0,0,1,1.34-4.32c.19-.46.86-.72,1.3-1.09.18-.15.43-.32.47-.52a8.16,8.16,0,0,1,1.34-3.59,9.58,9.58,0,0,1,1.7-1.38.09.09,0,0,1,.06,0c.83.33,1.65-.25,2.47,0a.84.84,0,0,1,.43.38c.29.58.55,1.18.85,1.82.36-.91.71-1.76,1.06-2.62s1.1-1.14,2-.65a1.87,1.87,0,0,1,1,2c0,.78.11,1.56.16,2.27,1.62-1.05,3.17-2.1,4.77-3.08s2.95-1.79,4.5-2.54a12.8,12.8,0,0,1,5.58-1c1,0,2.05,0,3.07,0a.87.87,0,0,0,.61-.31,4.59,4.59,0,0,1,2.17-1.46,1.16,1.16,0,0,0,.54-.38C38.05,1.39,41.23.4,44.81.27a17,17,0,0,1,5.46.62,14.63,14.63,0,0,1,2.2,1c.14.07.29.23.41.21,1-.2,1.25.6,1.36,1.17a6.4,6.4,0,0,0,1.18,2.18,4.21,4.21,0,0,1,.48.81A7.78,7.78,0,0,1,56,7.56l1.33,1.23s.08,0,.1,0c.76-1.07,1.22-1.09,2.2-.2a4.76,4.76,0,0,1,1.63,3.06c.09.73.39,1.26,1.15,1.25,1,0,1.36.76,1.74,1.42A8.07,8.07,0,0,1,64.75,16c.06.19.09.39.14.58,1.49-.37,2.47.84,2.89,1.9.69,1.74.5,3.55.65,5.32a27.61,27.61,0,0,1-.16,5.45,38.23,38.23,0,0,1-1.07,5.19A17.44,17.44,0,0,1,66,37c-.38.83-.77,1.67-1.14,2.51a10,10,0,0,1-2.16,3.27c-1.28,1.26-2.42,2.68-3.67,4a19.25,19.25,0,0,1-2.19,1.93C55.31,49.9,53.7,51,52.09,52.16A23.15,23.15,0,0,1,46.25,55c-1.81.59-3.62,1.18-5.46,1.66a8.55,8.55,0,0,1-5.67-.06,2.77,2.77,0,0,0-1.84,0,13.2,13.2,0,0,1-7.37.19c-.93-.19-1.84-.47-2.76-.73a6.45,6.45,0,0,1-.83-.32c-1-.45-2-.89-2.95-1.37a23.91,23.91,0,0,1-6.68-4.83c-1.51-1.57-3.12-3-4.6-4.65-.9-1-1.64-2.11-2.48-3.15a25.52,25.52,0,0,1-3.49-6.53A20.82,20.82,0,0,1,.28,27.3Z" transform="translate(-0.25 -0.25)"/></g></g></svg>