<svg xmlns="http://www.w3.org/2000/svg" viewBox="0 0 72.51 51.01"><defs><style>.cls-1{fill:#ee694e;}.cls-2{fill:#e8ae01;}.cls-3{fill:#fff;}</style></defs><title>first-contact-icon</title><g id="Layer_2" data-name="Layer 2"><g id="Layer_1-2" data-name="Layer 1"><path d="M72.51,13.62a8.92,8.92,0,0,1,.09,3.71c-.25,1-.31,2.09-.6,3.09a2.71,2.71,0,0,1-2.79,2.15c-1.91.14-3.82.32-5.74.37a41.39,41.39,0,0,1-4.59-.13c-1.39-.1-2-1.24-2.73-2.24a3.76,3.76,0,0,1,.06-4.38c.69-1.17,1.29-2.4,2-3.68-1.86-.94-3.87-.87-5.88-1a15.38,15.38,0,0,0,0,1.67A39.73,39.73,0,0,0,52.94,18c.82,3.36,1.36,6.82,3.15,9.88A23,23,0,0,0,59.52,32a32.14,32.14,0,0,1,2.81,3.14,9.4,9.4,0,0,1,1.19,2.59,19.93,19.93,0,0,1,1.19,6.93,1.23,1.23,0,0,1-.39.85,15.49,15.49,0,0,1-6.26,2.83c-1.45.36-2.8,1.09-4.22,1.58a34,34,0,0,1-3.58,1c-2.51.54-5.06.24-7.6.35A57.83,57.83,0,0,1,33,50.47c-.82-.1-1.67,0-2.5,0s-1.56-.19-2.34-.22a8.23,8.23,0,0,1-5.07-2c-1.06-.88-2.19-1.7-3.25-2.6A6.08,6.08,0,0,1,18,42.74c-.9.19-1.87.7-2.69-.1a3.84,3.84,0,0,0-1.88-1A2.14,2.14,0,0,1,12,39.76a5,5,0,0,1,.46-3.89.83.83,0,0,0,.12-.54,3.85,3.85,0,0,1,2.37-3.89c1.52-.56,3.1-1,4.61-1.4A1.51,1.51,0,0,0,18,30a4.48,4.48,0,0,1-4.4.17,2,2,0,0,0-1.09-.13,6.62,6.62,0,0,1-4.39-.64c-.08-.05-.19-.09-.23-.16-.59-1-1.53-1-2.56-1.13a3.13,3.13,0,0,1-3-3.31,1.18,1.18,0,0,0-.64-1.13A2.92,2.92,0,0,1,.39,20.26c.31-1,.82-2,1.23-3a1,1,0,0,0,.14-.39,4.49,4.49,0,0,1,2.13-3.79,5.13,5.13,0,0,1,2.24-.66c1.52-.16,3.06-.17,4.66-.25a17.69,17.69,0,0,1,1.15-2.48C13,8.09,13.87,6.24,15.7,5.28S19.19,3.48,21,2.7A16.86,16.86,0,0,1,23.83,2c1.39-.33,2.77-.73,4.19-1C29.64.75,31.29.65,32.93.44c3.28-.43,6.56,0,9.83-.07a32.46,32.46,0,0,1,6.16.32,19.82,19.82,0,0,1,3.19.87A15.67,15.67,0,0,0,56.88,2a18.51,18.51,0,0,1,6,.74A9.47,9.47,0,0,1,66.62,5c.46.47,1.1.78,1.52,1.28a18.31,18.31,0,0,1,1.45,2.11c.78,1.2,1.55,2.39,2.28,3.63A4.92,4.92,0,0,1,72.51,13.62ZM71,16.68a6.16,6.16,0,0,0-1.23-5.08,8.82,8.82,0,0,1-1.52-2.42A8,8,0,0,0,65.66,6a10.93,10.93,0,0,0-5.93-2.68c-1.15-.09-2.3-.11-3.45-.2a26.74,26.74,0,0,1-4.84-.47,30,30,0,0,0-6.12-1.12c-1.46-.07-2.92,0-4.38,0-1.65,0-3.3-.15-4.95-.11a48.85,48.85,0,0,0-9.34,1C24,3,21.29,3.42,18.86,4.79c-1.68.94-3.39,1.69-4.31,3.65a28,28,0,0,0-1.94,3.73,11.34,11.34,0,0,1-.72,1.38,5.3,5.3,0,0,0-.62,1.7c-.09,1.1,0,2.21,0,3.31a.88.88,0,0,0,.75,1A30,30,0,0,0,20.79,21a10.78,10.78,0,0,0,4.8-1.28,1.9,1.9,0,0,0,1.35-1.92,16,16,0,0,0-2.6-7.37c-.2-.31-.53-.62-.06-.88s.83-.59,1.22.05c.13.23.37.51.59.54a28.7,28.7,0,0,0,3.2.34c1.48.06,3,0,4.51,0a8.13,8.13,0,0,1,.43-.83c.41-.63,1.28-.84,1.62-.31a1.21,1.21,0,0,0,1.45.54,2.9,2.9,0,0,1,.51,0c2.77.15,5.54.32,8.31.45,1,0,1.9-.07,2.36-1.14.07-.17.26-.28.41-.4.88-.67,1-.69,1.84,0,.33.27.57.64.87.93a1.16,1.16,0,0,0,.57.35c1.1.14,2.2.24,3.29.35a10.19,10.19,0,0,1,4.22,1.3c.3.17.4.34.2.68-.65,1.12-1.28,2.25-1.88,3.39a7.25,7.25,0,0,0-.77,1.85c-.23,1.12,1.13,3.39,2.2,3.82a.88.88,0,0,0,.36.06c3.06,0,6.13,0,9.2,0A1,1,0,0,0,70,21,9.41,9.41,0,0,0,71,16.68ZM63,45.46a1.19,1.19,0,0,0,.57-1.31c-.36-1.73-.69-3.48-1.07-5.21a10.15,10.15,0,0,0-.6-1.76c-.87-2.08-2.54-3.54-4.1-5a15.86,15.86,0,0,1-3.5-4.48q-.17-.36-.3-.75a95.16,95.16,0,0,1-2.62-9.42C51,15.77,51,14,50.81,12.2A9.48,9.48,0,0,0,50.23,10c-.21-.55-.52-.55-.85,0a7,7,0,0,0-.71,1.39,20.65,20.65,0,0,0-.88,2.73c-.19.89-.36,1.08-1.31,1s-1.81,0-2.72-.08c-2.1-.12-4.2-.23-6.3-.4A1.17,1.17,0,0,1,36.7,14c-.36-.79-.6-1.62-.9-2.43-.12-.3-.3-.58-.45-.87l-.31.07c-.09,1.25-.2,2.51-.22,3.76,0,.24.33.49.51.73l.14-.07a.65.65,0,0,1,0,.28c-1,2.38-2,4.79-3.08,7.11-.92,1.88-2,3.71-3,5.51l-.54.9c-.95,1.57-1.89,3.2-3.62,4.1-1.16.61-2.33,1.22-3.52,1.76a3.48,3.48,0,0,0-2.11,2.62,15.08,15.08,0,0,0,.09,4.79,2.67,2.67,0,0,0,.74,1.52c1.26,1.19,2.62,2.28,4,3.41a7,7,0,0,0,1.15,1,10.07,10.07,0,0,0,5.43,1.07,24.41,24.41,0,0,1,4.84.43,35.71,35.71,0,0,0,3.68.5l1.61,0c2.37.05,4.73,0,7.09.07a14.38,14.38,0,0,0,5.45-1.14c1.4-.54,2.81-1.09,4.24-1.54C59.63,47,61.51,46.73,63,45.46ZM46.33,13.77c.28-.75.51-1.52.75-2.25l-9.92-.3a6.37,6.37,0,0,0,.38,1.39c.28.51.27,1.25,1.22,1.25,2.36,0,4.73.15,7.09.21A.6.6,0,0,0,46.33,13.77ZM33.56,11.55H26.71c.17.5.28.86.41,1.22.4,1.17.85,2.33,1.21,3.52.77,2.55-.38,3.26-2.24,4.35a18.16,18.16,0,0,1-3,1.15A12.09,12.09,0,0,1,17,22a56.82,56.82,0,0,1-5.85-1.46c-.59-.16-1.26-.37-1.28-1.17,0-1.76-.33-3.55.29-5.28.08-.23.15-.48.24-.78a4.31,4.31,0,0,0-.84-.14,21.7,21.7,0,0,0-2.8.15A12.54,12.54,0,0,0,4.25,14c-.24.09-.35.55-.51.85h.88s.1,0,.14,0c.43.07,1.08,0,1.22.24a1.35,1.35,0,0,1-.15,1.6,2.59,2.59,0,0,1-2.57,1.07c-.38-.06-.59.05-.68.43-.25,1-.57,1.92-.74,2.91a1.29,1.29,0,0,0,.75,1.39,3.31,3.31,0,0,1,.3-.68,10.08,10.08,0,0,1,1.35-1.63,1.22,1.22,0,0,1,1.64.09,1.12,1.12,0,0,1,.47,1.6,16.26,16.26,0,0,1-1.18,1.79c-.18.24-.56.32-.8.53s-.46.43-.45.64a2.53,2.53,0,0,0,2,2.34c.68.19.79.08.7-.64A4.76,4.76,0,0,1,7,23.41a2.1,2.1,0,0,1,2.94-.67,1.74,1.74,0,0,1,.52,2.7c-.46.67-1.06,1.23-1.55,1.88a.77.77,0,0,0-.08.7,2.76,2.76,0,0,0,3.17.91c-.17-.59-.37-1.18-.5-1.78a2.71,2.71,0,0,1,.59-2.49c1.07-1.08,2-.77,2.91.87A2.79,2.79,0,0,1,14.35,29a2.06,2.06,0,0,0,3-.12c-.26-.72-.56-1.39-.74-2.1a1.73,1.73,0,0,1,1.17-2.11,2.58,2.58,0,0,1,2.2.76,2,2,0,0,1,.26,2.39c-.17.28-.35.55-.62,1a6.57,6.57,0,0,0,1.56,0,9.15,9.15,0,0,0,1.23-.72c.44-.21.5-.49.47-1a4.65,4.65,0,0,1,.28-1.73c.32-.83,1.15-1,1.59-.31A2.53,2.53,0,0,0,27,26.2c.95.08,1.07.53.66,1.15l0,0v.05a3,3,0,0,1-3.4,1.29,1,1,0,0,0-.73.09,9.44,9.44,0,0,0-1.23,1.45.77.77,0,0,0,.12.71,1.17,1.17,0,0,1,.05,1.73c-.18.24-.35.49-.52.74l.15.21c.64-.37,1.3-.72,1.93-1.12,1.71-1.08,2.51-2.9,3.54-4.53a1.45,1.45,0,0,0,.09-.57s0,0,0,0l0,0c.12-.06.27-.11.33-.21,1.43-2.43,2.76-4.91,4-7.45S33.34,14.31,33.56,11.55Zm-12,22.16c-.73,0-1.52.31-1.8-.46a7.25,7.25,0,0,1-.12-2,12.18,12.18,0,0,0-4.32,1,1.57,1.57,0,0,0-1.14,1.62c.81,0,1.61,0,2.4.13s1,.66,1.07,1.33a2.09,2.09,0,0,1-1.46,1.81c-.69.06-1.4,0-2.11,0a.7.7,0,0,0-.55.23,3.16,3.16,0,0,0,1,3.13A11.9,11.9,0,0,1,16,38.8a1.29,1.29,0,0,1,1.11-.06,1,1,0,0,1,.35.84,4.28,4.28,0,0,1-.58,1.2c-.17.31-.53.61,0,.89a1.89,1.89,0,0,0,1.1-2.19,7.75,7.75,0,0,1,.26-2.42,3.25,3.25,0,0,1,1.61-2.27C20.35,34.44,20.93,34.11,21.59,33.71Zm-3.27-6.23c.52-.72.34-1.32-.53-1.69C18,26.4,18.14,26.89,18.32,27.48ZM15.72,36c.06-.21.25-.53.17-.62A1.82,1.82,0,0,0,15.1,35c-.19-.06-.43.06-.81.12a2.85,2.85,0,0,0,.56.63A4.77,4.77,0,0,0,15.72,36ZM13.3,27.93a1.84,1.84,0,0,0-.56-2.61c.11,1,.2,1.8.29,2.64ZM9.19,24.47c0-.33-.33-.68-.58-1,0-.06-.56.12-.57.22-.09.84-.11,1.68-.16,2.52l.3.06A2.1,2.1,0,0,0,9.19,24.47Zm-4.33-3c0-.11-.14-.3-.23-.46-.1.08-.27.14-.29.24-.16.56-.28,1.14-.41,1.71l.24.11C4.41,22.52,4.66,22,4.86,21.45ZM3.34,16.63c.94.06,1.12-.08,1.09-.93Z" transform="translate(-0.25 -0.25)"/><path class="cls-1" d="M69.74,11.6A6.16,6.16,0,0,1,71,16.68,9.41,9.41,0,0,1,70,21a1,1,0,0,1-1,.59c-3.07,0-6.14,0-9.2,0a.88.88,0,0,1-.36-.06c-1.07-.43-2.43-2.7-2.2-3.82A7.25,7.25,0,0,1,58,15.87c.6-1.14,1.23-2.27,1.88-3.39.2-.34.1-.51-.2-.68a10.19,10.19,0,0,0-4.22-1.3c-1.09-.11-2.19-.21-3.29-.35a1.16,1.16,0,0,1-.57-.35c-.3-.29-.54-.66-.87-.93-.86-.7-1-.68-1.84,0-.15.12-.34.23-.41.4-.46,1.07-1.39,1.19-2.36,1.14-2.77-.13-5.54-.3-8.31-.45a2.9,2.9,0,0,0-.51,0,1.21,1.21,0,0,1-1.45-.54c-.34-.53-1.21-.32-1.62.31a8.13,8.13,0,0,0-.43.83c-1.56,0-3,0-4.51,0a28.7,28.7,0,0,1-3.2-.34c-.22,0-.46-.31-.59-.54-.39-.64-.86-.26-1.22-.05s-.14.57.06.88a16,16,0,0,1,2.6,7.37,1.9,1.9,0,0,1-1.35,1.92A10.78,10.78,0,0,1,20.79,21,30,30,0,0,1,12,19.52a.88.88,0,0,1-.75-1c0-1.1-.11-2.21,0-3.31a5.3,5.3,0,0,1,.62-1.7,11.34,11.34,0,0,0,.72-1.38,28,28,0,0,1,1.94-3.73c.92-2,2.63-2.71,4.31-3.65C21.29,3.42,24,3,26.65,2.35a48.85,48.85,0,0,1,9.34-1c1.65,0,3.3.09,4.95.11,1.46,0,2.92-.08,4.38,0a30,30,0,0,1,6.12,1.12,26.74,26.74,0,0,0,4.84.47c1.15.09,2.3.11,3.45.2A10.93,10.93,0,0,1,65.66,6a8,8,0,0,1,2.56,3.22A8.82,8.82,0,0,0,69.74,11.6Z" transform="translate(-0.25 -0.25)"/><path class="cls-1" d="M63.61,44.15A1.19,1.19,0,0,1,63,45.46c-1.53,1.27-3.41,1.52-5.2,2.09-1.43.45-2.84,1-4.24,1.54a14.38,14.38,0,0,1-5.45,1.14c-2.36,0-4.72,0-7.09-.07l0-2.33a8.4,8.4,0,0,0,2.8-.47A17.34,17.34,0,0,0,52,42.14a12.29,12.29,0,0,0,2.53-5.08,20.71,20.71,0,0,0,.37-3.94,7.6,7.6,0,0,0-.53-3.85c-.22-.44-.44-.88-.64-1.32l.61-.3a15.86,15.86,0,0,0,3.5,4.48c1.56,1.51,3.23,3,4.1,5a10.15,10.15,0,0,1,.6,1.76C62.92,40.67,63.25,42.42,63.61,44.15Z" transform="translate(-0.25 -0.25)"/><path d="M50.74,25.28a.28.28,0,0,0,0-.08A8.5,8.5,0,0,0,46.57,22c-.69-.23-1.41-.38-2.12-.57l-.29-.08a7,7,0,0,0-6.65,1.2c.81,0,1.66,0,2,.75a1.94,1.94,0,0,1-.62,2.45c.6-.17,1.11-.47,1.66-.58a8.68,8.68,0,0,1,1.7,0,1.5,1.5,0,0,1-.19-.47,10,10,0,0,1,0-2.19c.14-.77,1.34-1.13,2.35-.88a2,2,0,0,1,.59.24,2.34,2.34,0,0,1,.75,3.46c-.14.23-.23.7-.09.85a4.56,4.56,0,0,0,1,.71c.63-.75,1.06-1.68,1.75-1.94s1.58.21,2.32.35Zm3.63,4a7.6,7.6,0,0,1,.53,3.85,20.71,20.71,0,0,1-.37,3.94A12.29,12.29,0,0,1,52,42.14a17.34,17.34,0,0,1-8.09,5.22,8.4,8.4,0,0,1-2.8.47,11.23,11.23,0,0,1-3.23-.51c-1.57-.48-3.24-.73-4.57-1.83a14.6,14.6,0,0,1-4.82-6,11.1,11.1,0,0,1-1.06-3.32c0-.24,0-.48,0-.72a17.33,17.33,0,0,1,2.22-7.19,13.54,13.54,0,0,1,1.54-2.07,22.4,22.4,0,0,1,7-5.42A7.94,7.94,0,0,1,41.41,20,13.63,13.63,0,0,1,49,21.7a10,10,0,0,1,4.08,4.78c.2.5.41,1,.64,1.47S54.15,28.83,54.37,29.27Zm-1,3.54c.34-2.62-.82-4.68-2.17-6.69a2.4,2.4,0,0,1-1.74,3.19c-.88.32-1,.37-.71,1.31.09.35.15.71.24,1.09C51.05,29.64,53.08,30.87,53.35,32.81Zm-.92,5.51a8.66,8.66,0,0,0,.91-4.8,15.39,15.39,0,0,1-2,1.28A2.48,2.48,0,0,1,49,34.34l-3.12,6.3A6.35,6.35,0,0,1,47.48,42a6.69,6.69,0,0,1,.41,2.16,15.57,15.57,0,0,0,3.32-3.4c-2.25.39-2.93.13-3.36-1.21a2.22,2.22,0,0,1,1.21-3,1.74,1.74,0,0,1,2.08.11A15.16,15.16,0,0,1,52.43,38.32ZM51,33.92c.5,0,1-.67,1-1.27s-.72-1.17-1.16-1.09a.94.94,0,0,0-.84.8C50,33.36,50.41,33.91,51,33.92Zm-1,6c.37,0,.91-.87.87-1.37s-.72-1.21-1.21-1.15-.77.35-.57.86C49.15,39.19,49.55,39.9,50,39.88Zm.12-12.75c0-.61-.54-1.4-1.08-1.26-.34.08-.55.65-.82,1,.12.75.5,1.42.9,1.43S50.05,27.63,50.08,27.13ZM47,35.5a7.18,7.18,0,0,0,.36-5.25,5.57,5.57,0,0,0-5.61-4c-.51.1-1,.18-1.53.29a5.51,5.51,0,0,0-2.87,2C36,30,35.7,31.89,35.09,33.62a4.43,4.43,0,0,0,.11,3.18c.41,1,.79,2,1.26,2.89a4.06,4.06,0,0,0,3.1,2.21,5.08,5.08,0,0,0,5.3-2.57C45.62,38.08,46.34,36.81,47,35.5Zm-1.57,9.32c1.39-1,1.45-1.73.29-2.73A1.76,1.76,0,0,0,45.42,44.82Zm-.33-20.94c.07-.31-.29-.82-.59-1.09s-.82-.28-.94-.14a1.42,1.42,0,0,0-.29,1.09A10.18,10.18,0,0,0,44,25.33l.26,0A5.45,5.45,0,0,0,45.09,23.88Zm-.53,22a3.05,3.05,0,0,1-.45-3.53c-.26-.06-.53-.21-.73-.14-.91.3-1.8.67-2.68,1,1.08,1.2.7,2.33-.68,3.44C41.74,46.61,43.22,46.71,44.56,45.87Zm-4.39-1.11a.69.69,0,0,0-.64-.79c-.5,0-.82.41-.87,1.41.12.09.31.37.55.42C39.65,45.9,40.16,45.3,40.17,44.76ZM38.62,24c.05-.07-.46-.51-.59-.66-.77,0-1.16.37-1.1,1.07,0,.32.33.61.51.92A11.45,11.45,0,0,0,38.62,24ZM37.57,46a3.19,3.19,0,0,1,1.12-3c-1-.7-2.08-1.37-3.17-2.08.36,1.56.19,2.83-1.81,3.13A6.25,6.25,0,0,0,37.57,46ZM36.08,28.23l1.81-2c-2-.21-2.43-1-1.6-2.9l-.2-.19-3,3.35c.65.1,1.38-.93,1.79.36C35,27.37,35.59,27.72,36.08,28.23ZM34.74,29l-.13-.1c0-.22,0-.49-.12-.63a1.6,1.6,0,0,0-.81-.52c-.17,0-.5.33-.56.56a3.25,3.25,0,0,0,0,1.28c.07.39.36.79.81.46A4.69,4.69,0,0,0,34.74,29ZM34.4,39.83a5,5,0,0,0,.84.5l-1.75-4.11A6.55,6.55,0,0,1,32,37a1.74,1.74,0,0,1-1.63-.74,2.32,2.32,0,0,1-.28-2.8c.72-1.08,1.78-1.23,3.82-.49.26-.6.51-1.2.84-2-1.14.44-2,.4-2.64-.41s-.24-1.72-.06-2.65C28.61,31.5,28.41,39,31.57,41.57A11.94,11.94,0,0,1,32.35,40,1.31,1.31,0,0,1,34.4,39.83ZM34.45,42c0-.69-.36-1.24-.8-1.14s-.86.41-.82,1.19c0,.39.54,1.07,1,1S34.43,42.43,34.45,42Zm-1.59-7.23c0-1-.43-1.42-1-1.41A1,1,0,0,0,31,34.43c0,.63.7,1.6,1,1.41A5.31,5.31,0,0,0,32.86,34.77Z" transform="translate(-0.25 -0.25)"/><path class="cls-1" d="M54,26.9q.14.39.3.75l-.61.3c-.23-.48-.44-1-.64-1.47A10,10,0,0,0,49,21.7,13.63,13.63,0,0,0,41.41,20a7.94,7.94,0,0,0-3.25.76,22.4,22.4,0,0,0-7,5.42,13.54,13.54,0,0,0-1.54,2.07l-.29-.17c1.07-1.8,2.1-3.63,3-5.51,1.13-2.32,2.07-4.73,3.08-7.11a.65.65,0,0,0,0-.28l-.14.07c-.18-.24-.52-.49-.51-.73,0-1.25.13-2.51.22-3.76l.31-.07c.15.29.33.57.45.87.3.81.54,1.64.9,2.43a1.17,1.17,0,0,0,.76.64c2.1.17,4.2.28,6.3.4.91.05,1.82,0,2.72.08s1.12-.13,1.31-1a20.65,20.65,0,0,1,.88-2.73A7,7,0,0,1,49.38,10c.33-.51.64-.51.85,0a9.48,9.48,0,0,1,.58,2.21c.23,1.76.21,3.57.61,5.28A95.16,95.16,0,0,0,54,26.9Z" transform="translate(-0.25 -0.25)"/><path class="cls-2" d="M51.18,26.12c1.35,2,2.51,4.07,2.17,6.69-.27-1.94-2.3-3.17-4.38-1.1-.09-.38-.15-.74-.24-1.09-.25-.94-.17-1,.71-1.31A2.4,2.4,0,0,0,51.18,26.12Z" transform="translate(-0.25 -0.25)"/><path class="cls-2" d="M53.34,33.52a8.66,8.66,0,0,1-.91,4.8,15.16,15.16,0,0,0-1.29-1.61,1.74,1.74,0,0,0-2.08-.11,2.22,2.22,0,0,0-1.21,3c.43,1.34,1.11,1.6,3.36,1.21a15.57,15.57,0,0,1-3.32,3.4A6.69,6.69,0,0,0,47.48,42a6.35,6.35,0,0,0-1.58-1.37L49,34.34a2.48,2.48,0,0,0,2.33.46A15.39,15.39,0,0,0,53.34,33.52Z" transform="translate(-0.25 -0.25)"/><path class="cls-3" d="M52,32.65c0,.6-.52,1.28-1,1.27s-1-.56-1-1.56a.94.94,0,0,1,.84-.8C51.27,31.48,52,32.19,52,32.65Z" transform="translate(-0.25 -0.25)"/><path class="cls-3" d="M50.83,38.51c0,.5-.5,1.34-.87,1.37s-.81-.69-.91-1.66c-.2-.51.05-.79.57-.86S50.79,38,50.83,38.51Z" transform="translate(-0.25 -0.25)"/><path class="cls-2" d="M50.74,25.28l0,0c-.74-.14-1.66-.59-2.32-.35s-1.12,1.19-1.75,1.94a4.56,4.56,0,0,1-1-.71c-.14-.15,0-.62.09-.85A2.34,2.34,0,0,0,45,21.83a2,2,0,0,0-.59-.24l.05-.17c.71.19,1.43.34,2.12.57A8.5,8.5,0,0,1,50.7,25.2.28.28,0,0,1,50.74,25.28Z" transform="translate(-0.25 -0.25)"/><path class="cls-3" d="M49,25.87c.54-.14,1.12.65,1.08,1.26s-.61,1.18-1,1.17-.78-.68-.9-1.43C48.45,26.52,48.66,26,49,25.87Z" transform="translate(-0.25 -0.25)"/><path class="cls-3" d="M47.35,30.25A7.18,7.18,0,0,1,47,35.5c-.65,1.31-1.37,2.58-2.13,3.83a5.08,5.08,0,0,1-5.3,2.57,4.06,4.06,0,0,1-3.1-2.21c-.47-.94-.85-1.92-1.26-2.89a4.43,4.43,0,0,1-.11-3.18c.61-1.73.95-3.61,2.25-5.07a5.51,5.51,0,0,1,2.87-2c.51-.11,1-.19,1.53-.29A5.57,5.57,0,0,1,47.35,30.25ZM42,38.74a1.21,1.21,0,0,0,.75-.87c0-.51-.53-.5-1-.39-.24.05-.49.07-.85.12.17-1,.31-1.79.46-2.63.4-2.2.81-4.41,1.17-6.62a1.36,1.36,0,0,0-.31-.91.8.8,0,0,0-.7,0,28.15,28.15,0,0,0-2.69,1.35c-.24.14-.31.54-.46.82a2.19,2.19,0,0,0,.85.12,11.28,11.28,0,0,0,1.55-.61,1.87,1.87,0,0,1,0,.34L39.33,37c-.1.52-.28.93-.94.91a3.37,3.37,0,0,0-1,.17c-.17.06-.42.23-.42.37a.57.57,0,0,0,.34.44,6,6,0,0,0,1.62.22A19.5,19.5,0,0,0,42,38.74Z" transform="translate(-0.25 -0.25)"/><path class="cls-3" d="M45.71,42.09c1.16,1,1.1,1.68-.29,2.73A1.76,1.76,0,0,1,45.71,42.09Z" transform="translate(-0.25 -0.25)"/><path class="cls-3" d="M44.5,22.79c.3.27.66.78.59,1.09a5.45,5.45,0,0,1-.85,1.49l-.26,0a10.18,10.18,0,0,1-.71-1.59,1.42,1.42,0,0,1,.29-1.09C43.68,22.51,44.29,22.6,44.5,22.79Z" transform="translate(-0.25 -0.25)"/><path class="cls-2" d="M44.45,21.42l-.05.17c-1-.25-2.21.11-2.35.88a10,10,0,0,0,0,2.19,1.5,1.5,0,0,0,.19.47,8.68,8.68,0,0,0-1.7,0c-.55.11-1.06.41-1.66.58a1.94,1.94,0,0,0,.62-2.45c-.34-.77-1.19-.76-2-.75a7,7,0,0,1,6.65-1.2Z" transform="translate(-0.25 -0.25)"/><path class="cls-2" d="M44.11,42.34a3.05,3.05,0,0,0,.45,3.53c-1.34.84-2.82.74-4.54.77,1.38-1.11,1.76-2.24.68-3.44.88-.33,1.77-.7,2.68-1C43.58,42.13,43.85,42.28,44.11,42.34Z" transform="translate(-0.25 -0.25)"/><path d="M42.75,37.87a1.21,1.21,0,0,1-.75.87,19.5,19.5,0,0,1-3.06.35,6,6,0,0,1-1.62-.22.57.57,0,0,1-.34-.44c0-.14.25-.31.42-.37a3.37,3.37,0,0,1,1-.17c.66,0,.84-.39.94-.91l1.47-7.56a1.87,1.87,0,0,0,0-.34,11.28,11.28,0,0,1-1.55.61,2.19,2.19,0,0,1-.85-.12c.15-.28.22-.68.46-.82a28.15,28.15,0,0,1,2.69-1.35.8.8,0,0,1,.7,0,1.36,1.36,0,0,1,.31.91c-.36,2.21-.77,4.42-1.17,6.62-.15.84-.29,1.68-.46,2.63.36-.05.61-.07.85-.12C42.22,37.37,42.73,37.36,42.75,37.87Z" transform="translate(-0.25 -0.25)"/><path class="cls-1" d="M41.11,47.83l0,2.33-1.61,0a35.71,35.71,0,0,1-3.68-.5,24.41,24.41,0,0,0-4.84-.43,10.07,10.07,0,0,1-5.43-1.07,7,7,0,0,1-1.15-1c-1.33-1.13-2.69-2.22-4-3.41a2.67,2.67,0,0,1-.74-1.52,15.08,15.08,0,0,1-.09-4.79,3.48,3.48,0,0,1,2.11-2.62c1.19-.54,2.36-1.15,3.52-1.76,1.73-.9,2.67-2.53,3.62-4.1l.54-.9.29.17a17.33,17.33,0,0,0-2.22,7.19c0,.24,0,.48,0,.72a11.1,11.1,0,0,0,1.06,3.32,14.6,14.6,0,0,0,4.82,6c1.33,1.1,3,1.35,4.57,1.83A11.23,11.23,0,0,0,41.11,47.83Z" transform="translate(-0.25 -0.25)"/><path class="cls-3" d="M39.53,44a.69.69,0,0,1,.64.79c0,.54-.52,1.14-1,1-.24,0-.43-.33-.55-.42C38.71,44.38,39,43.92,39.53,44Z" transform="translate(-0.25 -0.25)"/><path class="cls-3" d="M38,23.29c.13.15.64.59.59.66a11.45,11.45,0,0,1-1.18,1.33c-.18-.31-.48-.6-.51-.92C36.87,23.66,37.26,23.26,38,23.29Z" transform="translate(-0.25 -0.25)"/><path class="cls-2" d="M38.69,43a3.19,3.19,0,0,0-1.12,3,6.25,6.25,0,0,1-3.86-1.95c2-.3,2.17-1.57,1.81-3.13C36.61,41.64,37.64,42.31,38.69,43Z" transform="translate(-0.25 -0.25)"/><path class="cls-2" d="M37.89,26.26l-1.81,2c-.49-.51-1.09-.86-1.24-1.35-.41-1.29-1.14-.26-1.79-.36l3-3.35.2.19C35.46,25.24,35.9,26.05,37.89,26.26Z" transform="translate(-0.25 -0.25)"/><path class="cls-3" d="M34.61,28.92l.13.1a4.69,4.69,0,0,1-.86,1.05c-.45.33-.74-.07-.81-.46a3.25,3.25,0,0,1,0-1.28c.06-.23.39-.58.56-.56a1.6,1.6,0,0,1,.81.52C34.61,28.43,34.58,28.7,34.61,28.92Z" transform="translate(-0.25 -0.25)"/><path class="cls-2" d="M35.24,40.33a5,5,0,0,1-.84-.5,1.31,1.31,0,0,0-2,.18,11.94,11.94,0,0,0-.78,1.56c-3.16-2.53-3-10.07.43-13.69-.18.93-.55,1.84.06,2.65s1.5.85,2.64.41c-.33.78-.58,1.38-.84,2-2-.74-3.1-.59-3.82.49a2.32,2.32,0,0,0,.28,2.8A1.74,1.74,0,0,0,32,37a6.55,6.55,0,0,0,1.54-.73Z" transform="translate(-0.25 -0.25)"/><path class="cls-3" d="M33.65,40.86c.44-.1.84.45.8,1.14,0,.43,0,1-.61,1.06s-1-.62-1-1C32.79,41.27,33.15,41,33.65,40.86Z" transform="translate(-0.25 -0.25)"/><path class="cls-3" d="M31.85,33.36c.58,0,1,.45,1,1.41a5.31,5.31,0,0,1-.93,1.07c-.26.19-.93-.78-1-1.41A1,1,0,0,1,31.85,33.36Z" transform="translate(-0.25 -0.25)"/><path d="M27.69,27.35l0,0s0,0,0,0v-.05Z" transform="translate(-0.25 -0.25)"/></g></g></svg>