<svg xmlns="http://www.w3.org/2000/svg" viewBox="0 0 51.95 30.39"><defs><style>.cls-1{isolation:isolate;}.cls-2{mix-blend-mode:multiply;}.cls-3{fill:#2aa680;}</style></defs><title>footer-logo</title><g class="cls-1"><g id="Layer_2" data-name="Layer 2"><g id="Layer_1-2" data-name="Layer 1"><g class="cls-2"><path class="cls-3" d="M2.9,8.38a9.38,9.38,0,0,0,1-.69,11.6,11.6,0,0,1,1.79-1.1C6,6.38,6.41,6.2,6.77,6a10.79,10.79,0,0,1,1.44-.81c.65-.24,1.12-.75,1.77-1a2.13,2.13,0,0,0,.68-.39c.18-.18.52-.19.75-.37s.72-.21,1-.49.56-.14.85-.22a1.23,1.23,0,0,0,.48-.15c.27-.24.61-.22.91-.33s.89,0,1.28-.34c.12-.08.33,0,.5-.06.56-.12,1.12-.22,1.67-.37s1.2-.38,1.8-.56c.9-.26,1.8-.55,2.72-.72a11.06,11.06,0,0,1,1.73,0c.72,0,1.44-.13,2.16-.12.52,0,1,0,1.54-.06s1.05.07,1.57.07a9.92,9.92,0,0,1,1.63.28A7,7,0,0,0,33.9.78a2.09,2.09,0,0,1,1.56.33,1.58,1.58,0,0,0,.53.18c.58.15,1.16.27,1.73.44s1.38.5,2.09.68a11.37,11.37,0,0,1,3,1.24c.7.4,1.37.84,2.1,1.17a13.32,13.32,0,0,1,3,2.27,1.9,1.9,0,0,0,.49.3,11.1,11.1,0,0,0,1.15.89,1.91,1.91,0,0,0,.43.37,6.21,6.21,0,0,1,1.37,1.87c.07.21.07,0,0,.18a5.9,5.9,0,0,1-1.63,1.79.76.76,0,0,1-.78-.1,18.86,18.86,0,0,1-1.63-1.13c-.53-.51-1.12-.94-1.66-1.51a12.42,12.42,0,0,1-1-.77c-.2-.11-.36-.27-.56-.37a11.75,11.75,0,0,1-1.46-.84c-.47.07-.76-.33-1.18-.43A6.3,6.3,0,0,1,40,6.74a11.84,11.84,0,0,1-1.45-.67,3.39,3.39,0,0,0-1-.33c-.08,0-.2,0-.26,0-.54-.42-1.25-.23-1.82-.47a20.61,20.61,0,0,0-2-.6,4.36,4.36,0,0,0-1.35-.19,4.69,4.69,0,0,1-1-.11,1.94,1.94,0,0,0-1-.06,2.88,2.88,0,0,1-.87-.06,2.62,2.62,0,0,0-1.39,0c-.57-.26-1.16,0-1.74-.09a1.45,1.45,0,0,0-.36,0c-.57,0-1.14,0-1.7,0A8.67,8.67,0,0,0,22,4.42a.87.87,0,0,1-.36,0,1.54,1.54,0,0,0-1.32.46c-.3.31-.72.24-1.08.39s-.64.23-1,.35a3.14,3.14,0,0,1-.75.29,15.71,15.71,0,0,0-1.93.53c-.47.11-.91.31-1.38.45-.29.09-.61.12-.91.2a8.81,8.81,0,0,0-2.85,1.4c-.21.15-.44.27-.66.41-.85.52-1.7,1-2.54,1.56s-1.45.89-2.15,1.39a4.76,4.76,0,0,0-1,.79,2.87,2.87,0,0,1-.86.69A20.73,20.73,0,0,1,.65,10.86C.6,10.7.91,9.93,2.9,8.38Z"/><path class="cls-3" d="M26.69,30.39c-.39,0-.68,0-1-.05-.63-.09-1.25-.23-1.89-.3a1.91,1.91,0,0,0-.78.1,4.63,4.63,0,0,1-1.74.21c-.71-.06-1.4-.19-2.1-.28-.28,0-.55-.18-.84-.23a22.69,22.69,0,0,1-3.73-1,6.5,6.5,0,0,1-2.05-.76,25.68,25.68,0,0,1-3.34-1.51l-1.93-.77a2.94,2.94,0,0,1-.55-.3Q4.89,24.25,3,22.93c-.45-.31-.88-.64-1.3-1A6.3,6.3,0,0,1,.08,20.26c-.32-.55.43-1,.72-1.38a7.18,7.18,0,0,1,.87-.81c.54-.41.88,0,1.24.31a12.46,12.46,0,0,1,.9.88,4.76,4.76,0,0,0,1.26.92,16.38,16.38,0,0,1,1.58.93,26.06,26.06,0,0,0,4,2.4l1.62.84a7.93,7.93,0,0,0,1.33.43,9.1,9.1,0,0,0,1.4.38,4.52,4.52,0,0,0,1.31.24,1.19,1.19,0,0,1,.41.08c.61.17,1.21.36,1.83.5a1.5,1.5,0,0,0,.76,0c.4-.12.71.1,1.05.2a2,2,0,0,0,.95.14,7.27,7.27,0,0,1,1.47.06c.26,0,.52,0,.77.05s.47.1.71.11a3.51,3.51,0,0,0,.92,0,4,4,0,0,1,1.42,0c.23,0,.5.2.74-.06.06-.06.29.05.44.06a16.27,16.27,0,0,0,1.85.13,3.16,3.16,0,0,0,1.2-.18A13.92,13.92,0,0,1,32.41,26c.48-.14,1-.32,1.42-.46s.74-.18,1.11-.26L36.2,25c.54-.12,1.08-.21,1.6-.38s1-.33,1.47-.51a4.89,4.89,0,0,0,1-.51c.31-.19,2-.69,2.34-.9s1.16-.75,1.76-1A5.85,5.85,0,0,0,45.63,21a5.4,5.4,0,0,1,1.49-1.06,8.72,8.72,0,0,0,1.12-.7l.22-.12c.33-.16.65-.34,1-.48a2.46,2.46,0,0,1,.53-.15c.1,0,.24.05.3,0,.32-.24.27.06.45.27.39.48.55.87,1,1.54a2.08,2.08,0,0,0,.18.55.39.39,0,0,1-.13.46c-.17.15-.39.29-.4.58,0,.08-.12.16-.2.22-.31.19-.65.35-.94.57s-.85.51-1.2.84a6.44,6.44,0,0,1-1.47,1.07,4.47,4.47,0,0,0-.35.29,1.62,1.62,0,0,1-.73.4,3.79,3.79,0,0,0-1.07.56c-.5.29-.92.72-1.56.68a.12.12,0,0,0-.1,0,7,7,0,0,1-2,.72c-.36.14-.68.39-1,.54a11.47,11.47,0,0,1-1.13.37,2.72,2.72,0,0,0-.49.13,8.6,8.6,0,0,1-2.17.58c-.73.14-1.44.36-2.17.49-.56.1-1.13.12-1.7.19-.29,0-.59.11-.89.16a6.15,6.15,0,0,1-.85.1,1.71,1.71,0,0,0-1.06.23.61.61,0,0,1-.3,0,7.86,7.86,0,0,0-2.16.23,1.67,1.67,0,0,1-.39,0C27.16,30.29,26.84,30.17,26.69,30.39Z"/><path class="cls-3" d="M25.36,10.1c.46-.53.83-1,1.24-1.42A3.5,3.5,0,0,1,28,7.94a3.78,3.78,0,0,1,.92-.29,5.68,5.68,0,0,1,1.43,0A6.81,6.81,0,0,1,32,8a2,2,0,0,1,.67.38,8.71,8.71,0,0,1,2.2,3.29,9.66,9.66,0,0,1,.45,2.3.38.38,0,0,1-.09.27.77.77,0,0,0-.19.8,1,1,0,0,1-.45,1.13c-.46.19-.63.64-1,.9a2.91,2.91,0,0,0-.48.45c-.34.33-.66.68-1,1s-.92.87-1.37,1.3c-.13.13-.23.29-.36.42a6.1,6.1,0,0,1-.46.41c-.06.05-.16.09-.19.16-.29.56-.91.79-1.27,1.24a8.75,8.75,0,0,1-1.29,1,1.63,1.63,0,0,1-1.91.28,9.38,9.38,0,0,1-1.29-1c-.09-.07-.16-.18-.27-.23a1.7,1.7,0,0,1-.52-.48c-.42-.49-.89-.95-1.34-1.42a.52.52,0,0,1-.12-.17A2.88,2.88,0,0,0,20.84,19a4.58,4.58,0,0,1-.57-.67c-.37-.44-.72-.89-1.1-1.32s-.53-.55-.79-.83a4.74,4.74,0,0,1-.77-1.52,10.9,10.9,0,0,0-.5-1.1,2.21,2.21,0,0,1-.22-1.33,4.69,4.69,0,0,1,.4-1.12,3.75,3.75,0,0,1,1.39-1.71,1.79,1.79,0,0,0,.47-.4,3.89,3.89,0,0,1,1.51-.84,7.77,7.77,0,0,1,.8-.31,2.41,2.41,0,0,1,1.19,0c.35.07.73,0,1.06.23a3.65,3.65,0,0,1,1,1.06C24.93,9.4,25.13,9.72,25.36,10.1Zm.86,2.61a1.69,1.69,0,0,1-1-.37c-.32-.24-.63-.49-1-.7a1,1,0,0,0-.83-.24.86.86,0,0,1-.5-.08,1.81,1.81,0,0,0-1.56.11c-.17.07-.38.18-.43.33a3.61,3.61,0,0,0-.26,1.16,5.75,5.75,0,0,0,.14,1.3,1.36,1.36,0,0,0,.25.62c.58.62,1.18,1.22,1.79,1.81.42.39.91.72,1.31,1.12a3.57,3.57,0,0,0,1.29,1c.08,0,.15.14.21.22s.31.14.39,0a1.07,1.07,0,0,1,.53-.39,2.2,2.2,0,0,0,.55-.34,9.75,9.75,0,0,1,1.44-1.12,3.54,3.54,0,0,0,.61-.49c.33-.3.63-.64,1-.92a5.19,5.19,0,0,0,1.56-1.83.81.81,0,0,0,.09-.37,6.47,6.47,0,0,0-.2-1.52,1.44,1.44,0,0,0-.27-.67,1.9,1.9,0,0,0-2.11-.27,2.21,2.21,0,0,1-.59.11,2.74,2.74,0,0,0-.58.15c-.46.21-.9.44-1.35.66a3.59,3.59,0,0,1-.37.15Z"/></g></g></g></g></svg>