<svg xmlns="http://www.w3.org/2000/svg" width="51.946" height="30.386" viewBox="0 0 51.946 30.386">
  <g id="Group_43" data-name="Group 43" transform="translate(-2042.205 -4186.028)">
    <path id="Path_140" data-name="Path 140" d="M2045.1,4194.4a8.094,8.094,0,0,0,1.006-.688,11.561,11.561,0,0,1,1.788-1.1c.354-.206.72-.389,1.076-.589a10.642,10.642,0,0,1,1.441-.8c.647-.24,1.125-.75,1.768-.986a1.9,1.9,0,0,0,.68-.389c.186-.175.525-.185.754-.365.3-.238.72-.215,1.033-.492.193-.171.557-.147.843-.218a1.2,1.2,0,0,0,.48-.154c.271-.237.614-.222.919-.329.414-.145.887-.045,1.276-.336.116-.087.331-.031.495-.065.559-.116,1.122-.22,1.672-.369.607-.164,1.2-.386,1.8-.559.9-.258,1.8-.547,2.723-.724a11.864,11.864,0,0,1,1.721-.032c.722-.027,1.445-.131,2.164-.112.516.014,1.027-.053,1.537-.063.533-.011,1.052.073,1.578.07a9.315,9.315,0,0,1,1.625.281,7.108,7.108,0,0,0,2.622.426,2.079,2.079,0,0,1,1.553.329,1.8,1.8,0,0,0,.539.188c.574.149,1.156.269,1.724.437.7.209,1.385.5,2.1.674a11.635,11.635,0,0,1,3.038,1.242c.7.4,1.369.845,2.1,1.175a13.546,13.546,0,0,1,3.045,2.265,1.72,1.72,0,0,0,.486.3,11.121,11.121,0,0,0,1.153.894,1.594,1.594,0,0,0,.428.365,6.217,6.217,0,0,1,1.37,1.871c.07.214.07-.02-.023.177a5.844,5.844,0,0,1-1.628,1.794.743.743,0,0,1-.782-.1,16.776,16.776,0,0,1-1.63-1.128c-.529-.507-1.121-.941-1.662-1.508-.758-.452-.653-.557-1.029-.771-.192-.109-.357-.269-.554-.365a13.22,13.22,0,0,1-1.468-.847c-.466.077-.755-.331-1.172-.429a6.468,6.468,0,0,1-1.482-.6,12.262,12.262,0,0,1-1.454-.675,3.448,3.448,0,0,0-1.017-.325c-.082-.023-.2.02-.256-.024-.548-.421-1.254-.225-1.826-.468-.646-.275-1.328-.386-1.985-.6a4.494,4.494,0,0,0-1.353-.191,4.62,4.62,0,0,1-.99-.114,2,2,0,0,0-.958-.059,2.737,2.737,0,0,1-.873-.055,2.585,2.585,0,0,0-1.393,0c-.564-.262-1.16.037-1.733-.094a1.555,1.555,0,0,0-.367-.02c-.565.01-1.133,0-1.7.04a8.343,8.343,0,0,0-2.091.264.964.964,0,0,1-.356.014,1.571,1.571,0,0,0-1.323.463c-.295.311-.723.242-1.075.391-.314.134-.644.231-.965.351a3.233,3.233,0,0,1-.744.284,16.011,16.011,0,0,0-1.936.535c-.468.1-.913.308-1.375.445-.3.088-.61.128-.911.205a8.612,8.612,0,0,0-2.85,1.4c-.212.15-.442.277-.665.413-.847.518-1.7,1.031-2.541,1.557-.723.451-1.451.9-2.147,1.388a4.625,4.625,0,0,0-1.04.8,2.905,2.905,0,0,1-.859.688,21.388,21.388,0,0,1-2.566-2.492C2042.8,4196.73,2043.118,4195.956,2045.1,4194.4Z" fill="#7473c0"/>
    <path id="Path_141" data-name="Path 141" d="M2068.9,4216.414c-.4-.018-.685-.009-.965-.049-.63-.089-1.253-.223-1.885-.3a1.989,1.989,0,0,0-.785.1,4.579,4.579,0,0,1-1.742.211c-.706-.054-1.4-.192-2.092-.282-.287-.038-.56-.176-.846-.224a23.386,23.386,0,0,1-3.733-.961,6.634,6.634,0,0,1-2.046-.763,25.127,25.127,0,0,1-3.337-1.511c-.645-.254-1.292-.5-1.934-.768a2.936,2.936,0,0,1-.553-.3q-1.879-1.3-3.75-2.608c-.443-.312-.876-.64-1.294-.983a6.4,6.4,0,0,1-1.656-1.689c-.314-.555.431-.994.72-1.38a6.791,6.791,0,0,1,.87-.809c.541-.409.888-.034,1.244.308.3.291.629.562.9.88a4.912,4.912,0,0,0,1.264.922,16.04,16.04,0,0,1,1.576.924,25.878,25.878,0,0,0,3.989,2.409c.54.28,1.079.568,1.625.839a8.018,8.018,0,0,0,1.33.429,9.932,9.932,0,0,0,1.4.381,4.814,4.814,0,0,0,1.31.236,1.14,1.14,0,0,1,.407.085c.61.168,1.214.359,1.829.5a1.565,1.565,0,0,0,.762-.01c.4-.12.711.093,1.047.2a2.029,2.029,0,0,0,.949.132,7.7,7.7,0,0,1,1.472.059c.257.015.516.022.772.051.238.027.473.1.711.113a3.391,3.391,0,0,0,.916-.043,3.915,3.915,0,0,1,1.421,0c.232.027.5.2.74-.06.058-.062.286.049.437.062a15.848,15.848,0,0,0,1.851.123,3.125,3.125,0,0,0,1.2-.174,14.409,14.409,0,0,1,1.6-.48c.476-.145.943-.32,1.42-.459.364-.107.737-.183,1.108-.264.419-.092.84-.17,1.259-.262a15.469,15.469,0,0,0,1.6-.375c.49-.163.98-.333,1.465-.507a5.506,5.506,0,0,0,.994-.509c.312-.193,2-.7,2.333-.9.194-.118,1.167-.75,1.762-1.033a5.764,5.764,0,0,0,1.273-.651,5.343,5.343,0,0,1,1.489-1.055,10.671,10.671,0,0,0,1.124-.7c.071-.044.142-.087.217-.124.325-.163.646-.335.979-.481a2.471,2.471,0,0,1,.533-.147c.1-.019.234.045.3,0,.324-.243.27.058.448.275.39.476.55.864,1.021,1.538a1.914,1.914,0,0,0,.176.546.382.382,0,0,1-.122.46c-.171.151-.4.293-.4.586,0,.074-.122.162-.207.215-.308.195-.643.353-.932.572-.393.3-.853.512-1.207.836a6.292,6.292,0,0,1-1.461,1.076,2.781,2.781,0,0,0-.353.292,1.744,1.744,0,0,1-.734.4,3.835,3.835,0,0,0-1.072.562c-.493.283-.919.719-1.556.673a.155.155,0,0,0-.1.023,7.057,7.057,0,0,1-1.948.719c-.364.141-.687.389-1.047.542a11.22,11.22,0,0,1-1.125.373,3.516,3.516,0,0,0-.495.123,8.7,8.7,0,0,1-2.167.584c-.729.142-1.443.357-2.173.491-.557.1-1.129.119-1.693.188-.3.037-.593.111-.891.157a5.184,5.184,0,0,1-.854.1,1.7,1.7,0,0,0-1.062.237.6.6,0,0,1-.3.012,7.766,7.766,0,0,0-2.154.234,1.512,1.512,0,0,1-.4.022C2069.365,4216.319,2069.045,4216.2,2068.9,4216.414Z" fill="#7473c0"/>
    <path id="Path_142" data-name="Path 142" d="M2067.569,4196.128c.456-.526.831-.987,1.237-1.418a3.452,3.452,0,0,1,1.347-.743,4.587,4.587,0,0,1,.922-.292,5.628,5.628,0,0,1,1.429-.039,6.85,6.85,0,0,1,1.719.387,2.08,2.08,0,0,1,.675.381,8.825,8.825,0,0,1,2.2,3.29,10.2,10.2,0,0,1,.447,2.3.371.371,0,0,1-.092.275.786.786,0,0,0-.186.8,1.039,1.039,0,0,1-.454,1.13c-.453.19-.622.641-.992.894a3.629,3.629,0,0,0-.488.453c-.332.333-.653.677-.99,1-.45.438-.914.862-1.364,1.3-.132.127-.229.29-.358.42-.144.145-.307.27-.462.4-.065.055-.158.1-.2.166-.29.556-.907.782-1.267,1.233a9.2,9.2,0,0,1-1.289,1.007,1.625,1.625,0,0,1-1.911.272,9.65,9.65,0,0,1-1.292-1c-.093-.074-.163-.186-.265-.237a1.722,1.722,0,0,1-.524-.477c-.423-.493-.889-.95-1.336-1.422a.553.553,0,0,1-.128-.164,2.741,2.741,0,0,0-.911-1.053,5.16,5.16,0,0,1-.567-.669c-.364-.442-.719-.892-1.093-1.325-.25-.288-.537-.546-.79-.832a4.533,4.533,0,0,1-.773-1.518,11.028,11.028,0,0,0-.506-1.095,2.2,2.2,0,0,1-.213-1.33,4.631,4.631,0,0,1,.4-1.121,3.685,3.685,0,0,1,1.388-1.708,2.166,2.166,0,0,0,.47-.4,3.714,3.714,0,0,1,1.514-.843,8.019,8.019,0,0,1,.794-.315,2.477,2.477,0,0,1,1.188-.023c.352.066.732-.008,1.065.224a3.778,3.778,0,0,1,1.007,1.06C2067.132,4195.425,2067.332,4195.751,2067.569,4196.128Zm.853,2.6a1.668,1.668,0,0,1-1.037-.364c-.321-.236-.629-.5-.966-.705a1.091,1.091,0,0,0-.833-.241.826.826,0,0,1-.5-.075,1.8,1.8,0,0,0-1.56.11c-.165.066-.379.182-.43.326a3.969,3.969,0,0,0-.26,1.162,6.23,6.23,0,0,0,.144,1.3,1.271,1.271,0,0,0,.249.62c.578.622,1.178,1.226,1.794,1.81.417.394.9.717,1.309,1.122a3.574,3.574,0,0,0,1.284,1.02c.087.03.149.142.213.222a.22.22,0,0,0,.39-.008,1.006,1.006,0,0,1,.531-.393,2.507,2.507,0,0,0,.553-.343,9.946,9.946,0,0,1,1.435-1.115,3.687,3.687,0,0,0,.61-.488c.331-.3.628-.644.976-.924a5.275,5.275,0,0,0,1.557-1.832.832.832,0,0,0,.089-.37,6.239,6.239,0,0,0-.205-1.524,1.38,1.38,0,0,0-.266-.661,1.884,1.884,0,0,0-2.106-.27,2.647,2.647,0,0,1-.595.11,2.723,2.723,0,0,0-.58.148c-.457.207-.9.443-1.351.662-.123.059-.253.1-.367.148Z" fill="#7473c0"/>
  </g>
</svg>
