<svg xmlns="http://www.w3.org/2000/svg" viewBox="0 0 68.21 64.63"><title>guidlines-icon</title><g id="Layer_2" data-name="Layer 2"><g id="Layer_1-2" data-name="Layer 1"><path d="M58.55,37.77l.91-1.15c-1-.56-1.89-1.14-2.85-1.56-4.28-1.82-8.58-3.58-12.86-5.41C41,28.47,38.18,27.3,35.46,26q-4.61-2.19-9.1-4.63c-1.9-1-3.67-2.29-5.55-3.34-1.42-.79-2.95-1.38-4.4-2.11a3.6,3.6,0,0,1-.82-.79l.13-.27a3.77,3.77,0,0,1,1,.2c3.28,1.65,6.64,3.12,9.77,5.05,2.36,1.46,4.78,2.82,7.27,4A129.1,129.1,0,0,0,46,29.52C50,31,53.78,32.76,57.65,34.41a16.46,16.46,0,0,1,1.84.9.53.53,0,0,0,.83-.2c.82-1.29,1.63-2.58,2.42-3.89a12.6,12.6,0,0,0,.61-1.33c-.51,0-.93,0-1.33,0-3.23.22-6.45.49-9.68.67-1.8.1-2.64-.73-2.75-2.51a11.28,11.28,0,0,1,0-1.3c.06-.7.47-.94,1.16-.83s.74.61.75,1.13,0,1-.05,1.44.28.7.8.64c1.46-.17,2.93-.35,4.4-.45,1.83-.12,3.66-.17,5.49-.25a6.8,6.8,0,0,0,.69-.08,11.61,11.61,0,0,1-1.13-.47c-.91-.5-1.78-1.09-2.72-1.53-1.4-.65-2.84-1.22-4.28-1.78-1.18-.46-2.41-.79-3.57-1.28-2.14-.91-4.3-1.81-6.35-2.89-2.92-1.53-6-2.77-9-4a41.75,41.75,0,0,1-4.68-2.56c-2.34-1.3-4.71-2.54-7-3.92C22,8.62,19.68,7.58,17.86,5.83c-.16-.15-.3-.32-.51-.55,1.3-.5,2.1.3,2.95.88.15.1.23.29.38.38,1.47.85,2.94,1.71,4.43,2.52s3.12,1.6,4.65,2.45c2,1.14,4,2.41,6.1,3.48,1.32.69,2.81,1.06,4.17,1.68,2.15,1,4.24,2,6.38,3s4.52,2.06,6.81,3c2.51,1,5.14,1.77,7.5,3.21a29,29,0,0,0,3.83,1.67c.64-.4,1.29-.72,1.4-1.61,0-.4.44-.47.91-.36,1,.23,1.21,1,1.31,1.82a11.34,11.34,0,0,1,0,2.18c-.08,1.38-.17,2.75-.29,4.13A21.93,21.93,0,0,1,67.53,36c0,.16-.29.27-.44.41,0,.16.18.38.14.57-.29,1.3-.59,2.59-.93,3.88-.06.22-.32.39-.41.49,0,.29.19.58.1.77-.27.61-.64,1.17-.95,1.76a12.83,12.83,0,0,1-.66,1.4c-.63,1-1.36,1.86-2,2.83-.4.62-.59,1.38-1,2a14.67,14.67,0,0,1-1.52,1.42c-.3.31-.48.73-.79,1-.89.79-1.84,1.51-2.73,2.3-.6.53-1.11,1.17-1.71,1.72-.77.7-1.59,1.34-2.37,2s-1.36,1.3-2.11,1.86a7,7,0,0,1-1.53.65c-.15.06-.41.12-.42.21-.13,1.07-1,1.12-1.77,1.33a2.7,2.7,0,0,0-.82.44,9.81,9.81,0,0,1-2.18.82c-.31.1-.62.19-.93.26-.64.15-1.28.27-2.17.46a7.11,7.11,0,0,1,.56-1.14c1.86-2.43,3.71-4.86,5.6-7.26,1.38-1.74,2.89-3.38,4.21-5.15a43.52,43.52,0,0,0,2.48-4c1.6-2.69,3.18-5.4,4.76-8.1.22-.39.42-.8.63-1.2Zm-8.61,17-.28-.21-2.11,2.67.24.19Z"/><path d="M1.93,24.91a2.21,2.21,0,0,0-.5.46c-.18.31-.17.64-.74.63-.75,0-.76-.29-.62-.83a27,27,0,0,1,3.06-7.11A19.77,19.77,0,0,1,4.4,16.11a2.5,2.5,0,0,1,1-.58c.39-.15.62-.2.32-.73a1.5,1.5,0,0,1,.08-1.29,23.21,23.21,0,0,1,2.42-3.37c1.59-1.73,3.27-3.39,5-5a13.66,13.66,0,0,1,2.5-1.37c.47-.28.9-.64,1.34-1A11.35,11.35,0,0,1,18.27,2a.69.69,0,0,1,.65.12.73.73,0,0,1-.06.65c-1.38,1.86-2.8,3.68-4.16,5.55-.7,1-1.3,2-1.93,3-1.38,2.2-2.66,4.46-4.14,6.59-2,2.88-4.17,5.66-6.25,8.49-.3.4-.57.84-.84,1.27s-.66.79-1.16.39c-.11-.08.06-.66.24-.94.45-.7,1-1.36,1.47-2Zm4-4.74c-1,.08-2.52,2.24-2.64,3.56Z"/><path d="M41.88,55.53c-1.52-.62-3.1-1.14-4.55-1.89-3.08-1.62-6.48-2.44-9.65-3.83a37,37,0,0,1-7.09-4.48,39.1,39.1,0,0,0-4.33-2.47c-.25-.14-.51-.24-.75-.38C13.32,41.22,11.14,40,9,38.71c-.48-.28-1-.43-1.51-.73C6.2,37.19,5,36.35,3.77,35.52a1.68,1.68,0,0,1-.29-.41,2,2,0,0,1,1.86,0c2.24,1.31,4.47,2.65,6.75,3.92,1.92,1.07,3.92,2,5.83,3.09s3.77,2.29,5.58,3.55a32.44,32.44,0,0,0,9,4.4c1.42.43,2.75,1.16,4.13,1.72,1.87.77,3.77,1.49,5.65,2.26.94.38,1.86.8,2.77,1.25.21.1.32.39.48.59l-.12.17-1.1-.24.26.74-3.74.95c-2.67.68-5.33,1.37-8,2-1,.24-1.94.39-2.92.55a1.77,1.77,0,0,1-2.17-1.8,9.45,9.45,0,0,1,.08-1.3c.14-.84.51-1.13,1.38-1s.74.71.74,1.28c0,.3,0,.61,0,1.09.78-.11,1.56-.14,2.3-.31,2.51-.6,5-1.26,7.49-1.89.71-.17,1.44-.3,2.15-.45Z"/><path d="M7.22,21.59c.54-.18.92-.33,1.33.3s1.16.62,1.74.95c3.06,1.73,6.12,3.45,9.15,5.22.5.28.83.84,1.32,1.13,1.84,1.08,3.69,2.15,5.58,3.14,2.57,1.34,5.41,1.91,8.13,2.83A25.36,25.36,0,0,1,38.18,37c1.51.79,2.94,1.74,4.48,2.46,3.18,1.49,6.41,2.87,9.61,4.3.4.18.78.42,1.17.63l-.1.24h-.87l.11.49a5.18,5.18,0,0,1-.75-.17c-1.65-.65-3.32-1.26-4.93-2-1.78-.8-3.53-1.67-5.26-2.58s-3.1-1.87-4.74-2.61a58.1,58.1,0,0,0-6.39-2.46,32,32,0,0,1-8.34-3.82c-2.61-1.75-5.29-3.4-8-5C12.82,25.59,11.32,25,10,24.11a14.37,14.37,0,0,1-2-1.89C7.71,22,7.46,21.8,7.22,21.59Z"/><path d="M37.24,44.47l.38,4.25,3.26-.79c2.84-.71,5.68-1.42,8.53-2.11a2,2,0,0,1,2.27.47c-1.34,1.55-3.28,1.45-5,1.92-3,.83-6.06,1.53-9.09,2.33A1.68,1.68,0,0,1,35.45,49q0-1.91,0-3.81c0-.54.23-.82.78-.78C36.52,44.38,36.77,44.42,37.24,44.47Z"/><path d="M51.88,10.39a2,2,0,0,1-.28.68c-.83.86-1.7,1.68-2.54,2.52a8.39,8.39,0,0,0-2.16,3,4.86,4.86,0,0,0-.14.85,2.26,2.26,0,0,0,.93,0c1.06-.43,2.08-.94,3.12-1.42A3.17,3.17,0,0,1,52,15.69a3.26,3.26,0,0,1-.43.6c-.43.39-.94.71-1.33,1.14a5.91,5.91,0,0,0-.67,1.18l.15.27c-.26-.06-.73-.1-.74-.19a5,5,0,0,1,.12-1.18l-1,.37a6.14,6.14,0,0,1-.8.25c-.76.14-1.14-.1-1.05-.83A15.35,15.35,0,0,1,46.85,15c-.25.15-.46.28-.67.39a26.75,26.75,0,0,1-2.82,1.44c-1,.35-1.46,0-1.77-1a1,1,0,0,0-.32-.53c-1-.55-1.17-1-.7-2.08.09-.21.21-.4.38-.73-.91.61-1.71,1.14-2.5,1.69-.42.29-.88.31-1.15-.09a1,1,0,0,1,.14-.93,15.94,15.94,0,0,1,2-2.2,1.62,1.62,0,0,1,2-.23c.13.07.49-.1.64-.26,1-1,2-2.11,3-3.17,0,0,.14,0,.41-.1a3.1,3.1,0,0,1-.32,1c-1,1.14-2,2.21-3,3.37a7.42,7.42,0,0,0-1.15,2,1.24,1.24,0,0,0,.35,1.1c.39.35.58-.15.78-.42a7.7,7.7,0,0,1,2.92-2.63c.16-.07.34-.2.49-.17.48.1,1,.25,1.43.38a3.79,3.79,0,0,1-.58,1.25,7.41,7.41,0,0,1-3.56,2.1c-.52.11-.72.41-.58.75a1,1,0,0,0,.84.49,8.33,8.33,0,0,0,2.2-1c1.33-.88,2.61-1.84,3.87-2.83.71-.57,1.33-1.25,2-1.88l.49-.43ZM46.59,12c-1.36-.46-3.63,1-4.06,2.64C43.72,14.75,46.2,13.16,46.59,12Zm-8.8,1.81a1.12,1.12,0,0,0,.39,0c.9-.59,1.8-1.19,2.67-1.82a.72.72,0,0,0,.09-.59,1,1,0,0,0-.75-.15,5.21,5.21,0,0,0-2.44,2.27C37.72,13.51,37.77,13.64,37.79,13.77Z"/><path d="M58.57,37.75c-1.76.12-3.52.22-5.27.38s-3.79.42-5.69.61c-.89.09-1.78.13-2.67.18a1.82,1.82,0,0,1-2-1.82c0-.68,0-1.37,0-2.06,0-.43.08-.86.73-.85s1,.12,1,.75.07,1.12.08,1.68.2.81.84.72c2.22-.28,4.44-.58,6.67-.75,1.8-.13,3.61-.11,5.41-.13.86,0,.94.14.77,1a.79.79,0,0,0,0,.3Z"/><path d="M62.37,22.93,62,20.81c-.38.26-.76.53-1.15.77a19.36,19.36,0,0,1-2.12,1.19c-1,.44-1.82-.09-2.34-1.4,0,0,0,0-.07,0-.66.15-1.51.5-1.88-.18-.24-.43.09-1.22.25-1.83s.44-1,.61-1.55a1.94,1.94,0,0,0-.05-.71,2.08,2.08,0,0,0-.63.16c-1.13.76-2.23,1.55-3.42,2.38a3.11,3.11,0,0,1,.37-.9,7.4,7.4,0,0,1,3.63-2.14c.52-.16.68.27.61.62-.14.71-.42,1.39-.62,2.1-.14.47-.23.95-.34,1.42l1.46,0c.64,0,.9-.49,1.2-.94a6.1,6.1,0,0,1,2.84-2.75,1.93,1.93,0,0,1,1.09,0c.45.11.64.52.32.88a9.4,9.4,0,0,1-1.6,1.49c-.65.48-1.44.78-2.08,1.26a1.63,1.63,0,0,0-.68,1.11c.07.53.66.61,1.12.4a24.8,24.8,0,0,0,2.8-1.46,23,23,0,0,0,2-1.55l.2.16a6.69,6.69,0,0,1-.44.89c-.69.93-.29,1.79.15,2.64.06.12.33.16.51.19s.64.08,1,.12l.1.22c-.24.14-.49.41-.71.4a2.73,2.73,0,0,0-1.64.6,9.68,9.68,0,0,1-2.29.79.58.58,0,0,1-.46-.28c0-.18,0-.52.12-.6.7-.46,1.43-.85,2.15-1.26A1.06,1.06,0,0,1,62.37,22.93Zm-.63-5.13c-1.14-.78-3.45.89-3.66,2.47Zm-1,6.44.19.33,1.41-.72-.13-.28Z"/><path d="M12.36,43.45c-.77.37-1.54.75-2.32,1.11a12.84,12.84,0,0,1-1.48.62c-.46.14-.75-.06-.73-.57,0-.84.07-1.67.11-2.5,0-.14,0-.28,0-.59-.75.43-1.39.78-2,1.15C5,43.18,4.51,43,4.43,42A8.84,8.84,0,0,1,5,38.26l.24,0c-.07.45-.13.9-.2,1.35s-.21,1.21-.23,1.81c0,1,.31,1.21,1.2.75.63-.34,1.23-.73,1.84-1.08.15-.09.31-.16.62-.32,0,.55,0,1,0,1.42s-.14,1.11-.2,1.67.26.92.84.66c1-.43,2-.92,3-1.36a3.87,3.87,0,0,1,.83-.2,4.3,4.3,0,0,1,.07.94c-.08.61-.25,1.2-.34,1.81-.13.84.14,1.13,1,.91s1.67-.6,2.51-.89c.23-.08.62-.2.69-.11a1.17,1.17,0,0,1,.16.77c-.05.53-.2,1.05-.24,1.58s.17.81.73.47l.07,0c1.09-.53,1.2-1,1.77.74.16.47.41.61.86.48L22.78,49c.06.55.11,1,.17,1.54s.26.84.84.5a4.34,4.34,0,0,1,.5-.2c1.05-.34,1-.33,1.47.73a.76.76,0,0,0,.62.3c.4,0,.77-.27,1.17-.33a3.35,3.35,0,0,1,.88.1l0,.38c-.89.19-1.77.42-2.66.54-.17,0-.42-.37-.57-.61a2.75,2.75,0,0,1-.16-.75l-1.19.5c-.82.37-1.32.09-1.42-.82,0-.37-.07-.74-.11-1.21-.61.18-1.15.32-1.67.51-1.16.41-1.57.28-2-.84-.25-.74-.58-.54-1.08-.28a1.62,1.62,0,0,1-1.09.16c-.55-.17-.49-.68-.36-1.15a8.53,8.53,0,0,0,.22-1.12,4.58,4.58,0,0,0,0-.76c-.75.31-1.35.63-2,.83a6.37,6.37,0,0,1-1.63.25c-.65,0-.81-.4-.71-1l.48-2.66Z"/><path d="M20.84,24.32c.78-.16,1.39-.28,2-.42s1.14-.27,1.69-.44.61.07.53.49-.28,1-.35,1.49c-.11.85.07,1,.92.84s1.6-.48,2.4-.72l.91-.27c0,.67,0,1.26,0,1.86,0,.85.29,1.08,1.15.94a12.42,12.42,0,0,0,1.71-.38c.51-.16.69,0,.73.51.13,1.72.14,1.72,1.79,1.4l1.28-.25c.88-.17,1,0,.83.85-.09.38-.15.78-.27,1.35.69-.19,1.22-.32,1.73-.49s.84-.35,1.27-.5c.18,0,.51-.08.56,0a1,1,0,0,1,0,.62c-.08.46-.21.91-.36,1.51L41,32.3a1.23,1.23,0,0,1-1.53,1c-.63-.14-.68-.51-.22-2.29-.54.23-1,.44-1.45.61a9.62,9.62,0,0,1-1.38.44c-.59.12-.81-.14-.69-.72s.19-.93.32-1.58L34,30.17a6.19,6.19,0,0,1-1.05.16A.77.77,0,0,1,32,29.5c0-.42-.07-.84-.12-1.36-.55.16-1,.31-1.46.42-1.46.37-1.9.08-2-1.39,0-.37,0-.76,0-1.27-1,.29-1.89.58-2.8.82-1.15.3-1.47,0-1.33-1.15.06-.55.22-1.09.36-1.74-.22,0-.41,0-.59.09-.88.25-1.75.55-2.64.75s-1-.11-.81-.87q.15-.66.27-1.35c.14-.88-.14-1.12-1-.8s-1.65.67-2.47,1c-.28.12-.56.22-1,.38.08-.36.12-.59.18-.81a14.4,14.4,0,0,0,.39-1.7c0-.33-.09-.92-.26-1a1.94,1.94,0,0,0-1.25.13,13.77,13.77,0,0,0-1.71,1.05l-.15-.14a3.77,3.77,0,0,1,.72-.72A14.17,14.17,0,0,1,16.16,19c.5-.2,1-.05,1,.54a9,9,0,0,1-.09,1.79,7.8,7.8,0,0,1-.33,1.17c1-.37,1.83-.72,2.69-1a9.23,9.23,0,0,1,1.6-.16c0,.52.06,1,0,1.55A12,12,0,0,1,20.84,24.32Z"/><path d="M46.86,24.56l-.67,1.53L48,25.93c-.25.62-1.67,1-2,.49a1.19,1.19,0,0,1,0-.85c.05-.22.26-.4.53-.79l-1.8.13-.52.06c-1.53.12-1.76-.1-1.55-1.65-.41.07-.79.13-1.18.21s-.79.2-1.19.25c-1.08.13-1.32-.19-.94-1.21l.33-.86-1.95.39c-2.11.41-2.16.35-1.48-1.64a3.85,3.85,0,0,0,.07-.46c-.45.07-.83.12-1.2.2-.52.11-1,.28-1.56.36-.24,0-.63,0-.72-.16a1,1,0,0,1,.06-.77c.32-.63.7-1.22,1.14-2-1.65-.1-3,1-4.63.7.27-.54.5-.93.67-1.35s.16-.92-.51-.84c-.89.1-1.77.31-2.66.44a10.26,10.26,0,0,1-1.27,0c.28-.48.47-.74.6-1a1.17,1.17,0,0,0,.15-.75c0-.15-.43-.29-.64-.26-1,.15-1.88.37-2.83.54a5.42,5.42,0,0,1-.92,0l.81-1.9a2.63,2.63,0,0,0-3.08,0,1.33,1.33,0,0,1,1.6-.82,5.52,5.52,0,0,1,1.45.43c.16.07.28.47.24.68a7.86,7.86,0,0,1-.5,1.28L24,14.53a18.4,18.4,0,0,1,2-.24c.69,0,.88.29.69,1-.09.31-.24.6-.41,1l1.05-.12c.87-.1,1.74-.25,2.62-.29.16,0,.51.36.5.54A11,11,0,0,1,30.1,18l4.2-.85c.2,1.27-.95,1.87-1.16,3l2.32-.54c.12,0,.24-.08.36-.1.89-.16,1.1.08.82.92-.13.4-.27.8-.5,1.44,1.09-.13,2-.23,2.87-.35.2,0,.39-.12.59-.15.51-.08.65.11.45.6-.53,1.36-.52,1.38.94,1.18.7-.1,1.41-.23,2.18-.35a3.36,3.36,0,0,1,0,.48c-.24,1.08,0,1.39,1.19,1.27.68-.06,1.37-.11,2.05-.15A1.88,1.88,0,0,1,46.86,24.56Z"/><path d="M12,32.3c.16-.89.32-1.55.38-2.22.09-1-.42-1.37-1.29-.92-1.08.55-2.09,1.24-3.31,2a4.51,4.51,0,0,1,.8-.95,17.1,17.1,0,0,1,2.62-1.51c1-.4,1.61.13,1.58,1.15,0,.52-.14,1.05-.22,1.7.56-.2,1.08-.41,1.62-.56a16.63,16.63,0,0,1,1.69-.41c.69-.12.94.29.9.89s-.15,1-.23,1.51c0,.24-.06.48-.11.85.71-.18,1.28-.35,1.86-.48a8.89,8.89,0,0,1,1.36-.18c.76,0,1,.26.91,1,0,.36-.12.71-.16,1.06-.09.74.1.94.84.82a12.31,12.31,0,0,0,1.48-.37c.5-.16.65.08.7.5,0,.18,0,.36,0,.54.07,1.3.46,1.61,1.71,1.38h.08c1.47-.23,1.48-.23,1.75,1.25.08.47.36.57.77.48.59-.12,1.18-.26,1.78-.37s.7.11.7.63c0,1.11.12,1.2,1.21,1,.24,0,.58-.17.72-.06a6.56,6.56,0,0,1,1,1,.27.27,0,0,1-.05.26c-.15.06-.42.15-.48.08a2.4,2.4,0,0,0-2.28-.67c-.42,0-.73-.32-.66-.84,0-.29.05-.6.09-1l-2,.48c-1,.24-1.37,0-1.31-1,0-.75-.2-.93-.88-.71a6.06,6.06,0,0,1-.74.15,1.48,1.48,0,0,1-1.93-1.61v-1l-2.15.33c-.6.09-.86-.18-.77-.78s.11-1,.22-1.51-.17-.79-.66-.69c-.79.15-1.57.39-2.36.56a8.61,8.61,0,0,1-1,.12c0-.32,0-.64,0-1,0-.53.1-1.06.17-1.59s-.25-.69-.77-.67a6.47,6.47,0,0,0-2.4.83Z"/><path d="M30,.88a1.93,1.93,0,0,0-2.56.22,41.9,41.9,0,0,0-3.29,2.8,5.53,5.53,0,0,0-1,2c-.21.59.36,1.13,1.07,1a6.09,6.09,0,0,0,3.34-2c-.49-.57-1.6,0-1.76-1.08a6.37,6.37,0,0,1,3.87,1C28,4.62,27.14,6,25.91,6.69a6.45,6.45,0,0,1-1.83.69c-1.17.22-1.69-.46-1.46-1.62a4.93,4.93,0,0,1,2.27-3.45C26,1.58,27.17.8,28.35.14A2.35,2.35,0,0,1,29.7.05C30.07.1,30.36.35,30,.88Z"/><path d="M38.09,9a8.21,8.21,0,0,1-2.21,3.41c-.06-1,.75-1.57,1.21-2.5l-1.56.7c-1,.45-1.67.42-2-.08s-.23-1.28.5-2A.81.81,0,0,0,34.27,8a12.94,12.94,0,0,1-1.2.78,17.91,17.91,0,0,1-2.26,1.07,1.11,1.11,0,0,1-1-.17,1.26,1.26,0,0,1-.06-1.12c.67-1.15,1.44-2.25,2.18-3.36l.27.14a7.32,7.32,0,0,1-.33.69c-.53.84-1.09,1.66-1.6,2.51-.11.18-.14.59,0,.68a.91.91,0,0,0,.76.14c1-.5,2-1.06,3-1.61.53-.29,1.05-.6,1.57-.9l.22.19a5.14,5.14,0,0,1-.41.77c-.4.53-.87,1-1.23,1.55a1,1,0,0,0-.05.84c.06.13.51.19.73.11C35.9,9.92,37,9.47,38.09,9Z"/><path d="M2.71,30.49a2.39,2.39,0,0,1,1.56-2.13.8.8,0,0,1,.6.17,3.34,3.34,0,0,1,.42,2.29c-.19.73-.71.86-1.31.92C2.9,31.84,2.69,31.62,2.71,30.49Z"/><path d="M17.53,10.29A1.62,1.62,0,0,1,16,11.9a1,1,0,0,1-1-1c.08-.88.4-1.69,1.29-1.7A1.17,1.17,0,0,1,17.53,10.29Z"/></g></g></svg>