<svg xmlns="http://www.w3.org/2000/svg" viewBox="0 0 54.86 63.3"><title>health-icon</title><g id="Layer_2" data-name="Layer 2"><g id="Layer_1-2" data-name="Layer 1"><path d="M24.37,21.14c.27-.76.56-1.52.81-2.29a28.23,28.23,0,0,1,6.1-10.33A32.16,32.16,0,0,1,42.63.86,11.11,11.11,0,0,1,49,.42c1.87.29,3.21,1.63,4.48,2.93a4.4,4.4,0,0,1,.69,1.75A11.94,11.94,0,0,1,54.49,12c-.49,1.69-.48,3.52-1,5.19a43.71,43.71,0,0,1-2.23,5.57c-1.06,2.31-2.33,4.52-3.35,6.84-1.12,2.57-3,4.59-4.65,6.77-1.33,1.75-2.92,3.3-4.35,5-.92,1.09-1.68,2.31-2.61,3.39-2.17,2.52-4.41,5-6.6,7.48s-4.59,5.3-6.92,7.92C22,61.14,21,62,20.08,62.89a2.33,2.33,0,0,1-2.67,0A23,23,0,0,1,14,60.18,17.43,17.43,0,0,1,11.08,56c-1.4-3-2.62-6.11-3.81-9.21-1-2.57-1.87-5.17-2.71-7.79-1-3.09-1.85-6.21-2.77-9.32A39,39,0,0,1,.31,19.47c0-1.55-.21-3.09-.29-4.63a21.07,21.07,0,0,1,.9-6.31A16.9,16.9,0,0,1,3.55,2.18a5.15,5.15,0,0,1,3-2C9-.42,10.86.49,12.71,1.71A6.39,6.39,0,0,1,14,3.14c1.4,1.68,2.83,3.35,4.19,5.06a16.61,16.61,0,0,1,1.32,2.08C20.53,12.17,21.63,14,22.62,16a13.17,13.17,0,0,1,.62,2.24c.3,1,.63,1.94.94,2.91ZM24.15,30l-.23.37a5.68,5.68,0,0,1-.67-1.26c-.51-2.07-.81-4.2-1.45-6.23-1-3.28-2-6.57-3.84-9.57a47.4,47.4,0,0,0-5.67-8.09,2.72,2.72,0,0,1-.6-.91A4.49,4.49,0,0,0,9.35,1.73C7.92,1,7.08,1.1,6,2.38a4,4,0,0,0-.74,1.15A58.53,58.53,0,0,0,3.4,9.43a31.43,31.43,0,0,0-.53,5.23A32.85,32.85,0,0,0,3,18.37a45.35,45.35,0,0,0,.4,5.09c.41,2.36,1,4.69,1.61,7s1.1,4.43,1.85,6.58c1.06,3.07,2.31,6.07,3.47,9.1a63.3,63.3,0,0,0,3.07,7.72,80.37,80.37,0,0,0,5.17,7.39l1.85-2c3.38-3.81,6.8-7.6,10.12-11.46,3.08-3.57,6-7.27,9.08-10.83A43,43,0,0,0,46.14,27c1.23-2.62,2.35-5.3,3.46-8a25.33,25.33,0,0,0,2-9.63A33.46,33.46,0,0,0,51,4.86a3.77,3.77,0,0,0-3.28-3.09A10.63,10.63,0,0,0,42.1,3.05a27.7,27.7,0,0,0-10,8c-4,5.35-5.73,11.52-5.93,18.15,0,.83-.38,1.09-1.14.86A3.2,3.2,0,0,0,24.15,30ZM3.82,32l.36-.1-.87-2.55-.24.09Z"/></g></g></svg>