<svg xmlns="http://www.w3.org/2000/svg" viewBox="0 0 54.87 63.3"><defs><style>.cls-1{fill:#ee694e;}</style></defs><title>health-icon</title><g id="Layer_2" data-name="Layer 2"><g id="Layer_1-2" data-name="Layer 1"><path class="cls-1" d="M24.4,30.24a3.2,3.2,0,0,1,.93,0c.76.23,1.11,0,1.14-.86.2-6.63,1.9-12.8,5.93-18.15a27.55,27.55,0,0,1,10-8A10.67,10.67,0,0,1,48,2a3.74,3.74,0,0,1,3.27,3.09,33.5,33.5,0,0,1,.63,4.51,25.52,25.52,0,0,1-2,9.63c-1.12,2.68-2.23,5.36-3.46,8a43.68,43.68,0,0,1-6.53,9.94c-3.09,3.56-6,7.26-9.08,10.83C27.45,51.86,24,55.65,20.65,59.46c-.56.64-1.13,1.27-1.84,2a78.47,78.47,0,0,1-5.17-7.39,63.3,63.3,0,0,1-3.07-7.72c-1.17-3-2.41-6-3.48-9.1C6.48,35.53,6,33.71,5.55,31.89l-.3-1.17c-.6-2.32-1.2-4.65-1.61-7a45.36,45.36,0,0,1-.41-5.09,35.36,35.36,0,0,1-.11-3.71,31.43,31.43,0,0,1,.53-5.23,56.08,56.08,0,0,1,1.87-5.9,3.83,3.83,0,0,1,.74-1.15,2.66,2.66,0,0,1,1.6-1.11A2.85,2.85,0,0,1,9.59,2a4.5,4.5,0,0,1,2.35,2.57,2.45,2.45,0,0,0,.6.91,48,48,0,0,1,5.67,8.09,40.69,40.69,0,0,1,3.84,9.57c.64,2,.94,4.16,1.44,6.23a5.72,5.72,0,0,0,.68,1.26Z" transform="translate(-0.25 -0.25)"/><path d="M7.73.29A7.76,7.76,0,0,1,13,2,6.94,6.94,0,0,1,14.2,3.39C15.6,5.07,17,6.74,18.39,8.45a16.61,16.61,0,0,1,1.32,2.08c1.07,1.89,2.16,3.76,3.15,5.69a13.18,13.18,0,0,1,.63,2.24c.29,1,.62,1.94.94,2.91l.19,0c.27-.76.55-1.52.8-2.29A28.26,28.26,0,0,1,31.53,8.77,32.16,32.16,0,0,1,42.88,1.11,10,10,0,0,1,48.12.52L48,2a10.67,10.67,0,0,0-5.62,1.27,27.55,27.55,0,0,0-10,8c-4,5.35-5.73,11.52-5.93,18.15,0,.82-.38,1.09-1.14.86a3.2,3.2,0,0,0-.93,0l-.23.37a5.72,5.72,0,0,1-.68-1.26c-.5-2.07-.8-4.2-1.44-6.23a40.69,40.69,0,0,0-3.84-9.57,48,48,0,0,0-5.67-8.09,2.45,2.45,0,0,1-.6-.91A4.5,4.5,0,0,0,9.59,2a2.85,2.85,0,0,0-1.73-.46Z" transform="translate(-0.25 -0.25)"/><path d="M53.69,3.6a4.39,4.39,0,0,1,.68,1.75,11.86,11.86,0,0,1,.37,6.93c-.49,1.69-.49,3.52-1,5.19A43.66,43.66,0,0,1,51.53,23c-1.06,2.31-2.33,4.52-3.35,6.84-1.13,2.57-3,4.59-4.65,6.77-1.33,1.75-2.93,3.3-4.35,5C38.26,42.73,37.5,44,36.57,45c-2.17,2.52-4.41,5-6.6,7.48s-4.6,5.3-6.93,7.92c-.85,1-1.77,1.84-2.71,2.71a2.33,2.33,0,0,1-2.67,0,23,23,0,0,1-3.46-2.69,17.15,17.15,0,0,1-2.87-4.21c-1.41-3-2.62-6.11-3.81-9.21-1-2.57-1.88-5.17-2.71-7.79-.74-2.32-1.41-4.65-2.09-7L4,31.87l.12.4.36-.1,1.12-.28c.46,1.82.93,3.64,1.54,5.41,1.07,3.07,2.31,6.07,3.48,9.1a63.3,63.3,0,0,0,3.07,7.72,78.47,78.47,0,0,0,5.17,7.39c.71-.78,1.28-1.41,1.84-2C24,55.65,27.45,51.86,30.78,48c3.07-3.57,6-7.27,9.08-10.83a43.68,43.68,0,0,0,6.53-9.94c1.23-2.62,2.34-5.3,3.46-8a25.52,25.52,0,0,0,2-9.63,33.5,33.5,0,0,0-.63-4.51A3.74,3.74,0,0,0,48,2l.15-1.5c.36,0,.73.08,1.09.14C51.08,1,52.42,2.3,53.69,3.6Z" transform="translate(-0.25 -0.25)"/><path d="M2,29.9A39.38,39.38,0,0,1,.56,19.72c-.05-1.55-.21-3.09-.3-4.63a21.08,21.08,0,0,1,.91-6.31A16.74,16.74,0,0,1,3.8,2.43a5.15,5.15,0,0,1,3-2A5.23,5.23,0,0,1,7.73.29l.13,1.23a2.66,2.66,0,0,0-1.6,1.11,3.83,3.83,0,0,0-.74,1.15,56.08,56.08,0,0,0-1.87,5.9,31.43,31.43,0,0,0-.53,5.23,35.36,35.36,0,0,0,.11,3.71,45.36,45.36,0,0,0,.41,5.09c.41,2.36,1,4.69,1.61,7l.3,1.17-1.12.28-.87-2.55-.25.08c.21.73.42,1.45.64,2.17l-1.23.36Z" transform="translate(-0.25 -0.25)"/></g></g></svg>