<svg xmlns="http://www.w3.org/2000/svg" viewBox="0 0 67.34 64.24"><title>issues-icon</title><g id="Layer_2" data-name="Layer 2"><g id="Layer_1-2" data-name="Layer 1"><path d="M26.84,42.68c-.93.74-1.84,1.44-2.72,2.17a6.65,6.65,0,0,1-3.75,1.35A19.9,19.9,0,0,1,9,44c-2.33-1.25-4.84-2.16-7.26-3.22-.29-.12-.58-.26-.86-.4C0,39.94,0,39.51.79,38.92c1.89-1.42,3.78-2.82,5.65-4.26,1-.75,1.9-1.6,2.88-2.36a41.07,41.07,0,0,1,6.24-3.91,15.39,15.39,0,0,1,5.34-1.63c.47-.06,1-.07,1.54-.11-.59-.69-1.14-1.3-1.65-1.95a16.81,16.81,0,0,1-3.41-13.52c.24-1.56.22-3.17.5-4.73A20.39,20.39,0,0,1,19,2.59c.19-.45.83-.72,1.34-1.14.71,1.43,2,1.66,3,2.21A21.93,21.93,0,0,1,30.3,8.44a17.57,17.57,0,0,1,3.58,6.74,2.44,2.44,0,0,0,.56,1,7.8,7.8,0,0,0,.32-1.33A7.89,7.89,0,0,1,37,10.22,29.45,29.45,0,0,1,44.31,4.1c2-1.17,3.86-2.5,5.77-3.78.82-.55,1.26-.4,1.84.46.71,1,.52,2.19.63,3.3.27,2.53.51,5.07.73,7.6a11.28,11.28,0,0,1-.58,4.78c-.17.48-.31,1-.54,1.7l1.51-.44c0-.46-.05-.85-.09-1.24s-.15-.85.39-1.06a.9.9,0,0,1,1.14.6c.53,1.34.92,2.74,1.35,4.13,0,.11,0,.25,0,.32-.35.1-.68.32-.91.24a1.78,1.78,0,0,1-.91-.7c-.67-1.11-.64-1.09-1.9-.71A2.52,2.52,0,0,0,50.82,21a10,10,0,0,1-2.66,3.38c-.16.17-.31.36-.52.61,1,.07,2,.1,3,.23a13,13,0,0,1,1.91.48c.45.14.86.43,1.32.53a17.37,17.37,0,0,1,4.73,2.38A18.93,18.93,0,0,1,60,29.87c1.93,1.36,3.83,2.8,6.24,3.24a3.9,3.9,0,0,1,.69.19c.42.17.54.43.15.76-2,1.66-3.84,3.42-5.92,4.91a16,16,0,0,1-4,1.82c-1.5.52-3.07.8-4.59,1.27a9.43,9.43,0,0,1-5.24-.22c-1.11-.3-2.18-.76-3.27-1.15l-.74-.28c.18.69.3,1.28.5,1.85a14.32,14.32,0,0,1,.59,7.83c-.3,1.47-.76,2.91-1,4.38-.25,1.26-.3,2.56-.53,3.83-.31,1.71-.68,3.41-1.07,5.11-.19.85-.89,1-1.66.61A7.93,7.93,0,0,0,37.76,63c-3-.5-5-2.29-6.85-4.53A15.74,15.74,0,0,1,28,51.26c-.49-2.62-.75-5.29-1.11-7.94C26.9,43.1,26.87,42.88,26.84,42.68ZM2.62,39.2a7.57,7.57,0,0,0,.69.42c2.09.9,4.19,1.78,6.28,2.67,1.6.68,3.16,1.49,4.8,2.05a12.5,12.5,0,0,0,7.58.32,5.3,5.3,0,0,0,3.38-2.47C25.93,41.11,26.41,40,27,38.9c.17-.29.69-.39,1.07-.51a1.18,1.18,0,0,1,.33.62c.09,1.58.09,3.16.21,4.74a37.35,37.35,0,0,0,2,10.56A12,12,0,0,0,36.53,61,20.21,20.21,0,0,0,40,62.14c.12,0,.43-.18.47-.33a19.51,19.51,0,0,0,.46-2c.44-2.38.86-4.77,1.28-7.16a20.8,20.8,0,0,0,.52-7,12.65,12.65,0,0,0-4.33-7.9,7.34,7.34,0,0,1-.91-1.14c-.35-.45-.36-.93.12-1.24a1,1,0,0,1,1.33.27,10.18,10.18,0,0,0,3.81,2.67c.49.2,1,.47,1.45.64q3.06,1.08,6.14,2.12a1.56,1.56,0,0,0,.71.07,29.85,29.85,0,0,0,7.66-2,18.16,18.16,0,0,0,5.13-3.56c.42-.36.81-.74,1.27-1.16a22.78,22.78,0,0,1-7-4,15.27,15.27,0,0,0-5.66-3.09,6.6,6.6,0,0,1-1.19-.45c-2.35-1.1-4.69-.35-7,.1-1.44.27-2.8.9-4.22,1.3a3.38,3.38,0,0,1-1.17-.09l-.07-.29a3,3,0,0,1,.67-.53c1.19-.46,2.38-.92,3.59-1.28a10.61,10.61,0,0,0,5.15-3.4,16,16,0,0,0,1.05-1.62L49,20.92a61.43,61.43,0,0,0-13.49,7.2l15.18,4c.12-.35.21-.62.31-.88.42-1.16.56-1.25,1.68-1.26.6,0,.68.28.51.75-.65,1.76-1.29,3.51-2,5.26a1.51,1.51,0,0,1-1.68.72c-.71-.36-.4-.92-.19-1.42s.56-1.17.86-1.82a7.31,7.31,0,0,0-.83-.3c-2.66-.7-5.34-1.37-8-2.08-1.84-.49-3.65-1.05-5.48-1.57-1-.27-1.86-.88-2.95-.27A.77.77,0,0,1,31.78,29c.76-1,1.48-2,2.23-2.92.3-.39.56-.66.18-1.22a3.39,3.39,0,0,1-.41-1.6,36,36,0,0,0-2.1-8.92A15.24,15.24,0,0,0,27.2,7.65a23.58,23.58,0,0,0-6.53-3.9c-.16-.07-.6.08-.63.2a21.32,21.32,0,0,0-.61,2.94c-.14,1.31-.06,2.65-.25,3.94A16.28,16.28,0,0,0,21.77,23c1.44,2.09,3,4,5.83,4.16.22,0,.44.4.63.64a4.38,4.38,0,0,1,.42.69c.11.19.3.44.25.59a.63.63,0,0,1-.56.27c-1.09-.25-2.18-.56-3.27-.86-.25-.07-.49-.31-.72-.3a26.39,26.39,0,0,0-5.28.4,25,25,0,0,0-7.93,4.24c-1.54,1.11-3,2.36-4.51,3.51C5.35,37.26,4,38.18,2.62,39.2ZM50.69,1.55c-.61.35-1,.54-1.33.76-.92.58-1.82,1.19-2.74,1.76a31.32,31.32,0,0,0-7.09,5.44c-1.06,1.18-2.29,2.25-2.62,3.91-.47,2.35-1,4.71-1.35,7.08a6,6,0,0,0,.31,3.38c2.57-2.89,5.32-5.43,7.57-8.39L41.68,14c1.34-.57,4.52,1,5,2.33-.49.32-1,.57-1.52.05-.32-.3-.62-.17-.93.17-2,2.29-4.12,4.56-6.18,6.83l-2.52,2.77.16.19c.3-.2.59-.4.9-.58,1.36-.82,2.68-1.72,4.1-2.42,3-1.45,6-2.78,8.92-4.18a1.31,1.31,0,0,0,.69-.59c.84-2.32,1.62-4.64,1.24-7.2-.31-2-.41-4-.59-6.07C50.84,4.13,50.78,3,50.69,1.55Z"/><path d="M9.54,18.9c-.15-.38-.22-.57-.3-.75-1.23-3-2.48-6-3.7-9A1.28,1.28,0,0,1,6,7.4a.7.7,0,0,1,.62,0C8.08,9.16,9.54,10.88,11,12.63c1,1.19,1.91,2.41,2.76,3.68,1.25,1.86,2.57,3.72,2.85,6a6.4,6.4,0,0,0,.66,2.49.94.94,0,0,1-.1.86c-.11.13-.55.1-.8,0a16.27,16.27,0,0,1-1.57-.77c-2.06-1.07-4.4-1.06-6.58-1.7A23.67,23.67,0,0,1,.43,19.31,1.45,1.45,0,0,1,0,18.36c0-.59.34-.63.88-.66,1.2-.07,2.39-.34,3.59-.42,1.66-.11,3,.92,4.5,1.37A5.86,5.86,0,0,1,9.54,18.9Zm2.75,3.62c-1-1.69-8.09-4.33-9.87-3.66C3.8,20.49,9.71,22.68,12.29,22.52Zm2.59-.35.21-.09A15.56,15.56,0,0,0,14.14,20c-1-1.6-2.09-3.17-3.16-4.73-.37-.55-.8-1.06-1.22-1.57s-.79-1-1.19-1.47C9.7,16.16,11.54,19.65,14.88,22.17Z"/><path d="M54,49.38l3.19,2.92c.79.74,1.61,1.45,2.35,2.24a1.33,1.33,0,0,1,.36,1.06.92.92,0,0,1-1.23.57,17.41,17.41,0,0,1-2.13-.64c-1.43-.53-2.87-1.05-4.26-1.7a9,9,0,0,1-3.54-3.56c-.71-1.08-1.36-2.21-2-3.34a4.09,4.09,0,0,1-.41-1.19.68.68,0,0,1,.3-.55c.13-.08.39.06.59.07a6.66,6.66,0,0,0,1.33.09c2-.26,4-.72,6-.8a18.09,18.09,0,0,1,6,.52,26.41,26.41,0,0,0,3.92.48,5,5,0,0,1,1.1.41c-.2.37-.32.89-.63,1.09a13.25,13.25,0,0,1-9.79,2.3l-1-.15ZM51,46.59c2.84,1.42,8.67,2,10.63.43A27.89,27.89,0,0,0,51,46.59Zm-1.66,1.69c1.64,3,3.76,5.16,7.2,5.7C54.69,51.93,50.72,48.76,49.31,48.28Z"/><path d="M24.81,47.65a20.14,20.14,0,0,0,.2,2.09c.73,4.18-.07,8.21-1.21,12.2-.11.39,0,.87-.63,1.05s-.94,0-1.21-.6a13,13,0,0,1-1.09-9.48,3.4,3.4,0,0,0,.07-.46s0,0,0,0c-1.56.92-3.06,1.92-4.66,2.69a17.8,17.8,0,0,1-3.63,1.13A2.77,2.77,0,0,1,11.19,56a.84.84,0,0,1-.37-.74,2,2,0,0,1,.66-.87c.36-.31.92-.46,1.18-.84,1.19-1.7,3-2.57,4.7-3.52a29.89,29.89,0,0,1,5.54-2C23.52,47.84,24,47.26,24.81,47.65Zm-1.52,2.72c-1.18,2.3-2.15,7.19-.34,9.47A21.3,21.3,0,0,0,23.29,50.37Zm-10,4.29c2.53-.11,6.92-2.69,7.88-4.91-1.49.67-3,1.27-4.41,2A7.12,7.12,0,0,0,13.24,54.66Z"/><path d="M28.87,22.32c1-1.08,1.82-1,2.32-.07a9.54,9.54,0,0,1,1.54-.17c.19,0,.36.36.53.55l-.61.53a.08.08,0,0,1-.08,0Z"/><path d="M27.34,34.37a1.66,1.66,0,0,1,2.06-.62c.52.27.54.7.05,1C28.78,35.21,28.2,35.11,27.34,34.37Z"/><path d="M31.49,33.6A5.26,5.26,0,0,1,32.86,33,2.16,2.16,0,0,1,34,33.4c.1.05.09.59,0,.62a2.68,2.68,0,0,1-1.24.29C32.37,34.27,32.05,34,31.49,33.6Z"/><path d="M32.18,23.84l.93.95c-.34.24-.68.65-1,.67s-1.19,0-1.1-.67C31,24.47,31.66,24.23,32.18,23.84Z"/><path d="M32.12,31.13a1.77,1.77,0,0,1,1.76-.86c.23,0,.63.26.63.4a1.05,1.05,0,0,1-.39.76C33.43,31.85,32.82,31.47,32.12,31.13Z"/><path d="M35.14,31.82a8.22,8.22,0,0,1,1.46-.58c.38-.09.89.06.77.6-.07.28-.48.69-.74.69a5.58,5.58,0,0,1-1.45-.39Z"/><path d="M28.11,30.84c.62-.73,1.12-1.13,1.86-.91a2.35,2.35,0,0,1,.62.44c-.23.25-.45.69-.71.71A8,8,0,0,1,28.11,30.84Z"/><path d="M28.93,24c.32.38.69.63.7.89,0,.65-.63.62-1,.59s-.7-.37-1.05-.58Z"/><path d="M24.7,31.28c.46-.67.95-1.09,1.72-1,.16,0,.39.15.41.27a.69.69,0,0,1-.15.55C26.13,31.7,25.48,31.64,24.7,31.28Z"/><path d="M37.69,32.8A4.57,4.57,0,0,1,39,32.42c.28,0,.55.41.83.63-.29.2-.6.57-.88.56a4.42,4.42,0,0,1-1.28-.47Z"/><path d="M34.21,42.43a6,6,0,0,1,1.21-.57,1.33,1.33,0,0,1,.8.3.5.5,0,0,1,0,.46,2.89,2.89,0,0,1-1.1.44c-.27,0-.56-.24-.84-.37Z"/><path d="M29.64,32a5.63,5.63,0,0,1,1.41-.36c.2,0,.39.48.58.74-.27.13-.54.37-.8.35a4.71,4.71,0,0,1-1.18-.36Z"/><path d="M29.43,27.31a7.86,7.86,0,0,1,1.43-.22c.2,0,.39.36.58.55-.28.18-.58.5-.86.49a3.53,3.53,0,0,1-1.13-.44Z"/><path d="M24,33.85a8,8,0,0,1,1.26-.59c.19,0,.46.22.7.34-.18.25-.34.68-.56.71a5.09,5.09,0,0,1-1.33-.13Z"/><path d="M21,33.52a9.15,9.15,0,0,1,1.5-.44c.16,0,.38.34.57.53-.19.18-.38.5-.57.5a8,8,0,0,1-1.44-.22Z"/><path d="M29.68,36.74c.47-.74,1-1,1.59-.8a.77.77,0,0,1,.39.57c0,.13-.31.4-.49.4A9.86,9.86,0,0,1,29.68,36.74Z"/><path d="M28,19.87a1.34,1.34,0,0,1,1.71-.68c.14,0,.29.35.29.55s-.24.37-.37.36A14.43,14.43,0,0,1,28,19.87Z"/><path d="M34.65,34.82a4,4,0,0,1,1.12-.42c.21,0,.46.28.69.43-.23.23-.45.63-.7.65a3,3,0,0,1-1.09-.35Z"/><path d="M33.85,36c-.14,1-.58,1.15-1.78.58C32.47,35.83,32.8,35.72,33.85,36Z"/><path d="M40.63,33.47a3.83,3.83,0,0,1,1.14-.38c.25,0,.51.31.77.47-.25.18-.5.5-.74.5a3.82,3.82,0,0,1-1.16-.33Z"/><path d="M27.11,17.2c.44-.59.94-.82,1.54-.53a.76.76,0,0,1,.17.66C28.26,17.86,27.72,17.49,27.11,17.2Z"/><path d="M33.38,39.63a10,10,0,0,1,1.28-.4c.15,0,.47.16.47.26s-.12.56-.24.58a11.51,11.51,0,0,1-1.44,0Z"/></g></g></svg>