<svg xmlns="http://www.w3.org/2000/svg" viewBox="0 0 67.34 64.24"><defs><style>.cls-1{fill:#ee694e;}.cls-2{fill:#38ac88;}</style></defs><title>issues-icon</title><g id="Layer_2" data-name="Layer 2"><g id="Layer_1-2" data-name="Layer 1"><path d="M67.2,33.54c.41.17.54.44.15.77-2,1.65-3.85,3.41-5.92,4.9a15.25,15.25,0,0,1-4,1.82c-1.49.52-3.07.81-4.58,1.27a9.34,9.34,0,0,1-5.24-.22c-1.12-.29-2.18-.75-3.27-1.14l-.74-.28c.18.68.3,1.28.5,1.85a14.51,14.51,0,0,1,.59,7.83c-.3,1.47-.76,2.9-1.05,4.37-.25,1.27-.3,2.57-.52,3.83-.31,1.71-.68,3.42-1.07,5.11-.2.85-.9,1-1.67.62A7.88,7.88,0,0,0,38,63.2c-3-.5-5.06-2.29-6.85-4.53a15.74,15.74,0,0,1-2.88-7.16c-.48-2.63-.75-5.29-1.11-7.94,0-.22-.06-.45-.08-.65-.94.75-1.84,1.45-2.73,2.18a6.56,6.56,0,0,1-3.74,1.34A19.9,19.9,0,0,1,9.26,44.23C6.93,43,4.42,42.08,2,41l-.86-.41c-.84-.42-.87-.86-.09-1.45,1.88-1.42,3.78-2.82,5.64-4.25,1-.76,1.9-1.61,2.89-2.37a41.78,41.78,0,0,1,6.23-3.91A15.67,15.67,0,0,1,21.14,27c.48-.06.95-.06,1.55-.1-.59-.7-1.15-1.31-1.66-2a16.87,16.87,0,0,1-3.41-13.51c.24-1.57.23-3.18.51-4.73a19.28,19.28,0,0,1,1.16-3.86c.18-.46.82-.73,1.33-1.15.71,1.43,2,1.66,3.05,2.21a22,22,0,0,1,6.87,4.78,17.7,17.7,0,0,1,3.59,6.75,2.44,2.44,0,0,0,.55,1A8,8,0,0,0,35,15.11a7.93,7.93,0,0,1,2.19-4.65,29.25,29.25,0,0,1,7.36-6.11c2-1.18,3.86-2.5,5.77-3.78.82-.55,1.26-.4,1.84.45.7,1,.51,2.19.63,3.31q.39,3.8.72,7.59A11.41,11.41,0,0,1,53,16.7c-.18.49-.32,1-.54,1.7l1.5-.43c0-.47,0-.86-.09-1.24s-.15-.85.4-1.07a.9.9,0,0,1,1.14.61c.53,1.34.92,2.74,1.35,4.12,0,.11,0,.25-.05.32-.34.1-.68.32-.91.24a1.8,1.8,0,0,1-.91-.69c-.67-1.12-.63-1.1-1.89-.71a2.56,2.56,0,0,0-1.89,1.7c-.48,1.4-1.66,2.34-2.66,3.39-.16.17-.31.36-.52.6,1,.08,2,.11,3,.24a10.48,10.48,0,0,1,1.91.48c.45.14.87.43,1.33.53a17.34,17.34,0,0,1,4.73,2.37,19.08,19.08,0,0,1,1.46,1.26c1.93,1.36,3.83,2.8,6.24,3.24A3.34,3.34,0,0,1,67.2,33.54Zm-3.13,2.27c.41-.36.8-.74,1.27-1.17a22.64,22.64,0,0,1-7-4,15.34,15.34,0,0,0-5.67-3.1,5.84,5.84,0,0,1-1.18-.45c-2.35-1.09-4.7-.35-7,.1-1.43.28-2.8.9-4.21,1.31a3.38,3.38,0,0,1-1.17-.1c0-.09-.05-.19-.08-.29a3.05,3.05,0,0,1,.68-.53c1.18-.45,2.37-.91,3.58-1.28a10.52,10.52,0,0,0,5.16-3.4,13.42,13.42,0,0,0,1-1.61l-.21-.15a60.68,60.68,0,0,0-13.48,7.19l15.18,4c.12-.34.21-.61.3-.88.43-1.16.57-1.24,1.68-1.25.6,0,.68.28.51.75-.64,1.75-1.29,3.51-2,5.26a1.52,1.52,0,0,1-1.68.72c-.72-.37-.41-.93-.19-1.42s.55-1.18.86-1.82c-.35-.13-.59-.24-.84-.31-2.66-.69-5.33-1.36-8-2.08-1.83-.49-3.65-1.05-5.47-1.57-1-.27-1.86-.87-2.95-.27A.77.77,0,0,1,32,29.2l.51-.68,1.71-2.25c.3-.38.57-.66.19-1.22A3.27,3.27,0,0,1,34,23.46a36.19,36.19,0,0,0-2.11-8.93,15.07,15.07,0,0,0-4.48-6.64A23.67,23.67,0,0,0,20.92,4a.75.75,0,0,0-.64.21,22.9,22.9,0,0,0-.61,2.94c-.14,1.31-.05,2.64-.24,3.94A16.29,16.29,0,0,0,22,23.2c1.43,2.08,3,4,5.83,4.16.22,0,.44.4.62.64a4.43,4.43,0,0,1,.43.69c.1.19.29.43.25.59a.63.63,0,0,1-.5.28h-.06c-1.1-.26-2.19-.56-3.28-.87-.24-.07-.48-.31-.71-.29a25.62,25.62,0,0,0-5.28.4A24.79,24.79,0,0,0,11.39,33c-1.55,1.12-3,2.36-4.51,3.51-1.28,1-2.61,1.9-4,2.92a6.38,6.38,0,0,0,.7.42l6.27,2.67c1.6.68,3.16,1.49,4.81,2a12.58,12.58,0,0,0,7.58.33,5.28,5.28,0,0,0,3.37-2.47c.59-1.09,1.07-2.23,1.69-3.29.17-.29.69-.39,1.08-.52a1.17,1.17,0,0,1,.32.62c.09,1.58.09,3.17.22,4.75a36.87,36.87,0,0,0,2,10.55,12.09,12.09,0,0,0,5.85,6.7,20.82,20.82,0,0,0,3.45,1.14c.12,0,.42-.18.47-.33a19.51,19.51,0,0,0,.46-2q.65-3.59,1.28-7.16a20.84,20.84,0,0,0,.51-7A12.63,12.63,0,0,0,38.63,38a7.91,7.91,0,0,1-.92-1.14,1,1,0,0,1-.23-.81.82.82,0,0,1,.36-.44,1,1,0,0,1,1.33.28A10,10,0,0,0,43,38.54c.49.2,1,.47,1.45.65,2,.72,4.09,1.42,6.14,2.12a1.66,1.66,0,0,0,.7.07,30.23,30.23,0,0,0,7.67-2A18.73,18.73,0,0,0,64.07,35.81Zm-13.53-17c.84-2.32,1.62-4.64,1.23-7.2-.3-2-.41-4.05-.58-6.08-.1-1.17-.16-2.35-.26-3.75-.61.34-1,.53-1.33.75-.92.58-1.82,1.19-2.74,1.77a31.26,31.26,0,0,0-7.09,5.44c-1.05,1.18-2.29,2.25-2.62,3.9-.47,2.36-.95,4.72-1.34,7.09a5.89,5.89,0,0,0,.3,3.38c2.57-2.9,5.32-5.44,7.57-8.39l-1.75-1.48c1.33-.57,4.51,1,5,2.33-.5.32-1,.56-1.52,0-.33-.3-.62-.17-.93.18-2,2.29-4.12,4.55-6.19,6.82l-2.52,2.78.16.18c.3-.19.6-.4.9-.58,1.37-.81,2.69-1.72,4.11-2.42,2.94-1.44,5.94-2.77,8.91-4.17A1.38,1.38,0,0,0,50.54,18.83Z" transform="translate(-0.25 -0.25)"/><path d="M65.84,46.21c-.21.37-.32.88-.64,1.08a13.21,13.21,0,0,1-9.79,2.31c-.33-.06-.67-.1-1-.15l-.13.18,3.19,2.92c.8.73,1.61,1.45,2.35,2.23a1.4,1.4,0,0,1,.37,1.07.94.94,0,0,1-1.24.57,19.86,19.86,0,0,1-2.12-.64c-1.43-.54-2.88-1.06-4.26-1.7A9,9,0,0,1,49,50.52c-.71-1.09-1.36-2.21-2-3.34A3.58,3.58,0,0,1,46.61,46a.7.7,0,0,1,.29-.56c.14-.08.39.06.59.08a6.07,6.07,0,0,0,1.34.08c2-.25,4-.71,6-.79a18.33,18.33,0,0,1,6,.51,26.74,26.74,0,0,0,3.92.48A4.85,4.85,0,0,1,65.84,46.21Zm-14.63.62c2.85,1.42,8.67,2,10.63.43C58.33,46.62,54.87,46.12,51.21,46.83Zm5.54,7.4c-1.81-2-5.78-5.23-7.19-5.71C51.2,51.52,53.32,53.68,56.75,54.23Z" transform="translate(-0.25 -0.25)"/><path class="cls-1" d="M65.34,34.64c-.47.43-.86.81-1.27,1.17a18.73,18.73,0,0,1-5.13,3.56,30.23,30.23,0,0,1-7.67,2,1.66,1.66,0,0,1-.7-.07c-2-.7-4.1-1.4-6.14-2.12-.5-.18-1-.45-1.45-.65a10,10,0,0,1-3.81-2.66,1,1,0,0,0-1.33-.28.82.82,0,0,0-.36.44L36,35.72c.25,0,.47-.41.71-.64-.24-.16-.48-.46-.7-.44a4.65,4.65,0,0,0-1.12.42l0,.32-1.65.72-.16-1.53a3.29,3.29,0,0,0,1.09-.3c.08,0,.1-.57,0-.63a2.08,2.08,0,0,0-1.1-.36,3.43,3.43,0,0,0-1.14.47L31.11,33c.24,0,.51-.23.77-.35-.2-.26-.39-.74-.58-.74a3.45,3.45,0,0,0-1.06.24l-.3-.79h.18c.26,0,.48-.46.72-.71a2.52,2.52,0,0,0-.63-.43,1.2,1.2,0,0,0-1.14.2l-.42-.82a.63.63,0,0,0,.5-.28c0-.16-.15-.4-.25-.59a4.43,4.43,0,0,0-.43-.69l1.23-.07a3.71,3.71,0,0,0,1.13.45c.28,0,.57-.32.86-.49l.85.63L32,29.2a.77.77,0,0,0,1.18.32c1.09-.6,2,0,2.95.27,1.82.52,3.64,1.08,5.47,1.57,2.66.72,5.33,1.39,8,2.08.25.07.49.18.84.31-.31.64-.61,1.22-.86,1.82s-.53,1,.19,1.42a1.52,1.52,0,0,0,1.68-.72c.66-1.75,1.31-3.51,2-5.26.17-.47.09-.76-.51-.75-1.11,0-1.25.09-1.68,1.25-.09.27-.18.54-.3.88l-15.18-4a60.68,60.68,0,0,1,13.48-7.19l.21.15a13.42,13.42,0,0,1-1,1.61,10.52,10.52,0,0,1-5.16,3.4c-1.21.37-2.4.83-3.58,1.28a3.05,3.05,0,0,0-.68.53c0,.1.05.2.08.29a3.38,3.38,0,0,0,1.17.1c1.41-.41,2.78-1,4.21-1.31,2.31-.45,4.66-1.19,7-.1a5.84,5.84,0,0,0,1.18.45,15.34,15.34,0,0,1,5.67,3.1A22.64,22.64,0,0,0,65.34,34.64ZM42,34.31c.25,0,.5-.32.74-.5-.25-.17-.52-.48-.77-.47a3.92,3.92,0,0,0-1.14.38,2.09,2.09,0,0,1,0,.25A3.93,3.93,0,0,0,42,34.31Zm-1.93-1c-.27-.22-.54-.62-.82-.62a4.71,4.71,0,0,0-1.36.38l0,.34a4.24,4.24,0,0,0,1.27.46C39.52,33.86,39.82,33.49,40.11,33.29Zm-2.5-1.21c.13-.54-.39-.68-.77-.6a9,9,0,0,0-1.45.59l0,.31a5,5,0,0,0,1.46.39C37.13,32.77,37.54,32.37,37.61,32.08Zm-3.25-.41a1,1,0,0,0,.4-.76c0-.14-.41-.39-.64-.4a1.79,1.79,0,0,0-1.76.87C33.06,31.71,33.68,32.1,34.36,31.67Z" transform="translate(-0.25 -0.25)"/><path class="cls-2" d="M61.84,47.26c-2,1.54-7.78,1-10.63-.43C54.87,46.12,58.33,46.62,61.84,47.26Z" transform="translate(-0.25 -0.25)"/><path class="cls-2" d="M49.56,48.52c1.41.48,5.38,3.66,7.19,5.71C53.32,53.68,51.2,51.52,49.56,48.52Z" transform="translate(-0.25 -0.25)"/><path class="cls-1" d="M51.77,11.63c.39,2.56-.39,4.88-1.23,7.2a1.38,1.38,0,0,1-.7.59c-3,1.4-6,2.73-8.91,4.17-1.42.7-2.74,1.61-4.11,2.42-.3.18-.6.39-.9.58l-.16-.18,2.52-2.78c2.07-2.27,4.14-4.53,6.19-6.82.31-.35.6-.48.93-.18.56.52,1,.28,1.52,0-.48-1.35-3.66-2.9-5-2.33l1.75,1.48c-2.25,3-5,5.49-7.57,8.39a5.89,5.89,0,0,1-.3-3.38c.39-2.37.87-4.73,1.34-7.09.33-1.65,1.57-2.72,2.62-3.9a31.26,31.26,0,0,1,7.09-5.44c.92-.58,1.82-1.19,2.74-1.77.35-.22.72-.41,1.33-.75.1,1.4.16,2.58.26,3.75C51.36,7.58,51.47,9.62,51.77,11.63Z" transform="translate(-0.25 -0.25)"/><path class="cls-1" d="M43,45.89a20.84,20.84,0,0,1-.51,7q-.63,3.57-1.28,7.16a19.51,19.51,0,0,1-.46,2c-.05.15-.35.36-.47.33a20.82,20.82,0,0,1-3.45-1.14,12.09,12.09,0,0,1-5.85-6.7A36.87,36.87,0,0,1,28.9,44c-.13-1.58-.13-3.17-.22-4.75a1.17,1.17,0,0,0-.32-.62L29.93,37a11.21,11.21,0,0,0,1.48.17.72.72,0,0,0,.48-.34h.42c1.2.56,1.64.43,1.79-.58a3.18,3.18,0,0,0-.83-.15l1.65-.72a2.88,2.88,0,0,0,1.08.34l1.48.32a1,1,0,0,0,.23.81A7.91,7.91,0,0,0,38.63,38,12.63,12.63,0,0,1,43,45.89Zm-6.47-3a.5.5,0,0,0,0-.46c-.24-.16-.57-.36-.8-.3a5.29,5.29,0,0,0-1.21.56c0,.09,0,.17.07.26.28.14.58.4.84.38A2.94,2.94,0,0,0,36.48,42.87Zm-1.34-2.56c.11,0,.25-.38.24-.57s-.33-.3-.47-.27a12,12,0,0,0-1.29.4c0,.16.05.31.08.47A9.89,9.89,0,0,0,35.14,40.31Z" transform="translate(-0.25 -0.25)"/><path d="M42.78,33.81c-.24.18-.49.5-.74.5A3.93,3.93,0,0,1,40.88,34a2.09,2.09,0,0,0,0-.25A3.92,3.92,0,0,1,42,33.34C42.26,33.33,42.53,33.64,42.78,33.81Z" transform="translate(-0.25 -0.25)"/><path d="M39.29,32.67c.28,0,.55.4.82.62-.29.2-.59.57-.88.56A4.24,4.24,0,0,1,38,33.39l0-.34A4.71,4.71,0,0,1,39.29,32.67Z" transform="translate(-0.25 -0.25)"/><path d="M36.84,31.48c.38-.08.9.06.77.6-.07.29-.48.69-.73.69a5,5,0,0,1-1.46-.39l0-.31A9,9,0,0,1,36.84,31.48Z" transform="translate(-0.25 -0.25)"/><path d="M36.47,42.41a.5.5,0,0,1,0,.46,2.94,2.94,0,0,1-1.11.44c-.26,0-.56-.24-.84-.38,0-.09-.05-.17-.07-.26a5.29,5.29,0,0,1,1.21-.56C35.9,42.05,36.23,42.25,36.47,42.41Z" transform="translate(-0.25 -0.25)"/><path d="M36,34.64c.22,0,.46.28.7.44-.24.23-.46.62-.71.64a2.88,2.88,0,0,1-1.08-.34l0-.32A4.65,4.65,0,0,1,36,34.64Z" transform="translate(-0.25 -0.25)"/><path d="M35.38,39.74c0,.19-.13.56-.24.57a9.89,9.89,0,0,1-1.44,0c0-.16-.05-.31-.08-.47a12,12,0,0,1,1.29-.4C35.05,39.44,35.37,39.63,35.38,39.74Z" transform="translate(-0.25 -0.25)"/><path class="cls-1" d="M34.44,25.05c.38.56.11.84-.19,1.22l-1.71,2.25-.85-.63c-.2-.2-.39-.55-.59-.56a7,7,0,0,0-1.42.23c0,.12,0,.25,0,.37L28.47,28c-.18-.24-.4-.63-.62-.64C25,27.2,23.45,25.28,22,23.2a16.29,16.29,0,0,1-2.59-12.12c.19-1.3.1-2.63.24-3.94a22.9,22.9,0,0,1,.61-2.94A.75.75,0,0,1,20.92,4a23.67,23.67,0,0,1,6.52,3.9,15.07,15.07,0,0,1,4.48,6.64A36.19,36.19,0,0,1,34,23.46,3.27,3.27,0,0,0,34.44,25.05Zm-1.55-1.64.62-.54c-.18-.19-.35-.53-.53-.54a9.6,9.6,0,0,0-1.55.16c-.5-.94-1.31-1-2.32.08l3.71.85ZM33.36,25l-.93-1c-.53.4-1.16.64-1.21,1-.09.69.69.68,1.1.66S33,25.28,33.36,25ZM30.22,20c0-.2-.15-.53-.29-.56a1.35,1.35,0,0,0-1.71.69c.62.09,1.12.2,1.63.23C30,20.36,30.22,20.11,30.22,20Zm-1.34,5.76c.37,0,1,.07,1-.58,0-.26-.39-.51-.71-.89l-1.35.9C28.17,25.38,28.51,25.72,28.88,25.75Zm.18-8.18c.09-.08,0-.58-.17-.65-.6-.3-1.1-.06-1.53.52C28,17.73,28.51,18.1,29.06,17.57Z" transform="translate(-0.25 -0.25)"/><path d="M34.76,30.91a1,1,0,0,1-.4.76c-.68.43-1.3,0-2-.29a1.79,1.79,0,0,1,1.76-.87C34.35,30.52,34.76,30.77,34.76,30.91Z" transform="translate(-0.25 -0.25)"/><path d="M34.2,33.64c.1.06.08.59,0,.63a3.29,3.29,0,0,1-1.09.3H33c-.35,0-.66-.37-1.22-.71l.22-.1a3.43,3.43,0,0,1,1.14-.47A2.08,2.08,0,0,1,34.2,33.64Z" transform="translate(-0.25 -0.25)"/><path d="M34.1,36.25c-.15,1-.59,1.14-1.79.58.28-.51.51-.73,1-.73A3.18,3.18,0,0,1,34.1,36.25Z" transform="translate(-0.25 -0.25)"/><path d="M33.51,22.87l-.62.54h-.07l-3.71-.85c1-1.08,1.82-1,2.32-.08A9.6,9.6,0,0,1,33,22.33C33.16,22.34,33.33,22.68,33.51,22.87Z" transform="translate(-0.25 -0.25)"/><path class="cls-1" d="M33.11,34.57l.16,1.53c-.45,0-.68.22-1,.73h-.42a.13.13,0,0,0,0-.06.73.73,0,0,0-.39-.57c-.62-.19-1.12.05-1.58.8l-1.57,1.64c-.39.13-.91.23-1.08.52-.62,1.06-1.1,2.2-1.69,3.29a5.28,5.28,0,0,1-3.37,2.47,12.58,12.58,0,0,1-7.58-.33c-1.65-.55-3.21-1.36-4.81-2L3.56,39.87a6.38,6.38,0,0,1-.7-.42c1.41-1,2.74-1.94,4-2.92,1.52-1.15,3-2.39,4.51-3.51a24.79,24.79,0,0,1,7.93-4.23,25.62,25.62,0,0,1,5.28-.4c.23,0,.47.22.71.29,1.09.31,2.18.61,3.28.87h.06l.42.82a3.57,3.57,0,0,0-.71.7,11.74,11.74,0,0,0,1.58.25l.3.79-.35.12c0,.12,0,.24,0,.36a5.2,5.2,0,0,0,1.18.37h0l.85.78-.22.1c.56.34.87.67,1.22.71ZM29.69,35c.49-.32.47-.76,0-1a1.63,1.63,0,0,0-2.06.62C28.45,35.36,29,35.46,29.69,35Zm-2.77-3.65a.71.71,0,0,0,.16-.54c0-.12-.26-.25-.41-.28a1.69,1.69,0,0,0-1.72,1C25.73,31.89,26.37,32,26.92,31.37Zm-1.27,3.19c.22,0,.37-.47.55-.72-.23-.12-.5-.38-.69-.33a6.34,6.34,0,0,0-1.27.59c0,.11.05.21.07.32A4.78,4.78,0,0,0,25.65,34.56Zm-2.33-.7c-.19-.19-.4-.56-.57-.54a9.15,9.15,0,0,0-1.5.44l.06.38a7.94,7.94,0,0,0,1.44.21C22.94,34.35,23.13,34,23.32,33.86Z" transform="translate(-0.25 -0.25)"/><path d="M32.43,24.08l.93,1c-.35.24-.69.65-1,.66s-1.19,0-1.1-.66C31.27,24.72,31.9,24.48,32.43,24.08Z" transform="translate(-0.25 -0.25)"/><path d="M31.9,36.76a.13.13,0,0,1,0,.06.72.72,0,0,1-.48.34A11.21,11.21,0,0,1,29.93,37c.46-.75,1-1,1.58-.8A.73.73,0,0,1,31.9,36.76Z" transform="translate(-0.25 -0.25)"/><path d="M31.3,31.88c.19,0,.38.48.58.74-.26.12-.53.35-.77.35h0a5.2,5.2,0,0,1-1.18-.37c0-.12,0-.24,0-.36l.35-.12A3.45,3.45,0,0,1,31.3,31.88Z" transform="translate(-0.25 -0.25)"/><path d="M31.1,27.33c.2,0,.39.36.59.56-.29.17-.58.5-.86.49a3.71,3.71,0,0,1-1.13-.45c0-.12,0-.25,0-.37A7,7,0,0,1,31.1,27.33Z" transform="translate(-0.25 -0.25)"/><path d="M30.21,30.18a2.52,2.52,0,0,1,.63.43c-.24.25-.46.69-.72.71h-.18a11.74,11.74,0,0,1-1.58-.25,3.57,3.57,0,0,1,.71-.7A1.2,1.2,0,0,1,30.21,30.18Z" transform="translate(-0.25 -0.25)"/><path d="M29.93,19.43c.14,0,.28.36.29.56s-.25.37-.37.36c-.51,0-1-.14-1.63-.23A1.35,1.35,0,0,1,29.93,19.43Z" transform="translate(-0.25 -0.25)"/><path d="M29.88,25.17c0,.65-.63.61-1,.58s-.71-.37-1.06-.57l1.35-.9C29.49,24.66,29.87,24.91,29.88,25.17Z" transform="translate(-0.25 -0.25)"/><path d="M29.65,34c.51.26.53.7,0,1-.66.44-1.24.34-2.1-.4A1.63,1.63,0,0,1,29.65,34Z" transform="translate(-0.25 -0.25)"/><path d="M28.89,16.92c.14.07.26.57.17.65-.55.53-1.1.16-1.7-.13C27.79,16.86,28.29,16.62,28.89,16.92Z" transform="translate(-0.25 -0.25)"/><path d="M27.08,30.83a.71.71,0,0,1-.16.54c-.55.58-1.19.52-2,.15a1.69,1.69,0,0,1,1.72-1C26.82,30.58,27.05,30.71,27.08,30.83Z" transform="translate(-0.25 -0.25)"/><path d="M26.2,33.84c-.18.25-.33.68-.55.72a4.78,4.78,0,0,1-1.34-.14c0-.11,0-.21-.07-.32a6.34,6.34,0,0,1,1.27-.59C25.7,33.46,26,33.72,26.2,33.84Z" transform="translate(-0.25 -0.25)"/><path d="M21.19,52.7a.09.09,0,0,1,0,0c-1.56.92-3,1.91-4.63,2.67a16.73,16.73,0,0,1-3.62,1.13,2.65,2.65,0,0,1-1.49-.28.87.87,0,0,1-.38-.73,2.16,2.16,0,0,1,.66-.88c.37-.31.93-.46,1.19-.83,1.18-1.71,3-2.57,4.7-3.53a31.11,31.11,0,0,1,5.54-2c.61-.2,1.09-.77,1.9-.38.06.64.07,1.37.2,2.08.74,4.19-.06,8.22-1.2,12.21-.11.38,0,.87-.64,1.05s-.93-.05-1.2-.61a13,13,0,0,1-1.1-9.47,2,2,0,0,0,.07-.41l0,0Zm2,7.39a21.17,21.17,0,0,0,.34-9.47C22.35,52.91,21.38,57.8,23.19,60.09Zm-9.7-5.19C16,54.79,20.4,52.22,21.37,50c-1.5.67-3,1.27-4.42,2A7.15,7.15,0,0,0,13.49,54.9Z" transform="translate(-0.25 -0.25)"/><path class="cls-2" d="M23.53,50.62a21.17,21.17,0,0,1-.34,9.47C21.38,57.8,22.35,52.91,23.53,50.62Z" transform="translate(-0.25 -0.25)"/><path d="M22.75,33.32c.17,0,.38.35.57.54-.19.17-.38.49-.57.49a7.94,7.94,0,0,1-1.44-.21l-.06-.38A9.15,9.15,0,0,1,22.75,33.32Z" transform="translate(-0.25 -0.25)"/><path d="M21.19,52.7l0,0,0,0A.09.09,0,0,0,21.19,52.7Z" transform="translate(-0.25 -0.25)"/><path class="cls-2" d="M21.37,50c-1,2.23-5.35,4.8-7.88,4.91A7.15,7.15,0,0,1,17,52C18.37,51.26,19.87,50.66,21.37,50Z" transform="translate(-0.25 -0.25)"/><path d="M17.46,25.07a1,1,0,0,1-.09.86c-.11.14-.56.1-.8,0A15.13,15.13,0,0,1,15,25.18c-2.06-1.08-4.41-1.07-6.59-1.71A23.43,23.43,0,0,1,.68,19.55a1.43,1.43,0,0,1-.43-.95c0-.59.34-.63.87-.66,1.21-.06,2.4-.34,3.6-.42,1.65-.1,3,.93,4.5,1.38a5.89,5.89,0,0,1,.57.24c-.15-.38-.23-.56-.3-.75-1.24-3-2.49-6-3.7-9a1.26,1.26,0,0,1,.46-1.74.67.67,0,0,1,.61,0c1.47,1.71,2.92,3.43,4.34,5.19,1,1.19,1.9,2.4,2.75,3.67,1.25,1.87,2.57,3.72,2.85,6A6.67,6.67,0,0,0,17.46,25.07Zm-2.33-2.66.2-.09a15.43,15.43,0,0,0-.95-2.11c-1-1.61-2.08-3.17-3.16-4.74-.37-.54-.8-1.05-1.21-1.57s-.8-1-1.2-1.46C10,16.41,11.79,19.9,15.13,22.41ZM2.66,19.1C4,20.73,10,22.93,12.53,22.76,11.54,21.07,4.44,18.44,2.66,19.1Z" transform="translate(-0.25 -0.25)"/><path class="cls-2" d="M15.33,22.32l-.2.09c-3.34-2.51-5.18-6-6.32-10,.4.49.81,1,1.2,1.46s.84,1,1.21,1.57c1.08,1.57,2.16,3.13,3.16,4.74A15.43,15.43,0,0,1,15.33,22.32Z" transform="translate(-0.25 -0.25)"/><path class="cls-2" d="M12.53,22.76c-2.58.17-8.49-2-9.87-3.66C4.44,18.44,11.54,21.07,12.53,22.76Z" transform="translate(-0.25 -0.25)"/></g></g></svg>