<svg xmlns="http://www.w3.org/2000/svg" viewBox="0 0 67.77 60.28"><defs><style>.cls-1{fill:#38ac88;}</style></defs><title>lifeline-icon</title><g id="Layer_2" data-name="Layer 2"><g id="Layer_1-2" data-name="Layer 1"><path class="cls-1" d="M.59,33.51c-.65-1.12-.24-2.22.1-3.32.08-.25.16-.49.25-.73.15-.42.28-.84.88-.45.15.1.43,0,.84-.12l1.4,3.22c.29-1.09.56-2.06.81-3.05.47-1.86.91-3.73,1.41-5.58A6.92,6.92,0,0,1,7,21.87c.12-.22.2-.5.76-.26a2.4,2.4,0,0,1,1.34,2,14.67,14.67,0,0,1,.3,2.57c0,.53,0,1.07,0,1.6l.17,0a1.53,1.53,0,0,0,.16-.31c.81-2.72,1.61-5.43,2.42-8.14.56-1.86,1.1-3.73,1.76-5.55a5.22,5.22,0,0,1,2-2.86c.32.83.78.36,1.22.13a27.42,27.42,0,0,1,1.13,8,24.51,24.51,0,0,0,.12,3.44,19.48,19.48,0,0,1-.18,6.9c-.19,1.16-.36,2.34-.52,3.52a14.43,14.43,0,0,0,0,2.08c0,.91.06,1.83,0,2.74s-.32,1.86-.43,2.8a6.45,6.45,0,0,0,.12,1.9c.24-1.15.51-2.29.7-3.45.69-4,1.34-8.07,2-12.11.33-1.88.76-3.75,1.08-5.64.17-1,.18-2,.32-3,.23-1.67.48-3.34.75-5,.4-2.54.81-5.09,1.25-7.62A6.06,6.06,0,0,1,24,3.86a4.6,4.6,0,0,1,1.11-1.21c0,.79.5.58.87.53.35.92.72,1.81,1,2.7a3.61,3.61,0,0,1,.19,1c.07,1.9.08,3.8.18,5.7.05,1,.23,2,.33,3,.12,1.17.22,2.34.31,3.51.2,2.63.44,5.25.55,7.88.05,1.2-.21,2.41-.26,3.62-.06,1.73-.05,3.45-.08,5.18,0,.34-.09.69-.08,1,.07,1.9.17,3.79.23,5.68s.06,3.73.15,5.59c0,.87.23,1.73.33,2.6.07.6.11,1.2.17,1.94.34-2.36.7-4.57,1-6.79.39-3.26.67-6.53,1.08-9.79.22-1.71.67-3.39.93-5.1.23-1.53.35-3.07.5-4.61.25-2.47.51-4.93.7-7.4s.24-5,.45-7.44c.23-2.66.49-5.32.9-7.95A4.63,4.63,0,0,1,36.09.53,2.38,2.38,0,0,1,37.16.26c.54-.09.67.22.8.71.17.66.61,1.25.78,1.92.36,1.47.66,3,.92,4.47s.44,2.92.63,4.38c.05.36,0,.74,0,1.11.07.81.23,1.63.24,2.44a32.16,32.16,0,0,1-.17,3.25c-.12,1.3-.31,2.59-.47,3.89-.22,1.66-.49,3.32-.63,5-.08,1,.06,2.06.07,3.1,0,2.41,0,4.82.05,7.22,0,1.46.13,2.92.22,4.38.1,1.68.21,3.36.32,5.05,0,.21,0,.42.07.63h.19c.13-.89.24-1.78.4-2.66.31-1.73.67-3.44,1-5.17.44-2.75.84-5.5,1.26-8.25s.84-5.51,1.23-8.27c.18-1.3.18-2.63.43-3.91.5-2.49.64-5.08,1.71-7.44.17-.38.39-.72,1-.4.24.13.62,0,.89,0a27.1,27.1,0,0,1,1.94,7.46c.09.62.28,1.23.35,1.85.09.9.12,1.8.17,2.7,0,1.08.12,2.16.12,3.24,0,1.63-.09,3.25-.09,4.88,0,1.11.11,2.22.15,3.33,0,.67,0,1.35,0,2a3.26,3.26,0,0,0,.11.61h.18c.08-.26.18-.52.24-.78.4-1.61.79-3.23,1.19-4.84.6-2.44,1.2-4.87,1.83-7.29.26-1,.57-2,.91-3,.15-.42.35-.92,1-.48.15.1.48-.05.85-.1.35,2.95.71,5.92,1.06,8.89h.16c.48-.93,1-1.85,1.43-2.79.25-.5.45-1,1.18-.73.18.06.44-.1.71-.18.23,1.32.45,2.58.66,3.82l2-1.09c0,.38,0,.6,0,.6.62.07.72.76,1.16,1a1.7,1.7,0,0,0,1,.07c.38-.07.74-.29,1.13-.35.2,0,.43.15.64.23-.09.24-.14.64-.29.69a15.13,15.13,0,0,1-2.56.61,1.63,1.63,0,0,1-1.41-.36c-.38-.35-.76.08-.87.39-.29.81-1,.43-1.55.65-.1,0-.59-.45-.66-.76-.18-.74-.23-1.52-.49-2.32-.09.35-.19.71-.29,1.06l-1.14,3.88c0,.08-.08.21-.14.22-.4.1-.86.32-1.19.2a1.32,1.32,0,0,1-.69-.92c-.33-2.43-.59-4.88-.88-7.32,0-.1,0-.2-.24-.32-.16.62-.34,1.23-.49,1.84-.45,1.88-.93,3.76-1.32,5.66-.46,2.26-.82,4.54-1.27,6.81C52.33,41.88,52,43,51.71,44a7.8,7.8,0,0,1-.47,1.36c-.13.31-.35.54-.78.33-.13-.07-.39.12-.6.19-.63-.25-.72-.76-.73-1.41-.06-2.08-.23-4.15-.3-6.23-.08-2.42-.12-4.83-.16-7.25,0-2.71.08-5.43-.12-8.13-.17-2.4-.67-4.77-1-7.16a3.79,3.79,0,0,0-.23-.52,19.32,19.32,0,0,0-.53,2.08c-.32,2.24-.57,4.5-.88,6.74-.29,2-.65,4.08-1,6.12-.05.37,0,.75-.07,1.12-.16,1.46-.27,2.93-.52,4.37-.46,2.58-1,5.15-1.5,7.74-.21,1.15-.19,2.35-.48,3.48a64.43,64.43,0,0,0-.94,6.77c-.28,2-.7,4-1.08,6.07-.1.54-.84.89-1.62.8s-.51-.59-.52-1c-.16-4.18-.27-8.36-.47-12.54-.27-5.5-.64-11-.39-16.51.14-3,.52-6,.92-8.95a36.54,36.54,0,0,0,.09-9.46c-.26-2.14-.48-4.29-.78-6.42A18.06,18.06,0,0,0,37,3.27a2.91,2.91,0,0,0-.38-.57L36.4,4.52c-.1,1-.19,2-.3,2.92-.14,1.22-.35,2.43-.44,3.65-.06,1,0,1.95,0,2.91a21.44,21.44,0,0,1-.32,4.34,42.82,42.82,0,0,0-.67,5.73c-.1.89-.11,1.79-.24,2.67-.32,2.17-.7,4.34-1,6.51-.14.89-.25,1.79-.36,2.69-.14,1.22-.24,2.45-.39,3.67-.3,2.46-.67,4.92-.94,7.39-.23,2.13-.32,4.27-.56,6.4-.2,1.89-.48,3.76-.82,5.63a1.75,1.75,0,0,1-1.52,1.41c-.54.1-1-.26-1.08-.95-.21-1.84-.43-3.68-.59-5.52-.23-2.64-.46-5.27-.59-7.92-.15-3.06-.25-6.13-.25-9.19,0-2.4.22-4.8.26-7.2,0-1.58-.08-3.17-.12-4.75,0-1.09,0-2.19-.12-3.28-.12-1.73-.36-3.45-.46-5.17-.14-2.45-.19-4.91-.29-7.36,0-.74-.09-1.48-.14-2.22l-.23,0a11.18,11.18,0,0,0-.4,1.48c-.28,2.11-.53,4.22-.8,6.32-.33,2.48-.64,5-1,7.44-.18,1.18-.54,2.33-.75,3.5-.29,1.56-.54,3.12-.78,4.69s-.4,3-.66,4.5q-.6,3.49-1.3,7c-.42,2.06-.9,4.11-1.36,6.16-.2.91-.41,1.82-.63,2.72-.16.67-.66.73-1.24.71s-.65-.43-.66-.91c-.09-2.69-.32-5.39-.26-8.07.09-4.26.27-8.52.69-12.77.32-3.27.29-6.58.33-9.88,0-1.72-.13-3.45-.22-5.17a5.2,5.2,0,0,0-.16-.86l-.18,0A14.77,14.77,0,0,0,15.24,15c-.36,1.18-.67,2.37-1,3.54-.58,1.9-1.25,3.77-1.77,5.68s-.85,3.72-1.3,5.58c-.32,1.37-.65,2.74-1.09,4.08-.09.28-.64.51-1,.57-.21,0-.61-.29-.69-.53a5.52,5.52,0,0,1-.21-1.52c-.11-2.31-.2-4.62-.31-6.93,0-.36-.1-.72-.15-1.07l-.2,0c-.28,1.2-.65,2.37-.82,3.58A22.68,22.68,0,0,1,5.09,33.7a1.07,1.07,0,0,1-1.9.27,23.21,23.21,0,0,1-1.13-2.23c-.17.61-.3,1.2-.5,1.77-.06.19-.32.46-.46.45S.7,33.7.59,33.51Z" transform="translate(-0.25 -0.25)"/></g></g></svg>