<svg xmlns="http://www.w3.org/2000/svg" viewBox="0 0 67.78 60.27"><title>lifeline-icon</title><g id="Layer_2" data-name="Layer 2"><g id="Layer_1-2" data-name="Layer 1"><path d="M24.94,6.6a13.06,13.06,0,0,0-.39,1.49c-.29,2.1-.53,4.21-.81,6.32-.32,2.48-.63,5-1,7.43-.18,1.18-.53,2.33-.75,3.5-.29,1.56-.54,3.13-.78,4.69s-.4,3-.66,4.5q-.6,3.49-1.3,7c-.41,2.06-.9,4.1-1.36,6.16-.2.9-.41,1.81-.62,2.71-.17.67-.67.74-1.25.71s-.65-.42-.66-.91c-.08-2.69-.32-5.38-.26-8.07.09-4.26.27-8.51.69-12.76.32-3.28.29-6.59.34-9.89,0-1.72-.14-3.45-.23-5.17a5.2,5.2,0,0,0-.16-.86l-.18,0c-.19.46-.41.9-.56,1.37-.36,1.18-.66,2.37-1,3.55-.58,1.89-1.25,3.76-1.77,5.68s-.85,3.71-1.29,5.57c-.33,1.37-.66,2.74-1.1,4.08-.09.28-.64.51-1,.57-.21,0-.61-.29-.69-.53a5.93,5.93,0,0,1-.21-1.52c-.11-2.31-.2-4.62-.31-6.93,0-.36-.1-.71-.15-1.07h-.2c-.28,1.19-.65,2.37-.81,3.57a23.43,23.43,0,0,1-1.57,5.72,1.08,1.08,0,0,1-1.91.27A23,23,0,0,1,1.81,31.5c-.16.61-.29,1.2-.49,1.76-.07.19-.32.46-.47.45a.88.88,0,0,1-.51-.45C-.31,32.14.11,31,.45,29.94c.07-.24.15-.49.24-.73.15-.42.28-.83.88-.44.15.09.44,0,.84-.13l1.4,3.22c.29-1.08.56-2.06.81-3C5.1,27,5.53,25.09,6,23.23a7.37,7.37,0,0,1,.69-1.61c.12-.22.2-.49.76-.26a2.43,2.43,0,0,1,1.35,2,15.68,15.68,0,0,1,.3,2.58c0,.52,0,1.06,0,1.59l.17,0a1.87,1.87,0,0,0,.17-.31c.81-2.71,1.6-5.43,2.42-8.14.56-1.86,1.09-3.72,1.75-5.54a5.26,5.26,0,0,1,2-2.87c.31.83.77.37,1.21.13a27.13,27.13,0,0,1,1.13,8,24.51,24.51,0,0,0,.12,3.44,19,19,0,0,1-.18,6.9c-.19,1.16-.36,2.34-.52,3.52a16,16,0,0,0,0,2.08c0,.91.07,1.83,0,2.74s-.32,1.86-.42,2.8a6.18,6.18,0,0,0,.11,1.91c.24-1.15.51-2.3.71-3.46.69-4,1.34-8.07,2-12.1.33-1.89.76-3.76,1.08-5.64.17-1,.19-2,.32-3,.23-1.67.49-3.33.75-5,.4-2.54.81-5.08,1.25-7.62a6.26,6.26,0,0,1,.53-1.74A5,5,0,0,1,24.83,2.4c0,.79.5.58.87.53.36.92.72,1.81,1,2.71a3.54,3.54,0,0,1,.19,1c.07,1.9.09,3.8.18,5.7.05,1,.23,2,.33,3,.12,1.17.22,2.33.31,3.51.2,2.62.44,5.24.55,7.87.05,1.2-.21,2.42-.25,3.63C28,32.12,28,33.85,28,35.57c0,.35-.09.7-.08,1,.07,1.89.17,3.78.23,5.67s.06,3.73.15,5.59c0,.87.23,1.74.34,2.61.07.59.1,1.19.16,1.93.34-2.36.7-4.57,1-6.79.39-3.26.67-6.53,1.08-9.78.22-1.72.67-3.4.93-5.11.23-1.52.35-3.07.5-4.6.25-2.47.52-4.94.71-7.41s.23-5,.44-7.44c.23-2.66.49-5.31.9-7.94A4.63,4.63,0,0,1,35.84.29,2.26,2.26,0,0,1,36.91,0c.54-.09.68.21.8.7.17.66.62,1.26.78,1.92.36,1.48.66,3,.92,4.47s.44,2.92.63,4.38c.05.37,0,.74,0,1.11.07.82.23,1.63.24,2.45a32,32,0,0,1-.16,3.24c-.13,1.3-.32,2.6-.48,3.89-.21,1.67-.49,3.32-.63,5-.08,1,.06,2.07.08,3.1,0,2.41,0,4.82,0,7.23,0,1.46.13,2.91.22,4.37.1,1.69.21,3.37.32,5.05,0,.21,0,.42.07.63h.19c.14-.88.25-1.77.4-2.66.31-1.72.67-3.44,1-5.17.45-2.75.85-5.5,1.26-8.25s.84-5.51,1.23-8.27c.18-1.3.18-2.63.44-3.91.49-2.49.63-5.07,1.7-7.43.18-.39.39-.73,1-.41.23.13.62,0,.88,0a27.19,27.19,0,0,1,1.94,7.46c.09.62.28,1.23.35,1.86.1.89.13,1.79.17,2.69,0,1.08.13,2.16.12,3.25,0,1.62-.09,3.25-.09,4.87,0,1.11.12,2.22.15,3.33,0,.67,0,1.35,0,2a3.12,3.12,0,0,0,.11.61h.18c.08-.26.18-.51.24-.78.4-1.61.79-3.23,1.19-4.84.6-2.43,1.2-4.87,1.83-7.29.26-1,.57-2,.91-2.95.15-.43.36-.93,1-.49.15.1.48,0,.85-.09L57.79,30h.15c.48-.93,1-1.85,1.43-2.78.25-.5.45-1,1.19-.74.18.06.43-.1.7-.17l.66,3.82,2-1.1c0,.38,0,.61,0,.61.63.07.72.76,1.17,1a1.76,1.76,0,0,0,1,.06c.39-.06.75-.29,1.13-.35.2,0,.43.15.65.23-.1.24-.14.64-.3.69a15,15,0,0,1-2.55.62,1.68,1.68,0,0,1-1.41-.36c-.39-.36-.76.07-.88.39-.29.8-1,.42-1.55.64-.1,0-.58-.45-.66-.75-.18-.75-.22-1.53-.48-2.33l-.3,1.06c-.38,1.3-.75,2.59-1.14,3.88,0,.08-.08.21-.14.23-.4.09-.86.32-1.19.2a1.36,1.36,0,0,1-.69-.93c-.33-2.43-.59-4.88-.88-7.32,0-.1,0-.2-.24-.31-.16.61-.34,1.22-.49,1.83-.45,1.89-.93,3.77-1.32,5.66-.46,2.26-.81,4.55-1.26,6.81-.22,1.1-.54,2.18-.84,3.27A9.46,9.46,0,0,1,51,45.16c-.14.31-.36.53-.79.32-.13-.07-.39.12-.59.19-.63-.25-.72-.75-.74-1.4-.06-2.08-.23-4.16-.3-6.24-.08-2.41-.12-4.83-.15-7.24,0-2.72.07-5.44-.13-8.14-.17-2.4-.66-4.77-1-7.15A1.93,1.93,0,0,0,47,15a18.62,18.62,0,0,0-.53,2.07c-.32,2.25-.56,4.5-.88,6.74-.29,2.05-.64,4.08-1,6.13-.06.36,0,.74-.07,1.11-.17,1.46-.27,2.93-.53,4.37-.45,2.59-1,5.15-1.5,7.74-.21,1.15-.19,2.35-.48,3.48a62.21,62.21,0,0,0-.93,6.77c-.29,2-.71,4-1.08,6.07-.1.54-.85.89-1.63.8s-.5-.59-.52-1c-.16-4.19-.27-8.37-.47-12.55-.26-5.5-.64-11-.38-16.51.14-3,.51-6,.91-8.94a35.75,35.75,0,0,0,.09-9.47c-.26-2.14-.48-4.29-.78-6.42A18.06,18.06,0,0,0,36.7,3a3.21,3.21,0,0,0-.37-.57c-.08.75-.13,1.28-.18,1.82-.1,1-.18,2-.3,2.92-.14,1.22-.35,2.43-.43,3.66-.07,1,0,1.94,0,2.91a20.7,20.7,0,0,1-.32,4.33,41.22,41.22,0,0,0-.66,5.73c-.11.89-.11,1.79-.25,2.67-.32,2.18-.7,4.34-1,6.51-.15.9-.26,1.8-.36,2.69-.14,1.23-.24,2.45-.4,3.67-.3,2.47-.67,4.92-.94,7.39-.23,2.13-.32,4.28-.55,6.41-.21,1.88-.49,3.76-.83,5.62a1.74,1.74,0,0,1-1.52,1.41c-.54.11-1-.26-1.07-.95-.22-1.83-.44-3.67-.6-5.52-.23-2.63-.46-5.27-.59-7.91-.15-3.07-.25-6.13-.25-9.2,0-2.4.22-4.8.26-7.2,0-1.58-.07-3.16-.12-4.75,0-1.09,0-2.19-.11-3.28-.13-1.72-.37-3.44-.46-5.17-.14-2.45-.2-4.9-.3-7.36,0-.74-.09-1.48-.14-2.22Z"/></g></g></svg>