<svg xmlns="http://www.w3.org/2000/svg" width="95.602" height="55.924" viewBox="0 0 95.602 55.924">
  <g id="Group_53" data-name="Group 53" transform="translate(-2351.568 -509.581)">
    <path id="Path_156" data-name="Path 156" d="M2356.9,525a14.679,14.679,0,0,0,1.852-1.265,21.228,21.228,0,0,1,3.291-2.028c.65-.379,1.324-.716,1.98-1.085a19.617,19.617,0,0,1,2.651-1.479c1.192-.442,2.072-1.38,3.255-1.814a3.519,3.519,0,0,0,1.251-.717c.343-.321.966-.34,1.388-.671.558-.439,1.324-.4,1.9-.905.357-.316,1.026-.271,1.552-.4a2.166,2.166,0,0,0,.883-.284,4.433,4.433,0,0,1,1.692-.606c.761-.266,1.633-.082,2.349-.618.213-.159.608-.057.911-.12,1.029-.212,2.064-.405,3.077-.679,1.118-.3,2.206-.709,3.32-1.028,1.662-.475,3.318-1.007,5.011-1.332a21.533,21.533,0,0,1,3.168-.058c1.329-.052,2.658-.242,3.983-.207.949.025,1.889-.1,2.829-.117.98-.019,1.936.136,2.9.13a16.951,16.951,0,0,1,2.99.517c1.6.275,3.1,1.11,4.826.784a3.829,3.829,0,0,1,2.859.6,3.261,3.261,0,0,0,.991.345c1.056.275,2.128.5,3.173.806,1.295.384,2.549.922,3.859,1.239a21.391,21.391,0,0,1,5.591,2.287c1.281.732,2.521,1.556,3.858,2.162,2.185.991,3.824,2.663,5.6,4.169a3.168,3.168,0,0,0,.894.552,20.314,20.314,0,0,0,2.123,1.645,2.919,2.919,0,0,0,.787.671,11.452,11.452,0,0,1,2.522,3.444c.129.394.128-.036-.042.327a10.8,10.8,0,0,1-3,3.3,1.374,1.374,0,0,1-1.44-.19,30.876,30.876,0,0,1-3-2.076c-.974-.934-2.064-1.733-3.06-2.777-1.4-.832-1.2-1.024-1.894-1.418-.353-.2-.656-.495-1.019-.671a24.563,24.563,0,0,1-2.7-1.559c-.858.141-1.39-.611-2.158-.79a12,12,0,0,1-2.727-1.1,22.624,22.624,0,0,1-2.676-1.243,6.365,6.365,0,0,0-1.871-.6c-.151-.043-.366.037-.472-.044-1.007-.774-2.307-.414-3.36-.862-1.188-.505-2.444-.709-3.653-1.1a8.291,8.291,0,0,0-2.491-.351,8.583,8.583,0,0,1-1.821-.21,3.677,3.677,0,0,0-1.763-.108,5.111,5.111,0,0,1-1.608-.1,4.744,4.744,0,0,0-2.562,0c-1.04-.481-2.136.068-3.191-.172a2.8,2.8,0,0,0-.674-.036c-1.042.017-2.086,0-3.123.074a15.357,15.357,0,0,0-3.85.484,1.769,1.769,0,0,1-.655.027,2.889,2.889,0,0,0-2.435.852c-.542.572-1.33.444-1.977.72-.579.247-1.187.424-1.777.645a6,6,0,0,1-1.369.523,29.593,29.593,0,0,0-3.564.985c-.861.193-1.68.566-2.53.818-.548.163-1.122.236-1.677.378a15.871,15.871,0,0,0-5.244,2.569c-.391.277-.814.509-1.224.76-1.56.955-3.127,1.9-4.678,2.865-1.33.831-2.67,1.652-3.95,2.556a8.481,8.481,0,0,0-1.915,1.468,5.342,5.342,0,0,1-1.58,1.266c-.252.118-4.634-4.349-4.723-4.586C2352.664,529.279,2353.248,527.854,2356.9,525Z" fill="#fff"/>
    <path id="Path_157" data-name="Path 157" d="M2400.7,565.505c-.731-.033-1.26-.016-1.776-.089-1.158-.164-2.306-.411-3.468-.543a3.66,3.66,0,0,0-1.445.176,8.39,8.39,0,0,1-3.206.388c-1.3-.1-2.568-.352-3.851-.52-.528-.068-1.029-.323-1.557-.41a43.345,43.345,0,0,1-6.87-1.769c-1.263-.43-2.655-.558-3.765-1.4-2.229-.525-4.048-1.956-6.141-2.78-1.188-.468-2.379-.929-3.56-1.414a5.47,5.47,0,0,1-1.018-.552q-3.459-2.387-6.9-4.8c-.815-.574-1.613-1.177-2.383-1.81a11.748,11.748,0,0,1-3.046-3.108c-.579-1.021.793-1.83,1.325-2.539a12.6,12.6,0,0,1,1.6-1.49c1-.753,1.635-.062,2.289.567.557.536,1.159,1.034,1.658,1.619a9.021,9.021,0,0,0,2.326,1.7,29.418,29.418,0,0,1,2.9,1.7,47.753,47.753,0,0,0,7.342,4.435c.994.515,1.986,1.044,2.99,1.543a14.991,14.991,0,0,0,2.449.79,18.465,18.465,0,0,0,2.575.7,8.934,8.934,0,0,0,2.413.435,2.08,2.08,0,0,1,.748.156c1.122.309,2.234.66,3.367.92a2.863,2.863,0,0,0,1.4-.019c.738-.22,1.308.171,1.928.368a3.709,3.709,0,0,0,1.747.243,14.021,14.021,0,0,1,2.707.109c.474.028.95.04,1.421.093.439.05.871.19,1.309.208a6.126,6.126,0,0,0,1.687-.078,7.205,7.205,0,0,1,2.615.008c.427.049.913.368,1.362-.112.1-.113.526.091.8.114a29.127,29.127,0,0,0,3.406.227,5.727,5.727,0,0,0,2.207-.321,26.416,26.416,0,0,1,2.938-.883c.875-.267,1.734-.588,2.612-.845.67-.2,1.357-.336,2.04-.485.77-.169,1.546-.314,2.316-.482a28.721,28.721,0,0,0,2.953-.69c.9-.3,1.8-.614,2.7-.933a10.07,10.07,0,0,0,1.829-.938c.575-.355,3.687-1.285,4.294-1.657.357-.218,2.149-1.381,3.242-1.9a10.639,10.639,0,0,0,2.344-1.2,9.865,9.865,0,0,1,2.74-1.942,19.864,19.864,0,0,0,2.07-1.291,4.363,4.363,0,0,1,.4-.229c.6-.3,1.19-.616,1.8-.886a4.53,4.53,0,0,1,.981-.269c.178-.035.431.082.548-.006.6-.447.5.106.826.506.717.875,1.012,1.59,1.879,2.83a3.556,3.556,0,0,0,.323,1.006.7.7,0,0,1-.225.845c-.313.279-.727.541-.738,1.079,0,.136-.226.3-.381.4-.568.359-1.185.649-1.717,1.052-.723.547-1.569.943-2.221,1.539a11.612,11.612,0,0,1-2.688,1.981,4.969,4.969,0,0,0-.65.537,3.192,3.192,0,0,1-1.351.731,7.1,7.1,0,0,0-1.973,1.034c-.908.521-1.692,1.324-2.864,1.239a.286.286,0,0,0-.181.042c-1.06.813-2.4.865-3.585,1.324-.67.259-1.263.714-1.927,1a20.975,20.975,0,0,1-2.07.687,6.493,6.493,0,0,0-.911.226,16.047,16.047,0,0,1-3.989,1.075c-1.341.26-2.655.657-4,.9-1.025.188-2.078.219-3.116.346-.55.068-1.091.205-1.64.29a9.451,9.451,0,0,1-1.572.185,3.125,3.125,0,0,0-1.953.436,1.1,1.1,0,0,1-.55.022,14.342,14.342,0,0,0-3.964.431,2.81,2.81,0,0,1-.726.041C2401.553,565.331,2400.965,565.107,2400.7,565.505Z" fill="#fff"/>
    <path id="Path_158" data-name="Path 158" d="M2398.247,528.171c.84-.969,1.53-1.817,2.278-2.61a6.315,6.315,0,0,1,2.479-1.368,8.44,8.44,0,0,1,1.7-.538,10.4,10.4,0,0,1,2.63-.071,12.591,12.591,0,0,1,3.164.712,3.869,3.869,0,0,1,1.242.7,16.236,16.236,0,0,1,4.048,6.056,18.839,18.839,0,0,1,.823,4.237.689.689,0,0,1-.17.506,1.444,1.444,0,0,0-.343,1.469,1.91,1.91,0,0,1-.836,2.081c-.832.349-1.144,1.178-1.825,1.644a6.732,6.732,0,0,0-.9.834c-.611.613-1.2,1.247-1.822,1.851-.828.806-1.682,1.586-2.511,2.391-.241.235-.42.534-.658.774-.265.266-.564.5-.85.742-.121.1-.292.177-.359.306-.534,1.023-1.67,1.44-2.331,2.269a16.812,16.812,0,0,1-2.374,1.855,2.99,2.99,0,0,1-3.515.5,17.633,17.633,0,0,1-2.379-1.844c-.171-.137-.3-.343-.488-.436a3.162,3.162,0,0,1-.964-.879c-.779-.907-1.636-1.747-2.459-2.616a1.034,1.034,0,0,1-.235-.3,5.066,5.066,0,0,0-1.677-1.939,9.548,9.548,0,0,1-1.044-1.231c-.67-.813-1.323-1.641-2.012-2.437-.46-.532-.987-1.006-1.453-1.532a8.36,8.36,0,0,1-1.423-2.794,20.4,20.4,0,0,0-.931-2.016,4.052,4.052,0,0,1-.393-2.446,8.492,8.492,0,0,1,.737-2.064,6.772,6.772,0,0,1,2.555-3.143,3.983,3.983,0,0,0,.864-.738,6.87,6.87,0,0,1,2.787-1.551,14.81,14.81,0,0,1,1.461-.579,4.534,4.534,0,0,1,2.187-.043,4.412,4.412,0,0,1,1.959.413,6.936,6.936,0,0,1,1.853,1.95C2397.444,526.876,2397.811,527.476,2398.247,528.171Zm1.572,4.794a3.06,3.06,0,0,1-1.909-.671c-.592-.434-1.158-.91-1.779-1.3a2,2,0,0,0-1.532-.444,1.525,1.525,0,0,1-.929-.139,3.3,3.3,0,0,0-2.87.2c-.3.121-.7.336-.792.6a7.291,7.291,0,0,0-.477,2.138,11.441,11.441,0,0,0,.264,2.393,2.324,2.324,0,0,0,.459,1.141q1.6,1.717,3.3,3.331c.767.726,1.662,1.32,2.408,2.065a6.588,6.588,0,0,0,2.363,1.877c.16.056.274.261.393.41a.4.4,0,0,0,.718-.015,1.851,1.851,0,0,1,.977-.724,4.6,4.6,0,0,0,1.017-.632,18.248,18.248,0,0,1,2.642-2.05,6.84,6.84,0,0,0,1.122-.9c.608-.557,1.156-1.184,1.8-1.7a9.685,9.685,0,0,0,2.865-3.373,1.537,1.537,0,0,0,.165-.681,11.524,11.524,0,0,0-.378-2.8,2.557,2.557,0,0,0-.489-1.217,3.468,3.468,0,0,0-3.877-.5,4.88,4.88,0,0,1-1.095.2,5.129,5.129,0,0,0-1.067.274c-.84.38-1.657.813-2.487,1.217-.225.11-.465.19-.675.274Z" fill="#fff"/>
  </g>
</svg>
