<svg xmlns="http://www.w3.org/2000/svg" viewBox="0 0 63.52 63.21"><defs><style>.cls-1{fill:#3d7bc9;}.cls-2{fill:#97908a;}.cls-3{fill:#ef7961;}.cls-4{fill:#38ac88;}</style></defs><title>media-donts-icon</title><g id="Layer_2" data-name="Layer 2"><g id="Layer_1-2" data-name="Layer 1"><path d="M62.41,14a2.88,2.88,0,0,1,1.34,3.06,44.55,44.55,0,0,1-2.21,9.27c-1.06,3.63-2.12,7.25-3.22,10.86a21.92,21.92,0,0,1-1.41,3.72c-.55,1.05-.18,2.14-.45,3.18a3.66,3.66,0,0,1-.69,1.58c-1.36,1.44-2.81,2.79-4.23,4.16s-3,2.89-4.49,4.3a43.29,43.29,0,0,1-3.91,3.52,59.34,59.34,0,0,1-7.23,5.08c-2.46,1.29-4.57.75-6.59-.65-2.41-1.66-4.69-3.52-7-5.25Q20.2,55.32,18,53.92c-2-1.3-4.08-2.52-6.1-3.81a18.08,18.08,0,0,1-1.52-1.28A26.87,26.87,0,0,0,8.11,47,9.72,9.72,0,0,1,5,44.07a8.57,8.57,0,0,1-.61-1.7,2.35,2.35,0,0,1,.89-1.77,57.79,57.79,0,0,1,8.67-6.49,52.1,52.1,0,0,0,7.35-5.27,43.9,43.9,0,0,1,4.5-3,1.73,1.73,0,0,0,.93-1.34,11,11,0,0,0,.17-1.15,35,35,0,0,1,1.38-8.8,30.53,30.53,0,0,1,1-2.92,41.19,41.19,0,0,0,2.09-8A20.58,20.58,0,0,1,32.16.8a1,1,0,0,1,.65-.45,4.26,4.26,0,0,1,3.11.51,29.71,29.71,0,0,0,6.32,2.39,32.85,32.85,0,0,1,4.63,2.06c1.78.83,3.6,1.59,5.32,2.54,2.38,1.32,4.68,2.77,7,4.18C60.28,12.68,61.32,13.37,62.41,14Zm-2.24,3c.12-.42.12-.67-.27-.9C58,15,56.14,13.79,54.2,12.7,53,12,51.7,11.59,50.49,10.94c-3.2-1.71-6.34-3.55-9.58-5.17a54.12,54.12,0,0,0-5.57-2.12c-.38-.14-.52,0-.59.39-.21,1.19-.39,2.39-.71,3.55-.42,1.57-1,3.09-1.43,4.65-.39,1.37-.71,2.75-1,4.12-.61,2.51-1.22,5-1.8,7.53a.85.85,0,0,0,.29.73c.92.65,1.85,1.29,2.83,1.86,1.56.92,3.16,1.79,4.75,2.66.79.44,1.6.84,2.39,1.27,1.55.82,3.17,1.53,4.62,2.49a71.07,71.07,0,0,0,6.55,4.17c1.13.58,2.22,1.23,3.39,1.89.39-1.44.82-2.76,1.09-4.12a45.61,45.61,0,0,1,1.43-6.41c.68-1.94,1.11-4,1.63-5.95C59.22,20.67,59.66,18.84,60.17,17ZM55.11,43.8,55,43.69a5.34,5.34,0,0,0-.48.35l-5,4.37c-1.77,1.56-3.57,3.09-5.31,4.68-.93.84-1.72,1.84-2.66,2.67a69.38,69.38,0,0,1-6.88,5.68,1.54,1.54,0,0,1-2.18,0c-.73-.56-1.49-1.08-2.21-1.64-2.72-2.15-5.81-3.73-8.7-5.62-2-1.32-3.88-2.83-5.78-4.29C14.1,48.62,12.55,47.27,10.9,46,9.52,45,8.06,44,6.63,43c-.15-.1-.31-.17-.46-.26l-.2.09a3.4,3.4,0,0,0,.27.87,9,9,0,0,0,2.9,2.75,29,29,0,0,1,2.37,1.75c1,.8,2,1.67,3.08,2.38s2.47,1.4,3.7,2.12q1.14.67,2.22,1.44c1.26.89,2.51,1.81,3.74,2.73,2.13,1.58,4.19,3.25,6.38,4.73a12.21,12.21,0,0,0,3.06,1.09.92.92,0,0,0,.6-.1A22,22,0,0,0,36.6,61.3c1.34-1,2.64-2,3.94-3,.63-.49,1.21-1,1.81-1.57,1-.87,1.94-1.74,2.9-2.62.36-.32.72-.63,1.06-1,.93-.91,1.84-1.84,2.77-2.75,1.7-1.66,3.44-3.3,5.1-5A7,7,0,0,0,55.11,43.8Zm-.7-1.14L52.1,41.2a1.21,1.21,0,0,0-1.44-.12c-.32.19-.9,0-1.35-.12a4,4,0,0,1-.78-.43l-6.14-3.22c-.85-.44-1.7-.88-2.57-1.3-1.82-.88-3.7-1.67-5.47-2.64-1.09-.6-2-1.56-3.05-2.21a10.19,10.19,0,0,1-1.13-.77,8.6,8.6,0,0,1-1.61-1.58,1.49,1.49,0,0,1-.37-1.57c.22-.57-.29-.73-.59-.92a.85.85,0,0,0-.76,0c-1,.61-2,1.26-3,1.94s-2,1.36-2.86,2.13a40.36,40.36,0,0,1-5.59,4,40.3,40.3,0,0,0-5.64,3.88c-1.3,1.1-2.7,2.09-4.23,3.25.71.4,1.31.7,1.87,1.07,1.12.75,2.25,1.49,3.33,2.29,2.11,1.56,4.18,3.17,6.27,4.75l1.16.9c1.16.91,2.31,1.83,3.54,2.63,2.14,1.4,4.42,2.57,6.57,4,1.61,1,3.1,2.25,4.66,3.36a.72.72,0,0,0,.65.05A21.69,21.69,0,0,0,36,59a59.08,59.08,0,0,0,7.41-6.73,26.69,26.69,0,0,1,2.1-1.87l6.12-5.22C52.5,44.38,53.4,43.56,54.41,42.66Z" transform="translate(-0.25 -0.25)"/><path class="cls-1" d="M59.9,16.13c.39.23.39.48.27.9-.51,1.81-1,3.64-1.43,5.45-.52,2-1,4-1.63,5.95a45.61,45.61,0,0,0-1.43,6.41c-.27,1.36-.7,2.68-1.09,4.12-1.17-.66-2.26-1.31-3.39-1.89a71.07,71.07,0,0,1-6.55-4.17c-1.45-1-3.07-1.67-4.62-2.49-.79-.43-1.6-.83-2.39-1.27-1.59-.87-3.19-1.74-4.75-2.66-1-.57-1.91-1.21-2.83-1.86a.85.85,0,0,1-.29-.73c.58-2.51,1.19-5,1.8-7.53.33-1.37.65-2.75,1-4.12.44-1.56,1-3.08,1.43-4.65.32-1.16.5-2.36.71-3.55.07-.39.21-.53.59-.39a54.12,54.12,0,0,1,5.57,2.12c3.24,1.62,6.38,3.46,9.58,5.17C51.7,11.59,53,12,54.2,12.7,56.14,13.79,58,15,59.9,16.13Z" transform="translate(-0.25 -0.25)"/><path class="cls-2" d="M55,43.69l.16.11a7,7,0,0,1-.93,1.6c-1.66,1.7-3.4,3.34-5.1,5-.93.91-1.84,1.84-2.77,2.75-.34.34-.7.65-1.06,1-1,.88-1.93,1.75-2.9,2.62-.6.53-1.18,1.08-1.81,1.57-1.3,1-2.6,2-3.94,3a22,22,0,0,1-2.31,1.33.92.92,0,0,1-.6.1,12.21,12.21,0,0,1-3.06-1.09c-2.19-1.48-4.25-3.15-6.38-4.73C23,56,21.77,55.07,20.51,54.18q-1.08-.76-2.22-1.44c-1.23-.72-2.52-1.34-3.7-2.12S12.54,49,11.51,48.24a29,29,0,0,0-2.37-1.75,9,9,0,0,1-2.9-2.75A3.4,3.4,0,0,1,6,42.87l.2-.09c.15.09.31.16.46.26C8.06,44,9.52,45,10.9,46c1.65,1.24,3.2,2.59,4.83,3.85,1.9,1.46,3.78,3,5.78,4.29,2.89,1.89,6,3.47,8.7,5.62.72.56,1.48,1.08,2.21,1.64a1.54,1.54,0,0,0,2.18,0,69.38,69.38,0,0,0,6.88-5.68c.94-.83,1.73-1.83,2.66-2.67,1.74-1.59,3.54-3.12,5.31-4.68l5-4.37A5.34,5.34,0,0,1,55,43.69Z" transform="translate(-0.25 -0.25)"/><path class="cls-2" d="M52.1,41.2l2.31,1.46c-1,.9-1.91,1.72-2.83,2.52L45.46,50.4a26.69,26.69,0,0,0-2.1,1.87A59.08,59.08,0,0,1,36,59a21.69,21.69,0,0,1-2.37,1.52.72.72,0,0,1-.65-.05c-1.56-1.11-3.05-2.32-4.66-3.36-2.15-1.38-4.43-2.55-6.57-4-1.23-.8-2.38-1.72-3.54-2.63l.65-.85a8.31,8.31,0,0,0,1.13.72,26.75,26.75,0,0,1,5.44,3.19,1,1,0,0,0,1.62-.5,1.08,1.08,0,0,1,.27-.3c1.11-1,2.23-2,3.33-3a1.33,1.33,0,0,0,.25-.62,3.09,3.09,0,0,0,.06-.58c-.75-.63-1.47-1.25-2.21-1.86-.32-.26-.65-.5-1-.73-1.62-1-3.27-2.05-4.87-3.12h0l.65-1c1.19.8,2.44,1.53,3.69,2.23.63.35,1.38.49,2,.89,1.5,1.05,2.94,2.18,4.4,3.29,1,.72,1.19.72,2.16,0,.4-.31.47-.67.07-1l-.59-.52.6-.48a1.13,1.13,0,0,0,1.26.17c.33-.18.88-.41.63-.89a.67.67,0,0,0-.16-.18l.09-1.47h.21c.22,0,.41-.32.61-.5-.18-.19-.37-.54-.56-.54a6.44,6.44,0,0,0-1.39.28l-1-.5a.65.65,0,0,0,.2,0,3.82,3.82,0,0,0,.81-.71c-.28-.2-.56-.54-.85-.55a5.64,5.64,0,0,0-1.42.27l-1.13-.49a1.36,1.36,0,0,0,.6-.14c.16-.08.38-.27.38-.41a.69.69,0,0,0-.31-.54,12.62,12.62,0,0,0-1.43-.48c-.25.11-.61.17-.65.31l-1.15-.46a1,1,0,0,0,.8-.54.48.48,0,0,0,0-.2L31.5,37a1.49,1.49,0,0,0,.77-.22c.17-.09.37-.34.35-.5s-.2-.63-.36-.65c-.67-.11-1.35-.11-2.18-.16L28.59,35a1,1,0,0,0,.95-.83,2.55,2.55,0,0,0-.08-.28,1.74,1.74,0,0,0-.11-.18l1.27-.17a.68.68,0,0,0,1.07-.13c.1-.15-.07-.54-.2-.77a1.84,1.84,0,0,0-.61-.63,2.22,2.22,0,0,0-.82-.28l.11-1.31a10.19,10.19,0,0,0,1.13.77c1.07.65,2,1.61,3.05,2.21,1.77,1,3.65,1.76,5.47,2.64.87.42,1.72.86,2.57,1.3l6.14,3.22a4,4,0,0,0,.78.43c.45.1,1,.31,1.35.12A1.21,1.21,0,0,1,52.1,41.2ZM50.45,44c.07-.09,0-.36-.08-.47a1.73,1.73,0,0,0-2-.11,1.45,1.45,0,0,0,1.54,1A1.21,1.21,0,0,0,50.45,44Zm-2,1.86a.73.73,0,0,0-.38-.58A6,6,0,0,0,47,45a3.08,3.08,0,0,0-.58.09c-.2.07-.5.16-.54.31a.83.83,0,0,0,.23.61,1.43,1.43,0,0,0,1.84.45A.94.94,0,0,0,48.46,45.9Zm-.56-3c.57-.17.58-.71.06-1a2.25,2.25,0,0,0-2.22,0c.3.34.51.75.82.88A2.15,2.15,0,0,0,47.9,42.88Zm-3,1.86c.2-.16.46-.51.4-.64a1.33,1.33,0,0,0-.67-.58,2.69,2.69,0,0,0-.81-.1l-.11-.14c-.24.21-.67.43-.67.64A1.25,1.25,0,0,0,44.92,44.74Zm.22-4a1,1,0,0,0-.22-.78,1.88,1.88,0,0,0-2.22-.23,2.1,2.1,0,0,0,1.78,1.36C44.72,41.12,45.09,41,45.14,40.79ZM45,47.64a4.2,4.2,0,0,0-.49-.68c-.41-.38-.9-.67-1.29-1.07a3.12,3.12,0,0,0-2.74-1h0c-.11-.28-.14-.7-.35-.81a1.37,1.37,0,0,0-1.59.36c.44.79,1,.92,1.94.45h0c-.14.7.38,1.06.82,1.43.61.51,1.28,1,1.89,1.46.35.3.63.66,1.13.24A3.76,3.76,0,0,1,45,47.64Zm-2.78,1.92c.26-.3.57-.86.08-1.21-.91-.68-1.55-1.79-2.84-1.89-.35,0-.7,0-1.05,0,0,.11-.09.22-.14.32l2,2.15-2,1.74c-.43.39-.42.83.09,1.07a1.57,1.57,0,0,0,1,.11,3.31,3.31,0,0,0,1-.69A14.59,14.59,0,0,0,42.22,49.56Zm-.3-6.66a.6.6,0,0,0,.12-1,2,2,0,0,0-2.42.29c.14.15.26.26.36.38A1.39,1.39,0,0,0,41.92,42.9Zm-.67-3.62a.61.61,0,0,0,.46-.92,2.28,2.28,0,0,0-2.6-.4A2.08,2.08,0,0,0,41.25,39.28Zm-2.42,1.93c.46-.16.57-.59.16-.87a9,9,0,0,0-1.26-.58c-.74.08-1,.27-.84.65A1.84,1.84,0,0,0,38.83,41.21Zm-.94-4.14c.11-.09,0-.64-.14-.84a1.77,1.77,0,0,0-2.42-.07,11.89,11.89,0,0,0,1.58,1.14A1.18,1.18,0,0,0,37.89,37.07Zm.23,11.71c-.83-.49-1.62-.14-2,.9C36.92,50.34,37.84,49.94,38.12,48.78ZM35.89,38.7a1,1,0,0,0-.48-.9,2.1,2.1,0,0,0-2,0c.1.87.74,1.18,1.38,1.39A.84.84,0,0,0,35.89,38.7Zm-3.36-4.53c.64,1.24,1.22,1.51,2.2,1A1.32,1.32,0,0,0,32.53,34.17Z" transform="translate(-0.25 -0.25)"/><path d="M50.37,43.57c.09.11.15.38.08.47a1.21,1.21,0,0,1-.59.47,1.45,1.45,0,0,1-1.54-1A1.73,1.73,0,0,1,50.37,43.57Z" transform="translate(-0.25 -0.25)"/><path d="M48.08,45.32a.73.73,0,0,1,.38.58.94.94,0,0,1-.5.54A1.43,1.43,0,0,1,46.12,46a.83.83,0,0,1-.23-.61c0-.15.34-.24.54-.31A3.08,3.08,0,0,1,47,45,6,6,0,0,1,48.08,45.32Z" transform="translate(-0.25 -0.25)"/><path d="M48,41.87c.52.3.51.84-.06,1a2.15,2.15,0,0,1-1.34-.13c-.31-.13-.52-.54-.82-.88A2.25,2.25,0,0,1,48,41.87Z" transform="translate(-0.25 -0.25)"/><path d="M45.32,44.1c.06.13-.2.48-.4.64a1.25,1.25,0,0,1-1.86-.82c0-.21.43-.43.67-.64l.11.14a2.69,2.69,0,0,1,.81.1A1.33,1.33,0,0,1,45.32,44.1Z" transform="translate(-0.25 -0.25)"/><path d="M44.92,40a1,1,0,0,1,.22.78c0,.17-.42.33-.66.35a2.1,2.1,0,0,1-1.78-1.36A1.88,1.88,0,0,1,44.92,40Z" transform="translate(-0.25 -0.25)"/><path d="M44.51,47a4.2,4.2,0,0,1,.49.68,3.76,3.76,0,0,0-.68.39c-.5.42-.78.06-1.13-.24-.61-.51-1.28-.95-1.89-1.46-.44-.37-1-.73-.82-1.43a3.12,3.12,0,0,1,2.74,1C43.61,46.29,44.1,46.58,44.51,47Z" transform="translate(-0.25 -0.25)"/><path d="M42.3,48.35c.49.35.18.91-.08,1.21a14.59,14.59,0,0,1-1.74,1.59,3.31,3.31,0,0,1-1,.69,1.57,1.57,0,0,1-1-.11c-.51-.24-.52-.68-.09-1.07l2-1.74-2-2.15c0-.1.09-.21.14-.32.35,0,.7,0,1.05,0C40.75,46.56,41.39,47.67,42.3,48.35Z" transform="translate(-0.25 -0.25)"/><path d="M42,41.85a.6.6,0,0,1-.12,1A1.39,1.39,0,0,1,40,42.52c-.1-.12-.22-.23-.36-.38A2,2,0,0,1,42,41.85Z" transform="translate(-0.25 -0.25)"/><path d="M41.71,38.36a.61.61,0,0,1-.46.92A2.08,2.08,0,0,1,39.11,38,2.28,2.28,0,0,1,41.71,38.36Z" transform="translate(-0.25 -0.25)"/><path d="M40.48,44.89h0Z" transform="translate(-0.25 -0.25)"/><polygon points="40.22 44.65 40.21 44.66 40.21 44.65 40.22 44.65"/><path d="M40.11,44.09c.21.11.24.53.35.81-.94.47-1.5.34-1.94-.45A1.37,1.37,0,0,1,40.11,44.09Z" transform="translate(-0.25 -0.25)"/><path d="M39,40.34c.41.28.3.71-.16.87a1.84,1.84,0,0,1-1.94-.8c-.19-.38.1-.57.84-.65A9,9,0,0,1,39,40.34Z" transform="translate(-0.25 -0.25)"/><path d="M37.75,36.23c.17.2.25.75.14.84a1.18,1.18,0,0,1-1,.23,11.89,11.89,0,0,1-1.58-1.14A1.77,1.77,0,0,1,37.75,36.23Z" transform="translate(-0.25 -0.25)"/><path d="M37.86,42.79c.19,0,.38.35.56.54-.2.18-.39.48-.61.5H37.6a1.22,1.22,0,0,1-1.13-.77A6.44,6.44,0,0,1,37.86,42.79Z" transform="translate(-0.25 -0.25)"/><path d="M37.67,45.49c.25.48-.3.71-.63.89a1.13,1.13,0,0,1-1.26-.17,1.59,1.59,0,0,1-.52-.78,5.71,5.71,0,0,1,1.4-.41,1.43,1.43,0,0,1,.85.29A.67.67,0,0,1,37.67,45.49Z" transform="translate(-0.25 -0.25)"/><path class="cls-2" d="M37.6,43.84l-.09,1.47a1.43,1.43,0,0,0-.85-.29,5.71,5.71,0,0,0-1.4.41,1.59,1.59,0,0,0,.52.78l-.6.48c-.6-.52-1.2-1-1.82-1.52-.84-.64-1.73-1.21-2.6-1.81l.09-.18h.33c.49,0,.93-.13,1-.64s-.31-.77-.83-.85a1.64,1.64,0,0,0-1.51.41c.14.25.26.48.5.9a8.27,8.27,0,0,0-3.12-1.11c-.7-.06-1.38-.79-2-1.31-.91-.75-1.39-.85-2.63.07a4.85,4.85,0,0,0,.94,1.19l-.65,1-.14-.09a1.09,1.09,0,0,0-1.37-.08c-1,.67-2,1.31-3,2-.82.61-1.57,1.32-2.4,2a16.64,16.64,0,0,0,2.88,3l-.65.85L17,49.63c-2.09-1.58-4.16-3.19-6.27-4.75-1.08-.8-2.21-1.54-3.33-2.29-.56-.37-1.16-.67-1.87-1.07,1.53-1.16,2.93-2.15,4.23-3.25a40.3,40.3,0,0,1,5.64-3.88,40.36,40.36,0,0,0,5.59-4c.91-.77,1.88-1.45,2.86-2.13s2-1.33,3-1.94a.85.85,0,0,1,.76,0c.3.19.81.35.59.92a1.49,1.49,0,0,0,.37,1.57,8.6,8.6,0,0,0,1.61,1.58l-.11,1.31a1.26,1.26,0,0,0-.91.37c.5.5,1,1,1.47,1.44l-1.27.17A1.79,1.79,0,0,0,27,33.3a.57.57,0,0,0-.08.54,6.64,6.64,0,0,0,1.31,1,.61.61,0,0,0,.32.08l1.49.51C30.56,36.5,31,37,31.5,37l-.16,1.58c0-.26-.23-.48-.59-.56a1.7,1.7,0,0,0-1.7.37,1.43,1.43,0,0,0,1.45.93l1.15.46a1,1,0,0,0,.23.7,1.49,1.49,0,0,0,1.18.56l1.13.49a1.64,1.64,0,0,0,1.26,1l1,.5A1.22,1.22,0,0,0,37.6,43.84Zm-2.69.2c-.54-.72-1.29-.75-2.08-.11C33.23,45,34.06,45,34.91,44Zm-6-3.65c.06-.09-.22-.52-.43-.65a1.7,1.7,0,0,0-2,.23A2.21,2.21,0,0,0,28.14,41C28.69,41.11,28.76,40.66,28.93,40.39ZM28.58,37c.08-.13-.17-.6-.38-.75a2,2,0,0,0-2.2.22c.62.9.76,1,1.75,1.05A1.23,1.23,0,0,0,28.58,37Zm0-6.26c-.23-.23-.47-.44-.69-.66a3.85,3.85,0,0,0-.64-.69,2.08,2.08,0,0,0-.94-.3.71.71,0,0,0-.53.33c-.06.11.07.4.19.53A6.43,6.43,0,0,0,27.28,31,.87.87,0,0,0,28.58,30.71Zm-2.7,2c.55,0,.76-.25.55-.79A2.3,2.3,0,0,0,24,31a.6.6,0,0,0-.08.58C24.47,32.15,24.78,33.14,25.88,32.7Zm.07,6c.42-.27.33-.49,0-.74-.6-.48-1.14-.47-2,0C24.56,38.91,25.24,39.11,26,38.66Zm-.37-3.14c-.08-.36,0-.83-.25-1.06a22.15,22.15,0,0,0-2-1.85,1.52,1.52,0,0,0-2.26.4c1.2.88,2.35,1.76,3.55,2.57C24.82,35.72,25.25,35.54,25.58,35.52ZM24.13,37a2.45,2.45,0,0,0-.33-.77c-.63-.65-1.31-1.25-2-1.87a2.19,2.19,0,0,0-2.62,0,6.11,6.11,0,0,0,.49.52c.73.63,1.47,1.24,2.22,1.85.44.36.77,1.08,1.54.52A2.55,2.55,0,0,1,24.13,37Zm-2,2.32c.06-.11-.17-.45-.34-.62-.62-.63-1.25-1.26-1.93-1.83a9,9,0,0,0-1.77-1.25c-.28-.13-.74.11-1.12.19.09.25.11.57.27.73.95.92,1.91,1.84,2.91,2.7a6.46,6.46,0,0,0,1.29.64C21.74,39.71,22.05,39.58,22.17,39.35Z" transform="translate(-0.25 -0.25)"/><path d="M36.1,49.68c.4-1,1.19-1.39,2-.9C37.84,49.94,36.92,50.34,36.1,49.68Z" transform="translate(-0.25 -0.25)"/><path d="M35.41,37.8a1,1,0,0,1,.48.9.84.84,0,0,1-1.15.45c-.64-.21-1.28-.52-1.38-1.39A2.1,2.1,0,0,1,35.41,37.8Z" transform="translate(-0.25 -0.25)"/><path d="M35.77,47.21c.4.35.33.71-.07,1-1,.75-1.21.75-2.16,0-1.46-1.11-2.9-2.24-4.4-3.29-.58-.4-1.33-.54-2-.89-1.25-.7-2.5-1.43-3.69-2.23a4.85,4.85,0,0,1-.94-1.19c1.24-.92,1.72-.82,2.63-.07.62.52,1.3,1.25,2,1.31A8.27,8.27,0,0,1,30.3,43c-.24-.42-.36-.65-.5-.9a1.64,1.64,0,0,1,1.51-.41c.52.08.85.39.83.85s-.47.68-1,.64h-.33l-.09.18c.87.6,1.76,1.17,2.6,1.81.62.48,1.22,1,1.82,1.52Z" transform="translate(-0.25 -0.25)"/><path d="M36.46,41.82a3.82,3.82,0,0,1-.81.71.65.65,0,0,1-.2,0,1.64,1.64,0,0,1-1.26-1,5.64,5.64,0,0,1,1.42-.27C35.9,41.28,36.18,41.62,36.46,41.82Z" transform="translate(-0.25 -0.25)"/><path d="M32.83,43.93c.79-.64,1.54-.61,2.08.11C34.06,45,33.23,45,32.83,43.93Z" transform="translate(-0.25 -0.25)"/><path d="M34.73,35.19c-1,.49-1.56.22-2.2-1A1.32,1.32,0,0,1,34.73,35.19Z" transform="translate(-0.25 -0.25)"/><path d="M33.73,40a.69.69,0,0,1,.31.54c0,.14-.22.33-.38.41a1.36,1.36,0,0,1-.6.14,1.49,1.49,0,0,1-1.18-.56,1,1,0,0,1-.23-.7c0-.14.4-.2.65-.31A12.62,12.62,0,0,1,33.73,40Z" transform="translate(-0.25 -0.25)"/><path d="M32.62,36.29c0,.16-.18.41-.35.5a1.49,1.49,0,0,1-.77.22c-.54,0-.94-.51-1.42-1.53.83.05,1.51.05,2.18.16C32.42,35.66,32.6,36.05,32.62,36.29Z" transform="translate(-0.25 -0.25)"/><path d="M31.49,32.61c.13.23.3.62.2.77a.68.68,0,0,1-1.07.13c-.51-.44-1-.94-1.47-1.44a1.26,1.26,0,0,1,.91-.37,2.22,2.22,0,0,1,.82.28A1.84,1.84,0,0,1,31.49,32.61Z" transform="translate(-0.25 -0.25)"/><path d="M31.34,38.59a.48.48,0,0,1,0,.2,1,1,0,0,1-.8.54,1.43,1.43,0,0,1-1.45-.93,1.7,1.7,0,0,1,1.7-.37C31.11,38.11,31.34,38.33,31.34,38.59Z" transform="translate(-0.25 -0.25)"/><path d="M30.91,48.54a3.09,3.09,0,0,1-.06.58,1.33,1.33,0,0,1-.25.62c-1.1,1-2.22,2-3.33,3a1.08,1.08,0,0,0-.27.3,1,1,0,0,1-1.62.5,26.75,26.75,0,0,0-5.44-3.19,8.31,8.31,0,0,1-1.13-.72,16.64,16.64,0,0,1-2.88-3c.83-.71,1.58-1.42,2.4-2,1-.72,2-1.36,3-2a1.09,1.09,0,0,1,1.37.08l.14.09h0c1.6,1.07,3.25,2.08,4.87,3.12.34.23.67.47,1,.73C29.44,47.29,30.16,47.91,30.91,48.54Zm-1.19.62a23.19,23.19,0,0,0-2.12-1.9c-1.66-1.17-3.38-2.24-5.06-3.39a1,1,0,0,0-1.42,0c-1.19,1-2.46,1.82-3.75,2.75a14.54,14.54,0,0,0,4.85,3.71c1.15.54,2.24,1.22,3.37,1.81.18.1.53.18.64.08C27.41,51.23,28.56,50.19,29.72,49.16Z" transform="translate(-0.25 -0.25)"/><path d="M29.46,33.86a2.55,2.55,0,0,1,.08.28,1,1,0,0,1-.95.83.61.61,0,0,1-.32-.08,6.64,6.64,0,0,1-1.31-1A.57.57,0,0,1,27,33.3a1.79,1.79,0,0,1,2.31.38A1.74,1.74,0,0,1,29.46,33.86Z" transform="translate(-0.25 -0.25)"/><path d="M28.5,39.74c.21.13.49.56.43.65-.17.27-.24.72-.79.65A2.21,2.21,0,0,1,26.46,40,1.7,1.7,0,0,1,28.5,39.74Z" transform="translate(-0.25 -0.25)"/><path d="M28.2,36.22c.21.15.46.62.38.75a1.23,1.23,0,0,1-.83.52c-1,0-1.13-.15-1.75-1.05A2,2,0,0,1,28.2,36.22Z" transform="translate(-0.25 -0.25)"/><path d="M27.89,30.05c.22.22.46.43.69.66a.87.87,0,0,1-1.3.3A6.43,6.43,0,0,1,26,29.92c-.12-.13-.25-.42-.19-.53a.71.71,0,0,1,.53-.33,2.08,2.08,0,0,1,.94.3A3.85,3.85,0,0,1,27.89,30.05Z" transform="translate(-0.25 -0.25)"/><path class="cls-2" d="M27.6,47.26a23.19,23.19,0,0,1,2.12,1.9c-1.16,1-2.31,2.07-3.49,3.07-.11.1-.46,0-.64-.08-1.13-.59-2.22-1.27-3.37-1.81a14.54,14.54,0,0,1-4.85-3.71c1.29-.93,2.56-1.79,3.75-2.75a1,1,0,0,1,1.42,0C24.22,45,25.94,46.09,27.6,47.26Z" transform="translate(-0.25 -0.25)"/><path d="M26.43,31.91c.21.54,0,.83-.55.79-1.1.44-1.41-.55-1.94-1.1A.6.6,0,0,1,24,31,2.3,2.3,0,0,1,26.43,31.91Z" transform="translate(-0.25 -0.25)"/><path d="M26,37.92c.31.25.4.47,0,.74-.71.45-1.39.25-2-.69C24.83,37.45,25.37,37.44,26,37.92Z" transform="translate(-0.25 -0.25)"/><path class="cls-3" d="M25.4,18.57c.36.45.24.81-.25,1.11-.71.45-1.11.47-1.59,0C22.71,18.8,21.88,17.91,21,17c-.17-.18-.35-.34-.7-.67-.26,1.18-.48,2.15-.69,3.13s-.4,1.87-.55,2.81-.2,2-.42,3a3.56,3.56,0,0,1-.83,1.39,1,1,0,0,1-.87.13c-.14,0-.24-.48-.21-.73.12-1.25.23-2.51.45-3.74.4-2.25.83-4.51,1.36-6.73a1.26,1.26,0,0,0-.52-1.43c-1.32-1.21-2.59-2.45-3.85-3.64.54-1.16,1.37-1.31,2.2-.53s1.89,1.7,2.91,2.63a5.81,5.81,0,0,0,.29-.8c.34-1.42.63-2.86,1-4.28a4,4,0,0,1,1.43-2.35,2.19,2.19,0,0,1,.74-.2,6.17,6.17,0,0,0,.1.62,3.82,3.82,0,0,1-.26,2c-.52,1.89-.95,3.81-1.46,5.71a1.17,1.17,0,0,0,.44,1.31c.9.85,1.78,1.73,2.66,2.62C24.67,17.68,25,18.12,25.4,18.57Z" transform="translate(-0.25 -0.25)"/><path d="M25.33,34.46c.21.23.17.7.25,1.06-.33,0-.76.2-1,.06-1.2-.81-2.35-1.69-3.55-2.57a1.52,1.52,0,0,1,2.26-.4A22.15,22.15,0,0,1,25.33,34.46Z" transform="translate(-0.25 -0.25)"/><path d="M23.8,36.26a2.45,2.45,0,0,1,.33.77,2.55,2.55,0,0,0-.67.24c-.77.56-1.1-.16-1.54-.52-.75-.61-1.49-1.22-2.22-1.85a6.11,6.11,0,0,1-.49-.52,2.19,2.19,0,0,1,2.62,0C22.49,35,23.17,35.61,23.8,36.26Z" transform="translate(-0.25 -0.25)"/><path d="M21.83,38.73c.17.17.4.51.34.62s-.43.36-.69.56a6.46,6.46,0,0,1-1.29-.64c-1-.86-2-1.78-2.91-2.7-.16-.16-.18-.48-.27-.73.38-.08.84-.32,1.12-.19A9,9,0,0,1,19.9,36.9C20.58,37.47,21.21,38.1,21.83,38.73Z" transform="translate(-0.25 -0.25)"/><path class="cls-4" d="M9.79,11.63c.69.3.68.82.59,1.47-.25,1.85-.34,3.73-.62,5.58-.5,3.3-1.12,6.57-1.64,9.86-.3,1.88-.45,3.78-.77,5.65a1.62,1.62,0,0,1-.9,1A1.6,1.6,0,0,1,5.13,35c-1-.88-2-1.86-3-2.83-.66-.66-1.27-1.37-1.9-2.06C1,28.84,1.84,29.21,2.7,30S4.56,31.8,5.58,32.8c.06-.38.12-.72.18-1.06.36-1.91.76-3.82,1.08-5.73s.59-3.89.85-5.84c.3-2.33.56-4.67.86-7C8.64,12.4,9,11.77,9.79,11.63Z" transform="translate(-0.25 -0.25)"/></g></g></svg>