<svg xmlns="http://www.w3.org/2000/svg" viewBox="0 0 3.27 2.83"><defs><style>.cls-1{fill:#bbbdbf;}</style></defs><title>nav-heart</title><g id="Layer_2" data-name="Layer 2"><g id="Layer_1-2" data-name="Layer 1"><path class="cls-1" d="M1.51.45A3,3,0,0,1,1.72.2.84.84,0,0,1,2,.06l.17,0h.25a1.33,1.33,0,0,1,.3.06A.35.35,0,0,1,2.8.14a1.53,1.53,0,0,1,.39.58,1.56,1.56,0,0,1,.08.41,0,0,0,0,1,0,.05.15.15,0,0,0,0,.14c0,.07,0,.18-.08.2S3,1.64,3,1.68l-.09.08-.17.18-.25.23-.06.07-.08.08s0,0,0,0-.16.13-.22.21a1.3,1.3,0,0,1-.23.18.27.27,0,0,1-.34,0c-.08,0-.15-.12-.23-.18l0,0a.39.39,0,0,1-.1-.08C1.05,2.4,1,2.32.89,2.23l0,0A.38.38,0,0,0,.7,2S.64,1.94.6,1.9a2.11,2.11,0,0,0-.19-.23L.27,1.52a1,1,0,0,1-.14-.27A1.76,1.76,0,0,0,0,1.05.45.45,0,0,1,0,.82,1.19,1.19,0,0,1,.08.62.59.59,0,0,1,.32.32L.4.25A.66.66,0,0,1,.67.1L.81,0A.37.37,0,0,1,1,0a.41.41,0,0,1,.19,0,.55.55,0,0,1,.18.19S1.46.38,1.51.45Zm.15.46A.32.32,0,0,1,1.47.84L1.3.72a.16.16,0,0,0-.15,0,.16.16,0,0,1-.09,0,.32.32,0,0,0-.27,0S.72.71.71.74A.78.78,0,0,0,.67,1a.93.93,0,0,0,0,.23.27.27,0,0,0,.05.11l.31.32c.08.07.16.12.24.2A.76.76,0,0,0,1.51,2s0,0,0,0,.06,0,.07,0S1.68,2,1.71,2a.21.21,0,0,0,.1-.06,1.24,1.24,0,0,1,.26-.19l.1-.09.18-.16a.87.87,0,0,0,.27-.33.14.14,0,0,0,0-.06,1.1,1.1,0,0,0,0-.27.34.34,0,0,0,0-.12A.35.35,0,0,0,2.18.62s-.07,0-.1,0L2,.67,1.74.78l-.07,0Z"/></g></g></svg>