<svg xmlns="http://www.w3.org/2000/svg" viewBox="0 0 50.95 29.8"><defs><style>.cls-1{fill:#ee694e;}</style></defs><title>orange-logo</title><g id="Layer_2" data-name="Layer 2"><g id="Layer_1-2" data-name="Layer 1"><path class="cls-1" d="M2.84,8.22a8.27,8.27,0,0,0,1-.68A11.91,11.91,0,0,1,5.58,6.46l1.06-.58a11.51,11.51,0,0,1,1.41-.79c.64-.23,1.1-.73,1.73-1a1.87,1.87,0,0,0,.67-.38c.18-.18.52-.19.74-.36s.71-.21,1-.48.55-.15.83-.22a1.13,1.13,0,0,0,.47-.15,2.32,2.32,0,0,1,.9-.32c.41-.14.87-.05,1.25-.33.12-.09.33,0,.49-.07.55-.11,1.1-.21,1.64-.36S19,1.08,19.55.91C20.44.66,21.32.38,22.22.2a11.84,11.84,0,0,1,1.69,0C24.62.15,25.32,0,26,.06c.51,0,1,0,1.51-.06s1,.07,1.55.07a8.69,8.69,0,0,1,1.59.28,7,7,0,0,0,2.57.41,2,2,0,0,1,1.52.33,2,2,0,0,0,.53.18c.57.15,1.14.26,1.69.43s1.36.49,2.06.66a11.4,11.4,0,0,1,3,1.22,23,23,0,0,0,2.06,1.15,13.52,13.52,0,0,1,3,2.22,1.84,1.84,0,0,0,.48.3,10.92,10.92,0,0,0,1.13.87,1.61,1.61,0,0,0,.42.36,6,6,0,0,1,1.34,1.84c.07.21.07,0,0,.17a5.82,5.82,0,0,1-1.6,1.76.73.73,0,0,1-.76-.1A16.26,16.26,0,0,1,46.46,11c-.52-.5-1.1-.92-1.63-1.48-.74-.44-.64-.54-1-.75-.19-.11-.35-.27-.54-.36a12.81,12.81,0,0,1-1.44-.83c-.46.07-.74-.33-1.15-.42a6.57,6.57,0,0,1-1.46-.59A11.38,11.38,0,0,1,37.81,6a3.55,3.55,0,0,0-1-.32c-.08,0-.2,0-.25,0-.54-.41-1.23-.22-1.79-.46s-1.31-.38-2-.59a4.5,4.5,0,0,0-1.33-.19,4.58,4.58,0,0,1-1-.11,2.11,2.11,0,0,0-.94-.06,2.47,2.47,0,0,1-.85,0,2.65,2.65,0,0,0-1.37,0c-.55-.25-1.14,0-1.7-.09a1.43,1.43,0,0,0-.36,0c-.55,0-1.11,0-1.66,0a8.29,8.29,0,0,0-2.05.26,1,1,0,0,1-.35,0,1.53,1.53,0,0,0-1.3.46c-.29.3-.71.23-1.06.38s-.63.23-.94.34a2.74,2.74,0,0,1-.73.28,15.25,15.25,0,0,0-1.9.53c-.46.1-.9.3-1.35.43-.29.09-.6.13-.89.21a8.57,8.57,0,0,0-2.8,1.36c-.21.15-.43.28-.65.41-.83.51-1.67,1-2.49,1.53S5.7,11.16,5,11.64a4.6,4.6,0,0,0-1,.78,3.07,3.07,0,0,1-.84.68A20.73,20.73,0,0,1,.64,10.65C.58,10.5.9,9.74,2.84,8.22Z"/><path class="cls-1" d="M26.18,29.8c-.39,0-.67,0-.95,0-.61-.09-1.22-.22-1.84-.29a1.84,1.84,0,0,0-.77.09,4.68,4.68,0,0,1-1.71.21c-.7-.06-1.37-.19-2.05-.28-.29,0-.55-.17-.83-.22a24.39,24.39,0,0,1-3.67-.94,6.54,6.54,0,0,1-2-.75A24.06,24.06,0,0,1,9.09,26.1l-1.9-.76a2.16,2.16,0,0,1-.54-.29Q4.81,23.78,3,22.49c-.44-.3-.86-.63-1.27-1A6.27,6.27,0,0,1,.07,19.87c-.3-.54.43-1,.71-1.35a7.13,7.13,0,0,1,.85-.8c.53-.4.88,0,1.22.31a12,12,0,0,1,.89.86,4.61,4.61,0,0,0,1.24.9,16.84,16.84,0,0,1,1.54.91,25.55,25.55,0,0,0,3.91,2.36c.53.28,1.06.56,1.6.83a7.9,7.9,0,0,0,1.3.42,11.25,11.25,0,0,0,1.38.37,4.66,4.66,0,0,0,1.28.23,1.16,1.16,0,0,1,.4.09c.6.16,1.19.35,1.79.49a1.72,1.72,0,0,0,.75,0c.39-.12.7.09,1,.19a1.94,1.94,0,0,0,.93.13,7.75,7.75,0,0,1,1.44.06c.26,0,.51,0,.76.05s.46.1.7.11a3.38,3.38,0,0,0,.9,0,3.82,3.82,0,0,1,1.39,0c.23,0,.49.2.73-.06.05-.06.28,0,.42.06a14,14,0,0,0,1.82.12,2.89,2.89,0,0,0,1.18-.17,15.66,15.66,0,0,1,1.56-.47c.47-.14.93-.31,1.39-.45s.73-.18,1.09-.26l1.23-.25c.53-.12,1.07-.2,1.58-.37l1.43-.5a5.32,5.32,0,0,0,1-.5c.31-.19,2-.68,2.29-.88a18.1,18.1,0,0,1,1.73-1,6.06,6.06,0,0,0,1.24-.64,5.23,5.23,0,0,1,1.47-1,10,10,0,0,0,1.1-.69l.21-.12c.32-.16.63-.33,1-.47a2.35,2.35,0,0,1,.52-.14c.1,0,.23,0,.3,0,.31-.23.26.06.44.27.38.47.53.85,1,1.51a1.61,1.61,0,0,0,.17.54.39.39,0,0,1-.12.45c-.17.15-.39.29-.39.57,0,.08-.12.16-.21.21-.3.19-.63.35-.91.56s-.84.51-1.19.82a6.17,6.17,0,0,1-1.43,1.06c-.13.06-.22.2-.34.29a1.8,1.8,0,0,1-.72.39,3.7,3.7,0,0,0-1.06.55c-.48.27-.9.7-1.52.66a.18.18,0,0,0-.1,0,7.2,7.2,0,0,1-1.91.71c-.36.13-.67.38-1,.53a10.1,10.1,0,0,1-1.1.36,3.37,3.37,0,0,0-.48.12,8.42,8.42,0,0,1-2.13.58c-.72.13-1.42.35-2.13.48-.55.1-1.11.11-1.66.18-.29,0-.58.11-.88.16a4.58,4.58,0,0,1-.83.09,1.67,1.67,0,0,0-1,.24.61.61,0,0,1-.3,0,7.51,7.51,0,0,0-2.11.23,1.7,1.7,0,0,1-.39,0C26.64,29.71,26.32,29.59,26.18,29.8Z"/><path class="cls-1" d="M24.88,9.91c.44-.52.81-1,1.21-1.39a3.37,3.37,0,0,1,1.32-.73,4.37,4.37,0,0,1,.91-.29,5.45,5.45,0,0,1,1.4,0,6.83,6.83,0,0,1,1.68.38,2.12,2.12,0,0,1,.67.38,8.65,8.65,0,0,1,2.15,3.22,9.82,9.82,0,0,1,.44,2.26.38.38,0,0,1-.09.27.75.75,0,0,0-.18.78,1,1,0,0,1-.45,1.11c-.44.19-.61.63-1,.88a3.34,3.34,0,0,0-.48.44c-.33.33-.64.67-1,1s-.9.84-1.34,1.27c-.13.13-.22.29-.35.42s-.3.26-.45.39-.16.1-.19.16c-.29.55-.89.77-1.25,1.21a8.44,8.44,0,0,1-1.26,1,1.59,1.59,0,0,1-1.87.27,10,10,0,0,1-1.27-1,1.45,1.45,0,0,0-.26-.24,1.66,1.66,0,0,1-.52-.47c-.41-.48-.87-.93-1.31-1.39a.61.61,0,0,1-.12-.16,2.77,2.77,0,0,0-.89-1,5,5,0,0,1-.56-.66l-1.07-1.3c-.25-.28-.53-.53-.78-.81a4.67,4.67,0,0,1-.76-1.49,11.57,11.57,0,0,0-.49-1.08,2.11,2.11,0,0,1-.21-1.3,4.37,4.37,0,0,1,.39-1.1,3.67,3.67,0,0,1,1.36-1.68,1.91,1.91,0,0,0,.46-.39A3.72,3.72,0,0,1,20.27,8c.26-.1.5-.22.78-.3a2.29,2.29,0,0,1,1.16,0c.35.07.72,0,1.05.22a3.73,3.73,0,0,1,1,1C24.45,9.22,24.64,9.54,24.88,9.91Zm.83,2.55a1.56,1.56,0,0,1-1-.36c-.32-.23-.62-.48-.95-.69a1.07,1.07,0,0,0-.82-.23.84.84,0,0,1-.49-.08,1.75,1.75,0,0,0-1.53.11c-.16.07-.37.18-.42.32a4.18,4.18,0,0,0-.26,1.14,6.86,6.86,0,0,0,.14,1.27,1.24,1.24,0,0,0,.25.61c.56.61,1.15,1.21,1.76,1.78.41.39.88.7,1.28,1.1a3.52,3.52,0,0,0,1.26,1c.08,0,.14.14.21.22a.22.22,0,0,0,.38,0,1,1,0,0,1,.52-.39,2.69,2.69,0,0,0,.54-.33A10.06,10.06,0,0,1,28,16.82a3,3,0,0,0,.6-.48c.32-.29.62-.63,1-.9a5.19,5.19,0,0,0,1.52-1.8.77.77,0,0,0,.09-.36,5.89,5.89,0,0,0-.2-1.5,1.36,1.36,0,0,0-.26-.64,1.86,1.86,0,0,0-2.07-.27A2.71,2.71,0,0,1,28,11a3.65,3.65,0,0,0-.57.14c-.45.21-.88.44-1.32.65-.12.06-.25.1-.36.15Z"/></g></g></svg>