<svg xmlns="http://www.w3.org/2000/svg" viewBox="0 0 65.61 68.36"><title>partner-contacts-icon</title><g id="Layer_2" data-name="Layer 2"><g id="Layer_1-2" data-name="Layer 1"><path d="M3.59,51.83c.62.19,1.25.35,1.85.56C7.06,53,8.53,54,10.37,53.83l1.06-.11.06-.34c-1.45-.44-2.89-.94-4.35-1.32S4,51.36,2.46,51c-1-.23-1.34-1.11-.88-2.16.35-.81.72-1.6,1.13-2.48A2.5,2.5,0,0,1,.25,44.77,2.72,2.72,0,0,1,.55,42a5.83,5.83,0,0,1,4.7-2.76A1.06,1.06,0,0,0,6,38.86c.39-.65,1-1.26.85-2.08-.35.1-.61.28-.81.23-1.88-.53-3.95-3.42-3.18-5.15A6.65,6.65,0,0,1,7.34,27.8a30.93,30.93,0,0,1,3.35-.39c.25,0,.61-.15.68-.33,1.05-2.69,2.06-5.39,3.08-8.09-1.61-.61-2.78,1-3.23,2.17a10.88,10.88,0,0,1-.47,1.43,1.22,1.22,0,0,1-.83.63A1.28,1.28,0,0,1,9,22.63c-.85-1.32.08-3.84,1.48-4.55a7.29,7.29,0,0,1,3.41-.84,1.89,1.89,0,0,0,1.85-1.3,25.66,25.66,0,0,1,1.85-3.27,11.94,11.94,0,0,0,1.83-4.18A4.89,4.89,0,0,0,15.57,10a3.62,3.62,0,0,1-.61.57c-.55.35-1.73.2-2-.29a1.16,1.16,0,0,1,.53-1.54c1.66-1.19,3.43-2.17,5.57-1.8A1.39,1.39,0,0,0,20.9,5.88c.5-1.42,1.12-2.79,1.67-4.19S23.8-.18,25.3.06A67.69,67.69,0,0,1,37.68,3c2.65.95,5.45,1.45,8.17,2.22,1.87.53,3.71,1.18,5.57,1.74a22.5,22.5,0,0,0,3,.8A28.3,28.3,0,0,1,61.59,10a10.54,10.54,0,0,0,2.81.4c-.69,1.87-1.34,3.65-2,5.49A1.5,1.5,0,0,1,64,17.42c.17,1.71.6,3.4.89,5.1a9.16,9.16,0,0,1,0,1.39c.85.22.89.43.45,1.3-.91,1.83-1.73,3.7-2.61,5.54-1.73,3.66-3.53,7.29-5.19,11-.93,2.09-1.61,4.29-2.43,6.43-1,2.58-2,5.14-3,7.73-.56,1.52-1,3.1-1.55,4.6C50,61.81,49.32,63,48.7,64.31c-.45.94-.91,1.87-1.33,2.83a1.94,1.94,0,0,1-2.21,1.17c-1.43-.32-2.88-.58-4.31-.94-1.79-.46-3.57-1-5.33-1.5-3.93-1.22-7.85-2.49-11.76-3.76-1.19-.39-2.37-.83-3.55-1.25C16.62,59.57,13,58.26,9.43,57c-1.45-.5-3-.8-4.42-1.31a14,14,0,0,1-2.17-1.2L2.93,54a5.61,5.61,0,0,1,1.68,0c3.27,1,6.52,2.09,9.78,3.1a13.53,13.53,0,0,0,1.57.08c.89.15,1.77.34,2.63.57,1.49.4,3,.84,4.44,1.26a6,6,0,0,1,.91.24c2.73,1.33,5.72,1.61,8.62,2.24,1.13.24,2.2.75,3.32,1.06,1.82.49,3.66.9,5.48,1.35a3.22,3.22,0,0,1,.53.26c-.11.84-.57,1.11-1.31.89-2.5-.74-5-1.54-7.48-2.25-1.11-.31-2.26-.45-3.4-.66l-.07.24c.5.18,1,.4,1.51.55,2.31.7,4.62,1.42,7,2.06,1.93.53,3.89,1,5.84,1.42,1.06.23,1.08.16,1.43-1l-1.28.22-.22-.21c.41-.8.79-1.6,1.22-2.38.35-.63.8-1.21,1.14-1.85s.69-1.37,1.68-1.17c.13,0,.38-.21.45-.38.55-1.4,1.08-2.81,1.6-4.22.71-1.92,1.36-3.86,2.1-5.76,1.75-4.44,3.49-8.89,5.33-13.3.71-1.7,1.72-3.28,2.51-5,1-2.07,1.87-4.18,2.79-6.28.19-.43.36-.85.57-1.34l-.61-1.68c-1.08,2.66-2.11,5.24-3.17,7.82-.7,1.7-1.4,3.42-2.17,5.09-1,2.13-2.06,4.21-3.06,6.33-.82,1.75-1.65,3.5-2.38,5.29s-1.43,3.86-2.19,5.77c-.7,1.75-1.44,3.48-2.2,5.2-.63,1.43-1.29,2.84-2,4.25a2.16,2.16,0,0,1-2.88,1,22.32,22.32,0,0,0-2.8-.78c-1-.25-2-.44-2.93-.7-3-.83-6-1.74-9-2.51S22,57.5,19.05,56.72c-2-.54-4-1.3-6-1.94a2.36,2.36,0,0,0-1-.16A11.42,11.42,0,0,1,4.76,53l-1.34-.73Zm-.8-2.19a6.28,6.28,0,0,0,.69.21c2.07.45,4.18.8,6.22,1.38,2.51.71,4.93,1.8,7.46,2.41,3.81.93,7.69,1.52,11.51,2.36,4.34,1,8.76,1.64,12.91,3.32.26.1.86,0,.93-.19,1-2.25,1.88-4.53,2.81-6.8.79-1.95,1.51-3.93,2.38-5.85,1.54-3.44,3.16-6.83,4.75-10.24a123.4,123.4,0,0,0,5.1-12.16c.82-2.4,1.78-4.76,2.61-7.16.52-1.54.93-3.11,1.34-4.68a.81.81,0,0,0-.37-.7,28.13,28.13,0,0,0-3.5-1.36c-1.84-.52-3.75-.84-5.58-1.37S48.69,7.55,47,7.07Q39.08,4.85,31.15,2.78c-1.94-.5-3.95-.75-5.92-1.11a1,1,0,0,0-1.3.74C23.36,4,22.71,5.64,22.11,7.26a.83.83,0,0,0,0,.6c.66,1.22,1.38,2.41,2,3.65a1,1,0,0,1-.11.9c-.7.72-1.63.46-2.06-.55-.31-.7-.55-1.44-.91-2.39-.49,1.06-.8,1.88-1.23,2.64s-1,1.46-1.43,2.21-.76,1.52-1.21,2.24-.26,1.36.46,1.9a4.12,4.12,0,0,1,1.49,3.68.8.8,0,0,1-1.07.76c-1.1-.21-1.52-.78-1.27-2a1.33,1.33,0,0,0-.68-1.69,6.53,6.53,0,0,0-.29.6c-1,2.56-1.93,5.14-3,7.69-.23.57-.05.85.27,1.3a9.66,9.66,0,0,1,1.47,2.66c.43,1.42,0,2.12-1.18,2.3-.88.13-1.4-.29-1.38-1.18,0-.47.16-.93.18-1.4a6.36,6.36,0,0,0-.2-1.12L7.53,39.66c2.3.79,3.32,2.54,3.42,4.94a1.75,1.75,0,0,1-2.31-1.19,4.55,4.55,0,0,0-1.79-2.29ZM51,45l-.38-.19a19.06,19.06,0,0,0-1.18,2c-1.87,4.29-3.73,8.59-5.54,12.92-.53,1.27-.9,1.53-2.19,1a13,13,0,0,0-2.1-.84c-2.6-.59-5.22-1.1-7.83-1.65s-5.35-1.15-8-1.71a7.53,7.53,0,0,0-.83-.07v.14l20.93,5.09ZM10.59,29.13A5.16,5.16,0,0,0,5.1,33.08a1.32,1.32,0,0,0,.09,1c.63.73,1.36,1.37,2.05,2l.4-.11ZM52.31,40.91l.28.11c.1-.25.19-.5.31-.73q1.18-2.3,2.39-4.58c.48-.91,1-1.78,1.45-2.72.88-2,1.67-4.06,2.52-6.09.54-1.3,1.17-2.57,1.68-3.89.34-.88.15-2.14,1.81-1.85l-.81-3.83c-.67,1.54-1.26,2.84-1.8,4.16-1.32,3.25-1.88,6.77-3.49,9.92q-1.47,2.88-2.84,5.82C53.26,38.43,52.81,39.68,52.31,40.91ZM5.09,41a3,3,0,0,0-2,4.51Z"/><path d="M17,35.6c.42-.48.63-.9,1-1.08a9.52,9.52,0,0,1,6.58-1.3,21.28,21.28,0,0,0,7.21.44c2.17-.31,4.39-.28,6.53-.67a15.65,15.65,0,0,0,7.43-3.67,14.94,14.94,0,0,1,3.14-1.81c.16-.08.49.17.75.27-.17.28-.31.81-.5.82a6.52,6.52,0,0,0-3.62,2,15.66,15.66,0,0,1-6.9,3.46,32.49,32.49,0,0,1-7.18.66A38.65,38.65,0,0,1,23.24,34a3.4,3.4,0,0,0-1.57.16C20.21,34.54,18.78,35,17,35.6Z"/><path d="M20,20a3.74,3.74,0,0,1,.48-.63,9.8,9.8,0,0,1,7-2.74c3.61.11,7.21.37,10.82.45a6.34,6.34,0,0,0,2.81-.63c1.74-.85,3.38-1.91,5.07-2.88a3.62,3.62,0,0,1,.82-.44,3.47,3.47,0,0,1,.9.06c-.15.32-.22.78-.46.92-2.07,1.15-4.17,2.24-6.26,3.36a7.88,7.88,0,0,1-4.52.51c-1.94-.16-3.87-.57-5.81-.63-2.41-.08-4.88-.22-7.17.75a24.42,24.42,0,0,0-3,1.85c-.15.09-.31.16-.46.24Z"/><path d="M29.05,24.26l2,4.16.35-.07c0-1.07.06-2.14.08-3.21a2,2,0,0,1,0-.65c.06-.17.28-.27.43-.4.1.14.28.28.27.42-.06,1.37-.12,2.75-.27,4.12,0,.32-.39.85-.6.85a1.35,1.35,0,0,1-.93-.61c-.46-.76-.81-1.59-1.31-2.62-.37,1.57.26,3.12-.61,4.61V24.4Z"/><path d="M41.26,27.59l-.92-2A1.5,1.5,0,0,0,39,26.92a8.59,8.59,0,0,1-.6,1.57L38,28.42a2.25,2.25,0,0,1-.09-.67c.3-1.76.6-3.52.95-5.26.05-.27.32-.49.48-.73.23.19.57.33.68.57.35.79.63,1.63.93,2.45.22.59.45,1.17.63,1.78a4.34,4.34,0,0,1,.07.89Z"/><path d="M21.24,25.29c-1.75-.1-2.72,1.21-2.41,3.26.27,1.77.9,2.29,2.67,2.19.11,0,.23.08.66.24-.53.3-.84.61-1.19.66a2.57,2.57,0,0,1-2.73-1.86,5.31,5.31,0,0,1,.24-4,2.3,2.3,0,0,1,2.17-1.24c.26,0,.53.28.79.43Z"/><path d="M34.46,24.05a4.82,4.82,0,0,1-.65,0,6,6,0,0,1-.72-.11c.13-.2.21-.49.4-.58a10.24,10.24,0,0,1,2.06-.84c.29-.08.68.22,1,.49-.9.39-.91,1-.91,1.77,0,.92-.12,1.84-.14,2.76,0,.26.22.52.22.77a1.7,1.7,0,0,1-.37.91C34.28,27.67,35.1,25.75,34.46,24.05Z"/><path d="M22.87,28.08a2.34,2.34,0,0,1,1.3-2.2c1-.49,1.91.11,2.11,1.48A3.77,3.77,0,0,1,26,29.44a2.48,2.48,0,0,1-1.41,1.13c-.69.18-1.12-.44-1.34-1.07A14.16,14.16,0,0,1,22.87,28.08Zm2.27-1.46c-.27.16-.48.39-.7.39-1,0-.7.82-.66,1.22a3.16,3.16,0,0,0,.74,1.47c.06.08.77-.16,1-.42C26.11,28.48,26,27.57,25.14,26.62Z"/><path d="M47.27,20.68a2.06,2.06,0,0,0-.25-.1l-1-.14c.31-.25.59-.64.94-.72a23.41,23.41,0,0,1,2.56-.32c-.24.4-.35.78-.49.79-1.15.11-.78,1-.78,1.59,0,1,.23,2,.27,3,0,.26-.28.54-.43.82-.22-.26-.6-.51-.63-.79-.11-1.15-.12-2.32-.17-3.48C47.29,21.14,47.28,20.89,47.27,20.68Z"/><path d="M45.78,26a1.78,1.78,0,0,1-3-.26,5.64,5.64,0,0,1,.47-4.94c.33-.37.66-.59,1,0C42.35,23.51,43,25.75,45.78,26Z"/><path d="M52.56,22.78a18.91,18.91,0,0,1-1,1.69c-.09.13-.48.06-.73.08a1.75,1.75,0,0,1,.29-.58c.83-.8.83-1.92,0-3s-.76-1.93.47-2.62c.2-.12.54,0,.81,0-.08.28-.07.71-.26.84-.74.5-.84.95-.28,1.7A7.63,7.63,0,0,1,52.56,22.78Z"/></g></g></svg>