<svg xmlns="http://www.w3.org/2000/svg" viewBox="0 0 65.61 68.36"><defs><style>.cls-1{fill:#e8ae01;}.cls-2{fill:#3d7bc9;}</style></defs><title>partner-contacts-icon</title><g id="Layer_2" data-name="Layer 2"><g id="Layer_1-2" data-name="Layer 1"><path class="cls-1" d="M44.07,62,23.14,56.87v-.15a7.53,7.53,0,0,1,.83.08l8,1.7c2.62.55,5.24,1.06,7.84,1.66a13.33,13.33,0,0,1,2.1.84c1.29.52,1.66.27,2.19-1,1.8-4.33,3.67-8.63,5.54-12.93a21.88,21.88,0,0,1,1.17-2c.13.06.26.12.38.19C48.81,50.84,46.41,56.46,44.07,62Z" transform="translate(-0.25 -0.25)"/><path class="cls-1" d="M48.6,59.86c-.07.16-.33.4-.45.38-1-.2-1.3.49-1.68,1.17-.2.37-.44.72-.67,1.07l-.21-.13a2.54,2.54,0,0,0,.16-.28c.68-1.41,1.34-2.82,2-4.25.76-1.72,1.5-3.45,2.19-5.2.76-1.92,1.41-3.87,2.2-5.78s1.56-3.54,2.38-5.29c1-2.11,2.07-4.2,3.06-6.32.77-1.68,1.47-3.39,2.17-5.1,1.06-2.57,2.09-5.15,3.17-7.81.24.68.44,1.23.61,1.68-.21.48-.39.91-.57,1.33-.93,2.1-1.82,4.22-2.8,6.29-.78,1.68-1.79,3.25-2.5,5-1.84,4.41-3.58,8.85-5.33,13.3-.74,1.9-1.39,3.84-2.1,5.76C49.68,57.05,49.15,58.46,48.6,59.86Z" transform="translate(-0.25 -0.25)"/><path class="cls-1" d="M56.9,31.66c1.61-3.15,2.17-6.67,3.49-9.92.54-1.32,1.13-2.63,1.8-4.17L63,21.41c-1.67-.3-1.47,1-1.81,1.85-.51,1.32-1.14,2.59-1.69,3.89-.85,2-1.64,4.07-2.51,6.08-.41.94-1,1.82-1.45,2.73-.81,1.52-1.6,3-2.39,4.57-.12.24-.21.49-.32.74l-.27-.11c.5-1.23.95-2.48,1.5-3.68C55,35.52,55.91,33.58,56.9,31.66Z" transform="translate(-0.25 -0.25)"/><path class="cls-2" d="M25.38,26.87c.83.95,1,1.86.36,2.66a1.5,1.5,0,0,1-1,.42A3.07,3.07,0,0,1,24,28.48c0-.4-.35-1.23.66-1.22C24.9,27.26,25.12,27,25.38,26.87Z" transform="translate(-0.25 -0.25)"/><path class="cls-2" d="M32.45,24.75c0-.13-.18-.27-.27-.41l1.15-.12c.25,0,.49.1.73.12s.42,0,.64,0c.65,1.7-.17,3.62.94,5.21A1.73,1.73,0,0,0,36,28.6c0-.26-.23-.52-.23-.77,0-.92.15-1.85.15-2.77,0-.72,0-1.37.91-1.76l2.12.4c-.27,1.43-.52,2.86-.76,4.3a2.25,2.25,0,0,0,.09.67l.3.06a8.54,8.54,0,0,0,.61-1.56,1.5,1.5,0,0,1,1.39-1.35c.31.68.61,1.35.92,2l.43-.14a4.49,4.49,0,0,0-.07-.9c-.14-.45-.3-.89-.47-1.33l1.31-.33A2.64,2.64,0,0,0,43,26a1.78,1.78,0,0,0,3,.26C43.23,26,42.6,23.75,44.49,21a1,1,0,0,0-.23-.26l2,0,1,.15a2.06,2.06,0,0,1,.25.1c0,.21,0,.45,0,.7,0,1.16.05,2.32.17,3.48,0,.28.41.52.63.78l.77,1.87A15.7,15.7,0,0,0,46,29.56a15.39,15.39,0,0,1-7.42,3.67c-2.14.4-4.37.37-6.53.67a21,21,0,0,1-7.21-.43,7.85,7.85,0,0,0-3.13,0l-.33-1.62a8.39,8.39,0,0,0,1.06-.63,4,4,0,0,0-.64-.23l2.45-.24a.84.84,0,0,0,.61.06,2.42,2.42,0,0,0,1.42-1.12,3.68,3.68,0,0,0,.32-1.53h2.16v2.95c.87-1.49.23-3,.61-4.61.5,1,.84,1.85,1.31,2.62a1.35,1.35,0,0,0,.93.61c.21,0,.57-.53.6-.85C32.33,27.51,32.39,26.13,32.45,24.75Z" transform="translate(-0.25 -0.25)"/><path class="cls-2" d="M51.34,21.18c.88,1.12.89,2.24,0,3a2,2,0,0,0-.28.58c.25,0,.63.05.72-.08a17,17,0,0,0,1-1.7,7.68,7.68,0,0,0-.73-1.88c-.56-.75-.45-1.21.28-1.71.2-.13.19-.55.27-.84-.28,0-.61-.15-.81,0C50.59,19.25,50.46,20.06,51.34,21.18Zm-31.14-1,.18.2c.16-.08.32-.15.47-.24a23.28,23.28,0,0,1,3-1.85c2.29-1,4.76-.83,7.17-.75,1.94.06,3.87.47,5.81.62a7.71,7.71,0,0,0,4.52-.51c2.08-1.11,4.19-2.2,6.25-3.35.25-.14.32-.6.47-.92a2.77,2.77,0,0,0-.9-.06,3,3,0,0,0-.82.44c-1.69,1-3.33,2-5.07,2.88a6.34,6.34,0,0,1-2.81.62c-3.61-.08-7.21-.33-10.82-.44a9.84,9.84,0,0,0-7,2.74A3.61,3.61,0,0,0,20.2,20.22Zm-.78,2.17a4.14,4.14,0,0,0-1.49-3.69c-.72-.54-1-1.07-.46-1.9s.77-1.51,1.2-2.23,1-1.44,1.44-2.21.74-1.58,1.23-2.64c.35.95.6,1.68.9,2.39.44,1,1.37,1.27,2.07.55a1,1,0,0,0,.1-.9c-.63-1.24-1.35-2.43-2-3.66a.76.76,0,0,1,0-.59C23,5.89,23.6,4.29,24.17,2.66a1,1,0,0,1,1.3-.74c2,.35,4,.61,5.93,1.11C36.69,4.4,42,5.84,47.22,7.31c1.72.49,3.36,1.25,5.07,1.75s3.74.84,5.58,1.37a29.21,29.21,0,0,1,3.51,1.35.83.83,0,0,1,.37.7c-.41,1.57-.82,3.15-1.35,4.68-.82,2.41-1.78,4.76-2.6,7.17a122.08,122.08,0,0,1-5.11,12.16c-1.58,3.41-3.21,6.8-4.75,10.23-.86,1.92-1.59,3.91-2.38,5.86-.92,2.27-1.83,4.55-2.8,6.8-.07.17-.67.29-.93.19-4.16-1.68-8.57-2.36-12.91-3.32-3.82-.85-7.71-1.44-11.51-2.36-2.54-.61-4.95-1.7-7.47-2.42-2-.58-4.14-.92-6.21-1.37-.21-.05-.42-.13-.69-.21C4.4,47,5.72,44.25,7.1,41.37a4.58,4.58,0,0,1,1.79,2.28,1.75,1.75,0,0,0,2.31,1.19c-.1-2.39-1.12-4.14-3.42-4.93,1.47-3.12,2.93-6.19,4.53-9.57a6.36,6.36,0,0,1,.2,1.12c0,.47-.17.93-.18,1.4,0,.89.5,1.31,1.38,1.17,1.14-.17,1.6-.87,1.18-2.29a9.55,9.55,0,0,0-1.48-2.66,1.15,1.15,0,0,1-.26-1.3c1-2.55,2-5.13,3-7.69.08-.2.18-.39.28-.6a1.3,1.3,0,0,1,.68,1.68c-.24,1.2.17,1.77,1.28,2A.81.81,0,0,0,19.42,22.39ZM41.24,25c-.3-.82-.58-1.66-.94-2.46-.1-.24-.44-.38-.67-.56-.17.24-.43.46-.48.72s-.13.65-.19,1l-2.12-.4c-.36-.27-.75-.57-1.05-.5a11.47,11.47,0,0,0-2.06.85c-.18.09-.27.38-.4.57l-1.15.12c-.15.13-.38.23-.44.39a2.05,2.05,0,0,0,0,.65c0,1.07-.05,2.14-.08,3.22l-.35.06c-.68-1.38-1.36-2.77-2-4.15l-.57.14v3.51H26.57a3.31,3.31,0,0,0,0-.55c-.2-1.37-1.09-2-2.11-1.48a2.37,2.37,0,0,0-1.31,2.2c.13.47.22,1,.38,1.42a1.78,1.78,0,0,0,.73,1L21.77,31h0c-1.78.09-2.41-.42-2.67-2.19-.31-2.05.66-3.36,2.41-3.26l.2-.28c-.27-.15-.53-.43-.79-.42a2.28,2.28,0,0,0-2.17,1.24,5.36,5.36,0,0,0-.25,4,2.59,2.59,0,0,0,2.74,1.85l.13,0,.33,1.62a11.93,11.93,0,0,0-3.46,1.3c-.33.18-.54.6-1,1.08,1.76-.57,3.2-1.06,4.66-1.49a3.51,3.51,0,0,1,1.57-.15,39.31,39.31,0,0,0,8.18.78,32.54,32.54,0,0,0,7.18-.66,15.79,15.79,0,0,0,6.89-3.46,6.43,6.43,0,0,1,3.63-2c.19,0,.33-.54.49-.83-.25-.09-.58-.35-.74-.26l-.77-1.87c.15-.27.45-.55.43-.82-.05-1-.28-2-.28-3,0-.57-.37-1.48.78-1.59.15,0,.25-.39.5-.79a21.38,21.38,0,0,0-2.56.31c-.35.09-.63.47-.94.72l-2,0c-.28-.2-.54,0-.8.29a5.94,5.94,0,0,0-.75,4.13l-1.31.33C41.35,25.32,41.29,25.18,41.24,25Z" transform="translate(-0.25 -0.25)"/><path d="M51.39,24.22c.84-.8.83-1.92,0-3s-.75-1.93.48-2.63c.2-.11.53,0,.81,0-.08.29-.07.71-.27.84-.73.5-.84,1-.28,1.71A7.68,7.68,0,0,1,52.81,23a17,17,0,0,1-1,1.7c-.09.13-.47.06-.72.08A2,2,0,0,1,51.39,24.22Z" transform="translate(-0.25 -0.25)"/><path d="M47.72,25.11c-.12-1.16-.13-2.32-.17-3.48,0-.25,0-.49,0-.7a2.06,2.06,0,0,0-.25-.1l-1-.15c.31-.25.59-.63.94-.72a21.38,21.38,0,0,1,2.56-.31c-.25.4-.35.77-.5.79-1.15.11-.78,1-.78,1.59,0,1,.23,2,.28,3,0,.27-.28.55-.43.82C48.13,25.63,47.75,25.39,47.72,25.11Z" transform="translate(-0.25 -0.25)"/><path d="M42.71,25.14A5.94,5.94,0,0,1,43.46,21c.26-.29.52-.49.8-.29a1,1,0,0,1,.23.26c-1.89,2.77-1.26,5,1.53,5.23A1.78,1.78,0,0,1,43,26,2.64,2.64,0,0,1,42.71,25.14Z" transform="translate(-0.25 -0.25)"/><path d="M41.51,27.84c-.31-.67-.61-1.34-.92-2a1.5,1.5,0,0,0-1.39,1.35,8.54,8.54,0,0,1-.61,1.56l-.3-.06A2.25,2.25,0,0,1,38.2,28c.24-1.44.49-2.87.76-4.3.06-.32.13-.65.19-1s.31-.48.48-.72c.23.18.57.32.67.56.36.8.64,1.64.94,2.46,0,.15.11.29.16.44.17.44.33.88.47,1.33a4.49,4.49,0,0,1,.07.9Z" transform="translate(-0.25 -0.25)"/><path d="M33.73,23.65a11.47,11.47,0,0,1,2.06-.85c.3-.07.69.23,1.05.5-.9.39-.92,1-.91,1.76,0,.92-.12,1.85-.15,2.77,0,.25.23.51.23.77a1.73,1.73,0,0,1-.37.91c-1.11-1.59-.29-3.51-.94-5.21-.22,0-.43.05-.64,0s-.48-.08-.73-.12C33.46,24,33.55,23.74,33.73,23.65Z" transform="translate(-0.25 -0.25)"/><path d="M32.18,24.34c.09.14.28.28.27.41-.06,1.38-.12,2.76-.27,4.13,0,.32-.39.85-.6.85a1.35,1.35,0,0,1-.93-.61c-.47-.77-.81-1.6-1.31-2.62-.38,1.57.26,3.12-.61,4.61V24.65l.57-.14c.67,1.38,1.35,2.77,2,4.15l.35-.06c0-1.08.05-2.15.08-3.22a2.05,2.05,0,0,1,0-.65C31.8,24.57,32,24.47,32.18,24.34Z" transform="translate(-0.25 -0.25)"/><path d="M23.49,29.75c-.16-.46-.25-.95-.38-1.42a2.37,2.37,0,0,1,1.31-2.2c1-.5,1.91.11,2.11,1.48a3.31,3.31,0,0,1,0,.55,3.68,3.68,0,0,1-.32,1.53,2.42,2.42,0,0,1-1.42,1.12.84.84,0,0,1-.61-.06A1.78,1.78,0,0,1,23.49,29.75Zm1.89-2.88c-.26.16-.48.39-.69.39-1,0-.7.82-.66,1.22A3.07,3.07,0,0,0,24.77,30a1.5,1.5,0,0,0,1-.42C26.36,28.73,26.21,27.82,25.38,26.87Z" transform="translate(-0.25 -0.25)"/><path d="M23.49,34.21a3.51,3.51,0,0,0-1.57.15c-1.46.43-2.9.92-4.66,1.49.42-.48.63-.9,1-1.08a11.93,11.93,0,0,1,3.46-1.3,7.85,7.85,0,0,1,3.13,0A21,21,0,0,0,32,33.9c2.16-.3,4.39-.27,6.53-.67A15.39,15.39,0,0,0,46,29.56a15.7,15.7,0,0,1,3.15-1.8c.16-.09.49.17.74.26-.16.29-.3.81-.49.83a6.43,6.43,0,0,0-3.63,2,15.79,15.79,0,0,1-6.89,3.46,32.54,32.54,0,0,1-7.18.66A39.31,39.31,0,0,1,23.49,34.21Z" transform="translate(-0.25 -0.25)"/><path d="M38.51,17.3a6.34,6.34,0,0,0,2.81-.62c1.74-.86,3.38-1.91,5.07-2.88a3,3,0,0,1,.82-.44,2.77,2.77,0,0,1,.9.06c-.15.32-.22.78-.47.92-2.06,1.15-4.17,2.24-6.25,3.35a7.71,7.71,0,0,1-4.52.51c-1.94-.15-3.87-.56-5.81-.62-2.41-.08-4.88-.22-7.17.75a23.28,23.28,0,0,0-3,1.85c-.15.09-.31.16-.47.24l-.18-.2a3.61,3.61,0,0,1,.47-.62,9.84,9.84,0,0,1,7-2.74C31.3,17,34.9,17.22,38.51,17.3Z" transform="translate(-0.25 -0.25)"/><path d="M21.49,25.54c-1.75-.1-2.72,1.21-2.41,3.26.26,1.77.89,2.28,2.67,2.19h0a4,4,0,0,1,.64.23,8.39,8.39,0,0,1-1.06.63l-.13,0A2.59,2.59,0,0,1,18.48,30a5.36,5.36,0,0,1,.25-4,2.28,2.28,0,0,1,2.17-1.24c.26,0,.52.27.79.42Z" transform="translate(-0.25 -0.25)"/><path d="M54.06,37.48c-.55,1.2-1,2.45-1.5,3.68l.27.11c.11-.25.2-.5.32-.74.79-1.52,1.58-3.05,2.39-4.57.48-.91,1-1.79,1.45-2.73.87-2,1.66-4,2.51-6.08.55-1.3,1.18-2.57,1.69-3.89.34-.88.14-2.15,1.81-1.85l-.81-3.84c-.67,1.54-1.26,2.85-1.8,4.17-1.32,3.25-1.88,6.77-3.49,9.92C55.91,33.58,55,35.52,54.06,37.48Zm-43.22-8.1a5.17,5.17,0,0,0-5.5,3.94,1.39,1.39,0,0,0,.1,1c.63.73,1.35,1.37,2,2l.4-.11C8.85,34,9.83,31.74,10.84,29.38ZM3.29,45.79l2-4.52A3,3,0,0,0,3.29,45.79ZM24.17,2.66C23.6,4.29,23,5.89,22.36,7.51a.76.76,0,0,0,0,.59c.66,1.23,1.38,2.42,2,3.66a1,1,0,0,1-.1.9c-.7.72-1.63.46-2.07-.55-.3-.71-.55-1.44-.9-2.39-.49,1.06-.8,1.88-1.23,2.64s-1,1.46-1.44,2.21-.76,1.51-1.2,2.23-.26,1.36.46,1.9a4.14,4.14,0,0,1,1.49,3.69.81.81,0,0,1-1.07.76c-1.11-.21-1.52-.78-1.28-2a1.3,1.3,0,0,0-.68-1.68c-.1.21-.2.4-.28.6-1,2.56-1.94,5.14-3,7.69a1.15,1.15,0,0,0,.26,1.3,9.55,9.55,0,0,1,1.48,2.66c.42,1.42,0,2.12-1.18,2.29-.88.14-1.4-.28-1.38-1.17,0-.47.16-.93.18-1.4a6.36,6.36,0,0,0-.2-1.12c-1.6,3.38-3.06,6.45-4.53,9.57,2.3.79,3.32,2.54,3.42,4.93a1.75,1.75,0,0,1-2.31-1.19A4.58,4.58,0,0,0,7.1,41.37C5.72,44.25,4.4,47,3,49.89c.27.08.48.16.69.21,2.07.45,4.18.79,6.21,1.37,2.52.72,4.93,1.81,7.47,2.42,3.8.92,7.69,1.51,11.51,2.36,4.34,1,8.75,1.64,12.91,3.32.26.1.86,0,.93-.19,1-2.25,1.88-4.53,2.8-6.8.79-1.95,1.52-3.94,2.38-5.86,1.54-3.43,3.17-6.82,4.75-10.23A122.08,122.08,0,0,0,57.8,24.33c.82-2.41,1.78-4.76,2.6-7.17.53-1.53.94-3.11,1.35-4.68a.83.83,0,0,0-.37-.7,29.21,29.21,0,0,0-3.51-1.35C56,9.9,54.13,9.59,52.29,9.06S48.94,7.8,47.22,7.31C42,5.84,36.69,4.4,31.4,3c-1.94-.5-3.95-.76-5.93-1.11A1,1,0,0,0,24.17,2.66ZM41.93,61a13.33,13.33,0,0,0-2.1-.84c-2.6-.6-5.22-1.11-7.84-1.66l-8-1.7a7.53,7.53,0,0,0-.83-.08v.15L44.07,62c2.34-5.5,4.74-11.12,7.14-16.74-.12-.07-.25-.13-.38-.19a21.88,21.88,0,0,0-1.17,2c-1.87,4.3-3.74,8.6-5.54,12.93C43.59,61.27,43.22,61.52,41.93,61ZM7.39,52.31c-1.55-.41-3.12-.71-4.68-1.07-1-.23-1.34-1.11-.88-2.17.35-.8.72-1.59,1.12-2.47A2.52,2.52,0,0,1,.49,45a2.74,2.74,0,0,1,.3-2.77,5.86,5.86,0,0,1,4.7-2.76,1.06,1.06,0,0,0,.76-.38c.4-.65,1-1.27.85-2.08-.34.1-.61.28-.8.23-1.88-.53-3.95-3.42-3.18-5.15a6.61,6.61,0,0,1,4.47-4.06,28.37,28.37,0,0,1,3.35-.39c.24,0,.61-.15.68-.33,1.05-2.69,2.06-5.4,3.08-8.1-1.61-.6-2.79,1-3.23,2.18A10.88,10.88,0,0,1,11,22.84a1.25,1.25,0,0,1-.83.63,1.26,1.26,0,0,1-.89-.59c-.85-1.33.08-3.84,1.47-4.55a7.21,7.21,0,0,1,3.42-.84A1.9,1.9,0,0,0,16,16.19a25.66,25.66,0,0,1,1.85-3.27A12,12,0,0,0,19.7,8.74a4.86,4.86,0,0,0-3.88,1.51,4.68,4.68,0,0,1-.61.57,1.7,1.7,0,0,1-2-.29A1.17,1.17,0,0,1,13.76,9c1.66-1.18,3.43-2.16,5.57-1.8a1.39,1.39,0,0,0,1.82-1c.49-1.42,1.11-2.8,1.67-4.2S24.05.07,25.55.31a68.69,68.69,0,0,1,12.38,2.9c2.64,1,5.45,1.46,8.17,2.23C48,6,49.81,6.62,51.67,7.18a22.46,22.46,0,0,0,3,.79,28.32,28.32,0,0,1,7.17,2.25,10.54,10.54,0,0,0,2.81.4c-.69,1.87-1.34,3.65-2,5.49a1.48,1.48,0,0,1,1.58,1.56c.18,1.71.61,3.4.9,5.1a9.16,9.16,0,0,1,0,1.39c.85.22.88.42.45,1.3-.91,1.83-1.73,3.7-2.61,5.54-1.73,3.66-3.54,7.29-5.19,11-.93,2.08-1.61,4.28-2.43,6.43-1,2.58-2,5.14-3,7.73-.57,1.51-1,3.1-1.55,4.6-.53,1.31-1.24,2.54-1.85,3.81-.46.94-.92,1.87-1.33,2.82a1.94,1.94,0,0,1-2.21,1.18c-1.44-.32-2.89-.58-4.31-.94-1.79-.46-3.57-1-5.33-1.5Q29.88,64.28,24,62.36c-1.2-.39-2.37-.84-3.55-1.26-3.59-1.28-7.17-2.59-10.78-3.84-1.45-.5-3-.8-4.43-1.31a14.38,14.38,0,0,1-2.16-1.2l.09-.48a5.94,5.94,0,0,1,1.68,0c3.27,1,6.51,2.08,9.78,3.09a13.39,13.39,0,0,0,1.57.09,26.82,26.82,0,0,1,2.63.57c1.49.39,3,.84,4.44,1.26a4.69,4.69,0,0,1,.91.24c2.73,1.33,5.71,1.61,8.62,2.23,1.13.25,2.2.76,3.32,1.06,1.82.49,3.65.91,5.48,1.36a3,3,0,0,1,.52.25c-.1.85-.56,1.12-1.3.9-2.5-.75-5-1.55-7.49-2.25-1.1-.31-2.26-.45-3.39-.67l-.07.25c.5.18,1,.39,1.51.55,2.31.7,4.62,1.41,7,2,1.93.54,3.88,1,5.84,1.43,1.06.23,1.08.16,1.43-1l-1.28.22-.22-.21c.41-.8.79-1.61,1.22-2.39.15-.26.31-.52.47-.77s.47-.7.67-1.07c.38-.68.69-1.37,1.68-1.17.12,0,.38-.22.45-.38.55-1.4,1.08-2.81,1.6-4.22.71-1.92,1.36-3.86,2.1-5.76,1.75-4.45,3.49-8.89,5.33-13.3.71-1.71,1.72-3.28,2.5-5,1-2.07,1.87-4.19,2.8-6.29.18-.42.36-.85.57-1.33-.17-.45-.37-1-.61-1.68-1.08,2.66-2.11,5.24-3.17,7.81-.7,1.71-1.4,3.42-2.17,5.1-1,2.12-2.06,4.21-3.06,6.32-.82,1.75-1.65,3.51-2.38,5.29s-1.44,3.86-2.2,5.78c-.69,1.75-1.43,3.48-2.19,5.2-.63,1.43-1.29,2.84-2,4.25a2.54,2.54,0,0,1-.16.28,2.17,2.17,0,0,1-2.71.71,24.28,24.28,0,0,0-2.81-.77c-1-.25-2-.44-2.93-.71-3-.83-6-1.73-9-2.51S22.23,57.75,19.3,57c-2-.54-4-1.3-6-1.95a2.37,2.37,0,0,0-1-.15A11.47,11.47,0,0,1,5,53.2l-1.35-.73.18-.39c.62.18,1.24.34,1.85.56,1.62.56,3.08,1.63,4.92,1.44L11.67,54l.06-.34C10.29,53.18,8.85,52.69,7.39,52.31Z" transform="translate(-0.25 -0.25)"/></g></g></svg>