<svg xmlns="http://www.w3.org/2000/svg" viewBox="0 0 12.04 12.04"><defs><style>.cls-1{fill:#2aa680;}.cls-2{fill:#fff;}</style></defs><title>phone-icon</title><g id="Layer_2" data-name="Layer 2"><g id="Layer_1-2" data-name="Layer 1"><circle class="cls-1" cx="6.02" cy="6.02" r="6.02"/><path class="cls-2" d="M7.82,6.38h-1a.48.48,0,0,0-.48.46A1.41,1.41,0,0,1,5.2,5.66a.49.49,0,0,0,.46-.48v-1a.49.49,0,0,0-.48-.48h-1a.49.49,0,0,0-.48.48V5.42A2.89,2.89,0,0,0,6.62,8.3h1.2a.47.47,0,0,0,.48-.48v-1A.47.47,0,0,0,7.82,6.38ZM6.62,7.82a2.41,2.41,0,0,1-2.41-2.4V4.21h1v1H4.94a.24.24,0,0,0-.18.07.21.21,0,0,0-.06.17A1.89,1.89,0,0,0,6.62,7.34a.24.24,0,0,0,.24-.24V6.86h1v1Z"/></g></g></svg>