<svg xmlns="http://www.w3.org/2000/svg" viewBox="0 0 63.91 68.34"><title>postvention-icon</title><g id="Layer_2" data-name="Layer 2"><g id="Layer_1-2" data-name="Layer 1"><path d="M11.61,16.48c-1.77-.49-1.91-.63-1.95-2-.05,0-.1-.06-.14,0-1.37.5-1.58.31-1.62-1.11A7,7,0,0,1,9.14,9.57a16.87,16.87,0,0,1,4.35-4.94,5.91,5.91,0,0,1,4-1.13A6.13,6.13,0,0,0,21.28,2,7.12,7.12,0,0,1,23.63.9,45.38,45.38,0,0,1,28.94.09a18.54,18.54,0,0,1,3.87,0A9.41,9.41,0,0,1,38,2.27c1.65,1.42,3.29,2.78,5.6,3.12a6.13,6.13,0,0,1,2.74,1.26,6.78,6.78,0,0,1,2.55,4.56,23.38,23.38,0,0,0,.55,2.89,3.43,3.43,0,0,0,2.26,2.48,13.86,13.86,0,0,0,2.82.64,7.19,7.19,0,0,1,5.28,3.44A6.94,6.94,0,0,1,61,24.91a7.22,7.22,0,0,0,1.75,4.17,6.27,6.27,0,0,1,.8,5.76,12.85,12.85,0,0,1-4.82,6.58,2,2,0,0,0-.7,2.44,7,7,0,0,1,.11,1,7.72,7.72,0,0,0,.33,1.38A13,13,0,0,1,59,51.71c-.05,1.14,0,2.28-.13,3.42a2,2,0,0,1-.45,1.15,32,32,0,0,1-8.19,6.37,32.31,32.31,0,0,1-10,3.78c-1.94.3-3.83,1-5.77,1.35a37.4,37.4,0,0,1-4.86.5,21.91,21.91,0,0,1-4.13-.07,44,44,0,0,1-14.16-4.62A15.88,15.88,0,0,1,9,61.9C7.16,60.48,5.36,59,3.56,57.6c-.17-.13-.31-.28-.47-.41A3.64,3.64,0,0,1,2,52.78C2.55,51.2,3,49.57,3.5,48a.92.92,0,0,0-.13-.79A4.28,4.28,0,0,1,2,41.91a4.07,4.07,0,0,0-.79-4.75c-2.12-2.25-1.16-6.51.63-8A19.87,19.87,0,0,1,5.21,27C7.06,26,7.84,25,7.47,23a8.06,8.06,0,0,1,0-1.63,3.8,3.8,0,0,1,2-3.46C10.19,17.48,10.89,17,11.61,16.48Zm-1.47,37.9a2.87,2.87,0,0,0,.73,2.39l-.74-2.38.55-.83-1.11-1A1.58,1.58,0,0,0,10.14,54.38Zm32.35.42.17,0c-.21-1.17-.42-2.34-.61-3.51-.08-.43-.31-.59-.72-.43a4.75,4.75,0,0,1-4.5-.69c-.88-.56-1.52-2.41-1-3.28a3.18,3.18,0,0,1,2.83-1.78,21.6,21.6,0,0,0,2.78-.16.89.89,0,0,0,.86-1.18c-.16-.86-.27-1.74-.41-2.61-.07-.43-.29-.64-.76-.53-.85.21-1.71.41-2.57.6a5.76,5.76,0,0,1-3.6.17c-1.21-.49-2-1.31-1-2.75a4.4,4.4,0,0,0-.39-5.46c-1.32-1.24-3.09-1.22-3.73.19a5.07,5.07,0,0,0,.21,4.85c.24.42.8,1.06.14,1.51a4,4,0,0,1-1.87.65c-2.95.25-5.91.4-8.86.63a.81.81,0,0,0-.6.53A10.92,10.92,0,0,0,19,44.14c.18,1,.46,1,1.36.62,1.25-.55,3.51,0,3.85,1.1s.95,2.3.23,3.61a3.13,3.13,0,0,1-2.66,1.83,11.87,11.87,0,0,1-1.33-.08c-.45,0-.73.07-.66.57a17.85,17.85,0,0,0,.43,2.84A2,2,0,0,0,23,56q2-.55,4-1a1.29,1.29,0,0,1,1.4.5,2.3,2.3,0,0,1,.24,2.81,2.35,2.35,0,0,0,0,2.51,9.66,9.66,0,0,0,2,2.25,2.85,2.85,0,0,0,3.58-.52c.74-.66.36-1.52.17-2.32-.13-.58-.12-1.2-.29-1.76a.85.85,0,0,1,.7-1.22,11.16,11.16,0,0,1,2.75-.31c1.09,0,2.16.32,3.24.37,1.57.09,1.7-.07,1.78-1.62C42.5,55.37,42.49,55.08,42.49,54.8ZM22.65,6.89c-.37.56-.65,1.09-1,1.55-1.66,2.13-3.35,4.23-5,6.36a2,2,0,0,0-.45,1c-.08,1-.09,2-.1,2.94,0,1.52,0,3,0,4.56l.32.08A25.25,25.25,0,0,0,18.1,21.5c.87-1.11,1.56-1.16,2.49-.09l.89,1c.86-.94,1.64-1.84,2.49-2.67.19-.19.63-.11,1-.16,0,.31.13.7,0,.9A8.77,8.77,0,0,1,23.56,22,13.15,13.15,0,0,1,22,23a8.12,8.12,0,0,0,1.86,2,2.24,2.24,0,0,0,2.88.1,15.8,15.8,0,0,0,1.55-1.4c.38-.36.78-.68,1.29-.29s.35,1-.2,1.45-1.21.88-1.84,1.29c-.36.24-.94.32-1.09.64a13.47,13.47,0,0,0-.66,2.31c.43,0,.77,0,1.1,0,1.37-.08,2.75-.28,4.11-.24a9.81,9.81,0,0,0,7.34-3.25,6.87,6.87,0,0,0,.67-.89,3.41,3.41,0,0,1-2.56-2.22c-.76-2.65-1.5-5.3-2.15-8a3.53,3.53,0,0,1,.27-1.69,14,14,0,0,0,.78-2.16c.19-1.69.05-3.32-1.65-4.37-1.27-.78-2-.72-2.86.47a3.15,3.15,0,0,1-2.64,1.2A12.7,12.7,0,0,1,22.65,6.89Zm-8.71,7.35.19.21c.17-.14.41-.25.5-.43.24-.49.51-.88,1.14-.9.14,0,.31-.18.41-.31,1.11-1.41,2.23-2.8,3.28-4.24.58-.8,1-1.7,1.54-2.52a4.23,4.23,0,0,1,.86-.68c.34.54.75.18,1.15.12a1,1,0,0,1,.65.16c1.33.94,2.9.92,4.41,1.06a1.89,1.89,0,0,0,1.13-.43c.64-.47,1.21-1,1.86-1.58a32.19,32.19,0,0,1-7.53-.54c.65-.8,1.38-.61,2-.63,1.92-.08,3.84-.11,5.77-.13s3.94-.21,5.65,1a30.34,30.34,0,0,1,3.6,2.91A3.56,3.56,0,0,1,41.42,9c.43,1.76.71,3.56,1.14,5.31a5.65,5.65,0,0,0,2.86,4,17.58,17.58,0,0,0,3.39,1.34c2,.51,4,1.07,5.4,2.79a6.06,6.06,0,0,1,1.17,1.83,17.1,17.1,0,0,1,.46,2.79c0,.3,0,.62.08.92A4.93,4.93,0,0,0,57,30.09,3.43,3.43,0,0,1,58,33.41c-.3,1-.29,2.07-.51,3.08-.14.63-.61,1.21-.63,1.82a13.94,13.94,0,0,0,.34,2.62l.27,0c.33-.31.69-.6,1-.94.47-.52.85-1.13,1.35-1.61A8.53,8.53,0,0,0,61.92,34a4.56,4.56,0,0,0-.18-3.05A10.42,10.42,0,0,0,60.67,29,8.29,8.29,0,0,1,59,24.25a6.09,6.09,0,0,0-2.51-4.81,5.26,5.26,0,0,0-1.87-.87c-1.32-.36-2.71-.49-4-.95a4.83,4.83,0,0,1-3.25-3.42c-.31-1.24-.57-2.49-.85-3.73A4.87,4.87,0,0,0,42,6.37,3.31,3.31,0,0,1,40.6,6C39.36,5.15,38.16,4.28,37,3.39a8.48,8.48,0,0,0-4.69-2.07c-1.4-.05-2.81,0-4.21.08-2.52.08-4.89.54-6.7,2.55a2.11,2.11,0,0,1-1.24.58c-.77.11-1.56,0-2.33.08A8.37,8.37,0,0,0,15.56,5c-1.93.77-3.1,2.39-4.22,4-.52.75-1,1.55-1.44,2.33a1.14,1.14,0,0,0,.65-.36l3.89-3.58a1.12,1.12,0,0,1,1.49-.08c-1.37,2-3.07,3.78-4,6a1.93,1.93,0,0,0,.64-.47c1.13-1.29,2.24-2.6,3.37-3.89.2-.22.46-.52.71-.54a4.23,4.23,0,0,1,1.21.28ZM56.16,36c.56-1.76.83-3.42-.41-4.83A8.31,8.31,0,0,1,54,26.4a5.64,5.64,0,0,0-4-4.9c-1.15-.4-2.32-.75-3.47-1.14a7.67,7.67,0,0,1-5.21-5c-.5-1.57-.92-3.17-1.27-4.78a5.9,5.9,0,0,0-2.55-4.19,4.68,4.68,0,0,1-.6-.5A4.47,4.47,0,0,0,33.4,4.74c.59.32,1.16.59,1.67.93a3.9,3.9,0,0,1,1.84,2.39,7.79,7.79,0,0,1-.22,4.28.85.85,0,0,0,.12.59c.71,1.32,1.5,2.6,2.16,3.93.89,1.82,1.86,3.44,4.09,3.92a3.49,3.49,0,0,1,2.82,2.09c.27.78.32,1.65.52,2.47a1.1,1.1,0,0,0,.38.68c1.29.76,2.65,1.42,3.91,2.23a9.37,9.37,0,0,1,3.4,3.61C54.77,33.19,55.44,34.53,56.16,36ZM4.35,45.86c.42-1,.87-1.91,1.19-2.87.69-2.07,2.34-3.79,2.3-6.15,0-.66.12-1.33.07-2-.06-.85-.24-1.69-.36-2.54A2.67,2.67,0,0,1,8.7,29.6c2.1-1.54,3.33-3.44,3-6.18a5.85,5.85,0,0,1,.21-2.07c.29-1.17,1.36-1.73,2.17-2.47a1.92,1.92,0,0,0,.61-2.41c-.4.28-.76.72-1.19.8a7.59,7.59,0,0,0-3.32,2,2.76,2.76,0,0,0-.78,1.61c-.12.85.07,1.75,0,2.61a4.67,4.67,0,0,1-.52,2.36,9.46,9.46,0,0,1-3.57,2.68,5.17,5.17,0,0,0-3,3.44,5.12,5.12,0,0,0,1.23,5.25,3.27,3.27,0,0,1,.82,3.44c-.18.61-.44,1.21-.64,1.82A3,3,0,0,0,4.35,45.86ZM14.82,19.75c-.82.51-1.36.94-1.45,1.72a13.46,13.46,0,0,0-.15,2c0,1.72,0,3.4-1.28,4.74-.65.65-1.34,1.28-1.92,2a3.07,3.07,0,0,0-.79,1.64,17.18,17.18,0,0,0,.49,2.91c.19-.09.28-.1.32-.15a13.06,13.06,0,0,1,6.39-4,1.51,1.51,0,0,0,.94-.85,7,7,0,0,0,.05-2.28,2.92,2.92,0,0,1,.68-2.23c.53-.69,1.16-1.3,1.72-1.92-.61-1.17-.81-1.19-1.64-.34a21.92,21.92,0,0,1-1.91,1.83,1.42,1.42,0,0,1-1.07.2c-.14,0-.24-.56-.25-.87,0-.86,0-1.72,0-2.58C14.93,21,14.87,20.48,14.82,19.75Zm21.23-5.81-.23.12c.83,2.74,1.63,5.51,2.55,8.22a2.87,2.87,0,0,0,1.37,1.36,10.9,10.9,0,0,0,2.09.57c.92.25,1.82.52,2.81.8,0-.29,0-.55,0-.79a3.56,3.56,0,0,0-3.05-2.64,3.06,3.06,0,0,1-1.14-.45,9.59,9.59,0,0,1-3.08-4.21C36.93,15.91,36.48,14.93,36.05,13.94ZM20.79,24.57c-1.12,1-1.92,2-1.49,3.56a3,3,0,0,1,.07,1.08c-.05.5.07.67.6.56a11,11,0,0,1,2-.31c1.64-.06,2.4-.81,2.41-2.54C22.82,26.72,21.84,25.63,20.79,24.57Zm-7,16.87-.18-.1c-.08.12-.23.24-.22.36,0,.81,0,1.61.09,2.42a1.79,1.79,0,0,0,.29.54l.27-.14Zm-2.35.4L12,43.9C12.47,42.53,12.22,41.75,11.45,41.84ZM7.79,57.4l.28-.11a10.28,10.28,0,0,0-.33-1.24c0-.09-.31-.13-.46-.11a.44.44,0,0,0-.14.37C7.33,56.69,7.57,57,7.79,57.4ZM19.36,31.59l-.09-.25L17.11,32l.12.36ZM14.2,57.91c-.17-.48-.3-.83-.42-1.19,0-.07,0-.17,0-.22s-.17-.18-.23-.16a.4.4,0,0,0-.24.22C13.1,57,13.52,57.73,14.2,57.91ZM5.78,48.73c-.15,0-.58,0-.63.07a14.05,14.05,0,0,0-.47,1.6l.16,0Zm44.73-.52.28-.12a4.06,4.06,0,0,0-.29-.85c0-.06-.39.08-.59.12ZM6.72,46.28l-.26-.13-.62,1.44.32.13Zm36,18,1.5-.52C43.45,63.5,43.45,63.5,42.72,64.32Z"/><path d="M18.87,15.55a5.06,5.06,0,0,1,1.25-.22c1.76.09,3.51,0,4.76-1.42A23.17,23.17,0,0,0,26.79,11a5.31,5.31,0,0,1,.64-.91c.14-.14.51-.28.62-.2a1.09,1.09,0,0,1,.44.71,3.15,3.15,0,0,1-.32,1.1,7.13,7.13,0,0,1-7.26,4.89,9.63,9.63,0,0,1-2-.59Z"/></g></g></svg>