<svg xmlns="http://www.w3.org/2000/svg" viewBox="0 0 63.91 68.34"><defs><style>.cls-1{fill:#38ac88;}.cls-2{fill:#ee694e;}</style></defs><title>postvention-icon</title><g id="Layer_2" data-name="Layer 2"><g id="Layer_1-2" data-name="Layer 1"><path class="cls-1" d="M20,52.05c-.07-.51.21-.63.66-.57a9.88,9.88,0,0,0,1.33.07,3.11,3.11,0,0,0,2.66-1.83c.72-1.31.12-2.48-.23-3.61s-2.6-1.64-3.85-1.1c-.9.4-1.18.33-1.36-.62a10.92,10.92,0,0,1-.08-2.62c0-.19.38-.51.6-.53,2.95-.23,5.91-.38,8.86-.63A4,4,0,0,0,30.48,40c.66-.45.1-1.09-.13-1.5a5.07,5.07,0,0,1-.22-4.85c.64-1.42,2.41-1.44,3.73-.2a4.4,4.4,0,0,1,.39,5.46c-1,1.45-.22,2.26,1,2.75a5.73,5.73,0,0,0,3.59-.16c.86-.2,1.72-.39,2.57-.6.47-.12.7.09.76.52.14.87.25,1.75.41,2.62a.88.88,0,0,1-.86,1.17,21.49,21.49,0,0,1-2.78.16,3.21,3.21,0,0,0-2.83,1.79c-.55.87.09,2.71,1,3.27a4.73,4.73,0,0,0,4.5.69c.41-.16.64,0,.72.44.2,1.17.4,2.34.61,3.51l-.17,0c0,.29,0,.57,0,.86-.08,1.54-.21,1.7-1.78,1.62-1.08-.06-2.15-.35-3.23-.38a11.68,11.68,0,0,0-2.76.31.86.86,0,0,0-.7,1.22c.17.56.16,1.18.29,1.76.19.81.57,1.66-.17,2.33a2.87,2.87,0,0,1-3.58.52,10.34,10.34,0,0,1-2-2.25,2.36,2.36,0,0,1,0-2.52,2.28,2.28,0,0,0-.23-2.8,1.32,1.32,0,0,0-1.41-.51c-1.34.33-2.67.69-4,1s-2.35,0-2.76-1.38A16.52,16.52,0,0,1,20,52.05Z" transform="translate(-0.25 -0.25)"/><path class="cls-2" d="M21,24.82c1.05,1.06,2,2.15,3.57,2.36,0,1.72-.76,2.47-2.41,2.53a12.17,12.17,0,0,0-2,.31c-.53.11-.65-.06-.6-.56a3,3,0,0,0-.07-1.07C19.12,26.81,19.93,25.78,21,24.82Z" transform="translate(-0.25 -0.25)"/><path class="cls-2" d="M4.54,40.94a3.27,3.27,0,0,0-.82-3.44,5.14,5.14,0,0,1-1.23-5.25,5.16,5.16,0,0,1,3-3.43,9.59,9.59,0,0,0,3.57-2.69,4.66,4.66,0,0,0,.52-2.35c.07-.87-.12-1.76,0-2.62a2.76,2.76,0,0,1,.78-1.61,7.57,7.57,0,0,1,3.32-2c.43-.09.8-.53,1.2-.8a1.92,1.92,0,0,1-.62,2.4c-.81.74-1.87,1.3-2.17,2.47a5.85,5.85,0,0,0-.21,2.07c.38,2.74-.86,4.65-3,6.18A2.67,2.67,0,0,0,7.8,32.56c.12.85.3,1.69.36,2.55.05.65-.08,1.32-.07,2,0,2.35-1.61,4.07-2.3,6.15-.32,1-.77,1.86-1.19,2.86a3,3,0,0,1-.7-3.35C4.1,42.15,4.36,41.56,4.54,40.94Z" transform="translate(-0.25 -0.25)"/><path class="cls-2" d="M18.35,25.53a3,3,0,0,0-.68,2.23A7,7,0,0,1,17.62,30a1.51,1.51,0,0,1-.94.85,13.06,13.06,0,0,0-6.39,4s-.13.07-.31.15a16.13,16.13,0,0,1-.5-2.91,3,3,0,0,1,.8-1.63,25.69,25.69,0,0,1,1.91-2c1.33-1.34,1.32-3,1.28-4.73a13.6,13.6,0,0,1,.15-2c.09-.77.63-1.21,1.45-1.71,0,.72.11,1.28.12,1.85,0,.85,0,1.72,0,2.57,0,.31.11.84.25.87a1.46,1.46,0,0,0,1.07-.19,25.35,25.35,0,0,0,1.91-1.83c.83-.86,1-.84,1.64.34C19.51,24.23,18.88,24.84,18.35,25.53Z" transform="translate(-0.25 -0.25)"/><path class="cls-2" d="M11.59,9.3c1.12-1.64,2.3-3.26,4.22-4a8,8,0,0,1,2.25-.4c.77-.08,1.56,0,2.33-.08a2.21,2.21,0,0,0,1.24-.58c1.81-2,4.18-2.48,6.71-2.56,1.4,0,2.8-.13,4.2-.08a8.39,8.39,0,0,1,4.69,2.08l1.37,1-.45.62-.94-.67c-1.71-1.16-3.71-1-5.65-1s-3.85.05-5.77.13c-.63,0-1.36-.17-2,.64A32.1,32.1,0,0,0,31.32,5c-.65.56-1.23,1.12-1.87,1.58A1.83,1.83,0,0,1,28.32,7c-1.51-.13-3.08-.12-4.41-1a1,1,0,0,0-.64-.16c-.41.06-.82.41-1.16-.13a3.66,3.66,0,0,0-.85.69c-.55.81-1,1.72-1.54,2.51-1.06,1.44-2.18,2.83-3.29,4.24-.1.14-.27.31-.41.32-.63,0-.9.41-1.14.89-.09.18-.33.29-.5.43l-.19-.2L18.09,9a3.65,3.65,0,0,0-1.21-.28c-.25,0-.51.31-.71.53-1.13,1.29-2.24,2.6-3.37,3.89a1.81,1.81,0,0,1-.64.47c.95-2.25,2.65-4,4-6a1.11,1.11,0,0,0-1.49.07l-3.88,3.58a1.15,1.15,0,0,1-.65.36C10.63,10.85,11.08,10.05,11.59,9.3Z" transform="translate(-0.25 -0.25)"/><path class="cls-2" d="M42.25,6.62a4.87,4.87,0,0,1,4.56,4.1c.28,1.24.54,2.49.85,3.73a4.83,4.83,0,0,0,3.25,3.42c1.28.47,2.67.59,4,.95a5.43,5.43,0,0,1,1.87.87,6.14,6.14,0,0,1,2.52,4.81,8.21,8.21,0,0,0,1.63,4.79A11.09,11.09,0,0,1,62,31.19a4.59,4.59,0,0,1,.17,3.06A8.54,8.54,0,0,1,60,38.66c-.5.49-.88,1.09-1.34,1.62-.31.34-.67.63-1,.94l-.27,0a14.7,14.7,0,0,1-.34-2.61c0-.62.49-1.2.63-1.83.22-1,.21-2.09.52-3.07a3.45,3.45,0,0,0-1-3.33,4.9,4.9,0,0,1-1.09-2.09c-.07-.3,0-.62-.08-.93a16.24,16.24,0,0,0-.46-2.79,6.32,6.32,0,0,0-1.17-1.83c-1.38-1.71-3.35-2.28-5.39-2.78a17,17,0,0,1-3.39-1.35,5.63,5.63,0,0,1-2.87-4c-.43-1.76-.71-3.56-1.14-5.31a3.6,3.6,0,0,0-.86-1.72,31.81,31.81,0,0,0-2.66-2.24l.45-.62c.74.53,1.49,1.06,2.25,1.55A3.31,3.31,0,0,0,42.25,6.62Z" transform="translate(-0.25 -0.25)"/><path class="cls-2" d="M37.7,6.67a5.86,5.86,0,0,1,2.55,4.18q.53,2.42,1.27,4.79a7.66,7.66,0,0,0,5.21,5c1.15.4,2.32.74,3.47,1.14a5.64,5.64,0,0,1,4,4.91A8.3,8.3,0,0,0,56,31.37c1.25,1.42,1,3.08.41,4.83-.72-1.42-1.39-2.75-2.07-4.08a9.25,9.25,0,0,0-3.4-3.62C49.68,27.69,48.32,27,47,26.27a1.12,1.12,0,0,1-.38-.68,22.55,22.55,0,0,0-.52-2.47A3.49,3.49,0,0,0,43.31,21c-2.22-.47-3.19-2.1-4.09-3.91-.66-1.34-1.44-2.62-2.16-3.93a.87.87,0,0,1-.12-.59,7.92,7.92,0,0,0,.23-4.29,4,4,0,0,0-1.85-2.39c-.51-.34-1.08-.6-1.67-.93A4.47,4.47,0,0,1,37.1,6.16,4.77,4.77,0,0,0,37.7,6.67Z" transform="translate(-0.25 -0.25)"/><path class="cls-2" d="M38.62,22.54c-.92-2.72-1.71-5.48-2.55-8.23l.23-.12c.43,1,.88,2,1.28,3a9.53,9.53,0,0,0,3.09,4.21,2.8,2.8,0,0,0,1.13.45,3.54,3.54,0,0,1,3.05,2.64c0,.24,0,.5,0,.8-1-.29-1.89-.56-2.81-.81A10.22,10.22,0,0,1,40,23.89,2.9,2.9,0,0,1,38.62,22.54Z" transform="translate(-0.25 -0.25)"/><path d="M28.74,10.85A3.48,3.48,0,0,1,28.43,12a7.17,7.17,0,0,1-7.27,4.89,10.66,10.66,0,0,1-2-.59c0-.15,0-.3,0-.45a5.08,5.08,0,0,1,1.25-.23c1.77.09,3.51,0,4.76-1.42A23.8,23.8,0,0,0,27,11.26a6,6,0,0,1,.64-.92c.15-.14.51-.28.62-.2A1.09,1.09,0,0,1,28.74,10.85Z" transform="translate(-0.25 -0.25)"/><path d="M10.39,54.63v0Z" transform="translate(-0.25 -0.25)"/><path d="M43,64.58l1.5-.53C43.7,63.75,43.7,63.75,43,64.58Zm1.88-40.11a3.54,3.54,0,0,0-3.05-2.64,2.8,2.8,0,0,1-1.13-.45,9.53,9.53,0,0,1-3.09-4.21c-.4-1-.85-2-1.28-3l-.23.12c.84,2.75,1.63,5.51,2.55,8.23A2.9,2.9,0,0,0,40,23.89a10.22,10.22,0,0,0,2.09.57c.92.25,1.82.52,2.81.81C44.87,25,44.89,24.71,44.85,24.47ZM37.1,6.16A4.47,4.47,0,0,0,33.65,5c.59.33,1.16.59,1.67.93a4,4,0,0,1,1.85,2.39,7.92,7.92,0,0,1-.23,4.29.87.87,0,0,0,.12.59c.72,1.31,1.5,2.59,2.16,3.93.9,1.81,1.87,3.44,4.09,3.91a3.49,3.49,0,0,1,2.82,2.09,22.55,22.55,0,0,1,.52,2.47,1.12,1.12,0,0,0,.38.68c1.29.76,2.65,1.42,3.91,2.23a9.25,9.25,0,0,1,3.4,3.62c.68,1.33,1.35,2.66,2.07,4.08.56-1.75.84-3.41-.41-4.83a8.3,8.3,0,0,1-1.79-4.71,5.64,5.64,0,0,0-4-4.91c-1.15-.4-2.32-.74-3.47-1.14a7.66,7.66,0,0,1-5.21-5q-.75-2.37-1.27-4.79A5.86,5.86,0,0,0,37.7,6.67,4.77,4.77,0,0,1,37.1,6.16ZM6.41,48,7,46.54l-.26-.13-.62,1.43ZM6,49c-.15,0-.58,0-.63.08a13.89,13.89,0,0,0-.47,1.59l.16,0C5.4,50.14,5.7,49.58,6,49Zm7.51,7.83a1.18,1.18,0,0,0,.92,1.36L14,57c0-.07,0-.17,0-.22s-.17-.18-.22-.16A.42.42,0,0,0,13.54,56.81Zm-5.22.73A10.79,10.79,0,0,0,8,56.3c0-.08-.31-.13-.46-.1s-.18.28-.14.36c.19.38.43.73.65,1.09Zm9-25.31.12.36,2.13-.75-.09-.25Zm7.31,17.49A3.11,3.11,0,0,1,22,51.55a9.88,9.88,0,0,1-1.33-.07c-.45-.06-.73.06-.66.57a16.52,16.52,0,0,0,.44,2.83c.41,1.36,1.38,1.77,2.76,1.38s2.65-.72,4-1a1.32,1.32,0,0,1,1.41.51,2.28,2.28,0,0,1,.23,2.8,2.36,2.36,0,0,0,0,2.52,10.34,10.34,0,0,0,2,2.25,2.87,2.87,0,0,0,3.58-.52c.74-.67.36-1.52.17-2.33-.13-.58-.12-1.2-.29-1.76a.86.86,0,0,1,.7-1.22,11.68,11.68,0,0,1,2.76-.31c1.08,0,2.15.32,3.23.38,1.57.08,1.7-.08,1.78-1.62,0-.29,0-.57,0-.86l.17,0c-.21-1.17-.41-2.34-.61-3.51-.08-.44-.31-.6-.72-.44a4.73,4.73,0,0,1-4.5-.69c-.88-.56-1.52-2.4-1-3.27a3.21,3.21,0,0,1,2.83-1.79,21.49,21.49,0,0,0,2.78-.16A.88.88,0,0,0,42.58,44c-.16-.87-.27-1.75-.41-2.62-.06-.43-.29-.64-.76-.52-.85.21-1.71.4-2.57.6a5.73,5.73,0,0,1-3.59.16c-1.22-.49-2-1.3-1-2.75a4.4,4.4,0,0,0-.39-5.46c-1.32-1.24-3.09-1.22-3.73.2a5.07,5.07,0,0,0,.22,4.85c.23.41.79,1,.13,1.5a4,4,0,0,1-1.87.65c-2.95.25-5.91.4-8.86.63-.22,0-.59.34-.6.53a10.92,10.92,0,0,0,.08,2.62c.18,1,.46,1,1.36.62,1.25-.54,3.51,0,3.85,1.1S25.39,48.41,24.67,49.72ZM12.24,44.16c.48-1.37.23-2.16-.53-2.07C11.88,42.78,12.06,43.47,12.24,44.16ZM11.12,57c-.24-.78-.49-1.57-.74-2.36v0c.14-.23.29-.45.54-.82l-1.11-1a1.57,1.57,0,0,0,.57,1.82h0v0A2.9,2.9,0,0,0,11.12,57ZM13.65,42c0,.8,0,1.61.09,2.41,0,.19.19.36.29.54l.28-.13c-.09-1-.17-2.06-.26-3.08l-.18-.1C13.79,41.72,13.65,41.84,13.65,42Zm8.58-18.67a8.32,8.32,0,0,0,1.86,2,2.23,2.23,0,0,0,2.88.09A15.8,15.8,0,0,0,28.52,24c.38-.36.78-.68,1.29-.29s.35,1-.2,1.45-1.21.88-1.84,1.29c-.36.24-.94.33-1.09.64A13.49,13.49,0,0,0,26,29.42c.42,0,.76,0,1.09,0,1.37-.08,2.75-.28,4.12-.24a9.77,9.77,0,0,0,7.33-3.25,7.09,7.09,0,0,0,.68-.89,3.42,3.42,0,0,1-2.57-2.22c-.76-2.64-1.49-5.3-2.15-8a3.66,3.66,0,0,1,.27-1.69A14.29,14.29,0,0,0,35.58,11c.19-1.7.05-3.33-1.65-4.37-1.27-.78-2-.73-2.86.46a3.15,3.15,0,0,1-2.64,1.2A12.7,12.7,0,0,1,22.9,7.14c-.36.56-.65,1.09-1,1.56-1.66,2.12-3.35,4.22-5,6.35a2,2,0,0,0-.45,1c-.08,1-.09,2-.1,2.94,0,1.52,0,3,0,4.56l.32.09c.58-.62,1.2-1.2,1.72-1.86.87-1.12,1.56-1.17,2.49-.1l.89,1c.86-.94,1.64-1.84,2.49-2.67.19-.18.63-.11,1-.16,0,.31.13.7,0,.9a8,8,0,0,1-1.35,1.5A12,12,0,0,1,22.23,23.29ZM3.72,37.5a3.27,3.27,0,0,1,.82,3.44c-.18.62-.44,1.21-.64,1.82a3,3,0,0,0,.7,3.35c.42-1,.87-1.91,1.19-2.86.69-2.08,2.34-3.8,2.3-6.15,0-.67.12-1.34.07-2-.06-.86-.24-1.7-.36-2.55A2.67,2.67,0,0,1,9,29.85c2.1-1.53,3.34-3.44,3-6.18a5.85,5.85,0,0,1,.21-2.07c.3-1.17,1.36-1.73,2.17-2.47a1.92,1.92,0,0,0,.62-2.4c-.4.27-.77.71-1.2.8a7.57,7.57,0,0,0-3.32,2,2.76,2.76,0,0,0-.78,1.61c-.12.86.07,1.75,0,2.62a4.66,4.66,0,0,1-.52,2.35,9.59,9.59,0,0,1-3.57,2.69,5.16,5.16,0,0,0-3,3.43A5.14,5.14,0,0,0,3.72,37.5ZM24.61,27.18c-1.54-.21-2.52-1.3-3.57-2.36-1.11,1-1.92,2-1.49,3.57a3,3,0,0,1,.07,1.07c-.05.5.07.67.6.56a12.17,12.17,0,0,1,2-.31C23.85,29.65,24.6,28.9,24.61,27.18ZM15.81,5.27c-1.92.77-3.1,2.39-4.22,4-.51.75-1,1.55-1.43,2.33a1.15,1.15,0,0,0,.65-.36l3.88-3.58a1.11,1.11,0,0,1,1.49-.07c-1.37,2-3.07,3.78-4,6a1.81,1.81,0,0,0,.64-.47c1.13-1.29,2.24-2.6,3.37-3.89.2-.22.46-.51.71-.53A3.65,3.65,0,0,1,18.09,9l-3.9,5.46.19.2c.17-.14.41-.25.5-.43.24-.48.51-.88,1.14-.89.14,0,.31-.18.41-.32,1.11-1.41,2.23-2.8,3.29-4.24.57-.79,1-1.7,1.54-2.51a3.66,3.66,0,0,1,.85-.69c.34.54.75.19,1.16.13a1,1,0,0,1,.64.16c1.33.93,2.9.92,4.41,1a1.83,1.83,0,0,0,1.13-.43c.64-.46,1.22-1,1.87-1.58a32.1,32.1,0,0,1-7.53-.53c.64-.81,1.37-.61,2-.64,1.92-.08,3.85-.1,5.77-.13s3.94-.2,5.65,1l.94.67a31.81,31.81,0,0,1,2.66,2.24,3.6,3.6,0,0,1,.86,1.72c.43,1.75.71,3.55,1.14,5.31a5.63,5.63,0,0,0,2.87,4,17,17,0,0,0,3.39,1.35c2,.5,4,1.07,5.39,2.78a6.32,6.32,0,0,1,1.17,1.83,16.24,16.24,0,0,1,.46,2.79c0,.31,0,.63.08.93a4.9,4.9,0,0,0,1.09,2.09,3.45,3.45,0,0,1,1,3.33c-.31,1-.3,2.06-.52,3.07-.14.63-.61,1.21-.63,1.83a14.7,14.7,0,0,0,.34,2.61l.27,0c.33-.31.69-.6,1-.94.46-.53.84-1.13,1.34-1.62a8.54,8.54,0,0,0,2.16-4.41A4.59,4.59,0,0,0,62,31.19a11.09,11.09,0,0,0-1.08-1.9,8.21,8.21,0,0,1-1.63-4.79,6.14,6.14,0,0,0-2.52-4.81,5.43,5.43,0,0,0-1.87-.87c-1.32-.36-2.71-.48-4-.95a4.83,4.83,0,0,1-3.25-3.42c-.31-1.24-.57-2.49-.85-3.73a4.87,4.87,0,0,0-4.56-4.1,3.31,3.31,0,0,1-1.4-.41c-.76-.49-1.51-1-2.25-1.55l-1.37-1a8.39,8.39,0,0,0-4.69-2.08c-1.4-.05-2.8,0-4.2.08-2.53.08-4.9.55-6.71,2.56a2.21,2.21,0,0,1-1.24.58c-.77.1-1.56,0-2.33.08A8,8,0,0,0,15.81,5.27ZM9.69,18.16c.75-.43,1.45-.95,2.17-1.43-1.77-.49-1.91-.63-1.95-2-.05,0-.1-.06-.14,0-1.36.5-1.58.31-1.62-1.11A7,7,0,0,1,9.4,9.82a16.82,16.82,0,0,1,4.34-4.94,6,6,0,0,1,4-1.13,6.06,6.06,0,0,0,3.81-1.46,6.9,6.9,0,0,1,2.35-1.13A45.41,45.41,0,0,1,29.19.34a18.54,18.54,0,0,1,3.87,0A9.33,9.33,0,0,1,38.2,2.52C39.85,4,41.5,5.31,43.8,5.64A6.24,6.24,0,0,1,46.54,6.9a6.86,6.86,0,0,1,2.56,4.56,21.64,21.64,0,0,0,.54,2.89,3.41,3.41,0,0,0,2.27,2.48,13,13,0,0,0,2.81.64A7.23,7.23,0,0,1,60,20.91a7,7,0,0,1,1.24,4.25A7.25,7.25,0,0,0,63,29.33a6.28,6.28,0,0,1,.8,5.76A12.7,12.7,0,0,1,59,41.67a2,2,0,0,0-.7,2.44,8.63,8.63,0,0,1,.12,1,7,7,0,0,0,.32,1.37A13,13,0,0,1,59.27,52c-.05,1.13,0,2.28-.13,3.41a2,2,0,0,1-.45,1.15,31.8,31.8,0,0,1-8.19,6.38,32.29,32.29,0,0,1-10,3.77c-1.94.3-3.82,1-5.76,1.35a37.74,37.74,0,0,1-4.87.51,21.91,21.91,0,0,1-4.13-.08,44,44,0,0,1-14.16-4.61,16,16,0,0,1-2.33-1.7c-1.82-1.42-3.62-2.86-5.42-4.3l-.47-.41A3.64,3.64,0,0,1,2.22,53c.59-1.58,1-3.21,1.53-4.83a1,1,0,0,0-.12-.79,4.26,4.26,0,0,1-1.37-5.24,4.07,4.07,0,0,0-.8-4.75c-2.12-2.26-1.16-6.52.63-8a19.33,19.33,0,0,1,3.37-2.2c1.85-1,2.63-1.95,2.26-3.94a8.14,8.14,0,0,1,0-1.64A3.8,3.8,0,0,1,9.69,18.16ZM9.48,32.09A16.13,16.13,0,0,0,10,35c.18-.08.27-.1.31-.15a13.06,13.06,0,0,1,6.39-4,1.51,1.51,0,0,0,.94-.85,7,7,0,0,0,.05-2.28,3,3,0,0,1,.68-2.23c.53-.69,1.16-1.3,1.72-1.91-.61-1.18-.81-1.2-1.64-.34a25.35,25.35,0,0,1-1.91,1.83,1.46,1.46,0,0,1-1.07.19c-.14,0-.24-.56-.25-.87,0-.85,0-1.72,0-2.57,0-.57-.07-1.13-.12-1.85-.82.5-1.36.94-1.45,1.71a13.6,13.6,0,0,0-.15,2c0,1.71,0,3.39-1.28,4.73a25.69,25.69,0,0,0-1.91,2A3,3,0,0,0,9.48,32.09ZM50.77,48.47l.27-.12a4.14,4.14,0,0,0-.29-.86c0-.05-.39.08-.59.12Z" transform="translate(-0.25 -0.25)"/></g></g></svg>