<svg xmlns="http://www.w3.org/2000/svg" viewBox="0 0 49.39 72.66"><defs><style>.cls-1{fill:#e8ae01;}.cls-2{fill:#ee694e;}</style></defs><title>public-safety-icon</title><g id="Layer_2" data-name="Layer 2"><g id="Layer_1-2" data-name="Layer 1"><path class="cls-1" d="M39.8,39.94c.07.58.26,1.19-.59,1.43-.18.05-.27.38-.43.56a7.7,7.7,0,0,1-7.73,2.54c-1.26-.26-2.57-.34-3.81-.68a11.82,11.82,0,0,1-5-2.24c-.95-.83-1.86-1.7-2.75-2.6a.94.94,0,0,1-.18-.78c.75-3,1.46-5.93,2.33-8.86.71-2.41,1.64-4.77,2.44-7.16.29-.87.46-1.77.71-2.65a10.77,10.77,0,0,1,.43-1.06c4.29,2.1,8.59,3.51,13.26.79.09,1.2.2,2.19.25,3.18.13,2.28.36,4.56.31,6.84A72.05,72.05,0,0,0,39.8,39.94Z" transform="translate(-0.25 -0.25)"/><path class="cls-2" d="M30.7,4.73c.74.63,1.41,1.22,2.1,1.79a2.33,2.33,0,0,0,2.71.19c.77-.36,1.56-.69,2.48-1.1.15,1,.29,1.76.4,2.56a29.16,29.16,0,0,1,.09,8.6A1.45,1.45,0,0,1,37.69,18c-.49.26-.93.63-1.42.91a5.9,5.9,0,0,1-4.48.47,29.09,29.09,0,0,1-4.62-1.62c-1.68-.72-1.71-1-.94-2.69s1.63-3.6,2.4-5.41c.62-1.46,1.18-2.95,1.78-4.42A3.51,3.51,0,0,1,30.7,4.73Z" transform="translate(-0.25 -0.25)"/><path class="cls-2" d="M12.92,37.25c1.7-.22,3.41-.41,5.24-.63-1.26,4.76-3.6,9.05-3.61,13.94A1.07,1.07,0,0,0,16,49.73c.16-.63.14-1.29.31-1.91.59-2.18,1.22-4.35,1.85-6.52a5.77,5.77,0,0,1,.42-.87l2.64,2.24A12.25,12.25,0,0,0,26.64,45c1.21.26,2.42.5,3.64.75a10.06,10.06,0,0,0,7.31-1.18c.76-.44,1.5-.91,2.38-1.45a10.39,10.39,0,0,1,.2,1.41q0,3.54,0,7.1c0,.54.12,1,.7.93s1.11-.09,1.06-1c-.11-2.14,0-4.29-.15-6.44-.12-2.35-.37-4.7-.57-7.05a1.53,1.53,0,0,1,0-.3A4.06,4.06,0,0,1,43.89,40c.64,2.66,1.31,5.31,1.86,8a31.69,31.69,0,0,1,1.07,7c0,1.52.31,3.05.43,4.57a5.57,5.57,0,0,1-.08,2.16,3,3,0,0,1-1.28,1.35,31.18,31.18,0,0,1-4.67,2.55,41.33,41.33,0,0,1-6.13,1.75,36.28,36.28,0,0,1-17.68-.87c-1.13-.32-2.3-.49-3.44-.75a12,12,0,0,1-4.75-2.3C7.61,62.17,5.77,61.18,4.06,60A5.21,5.21,0,0,1,3,59c-.79-1-.12-1.94.21-2.77C4,54.08,5.05,52,6,49.91c1.19-2.52,2.38-5,3.65-7.54.83-1.62,1.8-3.17,2.73-4.75A.8.8,0,0,1,12.92,37.25Z" transform="translate(-0.25 -0.25)"/><path d="M32.7,4.74c.45.64,1,1.51,1.94,1.3A8.62,8.62,0,0,0,37.1,4.89c.37-.23.81-.64.48-1.22C36.28,1.44,34.94.75,32.3,1.39,32,3.61,32,3.67,32.7,4.74ZM18.59,35.1c.76-2.52,1.45-5.06,2.22-7.58.52-1.69,1.18-3.34,1.72-5,.59-1.85,1.12-3.71,1.68-5.57a12,12,0,0,1,.4-1.15C26.24,11.86,27.88,7.94,29.5,4A7.39,7.39,0,0,0,30,2.64,2.63,2.63,0,0,1,32.57.39c1.65-.17,3.29-.41,4.69.8a7.31,7.31,0,0,1,2,3.05c1,2.59.85,5.31,1.13,8a35,35,0,0,1-.25,4.19c0,1.58,0,3.17.1,4.75.19,4.63.41,9.26.57,13.89a1.06,1.06,0,0,0,1,1.19c1.51.33,2.53,1.47,3.66,2.41a1.13,1.13,0,0,1,.27.66c.28,1.39.52,2.8.82,4.19.21,1,.51,1.91.74,2.88s.39,1.73.56,2.6.28,1.48.37,2.23a2.13,2.13,0,0,1-.08.65,10.24,10.24,0,0,1,.39,1.3c.21,1.33.42,2.66.56,4,.24,2.35.48,4.7.58,7.05a2.82,2.82,0,0,1-.74,1.89,15.25,15.25,0,0,1-7.3,4.54c-3.3.75-6.61,1.52-9.94,2.16a19,19,0,0,1-3.62.06c-2.56,0-5.12,0-7.67-.15a41.08,41.08,0,0,1-4.19-.88C11.39,71,7.51,68.33,3.8,65.44A27,27,0,0,1,.73,62.12c-.83-.93-.37-2-.26-3C.75,56.48,2,54.19,3.09,51.86,4,50,4.87,48.05,5.78,46.16c1.28-2.63,2.65-5.22,3.86-7.88.82-1.8,2.34-2.2,4-2.35,1.45-.14,2.91-.21,4.35-.36A.8.8,0,0,0,18.59,35.1Zm3-5.79c-.87,2.93-1.58,5.9-2.33,8.86a.94.94,0,0,0,.18.78c.89.9,1.8,1.77,2.75,2.6a11.82,11.82,0,0,0,5,2.24c1.24.34,2.55.42,3.81.68a7.7,7.7,0,0,0,7.73-2.54c.16-.18.25-.51.43-.56.85-.24.66-.85.59-1.43A72.05,72.05,0,0,1,39,29.25c0-2.28-.18-4.56-.31-6.84-.05-1-.16-2-.25-3.18-4.67,2.72-9,1.31-13.26-.79a10.77,10.77,0,0,0-.43,1.06c-.25.88-.42,1.78-.71,2.65C23.26,24.54,22.33,26.9,21.62,29.31Zm-3,11.12a5.77,5.77,0,0,0-.42.87c-.63,2.17-1.26,4.34-1.85,6.52-.17.62-.15,1.28-.31,1.91a1.07,1.07,0,0,1-1.48.83c0-4.89,2.35-9.18,3.61-13.94-1.83.22-3.54.41-5.24.63a.8.8,0,0,0-.5.37c-.93,1.58-1.9,3.13-2.73,4.75-1.27,2.49-2.46,5-3.65,7.54-1,2.09-2,4.17-2.87,6.31C2.84,57.05,2.17,58,3,59a5.21,5.21,0,0,0,1.1,1c1.71,1.14,3.55,2.13,5.16,3.39A12,12,0,0,0,14,65.73c1.14.26,2.31.43,3.44.75a36.28,36.28,0,0,0,17.68.87,41.33,41.33,0,0,0,6.13-1.75,31.18,31.18,0,0,0,4.67-2.55,3,3,0,0,0,1.28-1.35,5.57,5.57,0,0,0,.08-2.16c-.12-1.52-.45-3-.43-4.57a31.69,31.69,0,0,0-1.07-7c-.55-2.69-1.22-5.34-1.86-8a4.06,4.06,0,0,0-2.68-2.23,1.53,1.53,0,0,0,0,.3c.2,2.35.45,4.7.57,7.05.12,2.15,0,4.3.15,6.44.05.89-.55.92-1.06,1s-.71-.39-.7-.93q0-3.55,0-7.1a10.39,10.39,0,0,0-.2-1.41c-.88.54-1.62,1-2.38,1.45a10.06,10.06,0,0,1-7.31,1.18c-1.22-.25-2.43-.49-3.64-.75a12.25,12.25,0,0,1-5.39-2.28ZM38.48,16.77a29.16,29.16,0,0,0-.09-8.6c-.11-.8-.25-1.59-.4-2.56-.92.41-1.71.74-2.48,1.1a2.33,2.33,0,0,1-2.71-.19c-.69-.57-1.36-1.16-2.1-1.79a3.51,3.51,0,0,0-.29.49c-.6,1.47-1.16,3-1.78,4.42-.77,1.81-1.56,3.62-2.4,5.41s-.74,2,.94,2.69a29.09,29.09,0,0,0,4.62,1.62,5.9,5.9,0,0,0,4.48-.47c.49-.28.93-.65,1.42-.91A1.45,1.45,0,0,0,38.48,16.77Z" transform="translate(-0.25 -0.25)"/></g></g></svg>