<svg xmlns="http://www.w3.org/2000/svg" viewBox="0 0 49.39 72.66"><title>public-saftey-icon</title><g id="Layer_2" data-name="Layer 2"><g id="Layer_1-2" data-name="Layer 1"><path d="M47.85,51.6a10.75,10.75,0,0,1,.39,1.3c.21,1.33.43,2.66.56,4,.24,2.35.49,4.7.59,7.06a2.88,2.88,0,0,1-.75,1.88,15.1,15.1,0,0,1-7.29,4.54c-3.31.76-6.61,1.52-9.94,2.16a19,19,0,0,1-3.62.06c-2.56,0-5.13,0-7.68-.15a41.65,41.65,0,0,1-4.19-.88c-4.78-.86-8.65-3.49-12.36-6.38A24.26,24.26,0,0,1,.49,61.87c-.83-.93-.38-2-.27-3,.29-2.62,1.54-4.9,2.63-7.24.89-1.9,1.77-3.81,2.69-5.69C6.81,43.28,8.18,40.69,9.4,38c.82-1.8,2.33-2.2,4-2.35,1.45-.13,2.9-.21,4.35-.36a.82.82,0,0,0,.56-.47c.76-2.52,1.44-5.06,2.22-7.58.52-1.69,1.18-3.33,1.72-5s1.12-3.71,1.68-5.57a11.79,11.79,0,0,1,.39-1.14q2.45-5.89,4.9-11.77a8.59,8.59,0,0,0,.46-1.38A2.64,2.64,0,0,1,32.32.14C34,0,35.61-.27,37,.94A7.22,7.22,0,0,1,39,4c1,2.59.86,5.31,1.14,8a35,35,0,0,1-.26,4.19c0,1.58,0,3.17.11,4.75.18,4.63.41,9.26.57,13.89a1.05,1.05,0,0,0,1,1.19c1.51.33,2.52,1.47,3.65,2.41a1.2,1.2,0,0,1,.28.66c.28,1.39.52,2.8.82,4.19.2,1,.51,1.91.74,2.88s.39,1.73.56,2.6.28,1.48.37,2.23A2,2,0,0,1,47.85,51.6ZM17.91,36.38c-1.83.21-3.53.4-5.23.62a.81.81,0,0,0-.5.37c-.93,1.58-1.9,3.13-2.74,4.76-1.27,2.48-2.45,5-3.65,7.54-1,2.08-2,4.16-2.87,6.3-.33.83-1,1.81-.21,2.77a5.2,5.2,0,0,0,1.1,1C5.53,60.94,7.36,61.92,9,63.18a12,12,0,0,0,4.74,2.3c1.15.26,2.32.43,3.45.75a36.28,36.28,0,0,0,17.68.87A39.24,39.24,0,0,0,41,65.35a31.18,31.18,0,0,0,4.67-2.55,3,3,0,0,0,1.28-1.35A5.33,5.33,0,0,0,47,59.3c-.12-1.53-.45-3.06-.42-4.58a31.69,31.69,0,0,0-1.07-7c-.55-2.68-1.23-5.34-1.87-8A4.07,4.07,0,0,0,41,37.49a1.62,1.62,0,0,0,0,.31c.19,2.35.44,4.69.57,7.05.11,2.14,0,4.29.15,6.43,0,.9-.56.93-1.06,1s-.72-.38-.71-.92q.06-3.56,0-7.11a11.79,11.79,0,0,0-.2-1.4c-.88.53-1.63,1-2.39,1.45A10.14,10.14,0,0,1,30,45.46l-3.64-.76A12.22,12.22,0,0,1,21,42.42c-.87-.72-1.72-1.46-2.64-2.24a5.84,5.84,0,0,0-.43.87c-.63,2.17-1.25,4.34-1.84,6.52-.17.62-.16,1.29-.32,1.91a1.07,1.07,0,0,1-1.48.84C14.31,45.43,16.66,41.14,17.91,36.38ZM38.21,19c-4.66,2.71-9,1.3-13.26-.8a10.46,10.46,0,0,0-.42,1.06c-.25.88-.43,1.79-.72,2.65-.79,2.4-1.72,4.75-2.44,7.16C20.5,32,19.79,35,19,37.92a1,1,0,0,0,.18.78c.89.9,1.81,1.77,2.75,2.6a11.91,11.91,0,0,0,5,2.24c1.24.34,2.54.42,3.8.68a7.7,7.7,0,0,0,7.74-2.54c.16-.17.25-.51.43-.56.85-.23.66-.85.59-1.42A72.29,72.29,0,0,1,38.77,29c.06-2.28-.18-4.56-.3-6.84C38.41,21.17,38.31,20.18,38.21,19ZM37.74,5.36c-.92.41-1.71.74-2.48,1.11a2.35,2.35,0,0,1-2.71-.2c-.69-.56-1.36-1.16-2.09-1.79a3.39,3.39,0,0,0-.3.49c-.59,1.47-1.16,3-1.78,4.42C27.61,11.2,26.82,13,26,14.8s-.75,2,.93,2.69a28.46,28.46,0,0,0,4.62,1.62A5.9,5.9,0,0,0,36,18.64c.49-.28.93-.65,1.43-.91a1.46,1.46,0,0,0,.79-1.2,29.23,29.23,0,0,0-.09-8.61C38,7.12,37.9,6.33,37.74,5.36ZM32.06,1.14c-.29,2.23-.36,2.28.4,3.36.44.63,1,1.5,1.94,1.29a8.75,8.75,0,0,0,2.46-1.15c.37-.22.81-.64.47-1.22C36,1.19,34.7.51,32.06,1.14Z"/></g></g></svg>