<svg xmlns="http://www.w3.org/2000/svg" viewBox="0 0 66.96 60.98"><defs><style>.cls-1{fill:#97908a;}.cls-2{fill:#38ac88;}.cls-3{fill:#d4b088;}.cls-4{fill:#ee694e;}.cls-5{fill:#3d7bc9;}.cls-6{fill:#e8ae01;}</style></defs><title>remembering-icon</title><g id="Layer_2" data-name="Layer 2"><g id="Layer_1-2" data-name="Layer 1"><path d="M66.94,27.31A20.66,20.66,0,0,1,66.69,35c-.35,2.15-.88,4.28-1.2,6.44a26,26,0,0,0,.26,7.92A18.92,18.92,0,0,1,66,52.16c0,.24-.33.6-.59.7-.43.16-1.14-.44-1.17-.92-.2-2.49-.46-5-.54-7.48a24.84,24.84,0,0,1,.36-4.21c.38-2.63.94-5.23,1.25-7.86a13.63,13.63,0,0,0-1.11-7.25,5.73,5.73,0,0,0,.07.58c0,.19.15.37.18.56.07.55,0,1.07-.67,1.21a1.19,1.19,0,0,1-1.26-.87c-.27-1.08-.48-2.19-.82-3.25s-.88-2.36-1.34-3.54a3.25,3.25,0,0,0-.42-.53c.45,1.53.87,2.87,1.23,4.23a28.61,28.61,0,0,1,.63,3.06.94.94,0,0,1-.44.78c-.37.12-.91.27-1.09-.37-.38-1.34-.72-2.68-1.13-4-.47-1.51-1-3-1.51-4.51a.88.88,0,0,0-.47-.51c.08.34.18.68.23,1,.21,1.57.4,3.15.61,4.73.17,1.26.39,2.52.5,3.79a1.1,1.1,0,0,1-.52.88.7.7,0,0,1-1-.62c-.15-1.1-.33-2.21-.5-3.31-.31-2-.56-4-1-6-.76-4-1.59-7.89-2.43-11.82a19.48,19.48,0,0,0-.8-2.37c-.14.23-.23.3-.23.38,0,1.68,0,3.36.09,5,.1,2,.32,4.1.43,6.16.08,1.49,0,3,.09,4.47a74.3,74.3,0,0,0,1.76,11.39c.16.67.21,1.36.32,2.07-.87.72-1.31.64-1.88-.42-.91-1.7-1.75-3.46-2.73-5.12-.85-1.43-1.84-2.77-2.78-4.14-.16-.25-.35-.47-.53-.71l-.21.13a2.1,2.1,0,0,0-.12.54c.19,3.17.08,6.38,1.08,9.44s2.21,6.21,3.31,9.31a44.83,44.83,0,0,1,1.82,5.54,14.67,14.67,0,0,1,0,4.13c-.13,1.7-.36,3.4-.6,5.09a16.52,16.52,0,0,1-.57,2.28c-.06.2-.34.33-.52.49-.12-.22-.37-.44-.36-.65.06-1,.2-1.93.3-2.89.24-2.33.51-4.66.69-7a5.67,5.67,0,0,0-.31-1.58c-1.49.39-2.89.81-4.31,1.11-2.08.44-4.19.77-6.28,1.17a31.33,31.33,0,0,1-7.1.56c-3.15-.13-6.3-.28-9.45-.39-1.21,0-2.42,0-3.63-.06a6.91,6.91,0,0,1-1.68-.31c-.93-.26-1.08-1-1.11-1.9a9.79,9.79,0,0,0-2.32,4.95q-.22,2.77-.64,5.54A7.35,7.35,0,0,1,14,61a.76.76,0,0,1-.69.24,1,1,0,0,1-.4-.72,8.44,8.44,0,0,1,.1-1.41c.21-1.87.5-3.74.61-5.62a9.76,9.76,0,0,1,1.76-4.29c.93-1.61,2-3.1,3-4.67,1.4-2.23,2.82-4.45,4.11-6.74q2.22-3.91,4.2-8a21.44,21.44,0,0,0,1.1-3.46,3.45,3.45,0,0,0,0-.85l-.2-.17c-.43.33-.88.63-1.27,1a25.06,25.06,0,0,0-1.76,1.81c-1.38,1.61-2.74,3.24-4.1,4.88-.39.47-.69,1-1.11,1.48-.21.22-.68.46-.88.37s-.88-.17-.82-.82a39.86,39.86,0,0,1,.36-4.27,78.66,78.66,0,0,0,1.53-10c.16-2.05.3-4.1.5-6.15.15-1.48.48-2.94.58-4.42s0-3.15,0-4.72l-.19,0a3,3,0,0,0-.21.4A50.8,50.8,0,0,0,17.8,14c-.59,3-1.26,6-1.79,9.08-.4,2.3-.63,4.62-.9,6.94-.07.54-.2,1.07-.82,1s-1.17-.18-1.12-1c.07-1.08.1-2.17.25-3.24.44-3.35.94-6.68,1.4-10,.08-.53.09-1.07.14-1.6l-.18,0c-.16.46-.34.9-.48,1.36-.53,1.84-1.09,3.66-1.57,5.51-.54,2.11-1,4.24-1.52,6.36a14.52,14.52,0,0,1-.41,1.43.75.75,0,0,1-1.1.53c-.49-.21-1-.33-.8-1.18.6-2.14,1-4.32,1.64-6.47s1.33-4.39,2-6.58a.55.55,0,0,0-.07-.47,18.16,18.16,0,0,0-.89,1.83C10.74,19.69,10,22,9.11,24.21,8.58,25.65,8,27.06,7.4,28.49a.9.9,0,0,1-1.14.59c-.84-.27-1-.65-.68-1.4.89-2.47,1.75-4.95,2.62-7.43a7.27,7.27,0,0,0,.17-.81l-.23-.08c-.25.51-.56,1-.76,1.54C6.51,23.27,5.76,25.69,4.8,28A16.87,16.87,0,0,0,4,33.11a28.09,28.09,0,0,0,0,6.15c.41,2.92-.51,5.59-1.06,8.34a8.19,8.19,0,0,1-.37,1.59c-.15.37-.47.87-.78.93a3.16,3.16,0,0,1-1.46-.33c-.08,0-.1-.4-.06-.6.5-2.3,1.13-4.59,1.5-6.91a20.77,20.77,0,0,0,0-3.86,43.52,43.52,0,0,1,.51-9A13.05,13.05,0,0,1,3,27.16c.91-2.43,1.77-4.89,2.82-7.27a40,40,0,0,1,2.58-4.6,2.12,2.12,0,0,1,2.74-1,.74.74,0,0,0,.57-.16A17.74,17.74,0,0,1,13.07,13a3.89,3.89,0,0,1,3.12-.37c.21-.8.4-1.61.65-2.4.71-2.2,1.4-4.39,2.18-6.56a7.7,7.7,0,0,1,1.17-2.12c.25-.32.81-.41,1.24-.57,2.94-1.06,6-.68,9-.67,2.65,0,5.31-.07,8-.08,2.06,0,4.12,0,6.18,0s4.31,0,6.47,0c.77,0,1.29.1,1.13,1.24a1.45,1.45,0,0,0,.76,1.6,3.32,3.32,0,0,1,1.14,1.63,25.85,25.85,0,0,1,1,3.58c.29,1.44.46,2.91.71,4.36a7.77,7.77,0,0,0,.49,1.79c.27.62.92.45,1.36.29s.83,0,1.18.38c.57.7,1.23,1.35,1.85,2,.05.06.12.13.18.12,1.65-.15,2.25,1.28,2.89,2.25A21.91,21.91,0,0,1,66.94,27.31Zm-14.61,2,.09,0c-.1-.37-.2-.74-.28-1.12a23.82,23.82,0,0,1-.6-3q-.47-6.19-.82-12.4c-.15-2.48-.22-5-.31-7.44,0-.44.05-.89.06-1.33,0-.66.05-1.32.07-2,0-.46-.22-.58-.65-.57q-2.79,0-5.58,0c-1.67,0-3.33-.07-5-.07q-4.59,0-9.16,0c-2.39,0-4.8-.5-7.17.35-.87.32-.92.26-.71,1.2a19.45,19.45,0,0,1,.27,6.59c-.35,2.82-.88,5.64-1.1,8.47A78.92,78.92,0,0,1,20,29.2c-.15.63-.19,1.28-.3,2.13a3.43,3.43,0,0,0,.47-.36c.85-1,1.71-2,2.54-3a1,1,0,0,0,.14-.57c0-.69-.09-1.38-.07-2.06.07-2,.19-4,.25-6,0-1.2-.1-2.41,0-3.61.13-2.07.38-4.13.56-6.19.11-1.29.16-2.57.3-3.85S24,4.46,25.13,4.44h.15v.37c-.48,0-.75.25-.79.78-.13,1.65-.28,3.3-.43,4.94l.27.1c.14-.18.39-.34.42-.54a.36.36,0,0,1,0-.1l.49.08a1.12,1.12,0,0,0,0,.27c0,.08-.1.16-.17.24a2.43,2.43,0,0,0-.19,2.52c.31,0,.62-.2.84-.12.51.19.68-.08.92-.44.41-.65.89-1.26,1.34-1.89l.27.13c-.18.51-.35,1-.53,1.51a1.29,1.29,0,0,0,.17.16l2.71-2.64.24.1c-.06.37-.13.74-.22,1.26,1.58-.57,2.24-1.85,3-3.18a3.53,3.53,0,0,1,.35,1c.14.62.23,1.26.39,1.88a.65.65,0,0,0,1,.4c.15-.06.22-.52.19-.78a12.51,12.51,0,0,0-.3-1.35l.23-.1a8.75,8.75,0,0,1,.49.75c.3.65.52,1.35.87,2a5.62,5.62,0,0,0,.9,1l.23-.18.47,0c-.06.52-.21,1.07-.33,1.61-.3,1.35.22,3.24,1.08,3.83,1.38,1,3,.4,5.26-.82a6.2,6.2,0,0,1,1.39-.84c-.09.26-.17.52-.26.78a22.37,22.37,0,0,1-3.15,1.88,3,3,0,0,1-2.24.31,3.69,3.69,0,0,1-2.73-3.13c-1.41,2.35-2.23,4.95-5.29,5.41.36.52.68.93,1,1.37a31.18,31.18,0,0,1,1.82,3.11,11.53,11.53,0,0,1,.62,2.36,1,1,0,0,0,1.18.85,2.8,2.8,0,0,1,1,0,27.55,27.55,0,0,1,7.28,3.37,5.31,5.31,0,0,0,.83.35c-.12-.76-.26-1.39-.31-2-.17-2.38-.34-4.76-.44-7.14a1.42,1.42,0,0,1,2-1.43,14.55,14.55,0,0,1,1.83.9c0-.08,0-.16,0-.24l.59,0a2.45,2.45,0,0,1-.3.72c0,.09.05.33.14.46.47.65,1,1.26,1.42,1.94C51.22,27.28,51.76,28.33,52.33,29.35ZM50.68,46.53c-1.19-3-2.38-6.06-3.54-9-.55,0-1.1,0-1.64,0-1.38.09-2.76.24-4.14.3-1.56.08-3.12.11-4.69.14-1.8,0-3.61,0-5.42.06-1.33,0-2.67,0-4,.09-.61,0-1.22.17-1.83.22-.13,0-.27-.15-.41-.23.08-.11.16-.3.26-.31,1.07-.17,2.14-.38,3.22-.46s2.15,0,3.22,0c-.74-.72-.51-1.26.14-1.72-.73-.81-.73-.81-.06-1.52a6.76,6.76,0,0,0-1-1.23c-.68-.55-.72-.6-.1-1.2a8,8,0,0,1,3.57-2.05c.39-.1.55-.27.5-.74a9.2,9.2,0,0,0-1.62-4.42c-.43-.58-.76-1.37-1.63-1.49-.61-.09-1.24-.06-1.84-.19-1.39-.3-2.89-.34-4-1.45-.36-.37-.7-.75-1.16-1.24-.36.59-.93,1.1-1,1.64-.12,1.8,0,3.61,0,5.47a3.09,3.09,0,0,0,.64-.45,8.8,8.8,0,0,1,3.53-2.27c1.42-.58,2.25.11,2.06,1.62a5.88,5.88,0,0,1-.14.73,18.37,18.37,0,0,1-1.86,4.84c-1.12,2-2.16,4.11-3.31,6.12l-.3.53c-1.37,2.36-2.87,4.64-4.31,7-.09.14-.23.35-.19.45.44.89,0,1.76-.05,2.63-.09,1,0,1.16,1,1.18l.67,0c1.19,0,2.38-.15,3.57-.11,2.65.07,5.3.28,8,.32a33.24,33.24,0,0,0,4.89-.23c2.88-.39,5.73-.92,8.59-1.41A12.27,12.27,0,0,0,50.68,46.53Zm-3.79-9.86c-.25-.79-.48-1.49-.71-2.19,0-.09-.07-.21-.14-.25-.87-.5-1.74-1-2.63-1.45-.66-.34-1.35-.61-2-1S40,31,39.19,30.64a7.5,7.5,0,0,0-2.72-.83,8,8,0,0,0-4.29,1.36,7.48,7.48,0,0,0-.86.74l.09.21c.67-.1,1.34-.22,2-.3.85-.1,1.71-.19,2.56-.24.14,0,.29.26.44.39-.16.11-.31.3-.48.32-.59.09-1.2.08-1.78.19s-1.24.32-1.87.48c0,.11,0,.22.05.32h4.78c.3.67.1.84-.4.85s-1.24,0-1.86.09-1.3.17-1.95.27a2.44,2.44,0,0,0,0,.27l4,.4c.18.55,0,.73-.52.71-1,0-2-.09-3-.11a1.08,1.08,0,0,0-1.19.75c.52.18,1,.37,1.47.51,1.52.43,3-.26,4.57-.08a33.52,33.52,0,0,0,5.11,0C44.57,36.93,45.7,36.77,46.89,36.67ZM36.84,15c.52-.42.73-1.12.44-1.49-.45-.57-.92-1.12-1.36-1.65l-1.33.26v2.21c0,1,0,1.89,0,2.83a.87.87,0,0,1-.39.66c-.33.12-1.37-.88-1.43-1.43l1.36.79a27,27,0,0,0-.62-7.55c-.68.61-1.39,1.32-2.17,1.91a1.28,1.28,0,0,1-1.12.15c-.53-.41-.76-.21-1.07.2a7.33,7.33,0,0,1-.71.76c-.43.42-.89.62-1.41.15l-.6.79a1.8,1.8,0,0,0-.08-.21,4.36,4.36,0,0,0-1.28.29c-.53.3-.41.84-.26,1.34.08.24.12.49.2.72.33,1.08.81,1.36,2,1-.57.86-1.1,1.63-1.58,2.43a.63.63,0,0,0,0,.58,4.07,4.07,0,0,0,2.41,1.84,34.2,34.2,0,0,0,3.51.56l.21-.27a4,4,0,0,0-.54-.55c-.88-.66-1.78-1.31-2.68-2l.24-.32c.42.29.87.56,1.26.89a3.22,3.22,0,0,0,4,.29c1.6-1,2.22-2.7,3.06-4.35-.76-.09-1.31-.34-1.21-1.28a2,2,0,0,1,.27.22A.59.59,0,0,0,36.84,15ZM26,17.79a2.71,2.71,0,0,1-1.66-2.33,1.31,1.31,0,0,0-.09-.28,1.23,1.23,0,0,1,0-1.33c.08-.12-.09-.41-.2-.81a16.65,16.65,0,0,0-.27,7.23Z" transform="translate(-0.25 -0.25)"/><path class="cls-1" d="M52.42,29.37l-.09,0c-.57-1-1.11-2.07-1.73-3.07-.42-.68-1-1.29-1.42-1.94-.09-.13-.19-.37-.14-.46a2.45,2.45,0,0,0,.3-.72c.26-1.06-.19-2.16-.12-3.23.13-1.95.12-3.91.21-5.87s.27-4.14.32-6.22a8.36,8.36,0,0,0-.4-2.3A.89.89,0,0,0,48.66,5c-1.6.24-3.09-.39-4.63-.51C42,4.35,40,4.35,38,4.33c-1,0-2.07.09-3.11.09-3.19,0-6.37,0-9.56,0h-.15c-1.14,0-1.17.1-1.29,1.24s-.19,2.56-.3,3.85c-.18,2.06-.43,4.12-.56,6.19-.08,1.2.05,2.41,0,3.61-.06,2-.18,4-.25,6,0,.68.06,1.37.07,2.06a1,1,0,0,1-.14.57c-.83,1-1.69,2-2.54,3a3.43,3.43,0,0,1-.47.36c.11-.85.15-1.5.3-2.13a78.92,78.92,0,0,0,1.48-11c.22-2.83.75-5.65,1.1-8.47a19.45,19.45,0,0,0-.27-6.59c-.21-.94-.16-.88.71-1.2,2.37-.85,4.78-.33,7.17-.35q4.57,0,9.16,0c1.66,0,3.32.06,5,.07q2.79,0,5.58,0c.43,0,.67.11.65.57,0,.66,0,1.32-.07,2,0,.44-.07.89-.06,1.33.09,2.48.16,5,.31,7.44q.36,6.2.82,12.4a23.82,23.82,0,0,0,.6,3C52.22,28.63,52.32,29,52.42,29.37Z" transform="translate(-0.25 -0.25)"/><path d="M49.35,5.54a8.36,8.36,0,0,1,.4,2.3c0,2.08-.23,4.15-.32,6.22s-.08,3.92-.21,5.87c-.07,1.07.38,2.17.12,3.23l-.59,0c0-1.08-.09-2.05-.14-3-.38.33-.67.79-1,.79a20.68,20.68,0,0,1-2.72-.25c-.43-.05-.63-.29-.47-.72s.38-.8.52-1.21.35-1,.52-1.56c.51-.4.81-.79.7-1.1a1.72,1.72,0,0,1-.44.32c.16-.52.33-1,.49-1.55a1.89,1.89,0,0,1,.94-1.26,2,2,0,0,0,.67-2.47c-.23.18-.49.55-.68.52-.92-.17-1.44.52-2.12.86A2.17,2.17,0,0,1,42,10.8c0-.05.08-.12.19-.26.19.22.37.41.52.61.73,1,1.24,1.15,2.34.59.5-.25,1-.55,1.62-.91-.34-.59-.73-1.18-1-1.81s-.7-.92-1.49-.56a2.66,2.66,0,0,1-1.89.23,1.73,1.73,0,0,0-1.63.12,7.12,7.12,0,0,1-1.82.5,8.55,8.55,0,0,1-1.66-.08c.13.84.81.73,1.26,1s.85.62,1.44.36c.09-.05.27.09.4.15l0,.21H38.08a2.58,2.58,0,0,1,.27,1.72l-.47,0a3.47,3.47,0,0,0-1-2.64,8.79,8.79,0,0,1-.75-1.3c-.27-.45-.48-1.21-.84-1.29a34.63,34.63,0,0,0-4.21-.56c-.2,0-.44.19-.63.34A5.67,5.67,0,0,1,27.64,8.3c-1.13.11-2.18.47-2.38,1.77L24.77,10c.24-1.53,1.37-2,2.71-2.28.44-.09,1,0,1.29-.28A5.39,5.39,0,0,1,34,6.32a10.57,10.57,0,0,1,1.64.56,3.22,3.22,0,0,1,.65.52c.33-.81.63-1.54,1-2.37a11.9,11.9,0,0,0-1.58,0,27.9,27.9,0,0,1-6-.13c-1.48-.11-3-.08-4.45-.1V4.44c3.19,0,6.37,0,9.56,0,1,0,2.08-.1,3.11-.09,2,0,4.07,0,6.08.18,1.54.12,3,.75,4.63.51A.89.89,0,0,1,49.35,5.54Z" transform="translate(-0.25 -0.25)"/><path class="cls-1" d="M47.14,37.5c1.16,3,2.35,6,3.54,9A12.27,12.27,0,0,1,46.29,48c-2.86.49-5.71,1-8.59,1.41a33.24,33.24,0,0,1-4.89.23c-2.66,0-5.31-.25-8-.32-1.19,0-2.38.07-3.57.11l-.67,0c-1,0-1.12-.16-1-1.18.08-.87.49-1.74.05-2.63,0-.1.1-.31.19-.45,1.44-2.32,2.94-4.6,4.31-7l.3-.53.58.33c.14.08.28.25.41.23.61-.05,1.22-.2,1.83-.22,1.33-.06,2.67-.07,4-.09,1.81,0,3.62,0,5.42-.06,1.57,0,3.13-.06,4.69-.14,1.38-.06,2.76-.21,4.14-.3C46,37.47,46.59,37.5,47.14,37.5Z" transform="translate(-0.25 -0.25)"/><path class="cls-2" d="M48.75,23.19c0,.08,0,.16,0,.24a14.55,14.55,0,0,0-1.83-.9A1.42,1.42,0,0,0,45,24c.1,2.38.27,4.76.44,7.14.05.63.19,1.26.31,2a5.31,5.31,0,0,1-.83-.35,27.55,27.55,0,0,0-7.28-3.37,2.8,2.8,0,0,0-1,0,1,1,0,0,1-1.18-.85,11.53,11.53,0,0,0-.62-2.36A31.18,31.18,0,0,0,33,23c-.27-.44-.59-.85-1-1.37,3.06-.46,3.88-3.06,5.29-5.41a3.69,3.69,0,0,0,2.73,3.13,3,3,0,0,0,2.24-.31,22.37,22.37,0,0,0,3.15-1.88c-.17.52-.34,1-.52,1.56s-.36.8-.52,1.21,0,.67.47.72a20.68,20.68,0,0,0,2.72.25c.3,0,.59-.46,1-.79C48.66,21.14,48.7,22.11,48.75,23.19Zm-6.64,1.18c-1-.22-2.1.69-2.51,1.9a2.46,2.46,0,0,0,1,2.41c.14-.19.27-.39.41-.59C39.49,26.27,40.9,25.35,42.11,24.37Zm-5.79,2.17-.24,0a5.07,5.07,0,0,1-.36-2c.15-.57.84-1,1.29-1.49-1.07.21-1.95.71-2.07,1.83a2.42,2.42,0,0,0,.91,2.33Z" transform="translate(-0.25 -0.25)"/><path class="cls-3" d="M47.85,11.14a2,2,0,0,1-.67,2.47,1.89,1.89,0,0,0-.94,1.26c-.16.52-.33,1-.49,1.55a6.2,6.2,0,0,0-1.39.84c-2.22,1.22-3.88,1.77-5.26.82-.86-.59-1.38-2.48-1.08-3.83.12-.54.27-1.09.33-1.61a2.58,2.58,0,0,0-.27-1.72h2.11l0-.21c-.13-.06-.31-.2-.4-.15-.59.26-1-.12-1.44-.36s-1.13-.13-1.26-1a8.55,8.55,0,0,0,1.66.08,7.12,7.12,0,0,0,1.82-.5,1.73,1.73,0,0,1,1.63-.12,2.66,2.66,0,0,0,1.89-.23c.79-.36,1.15-.15,1.49.56s.69,1.22,1,1.81c-.63.36-1.12.66-1.62.91-1.1.56-1.61.42-2.34-.59-.15-.2-.33-.39-.52-.61-.11.14-.2.21-.19.26a2.17,2.17,0,0,0,3.08,1.72c.68-.34,1.2-1,2.12-.86C47.36,11.69,47.62,11.32,47.85,11.14Zm-4,4c.17-.15.17-.48.28-.84a9.48,9.48,0,0,1-1.76.71,8.36,8.36,0,0,1-1.73,0,1.23,1.23,0,0,1,0,.2l-.51-.64-.68.47a6.44,6.44,0,0,0-1-.21c-.06,0-.22.33-.19.48A2.4,2.4,0,0,0,41.54,17,12.4,12.4,0,0,0,43.86,15.12Zm-1.75-1.89c-.15-.08-.3-.22-.45-.23-.4,0-.8,0-1.33,0l1.38-3.67-.25-.14c-.15.16-.36.3-.44.48-.46,1.09-.9,2.19-1.33,3.29-.2.52.19.7.56.74a6,6,0,0,0,1.47,0C41.87,13.63,42,13.37,42.11,13.23Z" transform="translate(-0.25 -0.25)"/><path class="cls-3" d="M46.18,34.48c.23.7.46,1.4.71,2.19-1.19.1-2.32.26-3.45.29a33.52,33.52,0,0,1-5.11,0c-1.55-.18-3,.51-4.57.08-.48-.14-.95-.33-1.47-.51a1.08,1.08,0,0,1,1.19-.75c1,0,2,.06,3,.11.49,0,.7-.16.52-.71l-4-.4a2.44,2.44,0,0,1,0-.27c.65-.1,1.3-.21,1.95-.27s1.24-.07,1.86-.09.7-.18.4-.85H32.35c0-.1,0-.21-.05-.32.63-.16,1.24-.37,1.87-.48s1.19-.1,1.78-.19c.17,0,.32-.21.48-.32-.15-.13-.3-.4-.44-.39-.85.05-1.71.14-2.56.24-.68.08-1.35.2-2,.3l-.09-.21a7.48,7.48,0,0,1,.86-.74,8,8,0,0,1,4.29-1.36,7.5,7.5,0,0,1,2.72.83c.76.32,1.46.81,2.21,1.19s1.35.61,2,1c.89.46,1.76.95,2.63,1.45C46.11,34.27,46.15,34.39,46.18,34.48Z" transform="translate(-0.25 -0.25)"/><path d="M46.19,16.1c.11.31-.19.7-.7,1.1.09-.26.17-.52.26-.78A1.72,1.72,0,0,0,46.19,16.1Z" transform="translate(-0.25 -0.25)"/><path d="M44.14,14.28c-.11.36-.11.69-.28.84A12.4,12.4,0,0,1,41.54,17a2.4,2.4,0,0,1-3.29-1.78c0-.15.13-.48.19-.48a6.44,6.44,0,0,1,1,.21l.68-.47.51.64a1.23,1.23,0,0,0,0-.2,8.36,8.36,0,0,0,1.73,0A9.48,9.48,0,0,0,44.14,14.28Zm-2,1.41c-.61-.54-1.09.19-1.67.15l-.5-.65a3.62,3.62,0,0,0-.51.7c0,.08.22.32.38.4A1.89,1.89,0,0,0,42.14,15.69Z" transform="translate(-0.25 -0.25)"/><path d="M39.6,26.27c.41-1.21,1.56-2.12,2.51-1.9-1.21,1-2.62,1.9-1.07,3.72-.14.2-.27.4-.41.59A2.46,2.46,0,0,1,39.6,26.27Z" transform="translate(-0.25 -0.25)"/><path class="cls-4" d="M40.47,15.84c.58,0,1.06-.69,1.67-.15a1.89,1.89,0,0,1-2.3.6c-.16-.08-.41-.32-.38-.4a3.62,3.62,0,0,1,.51-.7Z" transform="translate(-0.25 -0.25)"/><path d="M41.66,13c.15,0,.3.15.45.23-.13.14-.24.4-.39.42a6,6,0,0,1-1.47,0c-.37,0-.76-.22-.56-.74.43-1.1.87-2.2,1.33-3.29.08-.18.29-.32.44-.48l.25.14L40.33,13C40.86,13,41.26,13,41.66,13Z" transform="translate(-0.25 -0.25)"/><path d="M36.91,10a3.47,3.47,0,0,1,1,2.64l-.23.18a5.62,5.62,0,0,1-.9-1c-.35-.62-.57-1.32-.87-2a8.75,8.75,0,0,0-.49-.75l-.23.1a12.51,12.51,0,0,1,.3,1.35c0,.26,0,.72-.19.78a.65.65,0,0,1-1-.4c-.16-.62-.25-1.26-.39-1.88a3.53,3.53,0,0,0-.35-1c-.72,1.33-1.38,2.61-3,3.18.09-.52.16-.89.22-1.26l-.24-.1-2.71,2.64a1.29,1.29,0,0,1-.17-.16c.18-.5.35-1,.53-1.51L28,10.65c-.45.63-.93,1.24-1.34,1.89-.24.36-.41.63-.92.44-.22-.08-.53.07-.84.12a2.43,2.43,0,0,1,.19-2.52c.07-.08.17-.16.17-.24a1.12,1.12,0,0,1,0-.27c.2-1.3,1.25-1.66,2.38-1.77a5.67,5.67,0,0,0,2.84-1.15c.19-.15.43-.36.63-.34a34.63,34.63,0,0,1,4.21.56c.36.08.57.84.84,1.29A8.79,8.79,0,0,0,36.91,10Z" transform="translate(-0.25 -0.25)"/><path class="cls-3" d="M37.28,13.53c.29.37.08,1.07-.44,1.49a.59.59,0,0,1-1-.16,2,2,0,0,0-.27-.22c-.1.94.45,1.19,1.21,1.28-.84,1.65-1.46,3.33-3.06,4.35a3.22,3.22,0,0,1-4-.29c-.39-.33-.84-.6-1.26-.89l-.24.32c.9.66,1.8,1.31,2.68,2a4,4,0,0,1,.54.55l-.21.27a34.2,34.2,0,0,1-3.51-.56A4.07,4.07,0,0,1,25.4,19.8a.63.63,0,0,1,0-.58c.48-.8,1-1.57,1.58-2.43-1.2.32-1.68,0-2-1-.08-.23-.12-.48-.2-.72-.15-.5-.27-1,.26-1.34a4.36,4.36,0,0,1,1.28-.29,1.8,1.8,0,0,1,.08.21l.6-.79c.52.47,1,.27,1.41-.15a7.33,7.33,0,0,0,.71-.76c.31-.41.54-.61,1.07-.2a1.28,1.28,0,0,0,1.12-.15c.78-.59,1.49-1.3,2.17-1.91a27,27,0,0,1,.62,7.55l-1.36-.79c.06.55,1.1,1.55,1.43,1.43a.87.87,0,0,0,.39-.66c0-.94,0-1.88,0-2.83V12.14l1.33-.26C36.36,12.41,36.83,13,37.28,13.53Zm-3.1,5.41-.1-.4c-.92.57-1.63.05-2.39-.29.4.65.83,1.25,1.64,1.16C33.63,19.38,33.9,19.11,34.18,18.94Zm-2.6-3.71c.89-.07,1.52-.71,1.79-2-1.37,2-2.71,1.54-4.08.32A2.61,2.61,0,0,0,31.58,15.23Z" transform="translate(-0.25 -0.25)"/><path class="cls-5" d="M35.72,5A11.9,11.9,0,0,1,37.3,5c-.35.83-.65,1.56-1,2.37a3.22,3.22,0,0,0-.65-.52A10.57,10.57,0,0,0,34,6.32a5.39,5.39,0,0,0-5.26,1.11c-.29.25-.85.19-1.29.28C26.14,8,25,8.46,24.77,10a.36.36,0,0,0,0,.1c0,.2-.28.36-.42.54l-.27-.1c.15-1.64.3-3.29.43-4.94,0-.53.31-.78.79-.78,1.49,0,3,0,4.45.1A27.9,27.9,0,0,0,35.72,5Z" transform="translate(-0.25 -0.25)"/><path d="M36.08,26.56l.24,0-.47.7a2.42,2.42,0,0,1-.91-2.33c.12-1.12,1-1.62,2.07-1.83-.45.49-1.14.92-1.29,1.49A5.07,5.07,0,0,0,36.08,26.56Z" transform="translate(-0.25 -0.25)"/><path class="cls-6" d="M34.75,28.84c0,.47-.11.64-.5.74a8,8,0,0,0-3.57,2.05c-.62.6-.58.65.1,1.2a6.76,6.76,0,0,1,1,1.23c-.67.71-.67.71.06,1.52-.65.46-.88,1-.14,1.72-1.07,0-2.15-.06-3.22,0s-2.15.29-3.22.46c-.1,0-.18.2-.26.31l-.58-.33c1.15-2,2.19-4.1,3.31-6.12a18.37,18.37,0,0,0,1.86-4.84,5.88,5.88,0,0,0,.14-.73c.19-1.51-.64-2.2-2.06-1.62a8.8,8.8,0,0,0-3.53,2.27,3.09,3.09,0,0,1-.64.45c0-1.86-.08-3.67,0-5.47,0-.54.61-1.05,1-1.64.46.49.8.87,1.16,1.24,1.09,1.11,2.59,1.15,4,1.45.6.13,1.23.1,1.84.19.87.12,1.2.91,1.63,1.49A9.2,9.2,0,0,1,34.75,28.84Z" transform="translate(-0.25 -0.25)"/><path d="M34.08,18.54l.1.4c-.28.17-.55.44-.85.47-.81.09-1.24-.51-1.64-1.16C32.45,18.59,33.16,19.11,34.08,18.54Z" transform="translate(-0.25 -0.25)"/><path d="M33.37,13.19c-.27,1.33-.9,2-1.79,2a2.61,2.61,0,0,1-2.29-1.72C30.66,14.73,32,15.19,33.37,13.19Z" transform="translate(-0.25 -0.25)"/><path class="cls-5" d="M24.33,15.46A2.71,2.71,0,0,0,26,17.79l-2.23,2.48A16.65,16.65,0,0,1,24,13c.11.4.28.69.2.81a1.23,1.23,0,0,0,0,1.33A1.31,1.31,0,0,1,24.33,15.46Z" transform="translate(-0.25 -0.25)"/></g></g></svg>