<svg xmlns="http://www.w3.org/2000/svg" viewBox="0 0 66.96 60.99"><title>remembering-icon</title><g id="Layer_2" data-name="Layer 2"><g id="Layer_1-2" data-name="Layer 1"><path d="M51.07,48c-1.49.39-2.88.82-4.31,1.11-2.08.44-4.19.77-6.28,1.17a31.33,31.33,0,0,1-7.1.56l-9.45-.39c-1.21,0-2.42,0-3.63,0a8.14,8.14,0,0,1-1.68-.31c-.93-.27-1.08-1-1.11-1.91-1.09,1.52-2.16,3-2.31,5s-.36,3.7-.64,5.53a7.38,7.38,0,0,1-.77,2,.7.7,0,0,1-.68.24,1,1,0,0,1-.41-.71,8.36,8.36,0,0,1,.1-1.41c.21-1.88.5-3.75.62-5.63a9.67,9.67,0,0,1,1.75-4.29c.93-1.6,2-3.1,3-4.67C19.6,42,21,39.81,22.3,37.52q2.22-3.93,4.2-8a20.49,20.49,0,0,0,1.1-3.46,3,3,0,0,0,0-.85l-.2-.16c-.42.32-.88.62-1.27,1a23,23,0,0,0-1.75,1.81c-1.39,1.61-2.75,3.24-4.1,4.88-.4.48-.7,1-1.12,1.48-.21.22-.68.46-.87.37s-.89-.17-.83-.82c.15-1.42.07-2.88.36-4.27a75.24,75.24,0,0,0,1.53-10c.16-2.05.3-4.1.51-6.15.15-1.48.47-2.94.57-4.42s0-3.14,0-4.72l-.19,0c-.07.13-.15.26-.21.4a51,51,0,0,0-2.51,9.15c-.59,3-1.26,6-1.79,9.09-.39,2.29-.63,4.61-.9,6.93-.07.55-.2,1.07-.81,1s-1.18-.18-1.12-1c.07-1.08.1-2.17.24-3.24.45-3.34.94-6.68,1.41-10,.07-.53.09-1.07.13-1.6l-.18,0c-.16.45-.34.9-.47,1.36-.54,1.83-1.1,3.66-1.57,5.5-.55,2.11-1,4.24-1.53,6.36a12.22,12.22,0,0,1-.41,1.43.75.75,0,0,1-1.1.54c-.48-.22-1-.34-.8-1.18.61-2.14,1-4.33,1.65-6.47s1.33-4.4,2-6.59a.56.56,0,0,0-.07-.47c-.3.61-.65,1.2-.89,1.83-.84,2.25-1.62,4.52-2.46,6.76-.54,1.44-1.14,2.86-1.72,4.28a.9.9,0,0,1-1.14.6c-.84-.28-1-.65-.68-1.41Q6.66,23.73,8,20a5.29,5.29,0,0,0,.17-.81l-.22-.08a17,17,0,0,0-.77,1.54C6.26,23,5.51,25.44,4.55,27.77a17.18,17.18,0,0,0-.85,5.09A27.48,27.48,0,0,0,3.76,39c.4,2.92-.52,5.59-1.07,8.35a9.08,9.08,0,0,1-.36,1.58c-.16.37-.47.87-.79.93a3.11,3.11,0,0,1-1.45-.32c-.09,0-.11-.41-.07-.61.51-2.3,1.13-4.58,1.51-6.91a20.66,20.66,0,0,0,0-3.85,43.62,43.62,0,0,1,.51-9,13.32,13.32,0,0,1,.7-2.28c.92-2.43,1.78-4.89,2.83-7.27A38.47,38.47,0,0,1,8.1,15a2.12,2.12,0,0,1,2.74-1,.82.82,0,0,0,.58-.17,16,16,0,0,1,1.4-1.09,3.89,3.89,0,0,1,3.12-.37c.22-.8.4-1.61.66-2.4.7-2.19,1.4-4.39,2.17-6.56A7.88,7.88,0,0,1,20,1.32c.25-.32.8-.41,1.24-.57,2.93-1.06,6-.68,9-.67,2.65,0,5.31-.07,8-.08,2.06,0,4.11,0,6.17.05s4.32,0,6.47,0c.78,0,1.29.11,1.13,1.25a1.48,1.48,0,0,0,.76,1.6,3.25,3.25,0,0,1,1.14,1.62,25.85,25.85,0,0,1,1,3.58c.29,1.45.46,2.91.72,4.37A7.33,7.33,0,0,0,56,14.25c.27.62.92.46,1.36.29a.89.89,0,0,1,1.18.38c.58.71,1.23,1.35,1.85,2,.05,0,.13.12.18.11,1.66-.15,2.25,1.28,2.9,2.25a21.89,21.89,0,0,1,3.24,7.76,20.66,20.66,0,0,1-.24,7.68c-.36,2.16-.89,4.28-1.21,6.44a25.68,25.68,0,0,0,.27,7.92,22,22,0,0,1,.24,2.81,1,1,0,0,1-.6.7c-.43.17-1.13-.43-1.17-.91-.19-2.5-.46-5-.54-7.48A24.07,24.07,0,0,1,63.81,40c.38-2.62.93-5.23,1.24-7.86a13.55,13.55,0,0,0-1.11-7.25,5.73,5.73,0,0,0,.07.58,4,4,0,0,1,.18.56c.07.56,0,1.07-.66,1.21a1.19,1.19,0,0,1-1.27-.87c-.27-1.08-.47-2.19-.81-3.25s-.88-2.36-1.35-3.54a2.9,2.9,0,0,0-.41-.53c.44,1.53.86,2.87,1.22,4.23a29.13,29.13,0,0,1,.63,3.06,1,1,0,0,1-.44.79c-.36.11-.91.26-1.09-.38-.37-1.33-.72-2.68-1.13-4-.47-1.51-1-3-1.51-4.51a.84.84,0,0,0-.47-.5c.08.34.18.67.23,1,.21,1.58.4,3.16.61,4.73.17,1.27.39,2.53.5,3.8a1.06,1.06,0,0,1-.52.87.69.69,0,0,1-1-.61c-.16-1.11-.34-2.21-.51-3.32-.31-2-.56-4-.94-6-.77-4-1.59-7.89-2.43-11.82a23.54,23.54,0,0,0-.8-2.36c-.15.22-.24.3-.24.37,0,1.68,0,3.36.09,5,.1,2.06.32,4.11.43,6.16.08,1.49,0,3,.1,4.47A73.07,73.07,0,0,0,54.2,31.51c.16.67.22,1.36.32,2.07-.86.72-1.31.64-1.88-.42-.91-1.7-1.75-3.45-2.73-5.12-.84-1.43-1.84-2.77-2.78-4.14-.16-.24-.35-.47-.52-.71l-.21.13a2.19,2.19,0,0,0-.12.54c.18,3.17.08,6.39,1.07,9.44s2.21,6.21,3.31,9.32a42.57,42.57,0,0,1,1.82,5.53,14.67,14.67,0,0,1,0,4.13c-.13,1.7-.36,3.4-.6,5.09a15.33,15.33,0,0,1-.57,2.29c-.06.19-.34.32-.51.49-.13-.22-.38-.45-.36-.66.05-1,.19-1.92.29-2.88.24-2.34.51-4.67.7-7A5.77,5.77,0,0,0,51.07,48ZM23.26,26.91a3.09,3.09,0,0,0,.64-.45,8.67,8.67,0,0,1,3.53-2.26c1.42-.59,2.25.1,2.07,1.61a5.9,5.9,0,0,1-.15.73,17.58,17.58,0,0,1-1.86,4.84c-1.22,2.21-2.34,4.47-3.61,6.65-1.37,2.36-2.87,4.64-4.31,7-.08.14-.23.35-.18.45.43.9,0,1.76-.05,2.63-.09,1,0,1.16,1,1.18.22,0,.45,0,.67,0,1.19,0,2.38-.16,3.57-.12,2.65.08,5.31.28,8,.33a33.44,33.44,0,0,0,4.9-.24c2.87-.39,5.73-.92,8.59-1.41a12.34,12.34,0,0,0,4.39-1.51c-1.2-3-2.38-6.06-3.55-9-.55,0-1.09,0-1.63,0-1.39.08-2.77.23-4.15.3-1.56.07-3.12.1-4.68.13L31,37.75c-1.33,0-2.66,0-4,.09-.61,0-1.22.17-1.83.23-.13,0-.27-.15-.41-.23.09-.11.16-.3.26-.32,1.07-.17,2.14-.38,3.22-.45s2.15,0,3.23,0c-.75-.72-.52-1.26.13-1.72-.72-.81-.72-.81-.05-1.52a7.25,7.25,0,0,0-1-1.23c-.68-.55-.71-.6-.09-1.2a7.92,7.92,0,0,1,3.56-2,.57.57,0,0,0,.5-.74,9,9,0,0,0-1.62-4.42c-.42-.58-.76-1.38-1.62-1.5-.62-.09-1.25-.05-1.85-.18-1.39-.31-2.88-.35-4-1.46-.36-.37-.7-.75-1.15-1.23-.37.58-.94,1.09-1,1.64C23.19,23.24,23.26,25.05,23.26,26.91ZM37.83,10.67c.61,1,.21,2.19,0,3.34-.31,1.34.22,3.24,1.08,3.82a3.22,3.22,0,0,0,4.34-.72c.34-.43.74-.81,1.16-1.26.31.85-.85,2.23-2.27,3a3,3,0,0,1-2.24.31A3.69,3.69,0,0,1,37.12,16c-1.41,2.35-2.23,4.95-5.28,5.42.36.51.67.92.94,1.36a33.73,33.73,0,0,1,1.83,3.11,13,13,0,0,1,.62,2.36,1,1,0,0,0,1.17.86,2.63,2.63,0,0,1,1,0,28,28,0,0,1,7.27,3.37,5.31,5.31,0,0,0,.83.35c-.11-.76-.26-1.38-.3-2-.17-2.38-.35-4.75-.44-7.13a1.41,1.41,0,0,1,2-1.44,14.73,14.73,0,0,1,1.83.91l-.14-3.29c-.39.33-.68.79-1,.8a20.86,20.86,0,0,1-2.72-.26c-.43-.05-.63-.29-.47-.72s.38-.8.52-1.21c.44-1.29.86-2.59,1.28-3.88a1.9,1.9,0,0,1,.93-1.27,2,2,0,0,0,.67-2.47c-.23.19-.49.55-.68.52-.91-.17-1.43.53-2.12.86a2.17,2.17,0,0,1-3.08-1.72c0-.05.08-.11.19-.26.19.23.37.41.52.62.74,1,1.24,1.15,2.35.58.5-.25,1-.55,1.62-.91-.35-.59-.74-1.18-1-1.81s-.7-.91-1.49-.56A2.66,2.66,0,0,1,42,8.44a1.73,1.73,0,0,0-1.63.12,6.77,6.77,0,0,1-1.81.5A9.46,9.46,0,0,1,36.87,9c.13.83.81.73,1.27,1s.85.61,1.43.35c.09,0,.27.1.41.15l0,.21ZM52.08,29.11h.09c-.09-.37-.2-.74-.28-1.12a22.11,22.11,0,0,1-.59-3q-.48-6.19-.83-12.4c-.15-2.48-.22-5-.31-7.44,0-.44.05-.89.07-1.33l.06-2c0-.46-.22-.59-.65-.58-1.86,0-3.72,0-5.58,0-1.66,0-3.33-.06-5-.06-3,0-6.11,0-9.16,0-2.39,0-4.8-.49-7.17.36-.87.31-.92.26-.71,1.19a19.46,19.46,0,0,1,.27,6.59c-.34,2.83-.88,5.64-1.1,8.47a77.08,77.08,0,0,1-1.48,11c-.14.63-.18,1.28-.3,2.14.29-.23.4-.28.48-.37.85-1,1.7-2,2.53-3a.92.92,0,0,0,.14-.57c0-.69-.09-1.38-.06-2.06.06-2,.19-4,.24-6,0-1.21-.09-2.42,0-3.61.14-2.07.38-4.13.56-6.2.11-1.28.17-2.57.3-3.85s.16-1.22,1.29-1.23c3.24,0,6.48,0,9.71,0,1,0,2.08-.1,3.12-.09,2,0,4.06,0,6.08.18,1.54.13,3,.75,4.62.52a.9.9,0,0,1,.69.51,8,8,0,0,1,.4,2.31c0,2.07-.22,4.14-.32,6.21s-.08,3.92-.2,5.88c-.08,1.31.6,2.66-.19,3.94,0,.1.06.34.15.46.46.66,1,1.27,1.41,1.95C51,27,51.51,28.08,52.08,29.11ZM31.08,22l.21-.27a7,7,0,0,0-.54-.55l-2.68-2,.23-.33c.43.3.88.56,1.27.89a3.21,3.21,0,0,0,4,.29c1.61-1,2.22-2.7,3.06-4.34-.76-.1-1.31-.35-1.2-1.28a1.76,1.76,0,0,1,.26.21c.27.36.58.46,1,.17s.74-1.13.44-1.49c-.45-.57-.92-1.13-1.35-1.66l-1.33.26c0,.69,0,1.45,0,2.22,0,.94,0,1.88,0,2.82a.83.83,0,0,1-.38.66c-.34.12-1.37-.88-1.44-1.43l1.36.79a26.52,26.52,0,0,0-.62-7.54c-.68.6-1.38,1.31-2.17,1.9a1.25,1.25,0,0,1-1.12.15c-.52-.41-.76-.21-1.07.2a6.39,6.39,0,0,1-.71.76c-.43.42-.89.63-1.41.15l-.59.79-.08-.21a4.77,4.77,0,0,0-1.29.29c-.52.3-.41.85-.25,1.35.07.23.12.48.19.72.33,1.07.82,1.35,2,1-.57.87-1.09,1.64-1.58,2.43a.66.66,0,0,0,0,.58,4.08,4.08,0,0,0,2.42,1.84A33.77,33.77,0,0,0,31.08,22ZM46.65,36.42c-.26-.78-.48-1.49-.72-2.19,0-.09-.07-.21-.14-.25-.87-.49-1.74-1-2.63-1.45-.66-.34-1.35-.61-2-1s-1.44-.87-2.21-1.19a7.68,7.68,0,0,0-2.72-.82,7.88,7.88,0,0,0-4.29,1.35,7.45,7.45,0,0,0-.86.75l.09.2,2-.3c.85-.1,1.71-.19,2.57-.24.13,0,.28.26.43.4-.16.11-.31.29-.48.32-.59.08-1.19.07-1.78.18s-1.24.32-1.86.49l0,.32h4.79c.3.66.09.84-.4.85s-1.24,0-1.86.08-1.31.18-2,.27v.27l4.06.41c.18.54,0,.72-.53.7-1,0-2-.09-3-.11a1.09,1.09,0,0,0-1.2.75c.52.18,1,.37,1.48.51,1.52.43,3-.26,4.57-.07a36.16,36.16,0,0,0,5.1,0C44.32,36.68,45.45,36.53,46.65,36.42Zm-22-23.57c.31,0,.61-.19.83-.11.51.18.69-.08.92-.45.42-.65.89-1.26,1.34-1.88l.28.13-.54,1.51.17.16,2.72-2.65.23.1-.22,1.27c1.58-.58,2.24-1.86,3-3.18a3.41,3.41,0,0,1,.36,1c.13.63.22,1.26.38,1.88a.65.65,0,0,0,1,.41c.15-.07.22-.52.19-.79a9.34,9.34,0,0,0-.3-1.35l.23-.1a5.17,5.17,0,0,1,.49.76c.3.65.52,1.34.87,2a5.66,5.66,0,0,0,.9,1l.23-.17a3.48,3.48,0,0,0-1-2.65,10.87,10.87,0,0,1-.75-1.29c-.26-.46-.48-1.22-.83-1.3a34.89,34.89,0,0,0-4.21-.56c-.2,0-.44.19-.64.34a5.55,5.55,0,0,1-2.84,1.16c-1.19.11-2.32.51-2.41,2,0,.08-.1.16-.16.23A2.41,2.41,0,0,0,24.63,12.85Zm-.81-2.56.26.1c.15-.18.39-.35.42-.55.21-1.61,1.37-2.11,2.73-2.38.44-.09,1,0,1.29-.28a5.41,5.41,0,0,1,5.27-1.11,10.5,10.5,0,0,1,1.63.57,2.67,2.67,0,0,1,.65.51l1-2.37a11.9,11.9,0,0,0-1.58,0,27.91,27.91,0,0,1-6-.13c-1.47-.11-3-.08-4.44-.09-.49,0-.76.25-.8.78C24.12,7,24,8.64,23.82,10.29Zm1.92,7.26a2.73,2.73,0,0,1-1.65-2.34,1.57,1.57,0,0,0-.1-.28,1.25,1.25,0,0,1,0-1.33c.08-.12-.1-.41-.21-.81A16.66,16.66,0,0,0,23.51,20Z"/><path d="M43.9,14c-.12.35-.12.69-.28.84a13.22,13.22,0,0,1-2.33,1.92A2.41,2.41,0,0,1,38,15c0-.15.13-.48.19-.48a7.53,7.53,0,0,1,1,.21l.69-.47.5.64,0-.2a8.27,8.27,0,0,0,1.72,0A10.13,10.13,0,0,0,43.9,14Zm-4.18.9a3.21,3.21,0,0,0-.5.71c0,.07.21.31.38.4a1.88,1.88,0,0,0,2.29-.61c-.61-.53-1.09.19-1.66.15Z"/><path d="M41.47,9.07l-1.38,3.67c.52,0,.92,0,1.32,0a1.48,1.48,0,0,1,.45.23c-.13.15-.24.4-.39.42a6.56,6.56,0,0,1-1.47,0c-.37,0-.76-.23-.56-.75.43-1.1.87-2.19,1.33-3.28.08-.19.29-.33.44-.49Z"/><path d="M40.79,27.84l-.41.6a2.49,2.49,0,0,1-1-2.42c.41-1.21,1.56-2.11,2.52-1.9C40.66,25.1,39.24,26,40.79,27.84Z"/><path d="M36.77,22.83c-.45.49-1.14.92-1.29,1.49a4.87,4.87,0,0,0,.35,2h.24L35.6,27a2.42,2.42,0,0,1-.9-2.33C34.82,23.54,35.69,23.05,36.77,22.83Z"/><path d="M29.05,13.27c1.37,1.21,2.7,1.68,4.07-.33-.27,1.34-.9,2-1.78,2A2.59,2.59,0,0,1,29.05,13.27Z"/><path d="M33.93,18.7c-.28.16-.55.43-.84.46-.82.09-1.25-.51-1.65-1.15.76.34,1.48.85,2.39.28Z"/></g></g></svg>