<svg xmlns="http://www.w3.org/2000/svg" viewBox="0 0 53.4 73.68"><defs><style>.cls-1{fill:#f89fbc;}</style></defs><title>risk-icon</title><g id="Layer_2" data-name="Layer 2"><g id="Layer_1-2" data-name="Layer 1"><path class="cls-1" d="M2.5,66.06s-2.76,6.84,3.33,4,14.38-8.28,13-2.81,1.7,10.14,5.92,2,6-14.59,9.09-15.75a37.83,37.83,0,0,0,6.44-3.44l4.24-4.24s2.75-5.57,3-5.9,4.27-10.2,4.27-10.2a15.44,15.44,0,0,0-.28-3.32,6.74,6.74,0,0,0-.91-1.13l-2,1.46L43,33.66s-5.88,4.55-6,4.6-5.77,2.5-5.77,2.5l-1.83-.54-1.49-2.29,1.55-3.6,2.88-3.72L36,26.9l3.76-1.45,9.76-.54h2l1-1,.38-1.25-3-.86-4-1.05-6.71.33L31.33,23.3l3.75-4.38L45.14,8.86l5.79-5.24,1.13-2L51,1.19,49,.9s-8.32,5.77-8,5.55S44,1.63,44,1.63l-.52-.56L36.76,4,37.32.9H35.69L31.55,3.35l-10.7,7.37-6.37,5.76-7,9.59L5.39,33.38v9l.72,2.83.5,2.66L6.28,50l-1.5,7.76-2.9,6.65Z"/><path d="M51,1.19a4.41,4.41,0,0,0-1.05.31c-2.21,1.41-4.43,2.8-6.59,4.28-1.36.94-2.61,2-3.91,3.06-.76.6-1.57,1.15-2.28,1.8-1.42,1.33-2.77,2.72-4.19,4s-2.66,2.4-4,3.6l-4.76,4.3a4.9,4.9,0,0,1-1,.83,1.23,1.23,0,0,1-1-.09c-.37-.2-.32-.6-.06-.89.75-.83,1.48-1.7,2.3-2.46,1.94-1.78,3.94-3.49,5.88-5.27,1.07-1,2-2.12,3.1-3.12,1.68-1.59,3.41-3.12,5.1-4.71.64-.6,1.23-1.27,1.83-1.92.8-.88,1.59-1.77,2.36-2.68a10.14,10.14,0,0,0,.75-1.21c-1.06.65-2,1.19-2.85,1.75-2.19,1.41-4.44,2.75-6.56,4.26A46.55,46.55,0,0,0,30,10.56c-2,1.8-4,3.59-6,5.49-1.72,1.69-3.32,3.52-5,5.3-.27.29-.51.61-.77.91a.93.93,0,0,1-1.66-.41.76.76,0,0,1,.17-.58c1.74-2,3.45-4.06,5.27-6,.87-.93,2-1.64,2.93-2.51s1.87-1.83,2.82-2.72a24.19,24.19,0,0,1,4.41-3.65,3.48,3.48,0,0,0,.85-.78c1.09-1.17,2.17-2.34,3.24-3.53a5.69,5.69,0,0,0,.41-.63l-.14-.18c-.3.16-.62.32-.92.51s-.44.4-.7.55c-1.47.8-3,1.55-4.43,2.38a36.52,36.52,0,0,0-3.27,2c-1.76,1.27-3.5,2.57-5.17,3.95a57.16,57.16,0,0,0-4.53,4.13,39,39,0,0,0-5,5.76c-.64,1-1.45,1.85-2,2.85a21.91,21.91,0,0,0-1.9,3.7C8,29,7.49,30.91,6.93,32.81a22.77,22.77,0,0,0-.58,7.26c.05,1.57.3,3.13.49,4.69s.57,3.39.65,5.1A9.58,9.58,0,0,1,7,54c-.77,1.89-1.42,3.82-2.14,5.73-.33.88-.74,1.73-1.05,2.61-.6,1.67-1.19,3.35-1.7,5A1.43,1.43,0,0,1,.23,68,.83.83,0,0,1,0,67.3c1.2-3.17,2.13-6.44,3.64-9.49a30.1,30.1,0,0,0,1.43-4.1,15.2,15.2,0,0,0,.07-7.55,33.94,33.94,0,0,1-.66-9.6,39.62,39.62,0,0,1,1.87-8.85A23.62,23.62,0,0,1,10,21.17c1.13-1.46,2.15-3,3.4-4.39,1.9-2.06,3.87-4.07,6-5.93a54.36,54.36,0,0,1,8.86-6.42c1.68-1,3.32-2,5.05-2.89A23.49,23.49,0,0,1,37,.15a2.54,2.54,0,0,1,1.37.18c.49.17.4,1,.23,1.66a1.52,1.52,0,0,0-.12.58l1.46-.77A14.48,14.48,0,0,1,44,0a1.36,1.36,0,0,1,1,.26.87.87,0,0,1,.17,1.17,13,13,0,0,0-1,1.9,6,6,0,0,0,.74-.3C46.26,2.33,47.58,1.54,49,.9a6,6,0,0,1,2.3-.54,1.73,1.73,0,0,1,1.32.7c.18.27-.06.93-.28,1.31a12,12,0,0,1-1.37,1.89c-.83,1-1.7,1.88-2.6,2.76s-2.16,1.92-3.19,2.92c-1.58,1.53-3.1,3.11-4.69,4.63S37.22,17.49,35.64,19c-1,.93-1.9,1.93-2.83,2.91a2,2,0,0,0-.21.39c.61-.25,1.11-.42,1.57-.66a12.44,12.44,0,0,1,4.68-1.22c2.15-.18,4.31-.19,6.46-.22a5.35,5.35,0,0,1,1.46.3c.91.24,1.81.58,2.75.74a7.92,7.92,0,0,1,3.36,1.43,1,1,0,0,1,.49,1c-.12.49,0,1.11-.78,1.26a5.16,5.16,0,0,0-1,.4c.19.58.37,1.13.57,1.67a6.53,6.53,0,0,1-.33,5.14c-1.25,2.82-2.43,5.67-3.65,8.51A28.79,28.79,0,0,1,46.61,44a16,16,0,0,1-2.26,3C43,48.4,41.5,49.72,40,51a14.62,14.62,0,0,1-2.35,1.44,29.31,29.31,0,0,0-4,2.21,9.8,9.8,0,0,0-2.28,2.92c-.9,1.59-1.63,3.28-2.42,4.94-.14.31-.21.65-.36,1-.46,1-.95,1.92-1.43,2.88-.81,1.61-1.63,3.21-2.43,4.83a.87.87,0,0,1-1.11.49c-.47-.22-.7-.52-.4-1.08.95-1.73,1.93-3.46,2.78-5.24,1.3-2.71,2.47-5.47,3.77-8.18a8,8,0,0,1,4-4.16,23.34,23.34,0,0,0,6.46-3.91c2-1.87,4-3.69,5.3-6.15.46-.87.78-1.82,1.18-2.74,1.09-2.47,2.21-4.92,3.27-7.4a29.84,29.84,0,0,0,1.08-3,5.27,5.27,0,0,0-.51-3.59c0-.09-.41-.14-.52-.07a3.55,3.55,0,0,0-.61.67c-.82,1-1.62,2.1-2.45,3.14-1,1.28-2,2.59-3.09,3.78s-2,2.84-3.55,3.71c-1.27.7-2.54,1.38-3.83,2a18.48,18.48,0,0,1-2.94,1.34,7.58,7.58,0,0,1-3.1.44A3.64,3.64,0,0,1,27.84,39c-.11-.23-.37-.38-.51-.6s-.36-.57-.29-.78a9.74,9.74,0,0,1,1-2.56A40.76,40.76,0,0,1,33.77,28a10.38,10.38,0,0,1,4.79-2.59,57.16,57.16,0,0,1,9.77-.88c.84-.05,1.68,0,2.52,0a2.54,2.54,0,0,0,.92-.26.61.61,0,0,0,.09-1.08,3.54,3.54,0,0,0-.91-.5,36.7,36.7,0,0,0-6.15-1.49,43.46,43.46,0,0,0-6.92.37,4.1,4.1,0,0,0-1.26.59,4,4,0,0,1-.45.26,40.66,40.66,0,0,0-7.55,4.12,1,1,0,0,1-.64.22,1.4,1.4,0,0,1-.84-.47c-.08-.13.18-.57.38-.78C29,23.86,30.44,22.26,32,20.75c2.45-2.37,5-4.66,7.46-7,.86-.81,1.61-1.74,2.46-2.57,1.59-1.53,3.18-3.05,4.82-4.51A18.9,18.9,0,0,0,50,2.92c.33-.52.73-1,1.09-1.49ZM48.53,25.55l-.08-.22c-1,.06-2,.08-2.94.19-2.14.24-4.31,0-6.44.61a9.5,9.5,0,0,0-4.59,2.67c-1.59,1.71-3,3.62-4.42,5.45-.28.36-.52.75-.79,1.11a2.88,2.88,0,0,0-.43,2.69c.5,1.7,1.73,2.78,3.68,1.8s4.11-2.1,6.18-3.13a9.19,9.19,0,0,0,2.69-2.58c1.91-2.21,3.83-4.4,5.72-6.62C47.63,26.9,48.06,26.21,48.53,25.55Z"/><path d="M40.19,27.29,38,28.55a2.82,2.82,0,0,1-.81.37c-.23,0-.65,0-.72-.17a.88.88,0,0,1,.15-.75A5.41,5.41,0,0,1,41,26.52a1.21,1.21,0,0,1,.92,1.24c0,1.82-1.37,2.57-2.61,3.42a5.62,5.62,0,0,1-1.13.61,2.36,2.36,0,0,0-1.3,1.53c-.18.55-.63.56-1,.68s-.87-.49-.72-.9A4,4,0,0,1,36.8,31c1.05-.66,2.05-1.41,3.05-2.16C40.25,28.5,40.41,28.06,40.19,27.29Z"/><path d="M35.69,36.13c0,.52-.69,1.38-1.13,1.35s-.75-.21-.75-.69c0-.76.47-1.34,1-1.33S35.69,35.65,35.69,36.13Z"/></g></g></svg>