<svg xmlns="http://www.w3.org/2000/svg" width="115.53" height="26.855" viewBox="0 0 115.53 26.855">
  <g id="Group_44" data-name="Group 44" transform="translate(-2031.906 -22.595)">
    <path id="Path_143" data-name="Path 143" d="M2135.241,49.05c-1.018,0-2.036,0-3.054,0-1.114-.008-2.229-.037-3.344-.041-.8,0-1.6.03-2.405.026-.73,0-1.46-.039-2.191-.053-.424-.009-.848,0-1.272-.007-.361-.006-.722-.04-1.083-.037q-2.216.018-4.433.052c-1.4.022-2.8.055-4.205.085-1.247.026-2.493.059-3.74.078-.8.011-1.592,0-2.387,0-.82,0-1.641.008-2.461.021-1.1.016-2.2.053-3.3.058-1.214.005-2.429-.018-3.644-.024-1.092-.005-2.184,0-3.275-.005-.547,0-1.094-.043-1.641-.034-.949.015-1.9.062-2.847.082q-2.263.046-4.527.074c-1.4.018-2.8.018-4.207.04-1.147.017-2.294.061-3.441.083-.492.01-.984,0-1.476-.009-.811-.005-1.623,0-2.434-.019-.573-.011-1.146-.05-1.719-.067-.22-.006-.442.022-.663.022-.613,0-1.226-.006-1.84-.01-.476,0-.952,0-1.428,0q-.537,0-1.075.008c-.294,0-.588.021-.883.02-.909-.006-1.817-.026-2.726-.026-1.272,0-2.544.027-3.816.02-1.905-.009-3.81-.04-5.715-.058-.778-.007-1.557.008-2.335-.007-1.025-.019-2.049-.074-3.074-.084-1.526-.015-3.053.005-4.579-.006-.777,0-1.554-.063-2.33-.064-.926,0-1.852.032-2.777.046-.351,0-.7-.01-1.053-.01-.179,0-.359.013-.538.021-1.073.05-2.145.105-3.218.149-.548.023-1.1.032-1.645.037a.67.67,0,0,1-.548-.731,1.075,1.075,0,0,0,.015-.437.57.57,0,0,1,.523-.744,14.085,14.085,0,0,1,1.684-.172c.438-.034.878-.046,1.318-.069.27-.013.54-.035.81-.041.638-.016,1.277-.031,1.915-.034q2.128-.01,4.257,0c.491,0,.981.041,1.472.044.417,0,.834-.029,1.252-.033.237,0,.474.032.711.031,1.272-.009,2.543-.028,3.814-.036.745-.006,1.49.005,2.235,0,.532,0,1.064-.035,1.6-.032,1.33.009,2.659.019,3.988.05.818.02,1.635.093,2.454.114.982.024,1.965.014,2.948.026.77.01,1.541.036,2.311.047.246,0,.491-.023.737-.028q1.671-.038,3.344-.07,1.143-.022,2.288-.04c.788-.013,1.576-.029,2.364-.035s1.557-.014,2.335,0c1.863.025,3.725.066,5.588.089.892.011,1.786,0,2.679-.006.845,0,1.69-.018,2.536-.022,1.519-.008,3.038-.006,4.558-.019,1.435-.012,2.87-.039,4.3-.058.8-.011,1.591-.027,2.386-.028.279,0,.557.053.835.051,1.642-.012,3.284-.033,4.927-.048.811-.008,1.622-.005,2.434-.013q1.292-.012,2.585-.035c.664-.01,1.328-.037,1.992-.037.918,0,1.837.026,2.756.021,1.4-.007,2.8-.033,4.2-.048.934-.009,1.868-.02,2.8-.017,1.378,0,2.757.026,4.135.025,1.148,0,2.3-.031,3.444-.036,1.2,0,2.4.008,3.6.005.983,0,1.966-.026,2.949-.024q1.893,0,3.786.036c1.6.025,3.2.084,4.8.082.973,0,1.947-.1,2.921-.142.241-.011.487-.106.718.107a.5.5,0,0,1,.214.386c-.005.383-.01.767-.04,1.149-.006.066-.13.167-.207.175-.619.064-1.24.13-1.862.157-1.04.047-2.081.076-3.122.093-.96.015-1.92,0-2.88.005l-2.288,0q-.9,0-1.8,0Z" fill="#2aa680"/>
    <path id="Path_144" data-name="Path 144" d="M2093.55,31.867c.339-.062.655-.1.961-.177a3.373,3.373,0,0,1,2.2.395,2.967,2.967,0,0,1,1.171.822,3.779,3.779,0,0,1,.669,1.154,3.247,3.247,0,0,0,.186.423,3.421,3.421,0,0,1,.355,1.289c.057.609.138,1.215.184,1.823.028.368.007.739.011,1.109,0,.48.023.961.015,1.441s-.047.95-.062,1.425c0,.136-.112,1.176-.112,1.176h0c0,.192,0,.259-.146.247-.1.025.069,0,0,0-.629,0-1.259.008-1.889,0a2.42,2.42,0,0,1-.389-.015c-.068-.014.068-.015,0,0-.394.073-.55-.082-.542-.357.03-1.014.063-2.027.075-3.041a7.477,7.477,0,0,0-.09-.851q-.045-.446-.083-.893c-.034-.4-.047-.8-.1-1.2a1.4,1.4,0,0,0-.694-.967,1.658,1.658,0,0,0-.731-.3.988.988,0,0,0-1.222.968c-.1.6-.174,1.213-.241,1.822-.078.723-.138,1.449-.2,2.173a1.5,1.5,0,0,0,0,.222,7.006,7.006,0,0,1-.082,1.734c-.018.1-.07-.526-.022-.442a3.084,3.084,0,0,1-.033,1.311c-.011.031-.123.044-.185.037-.148-.017.142-.018,0,0-1.32-.017-1.793,0-2.149-.014-.064-.013-.171,0-.241-.01-.17-.024-.33.018-.341-.144-.034-.468-.053-.937-.077-1.405-.025-.5-.074-1-.07-1.5.009-1.1.044-2.211.07-3.316.005-.238.023-.476.025-.713q.006-1.107,0-2.214c0-1.237-.017-2.473-.012-3.71q.006-1.548.046-3.1c.017-.662.074-1.324.093-1.986.019-.626.022-1.254.013-1.88,0-.227.072-.323.3-.355.256-.038.5-.141.761-.162.346-.027.7.008,1.045-.005s.685-.042,1.025-.087a.464.464,0,0,1,.591.488c0,.31-.036.62-.036.931,0,.383.024.766.033,1.149.006.292,0,.585.007.878,0,.465.016.93.013,1.4,0,.752-.022,1.5-.027,2.254,0,.362.023.723.014,1.084-.006.277-.049.553-.071.83C2093.544,31.7,2093.55,31.783,2093.55,31.867Z" fill="#2aa680"/>
    <path id="Path_145" data-name="Path 145" d="M2038.075,24.7c.16.015.356.027.55.052a4.484,4.484,0,0,1,1.512.24,4.53,4.53,0,0,1,1.513,1.147c.1.124.218.241.315.37a5.48,5.48,0,0,1,.611,1.515.447.447,0,0,1-.154.373c-.653.507-1.322.991-1.983,1.487a5.233,5.233,0,0,0-.475.388c-.217.2-.357.184-.441-.093a2.675,2.675,0,0,0-.7-1.22,1.55,1.55,0,0,0-.685-.35c-.33-.074-.648.36-.628.751a4.972,4.972,0,0,0,.671,2.015,8.382,8.382,0,0,0,.827,1.092c.083.11.137.242.211.359q.493.775.99,1.549a8.72,8.72,0,0,1,.717,1.139,10.546,10.546,0,0,1,.507,1.583,3.13,3.13,0,0,1,.095.9c-.017.4-.093.794-.148,1.19a6.464,6.464,0,0,1-.122.75,4.365,4.365,0,0,1-1.6,2.618,3.04,3.04,0,0,1-1.411.58c-.446.053-.888.149-1.335.173a3.208,3.208,0,0,1-1.178-.12,6,6,0,0,1-2.643-1.666c-.289-.311-.605-.6-.906-.9-.234-.234-.212-.377.043-.582.656-.527,1.3-1.069,1.958-1.6a2.947,2.947,0,0,1,.58-.365.337.337,0,0,1,.293.066c.283.258.533.554.825.8a.932.932,0,0,0,.508.2,1.214,1.214,0,0,0,1.028-.2.93.93,0,0,0,.326-.878,2.831,2.831,0,0,0-.564-1.44c-.575-.681-1.073-1.427-1.652-2.1a8.866,8.866,0,0,1-1.394-2.038,2.513,2.513,0,0,1-.317-1.3,2.286,2.286,0,0,0-.047-.538,4.787,4.787,0,0,1,.2-2.039,14.126,14.126,0,0,1,.527-1.549,3.8,3.8,0,0,1,1.284-1.548A4.323,4.323,0,0,1,2038.075,24.7Z" fill="#2aa680"/>
    <path id="Path_146" data-name="Path 146" d="M2064.966,41.428a4.85,4.85,0,0,1-3.488,1.4,6.286,6.286,0,0,1-2.329-.42,3.284,3.284,0,0,1-1.765-1.339,5.487,5.487,0,0,1-.9-2.362,10.5,10.5,0,0,1,.052-1.463,4.874,4.874,0,0,1,.5-1.813,6.059,6.059,0,0,1,1.4-2.03,3.693,3.693,0,0,1,1.366-.8c.293-.091.573-.223.861-.331a.655.655,0,0,1,.235-.046,12.168,12.168,0,0,1,1.324.031,3.723,3.723,0,0,1,1.723.516,1.733,1.733,0,0,0,.166.088c.009-.17.007-.311.027-.449.028-.195.082-.327.351-.276a1.726,1.726,0,0,0,.573-.1,1.711,1.711,0,0,1,.337-.052c.481.009.962.034,1.442.041a.783.783,0,0,1,.823.947c-.035.592-.008,1.188-.011,1.783,0,.245-.025.49-.012.734.031.612.083,1.224.115,1.836.015.286,0,.573.007.86.016.759,0,1.52.062,2.276.051.639.186,1.271.285,1.906a.346.346,0,0,0,.015.072c.133.4-.012.591-.433.612-.5.024-1,.06-1.5.091-.342.022-.633-.005-.79-.453-.081-.229-.238-.432-.325-.66A3.683,3.683,0,0,1,2064.966,41.428Zm-5.684-3.576a2.215,2.215,0,0,0,.795,1.595,2.983,2.983,0,0,0,.531.3,2.686,2.686,0,0,0,1.718.4,2.023,2.023,0,0,0,1.482-1.021,1.01,1.01,0,0,0,.114-.466c.008-.393-.019-.785-.021-1.178,0-.21.086-.446.015-.624a3.824,3.824,0,0,0-.591-1.088,1.987,1.987,0,0,0-.8-.417,1.758,1.758,0,0,0-.507-.048,2.159,2.159,0,0,0-1.628.6,7.084,7.084,0,0,0-.579.631A2.678,2.678,0,0,0,2059.282,37.852Z" fill="#2aa680"/>
    <path id="Path_147" data-name="Path 147" d="M2119.212,41.615a3.729,3.729,0,0,1-.456.372,3.617,3.617,0,0,1-1.247.508c-.5.071-.988.2-1.486.258a3.1,3.1,0,0,1-.975-.047,7.581,7.581,0,0,1-1.3-.409,2.411,2.411,0,0,1-1.015-.9,8.123,8.123,0,0,1-.652-1.278,7.8,7.8,0,0,1-.482-1.993,3.224,3.224,0,0,1,.026-.758,6.176,6.176,0,0,1,.875-2.9,4.351,4.351,0,0,1,.48-.789,3.972,3.972,0,0,1,1.52-1.161,4.914,4.914,0,0,1,1.24-.28,6.372,6.372,0,0,1,1.616.076,7.887,7.887,0,0,1,1.353.531,1.1,1.1,0,0,0,.044-.214.722.722,0,0,1,.724-.706c.545.039,1.092.041,1.639.056.228.006.455.011.683.007s.332.1.325.307c-.012.324-.055.647-.061.971-.008.444.006.887.012,1.331.012.959,0,1.92.045,2.878.053,1.121.143,2.241.244,3.358.043.472.163.936.233,1.4.054.36.02.441-.334.492-.529.076-1.067.1-1.6.141-.3.026-.6.071-.9.083-.393.016-.526-.126-.523-.528,0-.164.019-.328.019-.492A2.659,2.659,0,0,0,2119.212,41.615Zm-.679-3.921c-.025-.371-.076-.862-.087-1.354a.661.661,0,0,0-.425-.681,3.338,3.338,0,0,0-2.148-.264.854.854,0,0,0-.6.5,4.255,4.255,0,0,0-.265,2.189,3.4,3.4,0,0,0,.452,1.252.791.791,0,0,0,.473.384,5.184,5.184,0,0,0,.968.034,1.971,1.971,0,0,0,1.132-.359.907.907,0,0,0,.494-.694C2118.544,38.4,2118.533,38.109,2118.533,37.694Z" fill="#2aa680"/>
    <path id="Path_148" data-name="Path 148" d="M2047.567,38.391a2,2,0,0,0,.312,1.412,1.555,1.555,0,0,0,1.313.743,1.606,1.606,0,0,0,1.322-.536.985.985,0,0,1,.753-.3c.572,0,1.144,0,1.716-.011.147,0,.294-.035.441-.033a.432.432,0,0,1,.356.615,5.348,5.348,0,0,1-1.3,1.675,2.865,2.865,0,0,1-1.542.762c-.362.028-.714.182-1.076.209a5.715,5.715,0,0,1-1.359-.024,3.934,3.934,0,0,1-1.6-.464c-.327-.216-.645-.448-.964-.677a3.631,3.631,0,0,1-1.134-1.547,5.679,5.679,0,0,1-.371-1.57,2.965,2.965,0,0,1,.086-1.019,12.166,12.166,0,0,1,.793-2.471,6.781,6.781,0,0,1,1.323-2.1,1.724,1.724,0,0,1,.329-.252,15.219,15.219,0,0,1,1.4-.809,3.863,3.863,0,0,1,3.149-.075,7.079,7.079,0,0,1,1.516.786,3.35,3.35,0,0,1,1.333,2.1c.09.439.2.875.295,1.314a.432.432,0,0,1-.3.562,2.9,2.9,0,0,1-.622.079c-.226.023-.453.044-.68.061-.474.036-.948.084-1.422.1-.918.03-1.836.038-2.754.061-.317.007-.635.023-.95.056a.259.259,0,0,0-.182.154c-.1.391-.181.788-.268,1.183Zm1.1-3.18c.142.011.247.026.352.026.714,0,1.429,0,2.144-.012a.851.851,0,0,0,.362-.124.226.226,0,0,0,.1-.18,1.588,1.588,0,0,0-.8-.807A2.257,2.257,0,0,0,2048.664,35.211Z" fill="#2aa680"/>
    <path id="Path_149" data-name="Path 149" d="M2137.581,37.633c-.392.028-.784.058-1.176.083-.315.021-.408.121-.388.437.016.266.046.531.055.8a1.829,1.829,0,0,0,1.121,1.6,2.778,2.778,0,0,0,.8.3,1.6,1.6,0,0,0,1.389-.536,1.15,1.15,0,0,1,.963-.221c.456.007.912.072,1.369.1.222.013.288.119.252.32-.007.04-.035.093-.019.118.2.316-.028.507-.188.734a3.462,3.462,0,0,1-1.191,1.149,10.564,10.564,0,0,1-1.249.5c-.221.082-.45.145-.679.207a.69.69,0,0,1-.267.024,9.058,9.058,0,0,1-1.526-.227,5.335,5.335,0,0,1-1.883-.908,5.715,5.715,0,0,1-.593-.417,3.623,3.623,0,0,1-.963-2.2,7.149,7.149,0,0,1,.066-2.147,11.4,11.4,0,0,1,.59-2.018,6.769,6.769,0,0,1,1.577-2.075,4.28,4.28,0,0,1,2.311-1.1c.3-.057.614-.093.923-.13a.66.66,0,0,1,.242.021,4.356,4.356,0,0,1,2.008,1.125,4.86,4.86,0,0,1,1.109,1.812,6.023,6.023,0,0,1,.2,1.131c.033.21.045.423.076.633a.392.392,0,0,1-.308.5c-.253.059-.515.085-.774.121-.283.04-.566.089-.851.11-.554.041-1.11.064-1.666.1-.442.026-.884.056-1.326.084Zm-1.038-1.967a1.632,1.632,0,0,0,.4.107q.925-.06,1.848-.145c.261-.023.519-.078.78-.1.313-.027.38-.147.217-.424a1.527,1.527,0,0,0-2.223-.452A10.2,10.2,0,0,0,2136.543,35.666Z" fill="#2aa680"/>
    <path id="Path_150" data-name="Path 150" d="M2081.881,37.619a2.016,2.016,0,0,0,.536,1.528,1.816,1.816,0,0,0,1.02.638,2.6,2.6,0,0,0,1.758-.238.363.363,0,0,1,.562.244c.147.46.267.928.4,1.393.057.207.124.413.16.624a.548.548,0,0,1-.322.541,3.315,3.315,0,0,1-1.938.674,1.1,1.1,0,0,0-.364.05,3.262,3.262,0,0,1-1.624-.062,3.908,3.908,0,0,1-1.845-.9,4.953,4.953,0,0,1-.427-.473.883.883,0,0,0-.109-.132,2.917,2.917,0,0,1-1.155-2.429c0-.18-.033-.359-.048-.539a5.719,5.719,0,0,1,.224-2.084c.116-.4.173-.822.323-1.208a6.319,6.319,0,0,1,1.384-2.408,4.4,4.4,0,0,1,2.4-1.308,4.751,4.751,0,0,1,1.735.022c.525.118,1.043.265,1.561.413a1.644,1.644,0,0,1,.3.189,2.354,2.354,0,0,0,.387.2c.3.106.433.261.349.572-.143.528-.325,1.045-.5,1.565a2.94,2.94,0,0,1-.206.472.39.39,0,0,1-.516.192,4.078,4.078,0,0,0-.9-.323,2.516,2.516,0,0,0-2.077.4,2.145,2.145,0,0,0-.918,1.223C2081.962,36.837,2081.93,37.23,2081.881,37.619Z" fill="#2aa680"/>
    <path id="Path_151" data-name="Path 151" d="M2101.644,38.49a9.834,9.834,0,0,1,.429-2.365,6.313,6.313,0,0,1,1.412-2.773,3.633,3.633,0,0,1,1.925-1.248.315.315,0,0,0,.093-.029,3.626,3.626,0,0,1,2.371-.282,3.216,3.216,0,0,1,.949.279.9.9,0,0,1,.523.946c-.03.621-.046,1.242-.068,1.863,0,.057,0,.115-.009.172-.055.424-.09.448-.479.292a2.888,2.888,0,0,0-2.536.2,1.718,1.718,0,0,0-.612.623,3.368,3.368,0,0,0-.5,2.722,1.433,1.433,0,0,0,.945.885,2.7,2.7,0,0,0,1.494.151,2.822,2.822,0,0,0,.539-.16c.325-.111.647-.228.97-.345.274-.1.407-.061.495.22.191.61.371,1.224.513,1.846a.544.544,0,0,1-.215.43,7.1,7.1,0,0,1-1.872,1.059,3.9,3.9,0,0,1-2.007.189c-.514-.1-1.03-.183-1.545-.275a2.135,2.135,0,0,1-1-.489,4.827,4.827,0,0,1-1.365-1.62,6.823,6.823,0,0,1-.392-1.462A5.589,5.589,0,0,1,2101.644,38.49Z" fill="#2aa680"/>
    <path id="Path_152" data-name="Path 152" d="M2077.072,32.127q-.051.884-.1,1.765a1.011,1.011,0,0,1-.039.218c-.088.323-.146.372-.463.293a2.108,2.108,0,0,0-2.038.931,5.451,5.451,0,0,0-.751,2.806c.017.686.059,1.373.061,2.06,0,.622-.046,1.245-.049,1.868a2.886,2.886,0,0,0,.1.712c.046.176-.052.305-.308.322-.179.011-.359.007-.538.008-.556,0-1.113,0-1.669.01-.2,0-.391.029-.587.042a.928.928,0,0,1-.5-.151c-.474-.243-.327-.633-.34-.991-.014-.393-.022-.788,0-1.182.013-.29.095-.578.106-.868.027-.765.03-1.531.045-2.3.012-.581.037-1.161.042-1.742.009-.956.006-1.912.009-2.868,0-.3.015-.6.006-.907a.641.641,0,0,1,.634-.752c.258-.027.517-.044.775-.074q.56-.068,1.118-.148c.3-.043.563-.033.709.3.019.044.2.068.269.03a3.434,3.434,0,0,1,2.454-.268,5.2,5.2,0,0,1,.642.163c.374.13.4.182.4.57v.148Z" fill="#2aa680"/>
    <path id="Path_153" data-name="Path 153" d="M2128.3,33.1a4.706,4.706,0,0,1,2.032-.817,2.776,2.776,0,0,1,1.825.146.315.315,0,0,1,.212.366c-.028.257.014.521-.01.778-.032.34-.1.675-.149,1.014-.014.1.008.214-.008.317a7.167,7.167,0,0,1-.146.784.317.317,0,0,1-.361.234,3.165,3.165,0,0,0-1.906.463,2.508,2.508,0,0,0-1.343,2.1,11.613,11.613,0,0,0,.009,2.542,8.537,8.537,0,0,1,.038,1c.009.161.057.32.063.481.006.142-.069.214-.231.215-.845.009-1.689.033-2.534.042-.417.005-.447-.014-.48-.434-.032-.392-.019-.787-.032-1.18-.048-1.472-.108-2.943-.144-4.415-.031-1.234-.036-2.47-.054-3.7a2.1,2.1,0,0,1-.013-.317c.083-.567.357-.7.976-.792.51-.075,1.027-.1,1.541-.138.366-.03.577.22.593.692.008.206.02.411.031.616Z" fill="#2aa680"/>
    <path id="Path_154" data-name="Path 154" d="M2146.028,39.856a1.03,1.03,0,0,1,1.021.806,1.88,1.88,0,0,0,.065.184,1.041,1.041,0,0,1-.329,1.312,2.518,2.518,0,0,1-1.283.559.86.86,0,0,1-.619-.248,1.544,1.544,0,0,1,.673-2.539C2145.733,39.9,2145.91,39.874,2146.028,39.856Z" fill="#2aa680"/>
  </g>
</svg>
