<svg xmlns="http://www.w3.org/2000/svg" viewBox="0 0 55.82 58.69"><defs><style>.cls-1{fill:#fff;}.cls-2{fill:#3d7bc9;}</style></defs><title>surveilance-icon</title><g id="Layer_2" data-name="Layer 2"><g id="Layer_1-2" data-name="Layer 1"><path class="cls-1" d="M16.21,47.67c-2.55.28-5,0-6.78-2.2-.81-1-.65-1.9.54-2.39a11.06,11.06,0,0,1,5.86-.48C16,44.31,16.08,46,16.21,47.67Z" transform="translate(-0.25 -0.25)"/><path class="cls-1" d="M43.67,46.36c-2,.78-5.91-1.38-6.66-4l6-.5C43.26,43.4,43.46,44.87,43.67,46.36Z" transform="translate(-0.25 -0.25)"/><path class="cls-2" d="M44.49,32.48c4.85,1.42,7,5.19,8.35,9.61.24.75.23,1.58.4,2.36.12.54.42,1,.49,1.59a4.87,4.87,0,0,1-1.5,4.21c-1.36,1.39-2.64,2.87-4.56,3.49-1.25.4-2.56.62-3.55.86-3.17-.33-5.94-.9-8.23-2.69a10.08,10.08,0,0,1-3.26-5.34,14.78,14.78,0,0,1-.75-4A25.31,25.31,0,0,1,32.52,38a8.59,8.59,0,0,1,6.17-6.08A12.7,12.7,0,0,1,44.49,32.48Zm5.8,10.31A10.07,10.07,0,0,0,45.87,40a2.17,2.17,0,0,0-.88-.07c-.93.09-1.86.23-2.78.35,0,0,0-.06,0-.09-.71.07-1.42.19-2.14.19A6.85,6.85,0,0,0,36,41.69a1.68,1.68,0,0,0-.63,2.53,8.2,8.2,0,0,0,9,3.85A17.31,17.31,0,0,0,50,45.59C51.2,44.78,51.19,43.83,50.29,42.79Z" transform="translate(-0.25 -0.25)"/><path class="cls-2" d="M25.2,38.23a8,8,0,0,1,2.07,6.2c-.12,3.32-.73,6.52-3.18,9a11.16,11.16,0,0,1-9.37,3.5c-3.56-.31-6.24-2.27-8.92-4.36a8.86,8.86,0,0,1-3.07-4.78,4.84,4.84,0,0,1,.36-4.38A20.49,20.49,0,0,0,4.48,40.5c.94-2,2.8-2.94,4.43-4.14,2.16-1.59,4.71-1.91,7.29-2.23,2.1-.25,4.15-.23,5.89,1A28.87,28.87,0,0,1,25.2,38.23Zm-1.84,7.58a.83.83,0,0,0-.23-1.33c-.75-.55-1.39-1.25-2.17-1.73a10.65,10.65,0,0,0-3.34-1.66,13.38,13.38,0,0,0-5.39-.1,7.87,7.87,0,0,0-4.47,2.26,2,2,0,0,0-.46,2.53A8,8,0,0,0,9.17,48c1.71,1.38,3.79,1.54,5.9,1.41h1.58A8.24,8.24,0,0,0,23.36,45.81Z" transform="translate(-0.25 -0.25)"/><path d="M43,41.82l-6,.5c.75,2.66,4.65,4.82,6.66,4C43.46,44.87,43.26,43.4,43,41.82Zm1.3,6.25a8.2,8.2,0,0,1-9-3.85A1.68,1.68,0,0,1,36,41.69a6.85,6.85,0,0,1,4.09-1.31c.72,0,1.43-.12,2.14-.19,0,0,0,.06,0,.09.92-.12,1.85-.26,2.78-.35a2.17,2.17,0,0,1,.88.07,10.07,10.07,0,0,1,4.42,2.79c.9,1,.91,2-.32,2.8A17.31,17.31,0,0,1,44.33,48.07Z" transform="translate(-0.25 -0.25)"/><path d="M9.43,45.47c1.8,2.25,4.23,2.48,6.78,2.2-.13-1.72-.26-3.36-.38-5.07a11.06,11.06,0,0,0-5.86.48C8.78,43.57,8.62,44.45,9.43,45.47Zm7.22,4H15.07c-2.11.13-4.19,0-5.9-1.41A8,8,0,0,1,7.3,45.78a2,2,0,0,1,.46-2.53A7.87,7.87,0,0,1,12.23,41a13.38,13.38,0,0,1,5.39.1A10.65,10.65,0,0,1,21,42.75c.78.48,1.42,1.18,2.17,1.73a.83.83,0,0,1,.23,1.33A8.24,8.24,0,0,1,16.65,49.45Z" transform="translate(-0.25 -0.25)"/><path d="M29.45,41.31c.34-2.54.73-5.08,1-7.63.23-2.05.33-4.12.5-6.18.07-.75-.29-1-1-.95s-1.43.12-2.15.19c-.46,0-.67.26-.59.76.21,1.5.37,3,.61,4.51.36,2.2.8,4.38,1.16,6.58.15.91.19,1.83.29,2.74Zm-2.18,3.12a8,8,0,0,0-2.07-6.2,28.87,28.87,0,0,0-3.11-3c-1.74-1.28-3.79-1.3-5.89-1-2.58.32-5.13.64-7.29,2.23-1.63,1.2-3.49,2.19-4.43,4.14a20.49,20.49,0,0,1-1.39,2.91,4.84,4.84,0,0,0-.36,4.38A8.86,8.86,0,0,0,5.8,52.57c2.68,2.09,5.36,4,8.92,4.36a11.16,11.16,0,0,0,9.37-3.5C26.54,51,27.15,47.75,27.27,44.43Zm8.62,7.48c2.29,1.79,5.06,2.36,8.23,2.69,1-.24,2.3-.46,3.55-.86,1.92-.62,3.2-2.1,4.56-3.49A4.87,4.87,0,0,0,53.73,46c-.07-.54-.37-1-.49-1.59-.17-.78-.16-1.61-.4-2.36-1.37-4.42-3.5-8.19-8.35-9.61a12.7,12.7,0,0,0-5.8-.56A8.59,8.59,0,0,0,32.52,38a25.31,25.31,0,0,0-.64,4.55,14.78,14.78,0,0,0,.75,4A10.08,10.08,0,0,0,35.89,51.91Zm20-7a5.93,5.93,0,0,1-1.48,5.21,17.36,17.36,0,0,1-5.92,5.1,11.92,11.92,0,0,1-8.94.7,23,23,0,0,1-3.87-1.42,10.68,10.68,0,0,1-5.12-6.35c-.35-1-.66-2-1-2.87-.56,1.8-1,3.64-1.7,5.37a12.33,12.33,0,0,1-4.1,5.2,13.23,13.23,0,0,1-5.45,2.85,16.3,16.3,0,0,1-5.53.06c-4.21-.62-7.18-3.26-10-6.1A8,8,0,0,1,.92,47c0-.62.09-1.26-.53-1.73-.14-.1-.15-.46-.13-.7C.51,41,.78,37.38,1,33.77A65.35,65.35,0,0,1,4.38,18.2C5,16.44,5.64,14.72,6.23,13c.69-2,1.31-4.1,2-6.14A2,2,0,0,1,10,5.31a1.37,1.37,0,0,0,1.3-1.18,7.18,7.18,0,0,1,.34-1,1.84,1.84,0,0,1,2.13-1.19c.93.05,1.87-.22,2.8-.19a11.51,11.51,0,0,1,3,.44c.34.1.55.84.68,1.32a1.48,1.48,0,0,0,1.34,1.13c1.94.41,1.55.1,1.85,2,.12.73.31,1.45.45,2.18.09.45.31.61.76.47,1.08-.35,2.14-.76,3.24-1s2.39-.33,3.59-.47c.63-.08,1.42,0,1.84-.29s.27-1.09.34-1.67c.15-1.3.45-1.45,2.26-2,.52-.15.82-.31,1-.83a10.62,10.62,0,0,1,.67-1.6c.2-.4.28-1,1-.75.18.05.51-.36.63-.45,1.28.08,2.45.14,3.6.24a32.59,32.59,0,0,1,3.28.38c.26.05.57.47.66.78a21.79,21.79,0,0,1,.48,2.27A2.05,2.05,0,0,0,48.9,5.51a3.25,3.25,0,0,1,2.34,2.72c.08.39-.06.82,0,1.21.4,2.07.89,4.12,1.25,6.2.48,2.76.88,5.53,1.28,8.3.16,1.12.19,2.25.32,3.37.3,2.66.69,5.31.94,8,.2,2.14.21,4.3.38,6.45A19.74,19.74,0,0,0,55.92,44.88Z" transform="translate(-0.25 -0.25)"/></g></g></svg>