<svg xmlns="http://www.w3.org/2000/svg" viewBox="0 0 59.75 67.17"><defs><style>.cls-1{fill:#3d7bc9;}.cls-2{fill:#f89fbc;}.cls-3{fill:#fff;}.cls-4{fill:#e8ae01;}</style></defs><title>vulnerable-2-icon</title><g id="Layer_2" data-name="Layer 2"><g id="Layer_1-2" data-name="Layer 1"><path class="cls-1" d="M29.85,44.71c-.3.56-.59,1.07-1,1.75L28.1,45Z" transform="translate(-0.25 -0.25)"/><path d="M59.66,37.05A21.91,21.91,0,0,1,60,42c-.28,3.48-.83,6.9-2.8,10a41.78,41.78,0,0,1-5.7,7.45,21.4,21.4,0,0,1-5.79,4.07,40.09,40.09,0,0,1-8.17,3,27.68,27.68,0,0,1-3.86.6c-1.93.18-3.87.25-4.93.32a31.3,31.3,0,0,1-10.83-1.08A31.41,31.41,0,0,1,13.06,64c-1.19-.6-2.34-1.25-3.49-1.92a15.15,15.15,0,0,1-5.93-5.79A25.45,25.45,0,0,1,.77,49.21a24.65,24.65,0,0,1-.52-4.6,2.3,2.3,0,0,1,1.15-2,.91.91,0,0,0,.46-1c-.06-1.64-.21-3.27-.14-4.9A22.05,22.05,0,0,1,4.58,27a30.21,30.21,0,0,1,6.72-8.3,27.65,27.65,0,0,1,5.34-3.54A2,2,0,0,0,18,13.5,7,7,0,0,0,17.93,11,5.56,5.56,0,0,1,19,6.9a4.07,4.07,0,0,1,4.41-2c.55.08,1.12,0,1.68,0A1.85,1.85,0,0,0,26.8,4,9.2,9.2,0,0,1,32.15.37,3.18,3.18,0,0,1,34.78.8c.49.32,1,.59,1.5.91a1.87,1.87,0,0,0,2,.07A13,13,0,0,1,43.55.48a4,4,0,0,1,3.3,1.44,3.76,3.76,0,0,0,1.9,1.31c1.43.38,1.9,1.13,1.68,2.84a4.75,4.75,0,0,0,.39,2.68,8.52,8.52,0,0,1,.25,5.91,1.89,1.89,0,0,1-.72,1.14c-1,.52-.69,1.26-.47,2A17.89,17.89,0,0,0,51,20.62,4.66,4.66,0,0,0,52.22,22,12.53,12.53,0,0,1,55,25.46c.58,1,1.34,1.82,1.82,2.82a35.64,35.64,0,0,1,1.79,4.45A25.76,25.76,0,0,1,59.66,37.05Zm-2.15,9.57a30.43,30.43,0,0,0,.32-7.86,22,22,0,0,0-3.21-10.2c-.67-1-1.41-2-2.11-3a26.86,26.86,0,0,1-2.41,1.28,11.92,11.92,0,0,1-5.88.62l-.61-.07c-.26,0-.63-.05-.78.09a7.54,7.54,0,0,1-4.56,1.94c-.22,0-.55.21-.59.37-.27,1.32-.49,2.66-.73,4a1,1,0,0,0,.57-.27c1.7-1.68,3.4-3.38,5.12-5.05a1.8,1.8,0,0,1,1.54-.62,1.66,1.66,0,0,1,1.16,1.27,1.21,1.21,0,0,1,1.83.16,6.48,6.48,0,0,1,.61,1.91c1.51-.54,2.32-.54,1.62,2.37,1.43-.28,1.83.08,1.78,1.48a4.18,4.18,0,0,1,0,.61,26.61,26.61,0,0,1-4.52,10.18c-1,1.36-1.81,2.78-2.71,4.18a.56.56,0,0,0,.2.9,4.28,4.28,0,0,1,.45.41c.85.76,1.72,1.5,2.55,2.28,1.22,1.15,2.45,2.29,3.59,3.52.52.56.67.7,1.13.09,1.07-1.4,2.15-2.8,3.12-4.27A16.17,16.17,0,0,0,57.51,46.62ZM51.72,24.08a13.84,13.84,0,0,1-1.39-1.27,5.09,5.09,0,0,1-1.13-1.67c-.5-1.67-.85-3.38-1.23-5.08a.35.35,0,0,1,0-.17,1.66,1.66,0,0,1,.26-.39c.29-.35.75-.62.9-1A7.18,7.18,0,0,0,48.8,9a1.19,1.19,0,0,0-.46-.59c-.18-.09-.6-.08-.67,0a9.22,9.22,0,0,0-1.06,2.19,2.13,2.13,0,0,1-1.26,1.53,2,2,0,0,1-1.85-.31c-.41-.3-.78-.65-1.17-1a1.9,1.9,0,0,1-2.33,0c-.54-.6-1-1.31-1.52-2-.16.29-.31.54-.44.81a16.79,16.79,0,0,1-1.21,2.44,2.56,2.56,0,0,1-1.95,1.35h-.2a19.91,19.91,0,0,1-2-.42,10.61,10.61,0,0,1-3.47,4.88l.48.63c.77,1,1,1,1.94.21a3.15,3.15,0,0,0,.57-.52c.47-.65.93-1.3,2-.83,0-.35,0-.6.06-.85a14.87,14.87,0,0,1,.12-1.76c0-.2.28-.37.46-.56l.08-.08c.19.21.48.38.56.62A3.3,3.3,0,0,1,35.62,16c-.07,1.06-.21,2.13-.29,3.19,0,.54,0,1.09,0,1.8a9.51,9.51,0,0,1,1.08-.85,2.47,2.47,0,0,1,.79-.13c0,.3.06.72-.1.87a9.32,9.32,0,0,1-1.81,1.38.6.6,0,0,1-.21.08c-.41.12-.78-.1-.84-.66s-.09-1.07-.11-1.6,0-1.14,0-1.77a20.73,20.73,0,0,1-2.35,1.86,2.31,2.31,0,0,1-1.43.31,2.57,2.57,0,0,1-2.28-2.42c0-.2-.27-.44-.48-.55s-.37.17-.48.33c-.45.63-.88,1.28-1.28,1.95a1,1,0,0,0,0,.62,3.24,3.24,0,0,0,1.42,1.95,1.86,1.86,0,0,0,1.64.51,6.52,6.52,0,0,1,1.38-.07,4.08,4.08,0,0,1,3.12,1.69,1.09,1.09,0,0,0,.88.3,2.66,2.66,0,0,1,.63,0,2.88,2.88,0,0,1,2.65,2c.13.4.18.82.26,1.18a5.07,5.07,0,0,0,5-2.75c.57-1,1.11-2,1.72-3a3.62,3.62,0,0,1,1-1.06c.47-.3.89,0,.8.55A4.34,4.34,0,0,1,45.84,23c-.46.86-1,1.7-1.51,2.67C47,25.54,49.53,26.06,51.72,24.08Zm-2.06,11L49.47,35c-.18.2-.38.38-.54.59-.84,1.13-1.68,2.25-2.49,3.4-.48.67-.95.17-1.32,0s0-.55.14-.8a19.47,19.47,0,0,0,2.65-5.27,6.44,6.44,0,0,0-1.09,1.25c-.75,1.15-1.5,2.31-2.2,3.49-.4.67-.9.28-1.33.14-.1,0-.11-.62,0-.89.16-.46.47-.85.67-1.3.7-1.55,1.38-3.11,2.06-4.67l-.24-.16a17.19,17.19,0,0,0-1.68,2.06c-.82,1.35-1.55,2.76-2.27,4.17a.94.94,0,0,1-1.45.39c-.58-.29-.21-.83,0-1.21.9-1.8,1.83-3.59,2.74-5.39a7,7,0,0,0,.27-.81,2,2,0,0,0-.9.54c-1,1-2,2.07-3,3.16a40.69,40.69,0,0,0-3.24,4c-1.42,2.1-2.59,4.38-4,6.47-.79,1.16-1.22,2.69-2.77,3.2.17.66.37,1.29.49,1.94a.8.8,0,0,1-.74,1,10.4,10.4,0,0,1-1.54-.08,6.52,6.52,0,0,0,.27,1.41c.2.47.07.81-.31.93a2.45,2.45,0,0,1-1.34.06,7.3,7.3,0,0,1-1.5-.76c.18.75.34,1.34.46,1.93.05.25-.08.62.05.78a13,13,0,0,0,1.68,1.64,6.17,6.17,0,0,0,4.26,1.2,11.87,11.87,0,0,0,7.29-3.25A37.4,37.4,0,0,0,43,48.4c1.17-1.61,2.13-3.37,3.29-5C48.11,40.89,48.76,38,49.66,35.09ZM47,61.58c.9-.7,1.8-1.4,2.79-2.19l-7.49-7.27a2.17,2.17,0,0,0-.33.31A10.94,10.94,0,0,1,38,56a14.06,14.06,0,0,0-1.5.76,10.21,10.21,0,0,1-10.22.68,7.52,7.52,0,0,1-3.62-2.61c-.07.09-.13.13-.13.17,0,.35,0,.7.06,1.06,0,.83-.39,1.32-1.19,1.21a1.87,1.87,0,0,1-1-.56,16.34,16.34,0,0,1-2.52-3c-1.21-2.18-2.17-4.5-3.27-6.74-.89-1.81-1.83-3.59-2.75-5.38-.05-.09-.17-.14-.26-.21l-.18.08c.47,1.5.94,3,1.42,4.51s.92,2.69,1.36,4c.06.19.12.48,0,.59a2.52,2.52,0,0,1-.88.75c-.12.05-.49-.34-.63-.59a4.8,4.8,0,0,1-.4-1.08,19.31,19.31,0,0,0-4.06-7.89,6.77,6.77,0,0,0-.56-.51,3.16,3.16,0,0,0,.16,1c.3,1.08.54,2.18.9,3.25.55,1.66,1.16,3.31,1.77,5a.72.72,0,0,1-.44,1c-.43.19-.79.15-1-.34s-.37-.68-.51-1c-.77-1.9-1.5-3.81-2.28-5.69a9,9,0,0,0-.89-1.35l-.23.12a4.13,4.13,0,0,0,.11.86c.71,2.26,1.43,4.52,2.18,6.77.15.47.2.85-.31,1.09s-.93.33-1.25-.25-.58-.9-.82-1.38c-.86-1.73-1.68-3.49-2.57-5.21-.17-.32-.57-.52-1-.88.14,1.07.18,1.92.36,2.73a20.42,20.42,0,0,0,2.27,6c.54.93,1,1.89,1.61,2.8A8.52,8.52,0,0,0,6.8,56.92,13.49,13.49,0,0,0,8.88,59c2,1.25,4,2.36,6,3.5A16,16,0,0,0,18,64.06a34.91,34.91,0,0,0,5.86,1.31,16.36,16.36,0,0,0,6.35-.08,1.68,1.68,0,0,1,.45-.06A39.26,39.26,0,0,0,39.86,64,32,32,0,0,0,45,61.84c.5-.22,1-.79,1.57-.19C46.62,61.71,46.87,61.66,47,61.58ZM36.23,35c-1.86.26-2.39-1.06-2.86-2.18-.49.24-.94.62-1.35.59s-.87-.46-1.42-.79c-.53,1.62-1.06,3.32-1.66,5a2.48,2.48,0,0,1-.89,1.32,1.41,1.41,0,0,1-1.69-.54c-.14-.17-.26-.53-.17-.65a1.21,1.21,0,0,1,.69-.36c.14,0,.33.07.61.15.42-1.13.83-2.26,1.25-3.37l.47-1.23c.24-.62.25-1.39,1-1.72.05,0,0-.26,0-.42-.81.37-1.59.55-2.21-.08a21.8,21.8,0,0,1-2-2.38c-.48-.64-.73-.7-1.31-.12a13.2,13.2,0,0,1-1.76,1.67,3.82,3.82,0,0,0-1.56,3.8l0,.15c.34,1.48.52,3,.78,4.61a7.69,7.69,0,0,1,.65.58c1.41,1.52,2.81,3.06,4.23,4.58.13.14.34.33.49.31,1.44-.17,2.87-.41,3.78-1.7s1.67-2.51,2.48-3.78c.14-.21.23-.45.4-.78a8.7,8.7,0,0,1-.92,0,2.35,2.35,0,0,1-2.2-1.52,1.07,1.07,0,0,1,.35-.92c.17-.12.6.09.9.2.1,0,.13.21.21.32.55.8.86.85,1.7.34.21-.13.51-.34.69-.28C35.65,36,35.88,35.47,36.23,35Zm-.15-5.38A6.49,6.49,0,0,0,36,27.81c-.21-1.29-1.12-1.94-2.13-1.58s-1.28.35-1.94-.65a2.51,2.51,0,0,0-1.77-1.35c-.79-.08-1.6.09-2.4.07A3.43,3.43,0,0,1,26.5,24a1.77,1.77,0,0,1-.61-.58,1.24,1.24,0,0,0-1.57-.33,6.4,6.4,0,0,1-2.14.45c-1.42,0-2,.39-1.85,1.78a1.78,1.78,0,0,1-.8,1.67c-.92.79-2.24,1.19-2.55,2.59,0,.08-.17.12-.22.2a3.56,3.56,0,0,0-.51,1c-.35,1.82-.62,3.67-1,5.49a1.46,1.46,0,0,0,.63,1.67,28.09,28.09,0,0,0,2.76,1.48,11,11,0,0,0,1.55.43c-.16-1.89-.34-3.61-.43-5.33a13.83,13.83,0,0,1,.07-2.73,3.82,3.82,0,0,1,1.65-2.58c.49-.35.95-.73,1.41-1.11s1.13-1,1.73-1.46c.3-.23.72-.32,1-.54s.82-.24,1,.25a9.32,9.32,0,0,0,.83,1.78,16.29,16.29,0,0,0,1.54,1.69c.41-1.14-.12-2.63,1.73-2.62l1.08,3.34.22,0c.06-1.08,0-2.23,1.59-2.3.46,1.56.56,3.33,1.5,4.81h.32C35.71,31.85,35.94,30.71,36.08,29.57ZM28.89,46.46c.37-.68.66-1.19,1-1.75L28.1,45Zm-1.44,1.46.17-.16c-1.13-3-3.76-4.75-5.51-6.95-.91.19-1.68.62-2.22.42a37.11,37.11,0,0,1-5.12-2.37c-1.35-.76-1.49-1.58-.94-3.11a2.41,2.41,0,0,0,.14-.59c.18-1.53.26-3.06.55-4.56.13-.74-.06-1-.67-1.27-1.31-.56-2.61-1.16-3.91-1.74L7.56,26.5c-.74,1.45-1.5,2.85-2.17,4.29a8.66,8.66,0,0,0-.84,2.43c-.32,2.25-.91,4.5-.42,6.81a1,1,0,0,1,0,.3c-.06.47.09.59.59.56A3.34,3.34,0,0,1,6,41.23a1.25,1.25,0,0,1,.34.22A10.35,10.35,0,0,1,7,40a1.1,1.1,0,0,1,1.83-.22A15,15,0,0,1,9.9,41.1c.28-.57.34-.92.56-1.09a3.77,3.77,0,0,1,1.35-.69c.2,0,.58.32.75.59a26.89,26.89,0,0,1,3.19,5.81,56.24,56.24,0,0,0,2.39,5.67,10.69,10.69,0,0,0,3.08,4.07c-.09-.44-.12-.71-.2-1-.3-.81-.59-1.63-.93-2.43-.53-1.27-1.08-2.54-1.66-3.79a.81.81,0,0,1,.34-1.11c.43-.3.64,0,.85.34.4.56.82,1.11,1.19,1.68.6,1,1.16,1.93,1.77,2.87a3.71,3.71,0,0,0,.69.68A14.12,14.12,0,0,0,21,46.65c-.32-.53-.29-.91.17-1.24s.72.12.95.43c.67.94,1.3,1.91,2,2.82.55.7,1.19,1.32,1.78,2l.19-.13a1.29,1.29,0,0,0-.05-.35c-.74-1.37-1.46-2.74-2.25-4.08-.39-.66-.4-.94.21-1.41s.75.16,1,.4.23.4.38.57C26.06,46.41,26.76,47.16,27.45,47.92ZM24.6,21.58c-.25-.23-.44-.53-.7-.62a2.87,2.87,0,0,1-2-2c-.17-.6-.31-1.21-.47-1.83-1.95.9-2.53.82-3.85-.46-3.79,1.92-6.54,5-9.16,8.29,1.64.81,3.15,1.57,4.68,2.3a17,17,0,0,0,2,.79A1.14,1.14,0,0,0,16,28,22.13,22.13,0,0,0,18,26.44a1.63,1.63,0,0,0,.61-.9,3.52,3.52,0,0,1,3.93-3.3A2.43,2.43,0,0,0,24.6,21.58Z" transform="translate(-0.25 -0.25)"/><path class="cls-1" d="M57.83,38.76a30.43,30.43,0,0,1-.32,7.86,16.17,16.17,0,0,1-2.57,6.26c-1,1.47-2,2.87-3.12,4.27-.46.61-.61.47-1.13-.09-1.14-1.23-2.37-2.37-3.59-3.52-.83-.78-1.7-1.52-2.55-2.28a4.28,4.28,0,0,0-.45-.41.56.56,0,0,1-.2-.9c.9-1.4,1.76-2.82,2.71-4.18a26.61,26.61,0,0,0,4.52-10.18,4.18,4.18,0,0,0,0-.61c0-1.4-.35-1.76-1.78-1.48.7-2.91-.11-2.91-1.62-2.37a6.48,6.48,0,0,0-.61-1.91,1.21,1.21,0,0,0-1.83-.16,1.66,1.66,0,0,0-1.16-1.27l0-.38a11.92,11.92,0,0,0,5.88-.62,26.86,26.86,0,0,0,2.41-1.28c.7,1,1.44,2,2.11,3A22,22,0,0,1,57.83,38.76Z" transform="translate(-0.25 -0.25)"/><path class="cls-2" d="M50.33,22.81a13.84,13.84,0,0,0,1.39,1.27c-2.19,2-4.77,1.46-7.39,1.6.55-1,1.05-1.81,1.51-2.67a4.34,4.34,0,0,0,.49-1.26c.09-.56-.33-.85-.8-.55a3.62,3.62,0,0,0-1,1.06c-.61,1-1.15,2-1.72,3a5.07,5.07,0,0,1-5,2.75c-.08-.36-.13-.78-.26-1.18a2.88,2.88,0,0,0-2.65-2l.2-2.43a.6.6,0,0,0,.21-.08,9.32,9.32,0,0,0,1.81-1.38c.16-.15.07-.57.1-.87a2.47,2.47,0,0,0-.79.13,9.51,9.51,0,0,0-1.08.85c0-.71,0-1.26,0-1.8.08-1.06.22-2.13.29-3.19a3.3,3.3,0,0,0-.14-1.21c-.08-.24-.37-.41-.56-.62l-.08.08,0-.77a2.56,2.56,0,0,0,1.95-1.35A16.79,16.79,0,0,0,38,9.7c.13-.27.28-.52.44-.81.54.74,1,1.45,1.52,2a1.9,1.9,0,0,0,2.33,0c.39.32.76.67,1.17,1a2,2,0,0,0,1.85.31l.07.82a.81.81,0,0,0-.43.1,3.29,3.29,0,0,0-.57.7c-.38.44-.73.9-1.14,1.3a15.31,15.31,0,0,1-1.25,1,1.6,1.6,0,0,1-2.68-.68,3.6,3.6,0,0,0-.29-.78c-.15-.2-.48-.45-.64-.4a.94.94,0,0,0-.57.61,3,3,0,0,0,2.63,3l.27,0a7.81,7.81,0,0,0,4.55-3l2.69,1a.35.35,0,0,0,0,.17c.38,1.7.73,3.41,1.23,5.08A5.09,5.09,0,0,0,50.33,22.81Zm-9.45-.1c.18-.15.16-.58.14-.87a.82.82,0,0,0-.61-.13,9.9,9.9,0,0,0-1.44.76c-.62.39-1.21.8-1.8,1.23-.3.21-.55.47-.83.71a3.73,3.73,0,0,1,.16.35,6.69,6.69,0,0,0,2-.33A12.93,12.93,0,0,0,40.88,22.71Z" transform="translate(-0.25 -0.25)"/><path class="cls-3" d="M49.47,35l.19.13c-.9,2.86-1.55,5.8-3.35,8.32-1.16,1.62-2.12,3.38-3.29,5a37.4,37.4,0,0,1-4.53,5.68,11.87,11.87,0,0,1-7.29,3.25,6.17,6.17,0,0,1-4.26-1.2,13,13,0,0,1-1.68-1.64c-.13-.16,0-.53-.05-.78-.12-.59-.28-1.18-.46-1.93a7.3,7.3,0,0,0,1.5.76,2.45,2.45,0,0,0,1.34-.06c.38-.12.51-.46.31-.93a6.52,6.52,0,0,1-.27-1.41,10.4,10.4,0,0,0,1.54.08.8.8,0,0,0,.74-1c-.12-.65-.32-1.28-.49-1.94,1.55-.51,2-2,2.77-3.2,1.43-2.09,2.6-4.37,4-6.47a40.69,40.69,0,0,1,3.24-4c1-1.09,2-2.12,3-3.16a2,2,0,0,1,.9-.54,7,7,0,0,1-.27.81c-.91,1.8-1.84,3.59-2.74,5.39-.18.38-.55.92,0,1.21a.94.94,0,0,0,1.45-.39c.72-1.41,1.45-2.82,2.27-4.17a17.19,17.19,0,0,1,1.68-2.06l.24.16C45.33,32.42,44.65,34,44,35.53c-.2.45-.51.84-.67,1.3-.1.27-.09.86,0,.89.43.14.93.53,1.33-.14.7-1.18,1.45-2.34,2.2-3.49a6.44,6.44,0,0,1,1.09-1.25,19.47,19.47,0,0,1-2.65,5.27c-.19.25-.6.55-.14.8s.84.71,1.32,0c.81-1.15,1.65-2.27,2.49-3.4C49.09,35.34,49.29,35.16,49.47,35Z" transform="translate(-0.25 -0.25)"/><path class="cls-2" d="M48.8,9a7.18,7.18,0,0,1,.35,5.44c-.15.4-.61.67-.9,1a1.66,1.66,0,0,0-.26.39l-2.69-1a4,4,0,0,0,.56-1.24c.06-.17,0-.56-.12-.59a1.12,1.12,0,0,0-.32,0l-.07-.82a2.13,2.13,0,0,0,1.26-1.53,9.22,9.22,0,0,1,1.06-2.19c.07-.11.49-.12.67,0A1.19,1.19,0,0,1,48.8,9Z" transform="translate(-0.25 -0.25)"/><path class="cls-2" d="M49.77,59.39c-1,.79-1.89,1.49-2.79,2.19-.11.08-.36.13-.42.07-.61-.6-1.07,0-1.57.19A32,32,0,0,1,39.86,64a39.26,39.26,0,0,1-9.16,1.25,1.68,1.68,0,0,0-.45.06,16.36,16.36,0,0,1-6.35.08A34.91,34.91,0,0,1,18,64.06a16,16,0,0,1-3.11-1.58c-2-1.14-4.09-2.25-6-3.5A13.49,13.49,0,0,1,6.8,56.92a8.52,8.52,0,0,1-1.06-1.11c-.58-.91-1.07-1.87-1.61-2.8a20.42,20.42,0,0,1-2.27-6c-.18-.81-.22-1.66-.36-2.73.42.36.82.56,1,.88.89,1.72,1.71,3.48,2.57,5.21.24.48.56.91.82,1.38s.77.48,1.25.25.46-.62.31-1.09C6.69,48.64,6,46.38,5.26,44.12a4.13,4.13,0,0,1-.11-.86l.23-.12a9,9,0,0,1,.89,1.35c.78,1.88,1.51,3.79,2.28,5.69.14.35.35.68.51,1s.57.53,1,.34a.72.72,0,0,0,.44-1c-.61-1.65-1.22-3.3-1.77-5-.36-1.07-.6-2.17-.9-3.25a3.16,3.16,0,0,1-.16-1,6.77,6.77,0,0,1,.56.51,19.31,19.31,0,0,1,4.06,7.89,4.8,4.8,0,0,0,.4,1.08c.14.25.51.64.63.59a2.52,2.52,0,0,0,.88-.75c.09-.11,0-.4,0-.59-.44-1.34-.92-2.68-1.36-4s-1-3-1.42-4.51l.18-.08c.09.07.21.12.26.21.92,1.79,1.86,3.57,2.75,5.38,1.1,2.24,2.06,4.56,3.27,6.74a16.34,16.34,0,0,0,2.52,3,1.87,1.87,0,0,0,1,.56c.8.11,1.23-.38,1.19-1.21,0-.36-.05-.71-.06-1.06,0,0,.06-.08.13-.17a7.52,7.52,0,0,0,3.62,2.61,10.21,10.21,0,0,0,10.22-.68A14.06,14.06,0,0,1,38,56,10.94,10.94,0,0,0,42,52.43a2.17,2.17,0,0,1,.33-.31Z" transform="translate(-0.25 -0.25)"/><path d="M45.74,13.06c.1,0,.18.42.12.59a4,4,0,0,1-.56,1.24,7.81,7.81,0,0,1-4.55,3l-.27,0a3,3,0,0,1-2.63-3,.94.94,0,0,1,.57-.61c.16,0,.49.2.64.4a3.6,3.6,0,0,1,.29.78,1.6,1.6,0,0,0,2.68.68,15.31,15.31,0,0,0,1.25-1c.41-.4.76-.86,1.14-1.3a3.29,3.29,0,0,1,.57-.7.81.81,0,0,1,.43-.1A1.12,1.12,0,0,1,45.74,13.06Z" transform="translate(-0.25 -0.25)"/><path class="cls-1" d="M44.22,27.41l0,.38a1.8,1.8,0,0,0-1.54.62c-1.72,1.67-3.42,3.37-5.12,5.05a1,1,0,0,1-.57.27c.24-1.33.46-2.67.73-4,0-.16.37-.34.59-.37a7.54,7.54,0,0,0,4.56-1.94c.15-.14.52-.11.78-.09Z" transform="translate(-0.25 -0.25)"/><path d="M41,21.84c0,.29,0,.72-.14.87a12.93,12.93,0,0,1-2.39,1.72,6.69,6.69,0,0,1-2,.33,3.73,3.73,0,0,0-.16-.35c.28-.24.53-.5.83-.71.59-.43,1.18-.84,1.8-1.23a9.9,9.9,0,0,1,1.44-.76A.82.82,0,0,1,41,21.84Z" transform="translate(-0.25 -0.25)"/><path class="cls-3" d="M33.37,32.77c.47,1.12,1,2.44,2.86,2.18-.35.52-.58,1-1.29.77-.18-.06-.48.15-.69.28-.84.51-1.15.46-1.7-.34-.08-.11-.11-.28-.21-.32-.3-.11-.73-.32-.9-.2a1.07,1.07,0,0,0-.35.92,2.35,2.35,0,0,0,2.2,1.52,8.7,8.7,0,0,0,.92,0c-.17.33-.26.57-.4.78-.81,1.27-1.61,2.55-2.48,3.78s-2.34,1.53-3.78,1.7c-.15,0-.36-.17-.49-.31C25.64,42,24.24,40.48,22.83,39a7.69,7.69,0,0,0-.65-.58c-.26-1.62-.44-3.13-.78-4.61l0-.15,1-.18a2.51,2.51,0,0,0,2.36,1.65,17.12,17.12,0,0,0,2-.68,1.57,1.57,0,0,0,.61-.84l1.4.53c-.42,1.11-.83,2.24-1.25,3.37-.28-.08-.47-.19-.61-.15a1.21,1.21,0,0,0-.69.36c-.09.12,0,.48.17.65a1.41,1.41,0,0,0,1.69.54,2.48,2.48,0,0,0,.89-1.32c.6-1.66,1.13-3.36,1.66-5,.55.33,1,.76,1.42.79S32.88,33,33.37,32.77Zm-4.68,8.46-.84-.53a2.6,2.6,0,0,0-.42-.19,5.79,5.79,0,0,0-1.29-.44,1,1,0,0,0-.72.41c-.07.08.09.5.25.6.57.36,1.18.64,1.92,1Z" transform="translate(-0.25 -0.25)"/><path class="cls-4" d="M36,27.81a6.49,6.49,0,0,1,.08,1.76c-.14,1.14-.37,2.28-.56,3.42H35.2c-.94-1.48-1-3.25-1.5-4.81-1.56.07-1.53,1.22-1.59,2.3l-.22,0-1.08-3.34c-1.85,0-1.32,1.48-1.73,2.62a16.29,16.29,0,0,1-1.54-1.69,9.32,9.32,0,0,1-.83-1.78c-.21-.49-.57-.56-1-.25s-.74.31-1,.54c-.6.46-1.15,1-1.73,1.46s-.92.76-1.41,1.11a3.82,3.82,0,0,0-1.65,2.58,13.83,13.83,0,0,0-.07,2.73c.09,1.72.27,3.44.43,5.33a11,11,0,0,1-1.55-.43,28.09,28.09,0,0,1-2.76-1.48,1.46,1.46,0,0,1-.63-1.67c.36-1.82.63-3.67,1-5.49a3.56,3.56,0,0,1,.51-1c0-.08.21-.12.22-.2.31-1.4,1.63-1.8,2.55-2.59a1.78,1.78,0,0,0,.8-1.67c-.12-1.39.43-1.78,1.85-1.78a6.4,6.4,0,0,0,2.14-.45,1.24,1.24,0,0,1,1.57.33,1.77,1.77,0,0,0,.61.58,3.43,3.43,0,0,0,1.26.31c.8,0,1.61-.15,2.4-.07a2.51,2.51,0,0,1,1.77,1.35c.66,1,.86,1.05,1.94.65S35.79,26.52,36,27.81Z" transform="translate(-0.25 -0.25)"/><path class="cls-2" d="M35.07,22.35l-.2,2.43a2.66,2.66,0,0,0-.63,0,1.09,1.09,0,0,1-.88-.3,4.08,4.08,0,0,0-3.12-1.69l.09-2.32a2.31,2.31,0,0,0,1.43-.31,20.73,20.73,0,0,0,2.35-1.86c0,.63,0,1.2,0,1.77s.05,1.07.11,1.6S34.66,22.47,35.07,22.35Z" transform="translate(-0.25 -0.25)"/><path class="cls-2" d="M34.88,13.49l0,.77c-.18.19-.42.36-.46.56a14.87,14.87,0,0,0-.12,1.76c0,.25,0,.5-.06.85-1-.47-1.5.18-2,.83a3.15,3.15,0,0,1-.57.52c-1,.8-1.17.78-1.94-.21l-.48-.63a10.61,10.61,0,0,0,3.47-4.88,19.91,19.91,0,0,0,2,.42Z" transform="translate(-0.25 -0.25)"/><path class="cls-2" d="M30.33,20.49l-.09,2.32a6.52,6.52,0,0,0-1.38.07,1.86,1.86,0,0,1-1.64-.51,3.24,3.24,0,0,1-1.42-1.95,1,1,0,0,1,0-.62c.4-.67.83-1.32,1.28-1.95.11-.16.4-.38.48-.33s.47.35.48.55A2.57,2.57,0,0,0,30.33,20.49Z" transform="translate(-0.25 -0.25)"/><path class="cls-3" d="M30.22,30.73c0,.16,0,.4,0,.42-.75.33-.76,1.1-1,1.72l-.47,1.23-1.4-.53c.13-.36.16-.69,0-.69a2.36,2.36,0,0,0-1.33.45c-1,.79-1.73.68-2.55-.44-.15-.22-.57-.25-.87-.37-.09.31-.31.66-.24.92l-1,.18a3.82,3.82,0,0,1,1.56-3.8,13.2,13.2,0,0,0,1.76-1.67c.58-.58.83-.52,1.31.12a21.8,21.8,0,0,0,2,2.38C28.63,31.28,29.41,31.1,30.22,30.73Z" transform="translate(-0.25 -0.25)"/><path d="M27.85,40.7l.84.53-1.1.88c-.74-.39-1.35-.67-1.92-1-.16-.1-.32-.52-.25-.6a1,1,0,0,1,.72-.41,5.79,5.79,0,0,1,1.29.44A2.6,2.6,0,0,1,27.85,40.7Z" transform="translate(-0.25 -0.25)"/><path class="cls-2" d="M27.62,47.76l-.17.16c-.69-.76-1.39-1.51-2.08-2.28-.15-.17-.22-.42-.38-.57s-.47-.83-1-.4-.6.75-.21,1.41c.79,1.34,1.51,2.71,2.25,4.08a1.29,1.29,0,0,1,.05.35l-.19.13c-.59-.66-1.23-1.28-1.78-2-.7-.91-1.33-1.88-2-2.82-.23-.31-.45-.78-.95-.43s-.49.71-.17,1.24a14.12,14.12,0,0,1,2.32,6.09,3.71,3.71,0,0,1-.69-.68c-.61-.94-1.17-1.92-1.77-2.87-.37-.57-.79-1.12-1.19-1.68-.21-.3-.42-.64-.85-.34a.81.81,0,0,0-.34,1.11c.58,1.25,1.13,2.52,1.66,3.79.34.8.63,1.62.93,2.43.08.25.11.52.2,1a10.69,10.69,0,0,1-3.08-4.07,56.24,56.24,0,0,1-2.39-5.67,26.89,26.89,0,0,0-3.19-5.81c-.17-.27-.55-.64-.75-.59a3.77,3.77,0,0,0-1.35.69c-.22.17-.28.52-.56,1.09a15,15,0,0,0-1.08-1.36A1.1,1.1,0,0,0,7,40a10.35,10.35,0,0,0-.7,1.49A1.25,1.25,0,0,0,6,41.23a3.34,3.34,0,0,0-1.23-.34c-.5,0-.65-.09-.59-.56a1,1,0,0,0,0-.3c-.49-2.31.1-4.56.42-6.81a8.66,8.66,0,0,1,.84-2.43C6.06,29.35,6.82,28,7.56,26.5l2.38,1.09c1.3.58,2.6,1.18,3.91,1.74.61.26.8.53.67,1.27-.29,1.5-.37,3-.55,4.56a2.41,2.41,0,0,1-.14.59c-.55,1.53-.41,2.35.94,3.11a37.11,37.11,0,0,0,5.12,2.37c.54.2,1.31-.23,2.22-.42C23.86,43,26.49,44.79,27.62,47.76Z" transform="translate(-0.25 -0.25)"/><path d="M27.38,32.88c.12,0,.09.33,0,.69a1.57,1.57,0,0,1-.61.84,17.12,17.12,0,0,1-2,.68,2.51,2.51,0,0,1-2.36-1.65c-.07-.26.15-.61.24-.92.3.12.72.15.87.37.82,1.12,1.51,1.23,2.55.44A2.36,2.36,0,0,1,27.38,32.88Z" transform="translate(-0.25 -0.25)"/><path class="cls-1" d="M23.9,21c.26.09.45.39.7.62a2.43,2.43,0,0,1-2,.66,3.52,3.52,0,0,0-3.93,3.3,1.63,1.63,0,0,1-.61.9A22.13,22.13,0,0,1,16,28a1.14,1.14,0,0,1-.85.1,17,17,0,0,1-2-.79c-1.53-.73-3-1.49-4.68-2.3,2.62-3.32,5.37-6.37,9.16-8.29,1.32,1.28,1.9,1.36,3.85.46.16.62.3,1.23.47,1.83A2.87,2.87,0,0,0,23.9,21Z" transform="translate(-0.25 -0.25)"/></g></g></svg>