<svg xmlns="http://www.w3.org/2000/svg" viewBox="0 0 59.75 67.17"><title>vunerable-icon</title><g id="Layer_2" data-name="Layer 2"><g id="Layer_1-2" data-name="Layer 1"><path d="M28.45,67.11A31.25,31.25,0,0,1,17.63,66a31.57,31.57,0,0,1-4.83-2.26c-1.18-.6-2.33-1.25-3.48-1.91a15.17,15.17,0,0,1-5.93-5.8A24.63,24.63,0,0,1,.52,49,24.56,24.56,0,0,1,0,44.35a2.3,2.3,0,0,1,1.15-2,.91.91,0,0,0,.46-1c-.06-1.63-.22-3.27-.14-4.89a22.1,22.1,0,0,1,2.86-9.68,30.13,30.13,0,0,1,6.72-8.29,27.7,27.7,0,0,1,5.34-3.55,2,2,0,0,0,1.34-1.69,6.69,6.69,0,0,0-.06-2.48,5.64,5.64,0,0,1,1.08-4.12,4.07,4.07,0,0,1,4.4-2c.55.07,1.12,0,1.68,0a1.84,1.84,0,0,0,1.72-.92A9.2,9.2,0,0,1,31.9.11a3.19,3.19,0,0,1,2.63.43c.49.32,1,.6,1.5.92a1.89,1.89,0,0,0,2,.07A12.88,12.88,0,0,1,43.3.22a4,4,0,0,1,3.3,1.45A3.76,3.76,0,0,0,48.5,3c1.43.37,1.89,1.12,1.68,2.83a4.75,4.75,0,0,0,.39,2.68,8.55,8.55,0,0,1,.25,5.92,1.94,1.94,0,0,1-.72,1.13c-1,.53-.69,1.26-.47,2a18.26,18.26,0,0,0,1.08,2.86A4.62,4.62,0,0,0,52,21.76a12.57,12.57,0,0,1,2.75,3.45c.58.95,1.33,1.82,1.82,2.82a37.1,37.1,0,0,1,1.79,4.44,26.88,26.88,0,0,1,1.08,4.33,21.91,21.91,0,0,1,.3,4.91c-.28,3.48-.83,6.89-2.8,10a42.19,42.19,0,0,1-5.7,7.44,21.4,21.4,0,0,1-5.79,4.07,39.54,39.54,0,0,1-8.17,3,29.77,29.77,0,0,1-3.86.6C31.46,67,29.51,67.05,28.45,67.11ZM42,51.86a2.22,2.22,0,0,0-.33.31,11,11,0,0,1-3.94,3.53,13.18,13.18,0,0,0-1.5.76A10.25,10.25,0,0,1,26,57.14a7.61,7.61,0,0,1-3.61-2.61c-.07.09-.13.12-.13.16,0,.35,0,.71.06,1.06,0,.83-.39,1.32-1.19,1.22a1.9,1.9,0,0,1-1.05-.56,16.46,16.46,0,0,1-2.52-3c-1.21-2.17-2.16-4.49-3.26-6.73-.89-1.81-1.83-3.59-2.75-5.38-.05-.09-.17-.14-.26-.21l-.18.08c.47,1.5.93,3,1.42,4.5.44,1.35.92,2.69,1.36,4,.06.19.12.47,0,.59a2.36,2.36,0,0,1-.87.74c-.12,0-.49-.33-.64-.58A5,5,0,0,1,12,49.41,19.19,19.19,0,0,0,8,41.52,6.89,6.89,0,0,0,7.42,41a2.84,2.84,0,0,0,.16,1c.3,1.09.54,2.19.89,3.25.56,1.67,1.17,3.32,1.78,5a.73.73,0,0,1-.44,1,.67.67,0,0,1-1-.35c-.15-.35-.36-.67-.51-1C7.53,48,6.8,46.12,6,44.23a8.14,8.14,0,0,0-.88-1.34L4.89,43a6.27,6.27,0,0,0,.11.87c.72,2.26,1.44,4.52,2.19,6.77.15.47.2.84-.32,1.09s-.92.32-1.24-.26-.58-.9-.82-1.37C4,48.36,3.12,46.61,2.23,44.89c-.16-.33-.57-.53-1-.88.14,1.07.18,1.91.36,2.73a20,20,0,0,0,2.27,6c.54.93,1,1.9,1.61,2.8a7.39,7.39,0,0,0,1.06,1.11,13.13,13.13,0,0,0,2.08,2.07c2,1.25,4,2.36,6,3.5a15.92,15.92,0,0,0,3.11,1.57,32.85,32.85,0,0,0,5.86,1.31A16.3,16.3,0,0,0,30,65a1.83,1.83,0,0,1,.46-.07,38.72,38.72,0,0,0,9.16-1.24,32.5,32.5,0,0,0,5.12-2.15c.5-.21,1-.79,1.58-.18.06.06.31,0,.41-.08.91-.69,1.8-1.4,2.8-2.18Zm7.38-17-.19-.13a7.55,7.55,0,0,0-.54.59c-.84,1.13-1.68,2.25-2.5,3.39-.47.68-.94.18-1.32,0s0-.55.15-.8a19.67,19.67,0,0,0,2.65-5.28,6.74,6.74,0,0,0-1.09,1.25c-.76,1.15-1.5,2.31-2.2,3.49-.4.67-.9.29-1.33.15-.1,0-.11-.62,0-.9.16-.45.47-.85.67-1.29.7-1.55,1.37-3.11,2.06-4.67l-.25-.16a18.12,18.12,0,0,0-1.67,2.06c-.83,1.35-1.55,2.75-2.27,4.16a1,1,0,0,1-1.46.4c-.58-.3-.21-.83,0-1.21.89-1.81,1.83-3.6,2.74-5.4a6.83,6.83,0,0,0,.27-.8,1.9,1.9,0,0,0-.9.53c-1,1-2,2.08-3,3.17a40.94,40.94,0,0,0-3.25,4c-1.42,2.11-2.58,4.38-4,6.48-.79,1.15-1.22,2.69-2.77,3.2.17.66.37,1.29.48,1.93a.79.79,0,0,1-.73,1,12.2,12.2,0,0,1-1.55-.08,7.09,7.09,0,0,0,.28,1.4c.2.47.07.81-.31.94a2.55,2.55,0,0,1-1.34.06,7.94,7.94,0,0,1-1.5-.77c.18.76.34,1.34.46,1.93.05.26-.08.63.05.79a13,13,0,0,0,1.68,1.64A6.15,6.15,0,0,0,31,57.08a11.93,11.93,0,0,0,7.29-3.25,38.54,38.54,0,0,0,4.53-5.68c1.17-1.61,2.13-3.38,3.28-5C47.85,40.64,48.51,37.7,49.41,34.84Zm-.27-1.59c1.43-.28,1.84.07,1.79,1.47a4,4,0,0,1,0,.61,26.54,26.54,0,0,1-4.52,10.18c-1,1.36-1.81,2.79-2.71,4.18a.56.56,0,0,0,.2.9,3.48,3.48,0,0,1,.44.42c.86.76,1.73,1.49,2.56,2.28,1.22,1.15,2.44,2.29,3.58,3.51.53.56.68.7,1.14.1,1.07-1.4,2.15-2.81,3.12-4.27a16.39,16.39,0,0,0,2.57-6.26,30.49,30.49,0,0,0,.32-7.87,21.94,21.94,0,0,0-3.22-10.2c-.67-1-1.4-2-2.1-3-.84.45-1.6.93-2.41,1.28a12.9,12.9,0,0,1-6.49.55c-.26,0-.63-.06-.78.09A7.66,7.66,0,0,1,38,29.12c-.22,0-.56.2-.59.36-.28,1.33-.49,2.66-.73,4a.92.92,0,0,0,.56-.27c1.71-1.69,3.4-3.39,5.13-5.05,1.1-1.06,2.22-.8,2.7.64a1.22,1.22,0,0,1,1.83.17,6.3,6.3,0,0,1,.61,1.91C49,30.34,49.85,30.33,49.14,33.25ZM32.46,12.81A10.61,10.61,0,0,1,29,17.68l.47.63c.77,1,1,1,1.95.21A2.53,2.53,0,0,0,32,18c.48-.65.94-1.3,2-.82,0-.35,0-.6.06-.85a17,17,0,0,1,.11-1.76c.05-.24.36-.43.55-.64.19.2.48.38.56.62a3.47,3.47,0,0,1,.14,1.2c-.07,1.07-.22,2.13-.3,3.2,0,.54,0,1.08,0,1.79a8.5,8.5,0,0,1,1.08-.84,2.47,2.47,0,0,1,.79-.14c0,.3.06.72-.1.87A8.94,8.94,0,0,1,35,22,.66.66,0,0,1,34,21.43c-.06-.53-.1-1.06-.11-1.6s0-1.14,0-1.76a21.78,21.78,0,0,1-2.35,1.85,2.5,2.5,0,0,1-3.71-2.1c0-.2-.27-.44-.48-.56s-.37.17-.48.33c-.45.64-.89,1.28-1.28,1.95a1.11,1.11,0,0,0,0,.63A3.31,3.31,0,0,0,27,22.12a1.87,1.87,0,0,0,1.65.5,4.33,4.33,0,0,1,4.49,1.63,1.14,1.14,0,0,0,.89.3,2.94,2.94,0,0,1,3.28,2,9.76,9.76,0,0,1,.25,1.19,5.05,5.05,0,0,0,5-2.75c.58-1,1.11-2,1.73-3a3.4,3.4,0,0,1,1-1.06c.47-.3.89,0,.8.54a4,4,0,0,1-.5,1.26c-.45.86-.95,1.71-1.5,2.68,2.62-.15,5.2.38,7.39-1.6a13.84,13.84,0,0,1-1.39-1.27A5.13,5.13,0,0,1,49,20.88c-.5-1.66-.86-3.37-1.23-5.07,0-.16.15-.4.28-.56.29-.35.75-.63.89-1a7.16,7.16,0,0,0-.34-5.45,1.13,1.13,0,0,0-.47-.58.75.75,0,0,0-.66,0,10.09,10.09,0,0,0-1.07,2.19,1.91,1.91,0,0,1-3.1,1.22c-.41-.29-.79-.64-1.17-1a1.9,1.9,0,0,1-2.33,0,24,24,0,0,1-1.52-2.06c-.16.3-.31.55-.44.81a16.3,16.3,0,0,1-1.21,2.44,2.4,2.4,0,0,1-2.16,1.34C33.85,13.16,33.28,13,32.46,12.81ZM21.86,40.55c-.91.2-1.68.63-2.22.43a36,36,0,0,1-5.12-2.38c-1.35-.76-1.49-1.58-.94-3.1a2.49,2.49,0,0,0,.14-.6c.17-1.52.26-3.06.54-4.56.14-.73,0-1-.66-1.27-1.31-.55-2.61-1.15-3.91-1.74L7.31,26.24c-.74,1.45-1.5,2.85-2.18,4.29A9,9,0,0,0,4.3,33c-.32,2.25-.92,4.5-.42,6.8a.81.81,0,0,1,0,.31c-.05.47.1.59.6.55A3.39,3.39,0,0,1,5.7,41a1.67,1.67,0,0,1,.34.22,11.48,11.48,0,0,1,.7-1.49,1.1,1.1,0,0,1,1.83-.22,16.6,16.6,0,0,1,1.08,1.36c.28-.56.34-.92.56-1.08a3.56,3.56,0,0,1,1.35-.7c.2,0,.58.33.75.59a27.15,27.15,0,0,1,3.19,5.82,57.22,57.22,0,0,0,2.39,5.67A10.77,10.77,0,0,0,21,55.21a7.78,7.78,0,0,0-.21-1c-.29-.82-.59-1.63-.92-2.43-.54-1.27-1.08-2.54-1.66-3.79a.79.79,0,0,1,.34-1.11c.43-.31.64,0,.85.34.39.56.82,1.1,1.19,1.68.6,1,1.16,1.92,1.76,2.87a5.55,5.55,0,0,0,.69.68A13.93,13.93,0,0,0,20.7,46.4c-.32-.54-.29-.91.17-1.24s.72.12.95.43c.67.93,1.29,1.9,2,2.81.54.7,1.18,1.33,1.78,2l.18-.13a1,1,0,0,0,0-.36c-.74-1.36-1.46-2.74-2.25-4.07-.4-.66-.4-.95.2-1.41s.76.15,1,.4.23.4.38.57l2.08,2.27.17-.15C26.23,44.54,23.61,42.75,21.86,40.55ZM36,34.69c-1.85.27-2.38-1.06-2.85-2.17-.49.23-.94.62-1.35.59s-.87-.47-1.42-.79c-.54,1.62-1.06,3.31-1.67,5a2.4,2.4,0,0,1-.88,1.31,1.43,1.43,0,0,1-1.7-.54c-.13-.16-.25-.52-.16-.65a1.24,1.24,0,0,1,.68-.36c.15,0,.34.08.61.15.58-1.55,1.14-3.08,1.73-4.6.24-.61.24-1.38,1-1.71.05,0,0-.26,0-.43-.82.38-1.59.55-2.21-.07a19.87,19.87,0,0,1-2-2.39c-.48-.63-.73-.69-1.31-.12a13.32,13.32,0,0,1-1.77,1.68,3.82,3.82,0,0,0-1.52,4c.34,1.48.51,3,.78,4.61a6.15,6.15,0,0,1,.64.57c1.42,1.53,2.82,3.06,4.23,4.59.14.14.35.32.5.31,1.44-.18,2.87-.42,3.78-1.71s1.66-2.51,2.48-3.77a8.35,8.35,0,0,0,.39-.79c-.41,0-.66,0-.92,0a2.36,2.36,0,0,1-2.19-1.52,1.09,1.09,0,0,1,.35-.93c.16-.12.6.1.9.21.09,0,.13.21.2.31.56.8.87.86,1.71.35.21-.13.51-.34.69-.28C35.4,35.71,35.63,35.21,36,34.69Zm-1-2h.33c.19-1.14.42-2.27.56-3.42a6.93,6.93,0,0,0-.08-1.76c-.22-1.29-1.13-1.94-2.13-1.57s-1.28.35-1.94-.66A2.54,2.54,0,0,0,29.91,24c-.8-.08-1.61.08-2.41.06a3.74,3.74,0,0,1-1.26-.3,1.94,1.94,0,0,1-.6-.58,1.24,1.24,0,0,0-1.58-.33,6.33,6.33,0,0,1-2.13.44c-1.42,0-2,.4-1.85,1.78a1.81,1.81,0,0,1-.8,1.68c-.92.78-2.25,1.18-2.55,2.58,0,.08-.17.12-.22.21a3.25,3.25,0,0,0-.51.95c-.35,1.83-.62,3.67-1,5.5a1.44,1.44,0,0,0,.62,1.66c.89.55,1.83,1,2.77,1.49a9.73,9.73,0,0,0,1.54.42c-.15-1.89-.33-3.6-.43-5.32a13.81,13.81,0,0,1,.08-2.73,3.82,3.82,0,0,1,1.65-2.58c.48-.36.95-.73,1.41-1.12s1.13-1,1.72-1.45c.31-.24.72-.33,1.05-.55s.82-.23,1,.25a10.1,10.1,0,0,0,.84,1.79,17.38,17.38,0,0,0,1.54,1.69c.41-1.15-.12-2.63,1.73-2.62l1.08,3.34.22,0c.05-1.09,0-2.23,1.59-2.31C33.91,29.48,34,31.24,34.94,32.72Zm-26.75-8c1.64.81,3.15,1.58,4.67,2.3a14.71,14.71,0,0,0,2,.79,1.11,1.11,0,0,0,.84-.09,22.73,22.73,0,0,0,2.1-1.55,1.67,1.67,0,0,0,.61-.91A3.51,3.51,0,0,1,22.33,22a2.44,2.44,0,0,0,2-.67c-.25-.23-.43-.52-.69-.61a2.88,2.88,0,0,1-2-2c-.17-.6-.31-1.21-.47-1.82-1.95.89-2.53.82-3.85-.47C13.56,18.38,10.81,21.43,8.19,24.74ZM28.64,46.21l1-1.75-1.76.28Z"/><path d="M40.23,17.68a3,3,0,0,1-2.63-3,.94.94,0,0,1,.56-.62c.17,0,.5.21.64.4a3.38,3.38,0,0,1,.29.79,1.62,1.62,0,0,0,2.69.68,15,15,0,0,0,1.25-1c.41-.4.76-.85,1.13-1.29.2-.23.33-.55.57-.7a1,1,0,0,1,.76-.06c.1,0,.18.41.12.59A3.75,3.75,0,0,1,45,14.63a7.74,7.74,0,0,1-4.54,3Z"/><path d="M36.09,24.15c.27-.24.53-.5.82-.71.59-.42,1.19-.84,1.81-1.22a10,10,0,0,1,1.44-.77.83.83,0,0,1,.61.14c0,.29,0,.72-.14.87a13.63,13.63,0,0,1-2.39,1.72,6.43,6.43,0,0,1-2,.32Z"/><path d="M24.5,34.83a2.49,2.49,0,0,1-2.36-1.64c-.08-.27.15-.62.24-.93.3.12.71.16.87.37.82,1.12,1.51,1.24,2.55.45a2.36,2.36,0,0,1,1.32-.45c.25,0-.11,1.26-.64,1.52A17.12,17.12,0,0,1,24.5,34.83Z"/><path d="M27.34,41.85c-.74-.38-1.35-.67-1.92-1-.16-.1-.32-.52-.25-.6a1,1,0,0,1,.72-.42,6.34,6.34,0,0,1,1.29.44,3.11,3.11,0,0,1,.41.2c.29.16.57.35.85.52Z"/></g></g></svg>